<?xml version="1.0" encoding="utf-8"?>
<!-- Generator: Adobe Illustrator 18.0.0, SVG Export Plug-In . SVG Version: 6.00 Build 0)  -->
<!DOCTYPE svg PUBLIC "-//W3C//DTD SVG 1.1//EN" "http://www.w3.org/Graphics/SVG/1.1/DTD/svg11.dtd">
<svg version="1.1" id="Layer_1" xmlns="http://www.w3.org/2000/svg" xmlns:xlink="http://www.w3.org/1999/xlink" x="0px" y="0px"
	 viewBox="0 0 80 80" enable-background="new 0 0 80 80" xml:space="preserve">
<g id="Grid" display="none">
</g>
<g id="Icons">
	<g>
		<path fill="#FFFFFF" d="M55.2,17.5H42.3c-2.8,0-7.1,0.4-10.7,3.2l0,0l0,0c-2.4,2.1-3.9,5.1-3.9,8c0,2.4,0.9,4.8,2.7,6.5
			c1.9,1.9,4.4,2.9,7.3,2.9c0.1,0,0.3,0,0.4,0h0.1h0.9l-0.3,0.9c-0.1,0.3-0.1,0.7-0.1,1.2c0,1.1,0.3,2,0.9,2.9l0.5,0.9l-1.1,0.1
			c-2.9,0.3-6.7,0.8-9.7,2.5l-0.1,0.1c-4.3,2.5-4.5,6.3-4.5,7.3c0,2.4,1.2,4.5,3.2,6c2.3,1.7,5.6,2.7,9.7,2.7
			c4.8,0,8.8-1.2,11.7-3.6c2.5-2,4-4.9,4-7.9c0-1.9-0.5-3.5-1.6-4.9c-0.9-1.3-2.1-2.3-3.5-3.3l-0.1-0.1l-2.1-1.6
			c-0.4-0.3-0.7-0.5-0.9-0.9c-0.3-0.4-0.5-0.8-0.5-1.5c0-0.5,0.1-1.1,0.5-1.5c0.3-0.4,0.7-0.8,1.1-1.2l0,0l0,0
			c1.3-1.1,2.5-2,3.3-3.3c1.1-1.5,1.6-3.2,1.6-5.2c0-2.5-0.9-4.8-2.7-6.7l-1.1-1.1h3.2L55.2,17.5z M47.5,50.1
			c1.1,1.2,1.5,2.3,1.5,3.7c0,1.9-0.7,3.3-2.1,4.4c-1.5,1.2-3.6,1.7-6.3,1.7l0,0c-2.9,0-5.6-0.7-7.5-2c-1.9-1.3-2.7-2.9-2.7-4.9
			c0-1.7,0.7-3.1,2-4.3c0.9-0.8,2.1-1.3,2.9-1.6c2.7-0.9,6.1-0.9,6.1-0.9c0.5,0,0.8,0,1.1,0h0.1l0.1,0.1
			C45.1,47.9,46.5,49.1,47.5,50.1z M44.4,34.7c-0.9,0.9-2.5,1.6-3.9,1.6l0,0l0,0c-2.1,0-4-1.2-5.3-3.6c-1.1-1.9-1.7-4.5-1.7-6.7
			c0-1.7,0.4-3.2,1.2-4.3s2.5-1.9,3.9-1.9l0,0l0,0c2.1,0,4,1.3,5.3,3.7c1.1,2,1.9,4.7,1.9,6.9C45.7,32.4,45.3,33.7,44.4,34.7z"/>
	</g>
</g>
</svg>
