<?xml version="1.0" encoding="utf-8"?>
<!-- Generator: Adobe Illustrator 18.0.0, SVG Export Plug-In . SVG Version: 6.00 Build 0)  -->
<!DOCTYPE svg PUBLIC "-//W3C//DTD SVG 1.1//EN" "http://www.w3.org/Graphics/SVG/1.1/DTD/svg11.dtd">
<svg version="1.1" id="Layer_1" xmlns="http://www.w3.org/2000/svg" xmlns:xlink="http://www.w3.org/1999/xlink" x="0px" y="0px"
	 viewBox="0 0 60 60" enable-background="new 0 0 60 60" xml:space="preserve">
<g id="Grid" display="none">
	<rect display="inline" width="60" height="60"/>
</g>
<g id="Icons">
	<path fill="#FFFFFF" d="M51.9,13.7L46.2,8c-1-1-2.3-1.5-3.5-1.5c-1.3,0-2.6,0.5-3.5,1.5l-9.9,10c-0.7,0.7-1.2,1.6-1.6,2.5
		c-0.4,1-0.5,2-0.5,3c0,0.7,0.1,1.4,0.3,2.1l1.4,4.1l-3.1,3.1c-0.4,0.4-0.4,1,0,1.4s1,0.4,1.4,0l2.4-2.4l1,3.1
		c0.1,0.4,0.2,0.9,0.2,1.5c0,0.8-0.1,1.6-0.4,2.3s-0.7,1.4-1.1,1.8l-9.9,9.9c-0.6,0.6-1.3,0.9-2.1,0.9c-0.8,0-1.5-0.3-2.1-0.9
		l-5.7-5.7c-0.6-0.6-0.9-1.3-0.9-2.1s0.3-1.5,0.9-2.1l13.7-13.7l-0.5-2.4L8.1,39.2c-1,1-1.5,2.3-1.5,3.5c0,1.3,0.5,2.6,1.5,3.5
		l5.7,5.7c1,1,2.3,1.5,3.5,1.5c1.3,0,2.6-0.5,3.5-1.5l9.9-9.9c0.7-0.7,1.2-1.6,1.6-2.5c0.4-1,0.5-2,0.5-3c0-0.7-0.1-1.4-0.3-2.1
		l-1.4-4.1l3.1-3.1c0.4-0.4,0.4-1,0-1.4s-1-0.4-1.4,0l-2.4,2.4l-1-3.2c-0.1-0.4-0.2-0.9-0.2-1.5c0-0.8,0.1-1.6,0.4-2.3
		c0.3-0.7,0.7-1.4,1.1-1.8l9.9-9.9c0.6-0.6,1.3-0.9,2.1-0.9s1.5,0.3,2.1,0.9l5.7,5.7c0.6,0.6,0.9,1.3,0.9,2.1s-0.3,1.5-0.9,2.1
		L36.8,33.1l0.5,2.4l14.6-14.6c1-1,1.5-2.3,1.5-3.5C53.4,16,52.9,14.7,51.9,13.7z"/>
</g>
</svg>
