<?xml version="1.0" encoding="utf-8"?>
<!-- Generator: Adobe Illustrator 18.0.0, SVG Export Plug-In . SVG Version: 6.00 Build 0)  -->
<!DOCTYPE svg PUBLIC "-//W3C//DTD SVG 1.1//EN" "http://www.w3.org/Graphics/SVG/1.1/DTD/svg11.dtd">
<svg version="1.1" xmlns="http://www.w3.org/2000/svg" xmlns:xlink="http://www.w3.org/1999/xlink" x="0px" y="0px"
	 viewBox="0 0 60 60" enable-background="new 0 0 60 60" xml:space="preserve">
<g id="Grid" display="none">
	<rect display="inline" width="60" height="60"/>
</g>
<g id="Icons">
	<path fill="#000000" d="M30,12c-11,0-20,7.2-20,16c0,6.6,4.9,12.2,12,14.7c0,0,1.3,2.6,0,5.3c4.2-0.2,6.7-4,6.7-4
		c0.4,0,0.8,0,1.2,0c11,0,20-7.2,20-16C50,19.2,41,12,30,12z M30,42c-0.3,0-0.6,0-0.9,0l-0.3,0l-1.1,0l-0.6,0.9c0,0-0.9,1.4-2.5,2.3
		c-0.1-1.9-0.7-3.3-0.8-3.4L23.4,41l-0.8-0.3C16.2,38.5,12,33.5,12,28c0-7.7,8.1-14,18-14c9.9,0,18,6.3,18,14C48,35.7,39.9,42,30,42
		z M20,24c-2.2,0-4,1.8-4,4s1.8,4,4,4s4-1.8,4-4S22.2,24,20,24z M20,30c-1.1,0-2-0.9-2-2c0-1.1,0.9-2,2-2c1.1,0,2,0.9,2,2
		C22,29.1,21.1,30,20,30z M30,24c-2.2,0-4,1.8-4,4s1.8,4,4,4s4-1.8,4-4S32.2,24,30,24z M30,30c-1.1,0-2-0.9-2-2c0-1.1,0.9-2,2-2
		c1.1,0,2,0.9,2,2C32,29.1,31.1,30,30,30z M40,24c-2.2,0-4,1.8-4,4s1.8,4,4,4s4-1.8,4-4S42.2,24,40,24z M40,30c-1.1,0-2-0.9-2-2
		c0-1.1,0.9-2,2-2c1.1,0,2,0.9,2,2C42,29.1,41.1,30,40,30z"/>
</g>
</svg>
