<?xml version="1.0" encoding="utf-8"?>
<!-- Generator: Adobe Illustrator 18.0.0, SVG Export Plug-In . SVG Version: 6.00 Build 0)  -->
<!DOCTYPE svg PUBLIC "-//W3C//DTD SVG 1.1//EN" "http://www.w3.org/Graphics/SVG/1.1/DTD/svg11.dtd">
<svg version="1.1" id="Layer_1" xmlns="http://www.w3.org/2000/svg" xmlns:xlink="http://www.w3.org/1999/xlink" x="0px" y="0px"
	 viewBox="0 0 60 60" enable-background="new 0 0 60 60" xml:space="preserve">
<g id="Grid" display="none">
	<rect display="inline" width="60" height="60"/>
</g>
<g id="Icons">
	<g>
		<path fill="#FFFFFF" d="M47.8,19.1c-0.2-0.2-0.4-0.4-0.7-0.5l-15.6-7.3l0,0C31,11.1,30.5,11,30,11s-1,0.1-1.5,0.3l0,0l-15.6,7.3
			c-0.1,0.1-0.3,0.1-0.4,0.2l0,0l0,0c-0.1,0.1-0.2,0.1-0.3,0.2c-0.2,0.2-0.4,0.6-0.4,0.9c0,0.4,0.2,0.7,0.4,0.9
			c0.2,0.2,0.4,0.4,0.7,0.5l0,0l15.6,7.3c0.5,0.2,1,0.3,1.5,0.3s1-0.1,1.5-0.3l15.6-7.3c0.2-0.1,0.5-0.3,0.7-0.5s0.4-0.6,0.4-0.9
			C48.2,19.6,48,19.3,47.8,19.1z M30.7,26.9c-0.2,0-0.4,0.1-0.7,0.1s-0.5-0.1-0.7-0.1L14.6,20l14.8-6.9l0,0C29.5,13,29.7,13,30,13
			s0.5,0.1,0.6,0.1l0,0L45.4,20L30.7,26.9z"/>
		<path fill="#FFFFFF" d="M47.1,28.6l-3.2-1.5l-2.4,1.1l3.9,1.8l-14.8,6.9c-0.1,0-0.3,0.1-0.6,0.1s-0.5-0.1-0.7-0.1L14.6,30l3.9-1.8
			l-2.4-1.1l-3.2,1.5c-0.1,0.1-0.3,0.1-0.4,0.2l0,0l0,0c-0.1,0.1-0.2,0.1-0.3,0.2c-0.2,0.2-0.4,0.6-0.4,0.9c0,0.4,0.2,0.7,0.4,0.9
			c0.2,0.2,0.4,0.4,0.7,0.5l0,0l15.6,7.3c0.5,0.2,1,0.3,1.5,0.3s1-0.1,1.5-0.3l15.6-7.3c0.2-0.1,0.5-0.3,0.7-0.5s0.4-0.6,0.4-0.9
			c0-0.4-0.2-0.7-0.4-0.9C47.6,28.8,47.4,28.7,47.1,28.6z"/>
		<path fill="#FFFFFF" d="M47.1,38.6l-3.2-1.5l-2.4,1.1l3.9,1.8l-14.8,6.9C30.5,47,30.3,47,30,47s-0.5-0.1-0.7-0.1L14.6,40l3.9-1.8
			l-2.4-1.1l-3.2,1.5c-0.1,0.1-0.3,0.1-0.4,0.2l0,0l0,0c-0.1,0.1-0.2,0.1-0.3,0.2c-0.2,0.2-0.4,0.6-0.4,0.9c0,0.4,0.2,0.7,0.4,0.9
			s0.4,0.4,0.7,0.5l0,0l15.6,7.3c0.5,0.2,1,0.3,1.5,0.3s1-0.1,1.5-0.3l15.6-7.3c0.2-0.1,0.5-0.3,0.7-0.5s0.4-0.6,0.4-0.9
			c0-0.4-0.2-0.7-0.4-0.9C47.6,38.9,47.4,38.7,47.1,38.6z"/>
	</g>
</g>
</svg>
