<?xml version="1.0" encoding="utf-8"?>
<!-- Generator: Adobe Illustrator 18.0.0, SVG Export Plug-In . SVG Version: 6.00 Build 0)  -->
<!DOCTYPE svg PUBLIC "-//W3C//DTD SVG 1.1//EN" "http://www.w3.org/Graphics/SVG/1.1/DTD/svg11.dtd">
<svg version="1.1" xmlns="http://www.w3.org/2000/svg" xmlns:xlink="http://www.w3.org/1999/xlink" x="0px" y="0px"
	 viewBox="0 0 60 60" enable-background="new 0 0 60 60" xml:space="preserve">
<g id="Grid" display="none">
	<rect x="0" y="0" display="inline" width="60" height="60"/>
</g>
<g id="Icons">
	<path id="Shape_17_" fill="#FFFFFF" d="M42.1,24.1c-1.6,0-3,0.6-4,1.6l-14.2-8.2c0.2-0.4,0.2-1,0.2-1.4c0-3.4-2.6-6-6-6s-6,2.6-6,6
		s2.6,6,6,6c1.6,0,3-0.6,4-1.6l14.2,8.2c-0.2,0.4-0.2,1-0.2,1.4s0,1,0.2,1.4l-14.2,8.4c-1-1-2.4-1.6-4-1.6c-3.2,0-5.8,2.6-5.8,5.8
		s2.6,5.8,5.8,5.8s5.8-2.6,5.8-5.8c0-0.4,0-0.8-0.2-1.4l14.2-8.4c1,1,2.4,1.6,4,1.6c3.4,0,6-2.6,6-6C47.9,26.5,45.5,24.1,42.1,24.1
		L42.1,24.1z"/>
</g>
</svg>
