<?xml version="1.0" encoding="utf-8"?>
<!-- Generator: Adobe Illustrator 18.0.0, SVG Export Plug-In . SVG Version: 6.00 Build 0)  -->
<!DOCTYPE svg PUBLIC "-//W3C//DTD SVG 1.1//EN" "http://www.w3.org/Graphics/SVG/1.1/DTD/svg11.dtd">
<svg version="1.1" xmlns="http://www.w3.org/2000/svg" xmlns:xlink="http://www.w3.org/1999/xlink" x="0px" y="0px"
	 viewBox="0 0 60 60" enable-background="new 0 0 60 60" xml:space="preserve">
<g id="Grid" display="none">
	<rect display="inline" width="60" height="60"/>
</g>
<g id="Icons">
	<path fill="#FFFFFF" d="M48,32.8v-5.6l-4.6-1.1c-0.3-1-0.7-2-1.2-2.9l2.5-4l-4-4l-4,2.5c-0.9-0.5-1.9-0.9-2.9-1.2L32.8,12h-5.6
		l-1.1,4.6c-1,0.3-2,0.7-2.9,1.2l-4-2.5l-4,3.9l2.5,4c-0.5,0.9-0.9,1.9-1.2,2.9L12,27.2v5.6l4.6,1.1c0.3,1,0.7,2,1.2,2.9l-2.5,4
		l4,3.9l4-2.5c0.9,0.5,1.9,0.9,2.9,1.2l1.1,4.6l5.6,0l1.1-4.6c1-0.3,2-0.7,2.9-1.2l4,2.5l3.9-4l-2.5-4c0.5-0.9,0.9-1.9,1.2-2.9
		L48,32.8z M42.2,40.4l-1.7,1.7l-3.7-2.3l-0.5,0.3c-1.1,0.7-2.2,1.1-3.5,1.4l-0.6,0.1l-1,4.2h-2.4l-1-4.2l-0.6-0.1
		c-1.2-0.3-2.4-0.8-3.5-1.4l-0.5-0.3l-3.7,2.3l-1.7-1.7l2.3-3.7l-0.3-0.5c-0.7-1.1-1.1-2.2-1.4-3.5l-0.1-0.6l-4.2-1v-2.4l4.2-1
		l0.1-0.6c0.3-1.2,0.8-2.4,1.4-3.5l0.3-0.5l-2.3-3.7l1.7-1.7l3.7,2.3l0.5-0.3c1.1-0.7,2.2-1.1,3.5-1.4l0.6-0.1l0.1-0.6l0,0l0.8-3.6
		h2.4l0.8,3.6l0,0l0,0l0.1,0.6l0.6,0.1c1.2,0.3,2.4,0.8,3.5,1.4l0.5,0.3l3.7-2.3l1.7,1.7l-2.3,3.7l0.3,0.5c0.7,1.1,1.1,2.2,1.4,3.5
		l0.1,0.6l4.2,1v2.4l-4.2,1l-0.1,0.6c-0.3,1.2-0.8,2.4-1.4,3.5l-0.3,0.5L42.2,40.4z M30,24c-3.3,0-6,2.7-6,6c0,3.3,2.7,6,6,6
		c3.3,0,6-2.7,6-6C36,26.7,33.3,24,30,24z M30,34c-2.2,0-4-1.8-4-4c0-2.2,1.8-4,4-4c2.2,0,4,1.8,4,4C34,32.2,32.2,34,30,34z"/>
</g>
</svg>
