<?xml version="1.0" encoding="utf-8"?>
<!-- Generator: Adobe Illustrator 18.0.0, SVG Export Plug-In . SVG Version: 6.00 Build 0)  -->
<!DOCTYPE svg PUBLIC "-//W3C//DTD SVG 1.1//EN" "http://www.w3.org/Graphics/SVG/1.1/DTD/svg11.dtd">
<svg version="1.1" xmlns="http://www.w3.org/2000/svg" xmlns:xlink="http://www.w3.org/1999/xlink" x="0px" y="0px"
	 viewBox="0 0 60 60" enable-background="new 0 0 60 60" xml:space="preserve">
<g id="Grid" display="none">
	<rect display="inline" width="60" height="60"/>
</g>
<g id="Icons">
	<path fill="#000000" d="M31.8,37.9V22.2c0-0.6,0.5-1,1-1h1.5v-2h-8.6v2h1.5c0.6,0,1,0.5,1,1l0,0v15.6l0,0c0,0.6-0.5,1-1,1h-1.5v2
		h8.6v-2h-1.5C32.2,38.9,31.8,38.4,31.8,37.9z M42,12H18c-3.3,0-6,2.7-6,6v24c0,3.3,2.7,6,6,6h24c3.3,0,6-2.7,6-6V18
		C48,14.7,45.3,12,42,12z M46,42c0,2.2-1.8,4-4,4H18c-2.2,0-4-1.8-4-4V18c0-2.2,1.8-4,4-4h24c2.2,0,4,1.8,4,4V42z"/>
</g>
</svg>
