<?xml version="1.0" encoding="utf-8"?>
<!-- Generator: Adobe Illustrator 18.0.0, SVG Export Plug-In . SVG Version: 6.00 Build 0)  -->
<!DOCTYPE svg PUBLIC "-//W3C//DTD SVG 1.1//EN" "http://www.w3.org/Graphics/SVG/1.1/DTD/svg11.dtd">
<svg version="1.1" xmlns="http://www.w3.org/2000/svg" xmlns:xlink="http://www.w3.org/1999/xlink" x="0px" y="0px"
	 viewBox="0 0 60 60" enable-background="new 0 0 60 60" xml:space="preserve">
<g id="Grid" display="none">
	<rect display="inline" width="60" height="60"/>
</g>
<g id="Icons">
	<path fill="#FFFFFF" d="M40.2,31.7l2.6,2.6c2.3,2.3,2.3,6.2,0,8.5c-2.3,2.3-6.2,2.3-8.5,0l-7.1-7.1c-2.3-2.3-2.3-6.2,0-8.5
		c1.1-1.1,2.5-1.7,3.9-1.7l-3.3-3.3c-1.3,0.5-2.4,1.2-3.4,2.2c-3.9,3.9-3.9,10.3,0,14.1l7.1,7.1c3.9,3.9,10.3,3.9,14.1,0
		s3.9-10.3,0-14.1l-5.2-5.2C40.8,28,40.7,29.9,40.2,31.7z M14.5,14.4c-3.9,3.9-3.9,10.3,0,14.1l5.2,5.2c-0.4-1.8-0.3-3.7,0.2-5.5
		l-2.6-2.6c-2.3-2.3-2.3-6.2,0-8.5s6.2-2.3,8.5,0l7.1,7.1c2.3,2.3,2.3,6.2,0,8.5c-1.1,1.1-2.5,1.7-3.9,1.7l3.3,3.3
		c1.3-0.5,2.4-1.2,3.4-2.2c3.9-3.9,3.9-10.3,0-14.1l-7.1-7.1C24.8,10.6,18.4,10.6,14.5,14.4z"/>
</g>
</svg>
