<?xml version="1.0" encoding="utf-8"?>
<!-- Generator: Adobe Illustrator 18.0.0, SVG Export Plug-In . SVG Version: 6.00 Build 0)  -->
<!DOCTYPE svg PUBLIC "-//W3C//DTD SVG 1.1//EN" "http://www.w3.org/Graphics/SVG/1.1/DTD/svg11.dtd">
<svg version="1.1" id="Layer_1" xmlns="http://www.w3.org/2000/svg" xmlns:xlink="http://www.w3.org/1999/xlink" x="0px" y="0px"
	 width="60px" height="60px" viewBox="0 0 60 60" enable-background="new 0 0 60 60" xml:space="preserve">
<g id="Grid" display="none">
	<rect display="inline" width="60" height="60"/>
</g>
<g id="Icons">
	<g>
		<path fill="#FFFFFF" d="M30,10c-11,0-20,9-20,20s9,20,20,20s20-9,20-20S41,10,30,10z M43.8,22H39c-0.5-1.9-1.1-3.7-1.8-5.2
			c-0.3-0.5-0.5-1-0.8-1.4C39.6,16.7,42.1,19,43.8,22z M32.9,45.7C32.8,45.7,32.8,45.7,32.9,45.7c-0.7,0.2-1.3,0.2-1.9,0.3v-8h6
			c-0.4,1.6-0.9,3-1.5,4.2C34.7,43.7,33.8,44.9,32.9,45.7z M27.1,45.7c-1.4-1.2-2.7-3.3-3.7-6.1c-0.2-0.5-0.3-1.1-0.5-1.6h6v7.9
			C28.4,45.9,27.8,45.8,27.1,45.7C27.2,45.7,27.2,45.7,27.1,45.7z M27,14.3c0.6-0.1,1.3-0.2,2-0.2V22h-6c0.4-1.6,0.9-3.1,1.6-4.3
			C25.3,16.2,26.1,15.1,27,14.3z M36.5,20.2c0.2,0.6,0.4,1.2,0.5,1.8h-6v-8c0.7,0,1.3,0.1,2,0.2C34.3,15.5,35.6,17.5,36.5,20.2z
			 M37.5,24c0.3,1.6,0.5,3.2,0.5,5h-7v-5H37.5z M29,24v5h-7c0-1.8,0.2-3.4,0.5-5H29z M20,29h-6c0.1-1.8,0.5-3.4,1.1-5h5.3
			C20.2,25.6,20.1,27.2,20,29z M20,31c0.1,1.7,0.2,3.4,0.5,5h-5.3c-0.6-1.6-1-3.2-1.1-5H20z M22,31h7v5h-6.5
			C22.3,34.4,22.1,32.7,22,31z M31,36v-5h7c-0.1,1.8-0.2,3.4-0.5,5H31z M40,31h6c-0.1,1.8-0.5,3.4-1.1,5h-5.4
			C39.7,34.4,39.9,32.7,40,31z M40,29c0-1.7-0.2-3.4-0.5-5h5.3c0.6,1.6,1,3.2,1.1,5H40z M23.6,15.3c-0.8,1.2-1.4,2.6-2,4.2
			c-0.3,0.8-0.5,1.6-0.7,2.4h-4.7C17.9,19.1,20.4,16.7,23.6,15.3z M16.2,38H21c0.5,1.9,1.1,3.6,1.8,5.1c0.3,0.6,0.6,1.1,1,1.6
			C20.5,43.3,17.9,41,16.2,38z M36.3,44.7c0.8-1.3,1.5-2.8,2.1-4.4c0.2-0.7,0.5-1.5,0.7-2.3h4.8C42.1,40.9,39.5,43.3,36.3,44.7z"/>
	</g>
</g>
</svg>
