<?xml version="1.0" encoding="utf-8"?>
<!-- Generator: Adobe Illustrator 18.0.0, SVG Export Plug-In . SVG Version: 6.00 Build 0)  -->
<!DOCTYPE svg PUBLIC "-//W3C//DTD SVG 1.1//EN" "http://www.w3.org/Graphics/SVG/1.1/DTD/svg11.dtd">
<svg version="1.1" id="Layer_1" xmlns="http://www.w3.org/2000/svg" xmlns:xlink="http://www.w3.org/1999/xlink" x="0px" y="0px"
	 viewBox="0 0 60 60" enable-background="new 0 0 60 60" xml:space="preserve">
<g id="Grid" display="none">
	<rect display="inline" width="60" height="60"/>
</g>
<g id="Icons">
	<path fill="#FFFFFF" d="M30,7.5c-13.8,0-25,9-25,20c0,8.2,6.2,15.3,15,18.3c0,0,1.6,3.3,0,6.7c5.3-0.2,8.4-5.1,8.4-5.1
		c0.5,0,1,0.1,1.6,0.1c13.8,0,25-9,25-20C55,16.4,43.8,7.5,30,7.5z M30,45.5c-0.4,0-0.7,0-1.1,0h-0.4h-1.1l-0.6,0.9
		c0,0-1.5,2.3-4,3.5c0.1-2.7-0.9-4.7-0.9-4.9l-0.4-0.7L20.7,44C12.4,41.1,7,34.6,7,27.5c0-9.9,10.3-18,23-18s23,8.1,23,18
		S42.7,45.5,30,45.5z M18,24c-2.2,0-4,1.8-4,4s1.8,4,4,4s4-1.8,4-4S20.2,24,18,24z M18,30c-1.1,0-2-0.9-2-2s0.9-2,2-2s2,0.9,2,2
		S19.1,30,18,30z M30,24c-2.2,0-4,1.8-4,4s1.8,4,4,4s4-1.8,4-4S32.2,24,30,24z M30,30c-1.1,0-2-0.9-2-2s0.9-2,2-2s2,0.9,2,2
		S31.1,30,30,30z M42,24c-2.2,0-4,1.8-4,4s1.8,4,4,4s4-1.8,4-4S44.2,24,42,24z M42,30c-1.1,0-2-0.9-2-2s0.9-2,2-2s2,0.9,2,2
		S43.1,30,42,30z"/>
</g>
</svg>
