<?xml version="1.0" encoding="utf-8"?>
<!-- Generator: Adobe Illustrator 18.0.0, SVG Export Plug-In . SVG Version: 6.00 Build 0)  -->
<!DOCTYPE svg PUBLIC "-//W3C//DTD SVG 1.1//EN" "http://www.w3.org/Graphics/SVG/1.1/DTD/svg11.dtd">
<svg version="1.1" id="Layer_1" xmlns="http://www.w3.org/2000/svg" xmlns:xlink="http://www.w3.org/1999/xlink" x="0px" y="0px"
	 viewBox="0 0 420 120" enable-background="new 0 0 420 120" xml:space="preserve">
<g>
	<path d="M404.4,45.8l-12,37.6h-0.2l-12.4-37.6h-15.3V24.9h-15.1v75.8h15.1V48L383,97.3c0.4,1.1,0.6,2.2,0.6,3.4
		c0,3.4-1.9,6.5-5.8,6.9c-3,0.1-5.9-0.2-8.8-0.5v12.4c3.1,0.3,6.2,0.5,9.2,0.5c10.3,0,15.6-3.6,18.9-12.4L420,45.8H404.4z"/>
	<path d="M187,45.8h-10.4v-3.3c0-4.6,1.6-6.3,5.7-6.3c1.8,0,3.7,0.1,5.5,0.3V25.3c-2.5-0.1-5.3-0.4-8-0.4
		c-12.3,0-18.4,6.9-18.4,16.7v4.3h-9v10.1h9v44.8h15.1V55.9H187V45.8z"/>
	<path d="M331,52.5h-0.2c-3.4-5.4-9.8-8.2-16.2-8.2c-14.9,0-23,11.7-24.2,25.1c-1.6-13.8-10.6-25.1-26.5-25.1
		c-14.6,0-25.2,9.7-27.5,23.2c-2.2-12.9-11.1-23.2-26.2-23.2c-16.7,0-28,12.5-28,29c0,17,10.7,28.9,28,28.9
		c12.4,0,21.4-5.4,25.7-18.5h-13.3c-1,3.4-5.8,7.1-11.9,7.1c-8.5,0-13.1-4.2-13.5-13.9h38.8c1.4,15,11.8,25.3,27.9,25.3
		c12.4,0,21.4-5.4,25.7-18.5h-13.3c-1,3.4-5.8,7.1-11.9,7.1c-8.5,0-13.1-4.2-13.5-13.9h39.5c1.3,13.6,9.4,25.3,24.4,25.3
		c7.1,0,13.2-2.5,16.7-8.5h0.2v7h14.3V24.9H331V52.5z M197.3,67.3c0.3-4.2,2.8-11.7,12.5-11.7c7.3,0,10.6,4,12,11.7H197.3z
		 M251,67.3c0.3-4.2,2.8-11.7,12.5-11.7c7.3,0,10.6,4,12,11.7H251z M318.6,90.8c-9.3,0-13.3-9-13.3-17.6c0-8.9,3.4-17.5,13.3-17.5
		c9.8,0,13,8.5,13,17.4C331.6,82.1,328.5,90.8,318.6,90.8z"/>
	<path d="M73.7,4.1c-5.4-5.5-14.4-5.5-19.8,0L4.1,53.9c-5.4,5.5-5.4,14.4,0,19.8l35.5,35.5c2.5,2.2,5.7,3.5,9.2,3.5h29.8
		c3.9,0,7.4-1.6,10-4.1l34.8-34.8c5.4-5.5,5.4-14.4,0-19.8L73.7,4.1z"/>
</g>
<g>
	<path fill="#FFFFFF" d="M72.3,95l-5,5c-0.4,0.4-0.9,0.6-1.4,0.6h-4.3c-0.5,0-1-0.2-1.3-0.5L55.3,95c-0.8-0.8-0.8-2,0-2.8l7.1-7.1
		c0.8-0.8,2.1-0.8,2.8,0l7.1,7.1C73.1,93,73.1,94.3,72.3,95z M72.3,65.2L52.4,85.1c-0.4,0.4-0.9,0.6-1.4,0.6h-4.3
		c-0.5,0-1-0.2-1.3-0.5l-5.1-5.1c-0.8-0.8-0.8-2.1,0-2.8l22-22c0.8-0.8,2.1-0.8,2.8,0l7.1,7.1C73.1,63.2,73.1,64.5,72.3,65.2z
		 M72.3,35.4L37.5,70.2c-0.4,0.4-0.9,0.6-1.4,0.6h-4.3c-0.5,0-1-0.2-1.3-0.5l-5.1-5.1c-0.8-0.8-0.8-2,0-2.8l36.9-36.9
		c0.8-0.8,2-0.8,2.8,0l7.1,7.1C73.1,33.4,73.1,34.7,72.3,35.4z"/>
</g>
</svg>
