<?xml version="1.0" encoding="utf-8"?>
<!-- Generator: Adobe Illustrator 18.0.0, SVG Export Plug-In . SVG Version: 6.00 Build 0)  -->
<!DOCTYPE svg PUBLIC "-//W3C//DTD SVG 1.1//EN" "http://www.w3.org/Graphics/SVG/1.1/DTD/svg11.dtd">
<svg version="1.1" xmlns="http://www.w3.org/2000/svg" xmlns:xlink="http://www.w3.org/1999/xlink" x="0px" y="0px"
	 viewBox="0 0 60 60" enable-background="new 0 0 60 60" xml:space="preserve">
<g id="Grid" display="none">
	<rect display="inline" width="60" height="60"/>
</g>
<g id="Icons">
	<path fill="#FFFFFF" d="M49.7,17.7c-1.4,0.6-3,1.1-4.6,1.3c1.7-1,2.9-2.6,3.5-4.5c-1.6,0.9-3.3,1.6-5.1,2c-1.5-1.6-3.6-2.5-5.9-2.5
		c-4.5,0-8.1,3.6-8.1,8.1c0,0.6,0.1,1.2,0.2,1.8c-6.7-0.3-12.7-3.6-16.6-8.4c-0.7,1.2-1.1,2.6-1.1,4.1c0,2.8,1.4,5.3,3.6,6.7
		c-1.3,0-2.6-0.4-3.7-1l0,0.1c0,3.9,2.8,7.2,6.5,7.9c-0.7,0.2-1.4,0.3-2.1,0.3c-0.5,0-1-0.1-1.5-0.1c1,3.2,4,5.5,7.5,5.6
		c-2.8,2.2-6.2,3.5-10,3.5c-0.7,0-1.3,0-1.9-0.1c3.6,2.3,7.8,3.6,12.4,3.6c14.8,0,23-12.3,23-23c0-0.4,0-0.7,0-1
		C47.2,20.7,48.6,19.3,49.7,17.7z M38.2,37.1c-2.7,3.1-9.5,8.5-20.3,6.4c2-0.4,7.1-3.4,8.3-6l0,0c-3-0.1-7.1-0.6-8.5-2.6
		c2.2-0.5,4.5-1.3,5.1-2.8c-2.4-0.2-4.1-0.6-5.3-1.2c-0.1-0.1-0.3-0.1-0.4-0.2c0,0-0.1,0-0.1-0.1c-0.1-0.1-0.2-0.1-0.4-0.2
		c-1.7-1.1-2.2-2.4-2.4-3c2.2,0,3.7-0.3,5-0.8c-0.4-0.1-0.8-0.3-1.4-0.7c-1.8-1.1-4.2-3.2-4-6.7c4.3,3.9,9.8,6.3,15.6,6.6
		c1.1,0,2,0,2.7,0c-0.2-0.7-0.4-1.5-0.6-2.5h0c-0.1-0.4-0.1-0.9-0.1-1.3c0-3.3,2.7-6.1,6.1-6.1c1.2,0,2.4,0.4,3.4,1
		c2.5,1.8,2.7,4.1,2.7,6.1C43.6,28.1,41.7,33.2,38.2,37.1z"/>
</g>
</svg>
