<?xml version="1.0" encoding="utf-8"?>
<!-- Generator: Adobe Illustrator 18.0.0, SVG Export Plug-In . SVG Version: 6.00 Build 0)  -->
<!DOCTYPE svg PUBLIC "-//W3C//DTD SVG 1.1//EN" "http://www.w3.org/Graphics/SVG/1.1/DTD/svg11.dtd">
<svg version="1.1" id="Layer_1" xmlns="http://www.w3.org/2000/svg" xmlns:xlink="http://www.w3.org/1999/xlink" x="0px" y="0px"
	 width="225px" height="190px" viewBox="0 0 225 190" enable-background="new 0 0 225 190" xml:space="preserve">
<path fill="#FFFFFF" d="M175.5,88.7c-0.9,0-1.7,0-2.6,0.1c0.1-1.2,0.1-2.4,0.1-3.6c0-17.1-9.2-32.1-23-40.2
	c-6.9-4.1-14.9-6.4-23.4-6.4c-0.1,0-0.1,0-0.2,0c-21.3,0-39.3,14.3-44.9,33.9c-3.6-6.1-10.3-10.3-17.9-10.3
	c-11.5,0-20.8,9.3-20.8,20.8c0,0.7,0,1.3,0.1,2c-14.3,4-24.8,17.1-24.8,32.7c0,18.7,15.2,33.9,33.8,33.9h123.5l0.1-0.4
	c17.3-0.1,31.3-13.8,31.3-31.1C206.9,102.7,192.8,88.7,175.5,88.7z M123.5,130.1l-4.3,4.3c-0.3,0.3-0.8,0.5-1.2,0.5h-3.7
	c-0.4,0-0.8-0.2-1.2-0.4l-4.4-4.4c-0.7-0.7-0.7-1.8,0-2.5l6.2-6.2c0.7-0.7,1.8-0.7,2.5,0l6.2,6.2
	C124.2,128.3,124.2,129.4,123.5,130.1z M123.5,104.1l-17.4,17.4c-0.3,0.3-0.8,0.5-1.2,0.5h-3.7c-0.4,0-0.8-0.2-1.2-0.4l-4.4-4.4
	c-0.7-0.7-0.7-1.8,0-2.5l19.2-19.2c0.7-0.7,1.8-0.7,2.5,0l6.2,6.2C124.2,102.3,124.2,103.4,123.5,104.1z M123.5,78l-30.4,30.4
	c-0.3,0.3-0.8,0.5-1.2,0.5h-3.7c-0.4,0-0.8-0.2-1.2-0.4l-4.4-4.4c-0.7-0.7-0.7-1.8,0-2.5l32.3-32.3c0.7-0.7,1.8-0.7,2.5,0l6.2,6.2
	C124.2,76.2,124.2,77.3,123.5,78z"/>
</svg>
