<?xml version="1.0" encoding="utf-8"?>
<!-- Generator: Adobe Illustrator 18.0.0, SVG Export Plug-In . SVG Version: 6.00 Build 0)  -->
<!DOCTYPE svg PUBLIC "-//W3C//DTD SVG 1.1//EN" "http://www.w3.org/Graphics/SVG/1.1/DTD/svg11.dtd">
<svg version="1.1" xmlns="http://www.w3.org/2000/svg" xmlns:xlink="http://www.w3.org/1999/xlink" x="0px" y="0px"
	 viewBox="0 0 60 60" enable-background="new 0 0 60 60" xml:space="preserve">
<g id="Grid" display="none">
	<rect display="inline" width="60" height="60"/>
</g>
<g id="Icons">
	<path fill="#FFFFFF" d="M46.8,34.5c0,2.4,0,4.9,0,7.3c0.6,0,1.2-0.1,1.8-0.1c0.1-2.4,0.1-4.8,0-7.1C48,34.6,47.4,34.5,46.8,34.5z
		 M48.6,17.3c-1,0-2.1-0.1-3.1-0.1c0-0.6,0-1.2,0-1.8c-3.9,0-7.9,0-11.8,0v3.2c2.9,0,5.8,0,8.6,0c0,0.6,0,1.2,0,1.8
		c-2.9,0-5.8,0-8.6,0v2.3c2.9,0,5.8,0,8.6,0c0,0.6,0,1.2,0,1.8c-2.9,0-5.8,0-8.6,0v2.3c2.9,0,5.8,0,8.6,0c0,0.6,0,1.2,0,1.8
		c-2.9,0-5.8,0-8.6,0v2.3c2.9,0,5.8,0,8.6,0c0,0.6,0,1.2,0,1.8c-2.9,0-5.8,0-8.6,0V35c2.9,0,5.8,0,8.6,0c0,0.6,0,1.2,0,1.8
		c-2.9,0-5.8,0-8.6,0v2.3c2.9,0,5.8,0,8.6,0c0,0.6,0,1.2,0,1.8c-2.9,0-5.8,0-8.6,0v3.6c3.9,0,7.9,0,11.8,0c0-6.7,0-13.3,0-20
		c1,0,2.1,0,3.1-0.1C48.6,22.1,48.6,19.7,48.6,17.3z M24,32.5c-1.7-3.3-3.5-6.5-5.3-9.8c-0.9,0-1.9,0.1-2.8,0.2c0,4.6,0,9.2,0,13.9
		c0.8,0.1,1.6,0.1,2.5,0.2c0-3.4,0-6.7-0.1-10.1c1.7,3.5,3.7,6.9,5.5,10.4c1,0.1,1.9,0.1,2.9,0.1v-15c-0.9,0-1.8,0.1-2.7,0.1
		C24,25.7,24.1,29.1,24,32.5z M49.8,41.7c-0.2,1.4-1.9,1.3-2.9,1.5c-0.2,0.7-0.1,1.6-0.5,2.2c-0.8,0.5-1.8,0.4-2.7,0.4
		c-3.3,0-6.7,0-10,0c0,1.2,0,2.4,0,3.6h-2.8C23.8,48.3,10,45.9,10,45.9V14.1c0,0,13.9-2.4,20.9-3.6h2.7c0,1.2,0,2.4,0,3.6
		c4.3,0.2,8.6-0.3,12.8,0.3c0.1,0.5,0.3,1,0.5,1.4c1.1,0.2,2.8,0.1,3,1.5c0.3,2.7,0.1,5.3-0.1,8c0.2,2.8,0.4,5.7-0.1,8.5
		C50.1,36.5,50.1,39.1,49.8,41.7z M46.8,25.9c0,2.4,0,4.9,0,7.3c0.6,0,1.2-0.1,1.8-0.1c0.1-2.4,0.1-4.8,0-7.2
		C48,25.9,47.4,25.9,46.8,25.9z"/>
</g>
</svg>
