<?xml version="1.0" encoding="utf-8"?>
<!-- Generator: Adobe Illustrator 18.0.0, SVG Export Plug-In . SVG Version: 6.00 Build 0)  -->
<!DOCTYPE svg PUBLIC "-//W3C//DTD SVG 1.1//EN" "http://www.w3.org/Graphics/SVG/1.1/DTD/svg11.dtd">
<svg version="1.1" xmlns="http://www.w3.org/2000/svg" xmlns:xlink="http://www.w3.org/1999/xlink" x="0px" y="0px"
	 viewBox="0 0 60 60" enable-background="new 0 0 60 60" xml:space="preserve">
<g id="Grid" display="none">
	<rect display="inline" width="60" height="60"/>
</g>
<g id="Icons">
	<path fill="#000000" d="M46,12H14c-1.1,0-2,0.9-2,2v32c0,1.1,0.9,2,2,2h32c1.1,0,2-0.9,2-2V14C48,12.9,47.1,12,46,12z M36.8,46
		V34.1h4.7l0.7-5.4h-5.4v-3.5c0-1.6,0.4-2.6,2.7-2.6l2.9,0v-4.9c-0.5-0.1-2.2-0.2-4.2-0.2c-4.1,0-7,2.5-7,7.2v4h-4.7v5.4h4.7V46
		L14,46l0-32h32l0,32L36.8,46z"/>
</g>
</svg>
