<?xml version="1.0" encoding="utf-8"?>
<!-- Generator: Adobe Illustrator 18.0.0, SVG Export Plug-In . SVG Version: 6.00 Build 0)  -->
<!DOCTYPE svg PUBLIC "-//W3C//DTD SVG 1.1//EN" "http://www.w3.org/Graphics/SVG/1.1/DTD/svg11.dtd">
<svg version="1.1" xmlns="http://www.w3.org/2000/svg" xmlns:xlink="http://www.w3.org/1999/xlink" x="0px" y="0px"
	 viewBox="0 0 60 60" enable-background="new 0 0 60 60" xml:space="preserve">
<g id="Grid" display="none">
	<rect display="inline" width="60" height="60"/>
</g>
<g id="Icons">
	<path fill="#FFFFFF" d="M47.4,44.6L37.2,34.4C39,32,40,29.2,40,26c0-7.7-6.3-14-14-14s-14,6.3-14,14c0,7.7,6.3,14,14,14
		c3.1,0,6-1,8.4-2.8l10.2,10.2L47.4,44.6z M14,26c0-6.6,5.4-12,12-12s12,5.4,12,12c0,6.6-5.4,12-12,12S14,32.6,14,26z"/>
</g>
</svg>
