<?xml version="1.0" encoding="utf-8"?>
<!-- Generator: Adobe Illustrator 18.0.0, SVG Export Plug-In . SVG Version: 6.00 Build 0)  -->
<!DOCTYPE svg PUBLIC "-//W3C//DTD SVG 1.1//EN" "http://www.w3.org/Graphics/SVG/1.1/DTD/svg11.dtd">
<svg version="1.1" id="Layer_1" xmlns="http://www.w3.org/2000/svg" xmlns:xlink="http://www.w3.org/1999/xlink" x="0px" y="0px"
	 viewBox="0 0 60 60" enable-background="new 0 0 60 60" xml:space="preserve">
<g id="Grid" display="none">
	<rect display="inline" width="60" height="60"/>
</g>
<g id="Icons">
	<g>
		<path fill="#FFFFFF" d="M38.5,22.4L30,30.9l-8.5-8.5c-1.3-1.3-3.5-1.3-4.9,0c-1.3,1.3-1.3,3.5,0,4.9l11,11c1.3,1.3,3.5,1.3,4.9,0
			l11-11c1.3-1.3,1.3-3.5,0-4.9C42.1,21,39.9,21,38.5,22.4z M51.6,8.4H8.4C6.5,8.4,5,10,5,11.9v19c0,0.3,0,0.5,0.1,0.8
			c1,11.1,11.7,19.9,24.9,19.9s23.9-8.8,24.9-19.9c0.1-0.3,0.1-0.5,0.1-0.8v-19C55,10,53.5,8.4,51.6,8.4z M53,30.9
			c0,0.1,0,0.2,0,0.3v0.1v0.1c-1,10.2-11,18.2-23,18.2S8,41.7,7.1,31.5v-0.1v-0.1c0-0.1,0-0.2,0-0.3V12c0-0.8,0.6-1.4,1.4-1.4h43.1
			c0.8,0,1.4,0.6,1.4,1.4V30.9z"/>
	</g>
</g>
</svg>
