<?xml version="1.0" encoding="utf-8"?>
<!-- Generator: Adobe Illustrator 18.0.0, SVG Export Plug-In . SVG Version: 6.00 Build 0)  -->
<!DOCTYPE svg PUBLIC "-//W3C//DTD SVG 1.1//EN" "http://www.w3.org/Graphics/SVG/1.1/DTD/svg11.dtd">
<svg version="1.1" id="Layer_1" xmlns="http://www.w3.org/2000/svg" xmlns:xlink="http://www.w3.org/1999/xlink" x="0px" y="0px"
	 viewBox="0 0 60 60" enable-background="new 0 0 60 60" xml:space="preserve">
<g id="Grid" display="none">
	<rect display="inline" width="60" height="60"/>
</g>
<g id="Icons">
	<path fill="#FFFFFF" d="M55,14.5c-1.8,0.8-3.8,1.4-5.9,1.6c2.1-1.3,3.7-3.3,4.5-5.7c-2,1.2-4.2,2-6.5,2.5c-1.9-2-4.5-3.2-7.5-3.2
		c-5.7,0-10.3,4.6-10.3,10.3c0,0.8,0.1,1.6,0.3,2.3c-8.5-0.4-16.1-4.5-21.1-10.7c-0.9,1.5-1.4,3.3-1.4,5.2c0,3.6,1.8,6.7,4.6,8.5
		C10,25.2,8.4,24.7,7,24v0.1c0,5,3.5,9.1,8.2,10.1c-0.9,0.2-1.8,0.4-2.7,0.4c-0.7,0-1.3-0.1-1.9-0.2c1.3,4.1,5.1,7,9.6,7.1
		c-3.5,2.8-7.9,4.4-12.7,4.4c-0.8,0-1.6,0-2.4-0.1c4.5,2.9,9.9,4.6,15.7,4.6C39.7,50.4,50,34.8,50,21.2c0-0.4,0-0.9,0-1.3
		C51.9,18.3,53.6,16.5,55,14.5z M40.9,39.5c-3.6,4-9.9,8.8-20.2,8.8c-2.6,0-5.3-0.4-7.8-1.1c7.1-1.2,12.2-7.7,12.2-7.7
		s-6.7,1.1-10.4-2.2c-0.1-0.1-0.1-0.1-0.2-0.2c-0.2-0.2-0.4-0.4-0.6-0.7c3.1-0.2,6.8-2.4,6.8-2.4s-7-1.7-9.9-4.7
		c-0.5-0.7-1-1.5-1.3-2.3c0.3,0.1,0.7,0.1,1,0.2c0,0,0,0,0.1,0c3.4,0.4,6.3-0.6,6.3-0.6S8.6,22,9.2,15.3c5.4,5.3,12.7,8.6,20.3,8.9
		h0.1c0.6,0,1.2-0.3,1.5-0.7c0.4-0.5,0.6-1.1,0.4-1.7c-0.1-0.6-0.2-1.2-0.2-1.9c0-4.6,3.7-8.3,8.3-8.3c7.2,0,8.3,7.1,8.3,9.4
		C48,27.7,45.4,34.4,40.9,39.5z"/>
	<path fill="#FFFFFF" d="M55,14.5c-1.8,0.8-3.8,1.4-5.9,1.6c2.1-1.3,3.7-3.3,4.5-5.7c-2,1.2-4.2,2-6.5,2.5c-1.9-2-4.5-3.2-7.5-3.2
		c-5.7,0-10.3,4.6-10.3,10.3c0,0.8,0.1,1.6,0.3,2.3c-8.5-0.4-16.1-4.5-21.1-10.7c-0.9,1.5-1.4,3.3-1.4,5.2c0,3.6,1.8,6.7,4.6,8.5
		C10,25.2,8.4,24.7,7,24v0.1c0,5,3.5,9.1,8.2,10.1c-0.9,0.2-1.8,0.4-2.7,0.4c-0.7,0-1.3-0.1-1.9-0.2c1.3,4.1,5.1,7,9.6,7.1
		c-3.5,2.8-7.9,4.4-12.7,4.4c-0.8,0-1.6,0-2.4-0.1c4.5,2.9,9.9,4.6,15.7,4.6C39.7,50.4,50,34.8,50,21.2c0-0.4,0-0.9,0-1.3
		C51.9,18.4,53.6,16.5,55,14.5z M40.9,39.5c-3.6,4-9.9,8.8-20.2,8.8c-2.6,0-5.3-0.4-7.8-1.1c7.1-1.2,12.2-7.7,12.2-7.7
		s-6.7,1.1-10.4-2.2c-0.1-0.1-0.1-0.1-0.2-0.2c-0.2-0.2-0.4-0.4-0.6-0.7c3.1-0.2,6.8-2.4,6.8-2.4s-7-1.7-9.9-4.7
		c-0.5-0.7-1-1.5-1.3-2.3c0.3,0.1,0.7,0.1,1,0.2c0,0,0,0,0.1,0c3.4,0.4,6.3-0.6,6.3-0.6S8.6,22,9.2,15.3c5.4,5.3,12.7,8.6,20.3,8.9
		h0.1c0.6,0,1.2-0.3,1.5-0.7c0.4-0.5,0.6-1.1,0.4-1.7c-0.1-0.6-0.2-1.2-0.2-1.9c0-4.6,3.7-8.3,8.3-8.3c7.2,0,8.3,7.1,8.3,9.4
		C47.9,27.7,45.4,34.4,40.9,39.5z"/>
</g>
</svg>
