<?xml version="1.0" encoding="utf-8"?>
<!-- Generator: Adobe Illustrator 18.0.0, SVG Export Plug-In . SVG Version: 6.00 Build 0)  -->
<!DOCTYPE svg PUBLIC "-//W3C//DTD SVG 1.1//EN" "http://www.w3.org/Graphics/SVG/1.1/DTD/svg11.dtd">
<svg version="1.1" xmlns="http://www.w3.org/2000/svg" xmlns:xlink="http://www.w3.org/1999/xlink" x="0px" y="0px"
	 viewBox="0 0 88 88" enable-background="new 0 0 88 88" xml:space="preserve">
<g id="Grid" display="none">
	<rect x="0" y="0" display="inline" width="88" height="88"/>
</g>
<g id="Icons">
	<g>
		<g>
			<path fill-rule="evenodd" clip-rule="evenodd" fill="#B8B8B8" d="M36,28v2h24v-2H36z M52,32H36v2h16V32z M28,34h6v-6h-6V34z
				 M30,30h2v2h-2V30z M36,42h24v-2H36V42z M52,44H36v2h16V44z M28,46h6v-6h-6V46z M30,42h2v2h-2V42z M36,54h24v-2H36V54z M36,58h16
				v-2H36V58z M28,58h6v-6h-6V58z M30,54h2v2h-2V54z"/>
		</g>
	</g>
</g>
</svg>
