<?xml version="1.0" encoding="utf-8"?>
<!-- Generator: Adobe Illustrator 18.0.0, SVG Export Plug-In . SVG Version: 6.00 Build 0)  -->
<!DOCTYPE svg PUBLIC "-//W3C//DTD SVG 1.1//EN" "http://www.w3.org/Graphics/SVG/1.1/DTD/svg11.dtd">
<svg version="1.1" xmlns="http://www.w3.org/2000/svg" xmlns:xlink="http://www.w3.org/1999/xlink" x="0px" y="0px"
	 viewBox="0 0 60 60" enable-background="new 0 0 60 60" xml:space="preserve">
<g id="Grid" display="none">
	<rect display="inline" width="60" height="60"/>
</g>
<g id="Icons">
	<path fill-rule="evenodd" clip-rule="evenodd" fill="#FFFFFF" d="M46,14H14c-1.4,0-2.6,1.1-2.6,2.6v14.1c0,0.2,0,0.4,0.1,0.6
		C12.2,39.5,20.2,46,30,46c9.8,0,17.8-6.5,18.5-14.8c0-0.2,0.1-0.4,0.1-0.6V16.6C48.6,15.1,47.4,14,46,14z M46.6,30.6l0,0.1l0,0.1
		l0,0.1c-0.6,7.3-7.9,13-16.5,13c-8.6,0-15.9-5.7-16.5-13l0-0.1l0-0.1l0-0.1V16.6c0-0.3,0.3-0.6,0.6-0.6h32c0.3,0,0.6,0.3,0.6,0.6
		V30.6z M36.3,24.3L30,30.7l-6.3-6.3c-1-1-2.6-1-3.6,0S19,27,20,28l8.1,8.1c1,1,2.6,1,3.6,0L40,28c1-1,1-2.6,0-3.6
		C39,23.3,37.3,23.3,36.3,24.3z"/>
</g>
</svg>
