<?xml version="1.0" encoding="utf-8"?>
<!-- Generator: Adobe Illustrator 18.0.0, SVG Export Plug-In . SVG Version: 6.00 Build 0)  -->
<!DOCTYPE svg PUBLIC "-//W3C//DTD SVG 1.1//EN" "http://www.w3.org/Graphics/SVG/1.1/DTD/svg11.dtd">
<svg version="1.1" id="Layer_1" xmlns="http://www.w3.org/2000/svg" xmlns:xlink="http://www.w3.org/1999/xlink" x="0px" y="0px"
	 width="71px" height="20px" viewBox="0 0 71 20" enable-background="new 0 0 71 20" xml:space="preserve">
<g>
	<path d="M67.5,7.7l-2,6.2h0l-2-6.2h-2.5V4.2h-2.5v12.5h2.5V8l3,8.1c0.1,0.2,0.1,0.4,0.1,0.6c0,0.6-0.3,1.1-1,1.1
		c-0.5,0-1,0-1.5-0.1v2c0.5,0.1,1,0.1,1.5,0.1c1.7,0,2.6-0.6,3.1-2l3.8-10.2H67.5z"/>
	<path d="M31.7,7.7H30V7.1c0-0.8,0.3-1,0.9-1c0.3,0,0.6,0,0.9,0.1V4.3c-0.4,0-0.9-0.1-1.3-0.1c-2,0-3,1.1-3,2.7v0.7H26v1.7h1.5v7.4
		H30V9.3h1.7V7.7z"/>
	<path d="M55.4,8.8L55.4,8.8c-0.6-0.9-1.6-1.3-2.7-1.3c-2.5,0-3.8,1.9-4,4.1c-0.3-2.3-1.7-4.1-4.4-4.1c-2.4,0-4.1,1.6-4.5,3.8
		c-0.4-2.1-1.8-3.8-4.3-3.8c-2.7,0-4.6,2.1-4.6,4.8c0,2.8,1.8,4.8,4.6,4.8c2,0,3.5-0.9,4.2-3h-2.2c-0.2,0.6-1,1.2-2,1.2
		c-1.4,0-2.2-0.7-2.2-2.3h6.4c0.2,2.5,1.9,4.2,4.6,4.2c2,0,3.5-0.9,4.2-3h-2.2c-0.2,0.6-1,1.2-2,1.2c-1.4,0-2.2-0.7-2.2-2.3h6.5
		c0.2,2.2,1.5,4.2,4,4.2c1.2,0,2.2-0.4,2.7-1.4h0v1.2h2.4V4.2h-2.5V8.8z M33.4,11.2c0.1-0.7,0.5-1.9,2.1-1.9c1.2,0,1.7,0.7,2,1.9
		H33.4z M42.2,11.2c0.1-0.7,0.5-1.9,2.1-1.9c1.2,0,1.7,0.7,2,1.9H42.2z M53.4,15.1c-1.5,0-2.2-1.5-2.2-2.9c0-1.5,0.6-2.9,2.2-2.9
		c1.6,0,2.1,1.4,2.1,2.9C55.5,13.6,55,15.1,53.4,15.1z"/>
	<g>
		<path fill="#2BB24C" d="M13,0.8c-0.9-0.9-2.4-0.9-3.3,0L1.5,9c-0.9,0.9-0.9,2.4,0,3.3l5.9,5.9c0.4,0.4,0.9,0.6,1.5,0.6h4.9
			c0.6,0,1.2-0.3,1.6-0.7l5.7-5.7c0.9-0.9,0.9-2.4,0-3.3L13,0.8z"/>
		<g>
			<path fill="#FFFFFF" d="M12.8,15.8L12,16.6c-0.1,0.1-0.1,0.1-0.2,0.1H11c-0.1,0-0.2,0-0.2-0.1L10,15.8c-0.1-0.1-0.1-0.3,0-0.5
				l1.2-1.2c0.1-0.1,0.3-0.1,0.5,0l1.2,1.2C12.9,15.4,12.9,15.6,12.8,15.8z M12.8,10.9l-3.3,3.3c-0.1,0.1-0.1,0.1-0.2,0.1H8.6
				c-0.1,0-0.2,0-0.2-0.1l-0.8-0.8c-0.1-0.1-0.1-0.3,0-0.5l3.6-3.6c0.1-0.1,0.3-0.1,0.5,0l1.2,1.2C12.9,10.5,12.9,10.7,12.8,10.9z
				 M12.8,6l-5.7,5.7c-0.1,0.1-0.1,0.1-0.2,0.1H6.1c-0.1,0-0.2,0-0.2-0.1l-0.8-0.8c-0.1-0.1-0.1-0.3,0-0.5l6.1-6.1
				c0.1-0.1,0.3-0.1,0.5,0l1.2,1.2C12.9,5.6,12.9,5.8,12.8,6z"/>
		</g>
	</g>
</g>
</svg>
