<?xml version="1.0" encoding="utf-8"?>
<!-- Generator: Adobe Illustrator 18.0.0, SVG Export Plug-In . SVG Version: 6.00 Build 0)  -->
<!DOCTYPE svg PUBLIC "-//W3C//DTD SVG 1.1//EN" "http://www.w3.org/Graphics/SVG/1.1/DTD/svg11.dtd">
<svg version="1.1" xmlns="http://www.w3.org/2000/svg" xmlns:xlink="http://www.w3.org/1999/xlink" x="0px" y="0px"
	 viewBox="0 0 60 60" enable-background="new 0 0 60 60" xml:space="preserve">
<g id="Grid" display="none">
	<rect x="0" y="0.1" display="inline" width="60" height="60"/>
</g>
<g id="Icons">
	<path fill="#FFFFFF" d="M30,9.9c-11,0-20,9-20,20s9,20,20,20s20-9,20-20S41,9.9,30,9.9z M30,45.9c-1.6,0-3-0.2-4.5-0.6
		c0.6-1,1.2-2.2,1.6-3.4c0.2-0.7,1.1-4.4,1.1-4.4c0.6,1.1,2.2,2,3.9,2c5.2,0,8.7-4.7,8.7-11c0-4.8-4-9.2-10.2-9.2
		c-7.7,0-11.5,5.5-11.5,10.1c0,2.8,1,5.2,3.3,6.2c0.4,0.2,0.7,0,0.8-0.4c0.1-0.3,0.3-1,0.3-1.3c0.1-0.4,0.1-0.5-0.2-0.9
		c-0.6-0.8-1.1-1.8-1.1-3.2c0-4.1,3-7.7,7.9-7.7c4.3,0,6.7,2.6,6.7,6.2c0,4.6-2.1,8.6-5.1,8.6c-1.7,0-2.9-1.4-2.5-3.1
		c0.5-2,1.4-4.2,1.4-5.7c0-1.3-0.7-2.4-2.2-2.4c-1.7,0-3.1,1.8-3.1,4.2c0,1.5,0.5,2.5,0.5,2.5s-1.8,7.5-2.1,8.8
		c-0.3,1.2-0.3,2.5-0.3,3.6C17.9,42,14,36.4,14,29.9c0-8.8,7.2-16,16-16s16,7.2,16,16S38.8,45.9,30,45.9z"/>
</g>
</svg>
