<?xml version="1.0" encoding="utf-8"?>
<!-- Generator: Adobe Illustrator 18.0.0, SVG Export Plug-In . SVG Version: 6.00 Build 0)  -->
<!DOCTYPE svg PUBLIC "-//W3C//DTD SVG 1.1//EN" "http://www.w3.org/Graphics/SVG/1.1/DTD/svg11.dtd">
<svg version="1.1" xmlns="http://www.w3.org/2000/svg" xmlns:xlink="http://www.w3.org/1999/xlink" x="0px" y="0px"
	 viewBox="0 0 60 60" enable-background="new 0 0 60 60" xml:space="preserve">
<g id="Grid" display="none">
	<rect x="0" display="inline" width="60" height="60"/>
</g>
<g id="Icons">
	<path fill="#000000" d="M44,29.9c0,3.9-1.6,7.4-4.1,9.9c-2.5,2.5-6,4.1-9.9,4.1c-3.9,0-7.4-1.6-9.9-4.1c-2.5-2.5-4.1-6-4.1-9.9
		c0-3.9,1.6-7.4,4.1-9.9c2.5-2.5,6-4.1,9.9-4.1v7l15-8l-15-8v7c-8.8,0-16,7.2-16,16c0,8.8,7.2,16,16,16c8.8,0,16-7.2,16-16H44z"/>
</g>
</svg>
