<?xml version="1.0" encoding="utf-8"?>
<!-- Generator: Adobe Illustrator 18.0.0, SVG Export Plug-In . SVG Version: 6.00 Build 0)  -->
<!DOCTYPE svg PUBLIC "-//W3C//DTD SVG 1.1//EN" "http://www.w3.org/Graphics/SVG/1.1/DTD/svg11.dtd">
<svg version="1.1" xmlns="http://www.w3.org/2000/svg" xmlns:xlink="http://www.w3.org/1999/xlink" x="0px" y="0px"
	 viewBox="0 0 60 60" enable-background="new 0 0 60 60" xml:space="preserve">
<g id="Grid" display="none">
	<rect display="inline" width="60" height="60"/>
</g>
<g id="Icons">
	<g>
		<path fill="#000000" d="M47.8,21.1c-0.2-0.2-0.4-0.4-0.7-0.5l-15.6-7.3l0,0C31,13.1,30.5,13,30,13c-0.5,0-1,0.1-1.5,0.3l0,0
			l-15.6,7.3c-0.1,0.1-0.3,0.1-0.4,0.2h0v0c-0.1,0.1-0.2,0.1-0.3,0.2c-0.2,0.2-0.4,0.6-0.4,0.9c0,0.4,0.2,0.7,0.4,0.9
			c0.2,0.2,0.4,0.4,0.7,0.5h0l15.6,7.3c0.5,0.2,1,0.3,1.5,0.3c0.5,0,1-0.1,1.5-0.3l15.6-7.3c0.2-0.1,0.5-0.3,0.7-0.5
			c0.2-0.2,0.4-0.6,0.4-0.9C48.2,21.6,48,21.3,47.8,21.1z M30.7,28.9C30.5,28.9,30.3,29,30,29c-0.3,0-0.5-0.1-0.7-0.1L14.6,22
			l14.8-6.9l0,0C29.5,15,29.7,15,30,15c0.3,0,0.5,0.1,0.6,0.1h0L45.4,22L30.7,28.9z"/>
		<path fill="#000000" d="M47.1,28.6l-3.2-1.5l-2.4,1.1l3.9,1.8l-14.8,6.9C30.5,36.9,30.3,37,30,37c-0.3,0-0.5-0.1-0.7-0.1L14.6,30
			l3.9-1.8l-2.4-1.1l-3.2,1.5c-0.1,0.1-0.3,0.1-0.4,0.2h0v0c-0.1,0.1-0.2,0.1-0.3,0.2c-0.2,0.2-0.4,0.6-0.4,0.9
			c0,0.4,0.2,0.7,0.4,0.9c0.2,0.2,0.4,0.4,0.7,0.5h0l15.6,7.3c0.5,0.2,1,0.3,1.5,0.3c0.5,0,1-0.1,1.5-0.3l15.6-7.3
			c0.2-0.1,0.5-0.3,0.7-0.5c0.2-0.2,0.4-0.6,0.4-0.9c0-0.4-0.2-0.7-0.4-0.9C47.6,28.9,47.4,28.7,47.1,28.6z"/>
		<path fill="#000000" d="M47.1,36.6l-3.2-1.5l-2.4,1.1l3.9,1.8l-14.8,6.9C30.5,45,30.3,45,30,45c-0.3,0-0.5-0.1-0.7-0.1L14.6,38
			l3.9-1.8l-2.4-1.1l-3.2,1.5c-0.1,0.1-0.3,0.1-0.4,0.2h0v0c-0.1,0.1-0.2,0.1-0.3,0.2c-0.2,0.2-0.4,0.6-0.4,0.9
			c0,0.4,0.2,0.7,0.4,0.9c0.2,0.2,0.4,0.4,0.7,0.5l0,0l15.6,7.3c0.5,0.2,1,0.3,1.5,0.3c0.5,0,1-0.1,1.5-0.3l15.6-7.3
			c0.2-0.1,0.5-0.3,0.7-0.5c0.2-0.2,0.4-0.6,0.4-0.9c0-0.4-0.2-0.7-0.4-0.9C47.6,36.9,47.4,36.7,47.1,36.6z"/>
	</g>
</g>
</svg>
