<?xml version="1.0" encoding="utf-8"?>
<!-- Generator: Adobe Illustrator 18.0.0, SVG Export Plug-In . SVG Version: 6.00 Build 0)  -->
<!DOCTYPE svg PUBLIC "-//W3C//DTD SVG 1.1//EN" "http://www.w3.org/Graphics/SVG/1.1/DTD/svg11.dtd">
<svg version="1.1" xmlns="http://www.w3.org/2000/svg" xmlns:xlink="http://www.w3.org/1999/xlink" x="0px" y="0px"
	 viewBox="0 0 60 60" enable-background="new 0 0 60 60" xml:space="preserve">
<g id="Grid" display="none">
	<rect display="inline" width="60" height="60"/>
</g>
<g id="Icons">
	<path fill-rule="evenodd" clip-rule="evenodd" fill="#000000" d="M47.2,12H12.8c-1.5,0-2.8,1.2-2.8,2.8v16.7c0,0.2,0,0.4,0.1,0.6
		C10.9,41,19.5,48,30,48c10.5,0,19.1-7,19.9-15.9c0-0.2,0.1-0.4,0.1-0.6V14.8C50,13.2,48.8,12,47.2,12z M40.7,27.6l-8.8,8.8
		c-1.1,1.1-2.8,1.1-3.9,0l-8.8-8.8c-1.1-1.1-1.1-2.8,0-3.9c1.1-1.1,2.8-1.1,3.9,0l6.8,6.8l6.8-6.8c1.1-1.1,2.8-1.1,3.9,0
		C41.8,24.7,41.8,26.5,40.7,27.6z"/>
</g>
</svg>
