<?xml version="1.0" encoding="utf-8"?>
<!-- Generator: Adobe Illustrator 18.0.0, SVG Export Plug-In . SVG Version: 6.00 Build 0)  -->
<!DOCTYPE svg PUBLIC "-//W3C//DTD SVG 1.1//EN" "http://www.w3.org/Graphics/SVG/1.1/DTD/svg11.dtd">
<svg version="1.1" id="Layer_1" xmlns="http://www.w3.org/2000/svg" xmlns:xlink="http://www.w3.org/1999/xlink" x="0px" y="0px"
	 viewBox="0 0 60 60" enable-background="new 0 0 60 60" xml:space="preserve">
<g id="Grid" display="none">
	<rect display="inline" width="60" height="60"/>
</g>
<g id="Icons">
	<path fill="#FFFFFF" d="M30,5C16.2,5,5,16.2,5,30s11.2,25,25,25s25-11.2,25-25S43.8,5,30,5z M30,53C17.3,53,7,42.7,7,30
		S17.3,7,30,7s23,10.3,23,23S42.7,53,30,53z M14.4,45.6l19.1-12l12-19.1l-19.1,12L14.4,45.6z M31.9,33.3l-14.6,9.3L26.6,28
		L31.9,33.3z"/>
</g>
</svg>
