<?xml version="1.0" encoding="utf-8"?>
<!-- Generator: Adobe Illustrator 18.0.0, SVG Export Plug-In . SVG Version: 6.00 Build 0)  -->
<!DOCTYPE svg PUBLIC "-//W3C//DTD SVG 1.1//EN" "http://www.w3.org/Graphics/SVG/1.1/DTD/svg11.dtd">
<svg version="1.1" id="Layer_1" xmlns="http://www.w3.org/2000/svg" xmlns:xlink="http://www.w3.org/1999/xlink" x="0px" y="0px"
	 viewBox="0 0 60 60" enable-background="new 0 0 60 60" xml:space="preserve">
<g id="Grid" display="none">
	<rect display="inline" width="60" height="60"/>
</g>
<g id="Icons">
	<g>
		<path fill="#FFFFFF" d="M52.2,5H7.8C6.2,5,5,6.2,5,7.8v44.5C5,53.8,6.2,55,7.8,55h44.5c1.5,0,2.8-1.2,2.8-2.8V7.8
			C55,6.2,53.8,5,52.2,5z M53,52.2c0,0.4-0.3,0.8-0.8,0.8H39.5V35.6H46l1-7.5h-7.5v-4.8c0-2.2,0.6-3.7,3.7-3.7h4v-6.8
			c-0.7-0.1-3.1-0.3-5.8-0.3c-5.8,0-9.7,3.5-9.7,10v5.6h-6.5v7.5h6.5V53H7.8C7.3,53,7,52.7,7,52.2V7.8C7,7.3,7.3,7,7.8,7h44.5
			C52.7,7,53,7.3,53,7.8V52.2z"/>
	</g>
</g>
</svg>
