<?xml version="1.0" encoding="utf-8"?>
<!-- Generator: Adobe Illustrator 18.0.0, SVG Export Plug-In . SVG Version: 6.00 Build 0)  -->
<!DOCTYPE svg PUBLIC "-//W3C//DTD SVG 1.1//EN" "http://www.w3.org/Graphics/SVG/1.1/DTD/svg11.dtd">
<svg version="1.1" id="Layer_1" xmlns="http://www.w3.org/2000/svg" xmlns:xlink="http://www.w3.org/1999/xlink" x="0px" y="0px"
	 viewBox="0 0 60 60" enable-background="new 0 0 60 60" xml:space="preserve">
<g id="Grid" display="none">
	<rect display="inline" width="60" height="60"/>
</g>
<g id="Icons">
	<g>
		<path fill="#FFFFFF" d="M41.3,29l-9-9c-0.7-0.7-1.5-1-2.3-1s-1.6,0.3-2.3,1l-9,9c-0.7,0.7-1,1.5-1,2.3c0,0.8,0.3,1.6,1,2.3
			l6.4,6.4l0,0c0.5,0.5,1.4,0.8,2.2,0.8h5.5c1,0,1.8-0.4,2.3-1l6.3-6.3l0,0c0.7-0.7,1-1.5,1-2.3C42.3,30.5,42,29.7,41.3,29z
			 M40.4,32.7L34.1,39c-0.4,0.3-0.8,0.5-1.4,0.5h-5.5c-0.4,0-1-0.1-1.2-0.4l-6.4-6.4c-0.4-0.4-0.5-0.8-0.5-1.4s0.1-1,0.5-1.4l9-9
			c0.4-0.4,0.8-0.5,1.4-0.5s1,0.1,1.4,0.5l9,9c0.4,0.4,0.5,0.8,0.5,1.4C40.9,31.8,40.8,32.3,40.4,32.7z M31.2,25.9l-1.1-1.1H30
			l-6.5,6.5v0.1l0.7,0.7c0,0,0.1,0.1,0.3,0.1H25c0.1,0,0.1,0,0.3-0.1l6.1-6.1v-0.1H31.2z M29.9,35.6l-1.1,1.1v0.1l0.7,0.7
			c0,0,0.1,0.1,0.3,0.1h0.5c0.1,0,0.1,0,0.3-0.1l0.7-0.7v-0.1l-1.1-1.1H29.9z M29.9,30.1L26,34v0.1l0.7,0.7c0,0,0.1,0.1,0.3,0.1h0.5
			c0.1,0,0.1,0,0.3-0.1l3.4-3.4v-0.1l-1.1-1.1H29.9z"/>
	</g>
</g>
</svg>
