<?xml version="1.0" encoding="utf-8"?>
<!-- Generator: Adobe Illustrator 18.0.0, SVG Export Plug-In . SVG Version: 6.00 Build 0)  -->
<!DOCTYPE svg PUBLIC "-//W3C//DTD SVG 1.1//EN" "http://www.w3.org/Graphics/SVG/1.1/DTD/svg11.dtd">
<svg version="1.1" id="Layer_1" xmlns="http://www.w3.org/2000/svg" xmlns:xlink="http://www.w3.org/1999/xlink" x="0px" y="0px"
	 width="190px" height="160px" viewBox="0 0 190 160" enable-background="new 0 0 190 160" xml:space="preserve">
<g>
	<path opacity="0.4" fill="#FFFFFF" d="M130,104.7c0.6,0.1,1.2,0.2,1.7,0.2c1.8-0.4,3.9-0.4,6.2,0.1c2.8-3.6,8.9-3.8,8.4-3.6
		c0.1,0,0.1,0,0,0.1c-2.4,1.3-3.8,3.3-4.3,6.1c0.4,0.8,1.5,2.8,3.6,2.8c1.4,0,2.3,0,3.1,0c0.1,0,0.1,0,0.2,0c0.1,0,0.2,0,0.2,0
		c0.1,0,0.1,0,0.2,0c0.1,0,0.1,0,0.2,0c0.1,0,0.2,0,0.2,0c0.1,0,0.1,0,0.2,0c0,0,0.1,0,0.1,0c0,0,0.1,0,0.1,0c0,0,0.1,0,0.1,0
		c0,0,0.1,0,0.1,0c0,0,0.1,0,0.1,0c0,0,0.1,0,0.1,0c0,0,0,0,0.1,0c0,0,0,0,0,0c0,0,0,0,0,0c0,0,0,0,0,0c0,0,0,0,0,0c0,0,0,0,0,0
		c0,0,0,0,0,0c0,0,0,0,0,0c0,0,0,0,0,0.1c0,0,0,0,0,0c0,0,0,0.1,0,0.1c0,0.2,0,0.4,0,0.6c0,0.1,0,0.2,0,0.2c0,0.1,0,0.2,0,0.3
		c0,0,0,0,0,0v0c0,0.1,0,0.1-0.1,0.2c0,0.1,0,0.1-0.1,0.2c0,0.1,0,0.1-0.1,0.2c0,0.1,0,0.1-0.1,0.1c0,0.1-0.1,0.1-0.1,0.1
		c0,0.1-0.1,0.1-0.1,0.1c0,0.1-0.1,0.1-0.1,0.2c0,0-0.1,0.1-0.1,0.1c0,0-0.1,0.1-0.1,0.1c0,0-0.1,0.1-0.1,0.1c0,0,0,0-0.1,0.1
		c0,0-0.1,0.1-0.1,0.1c-0.3,0.3-5,3-5.2,3.7c0,0,0,0,0,0c0,0,0,0,0,0c0.2,0.6,0.3,1.3,0.4,1.9c0.1,0.6,0.2,1.2,0.1,1.3
		c0,0.5,0,0.9,0,1.2c-0.9-0.5-1.8-0.8-2.8-1c-0.6,0.2-1.7,0.5-2,1.5c-0.1,0.3-0.2,0.7-0.3,1c0,1.1,0.3,2.6,3.4,4.4
		c4,2.4,6.7,0,8.8-0.5c3-0.8,5.2,0.7,6.2,1.7c0.9,1,0.1,2.2-1,2c-1.2-0.3-2.5,0.8-4.7,2.4c-0.6,0.5-1.4,0.8-2.4,1.1c0,0-0.1,0-0.1,0
		c-2.2,0.6-4.9,0.8-6.6,0.4c4.7,3.2,15.3,10.6,24.2-3.1c1.5-2.8-0.7,4.5-0.5,4.4c3.2-2,3.9-9.3,3.2-13.9c2,0.9,2.1,3,2.3,2.6
		c1-3.1,1.3-9.2,0.2-12.5c1.6,0.5,2.9,3.2,2.9,3.2c-2.5-12-14.4-13.4-14.3-13.5c3.2-0.9,6.5-0.9,6.5-0.9c-1.4-1.9-9-3.2-9-3.2l0,0
		c-0.1,0-0.1,0-0.1,0c0.1,0,0.1,0,0.2,0c0.4-0.1,4.2-0.7,11.1,1.5c0.5,0.2,1,0.4,1.5,0.6c-5.4-4.6-12.4-7.4-20-7.4
		c-9.1,0-17.2,3.9-22.8,10.2C129,103.8,129.5,104.3,130,104.7z"/>
	<g>
		<path fill="#FFFFFF" d="M183.3,115.3l-0.7,4.8c0,0-1.1-8.8-2.4-12.1c-2-5-2.9-5-2.9-5c1.3,3.4,1.1,5.2,1.1,5.2s-2-5.4-7.1-7.9
			c-0.5-0.2-1-0.4-1.5-0.6c-6.9-2.3-10.7-1.6-11.1-1.5c-0.1,0-0.1,0-0.2,0c0.1,0,0.1,0,0.1,0l0,0c0,0,7.6,1.3,9,3.2
			c0,0-3.2,0-6.5,0.9c-0.1,0,11.8,1.5,14.3,13.5c0,0-1.3-2.7-2.9-3.2c1.1,3.3,0.8,9.4-0.2,12.5c-0.1,0.4-0.3-1.7-2.3-2.6
			c0.6,4.6,0,11.9-3.2,13.9c-0.2,0.2,2-7.2,0.5-4.4c-8.9,13.7-19.5,6.3-24.2,3.1c1.7,0.4,4.4,0.2,6.6-0.4c0,0,0.1,0,0.1,0
			c0.9-0.3,1.8-0.7,2.4-1.1c2.2-1.5,3.5-2.6,4.7-2.4c1.2,0.3,2-0.9,1-2c-0.9-1.1-3.1-2.5-6.2-1.7c-2.1,0.6-4.8,2.9-8.8,0.5
			c-3.1-1.8-3.4-3.3-3.4-4.4c0.1-0.4,0.2-0.7,0.3-1c0.4-1,1.4-1.3,2-1.5c1,0.2,1.9,0.5,2.8,1c0-0.3,0-0.7,0-1.2
			c0.1-0.2,0-0.7-0.1-1.3c-0.1-0.6-0.2-1.3-0.4-1.9c0,0,0,0,0,0c0,0,0,0,0,0c0.2-0.8,4.9-3.5,5.2-3.7c0,0,0.1-0.1,0.1-0.1
			c0,0,0,0,0.1-0.1c0,0,0.1-0.1,0.1-0.1c0,0,0.1,0,0.1-0.1c0,0,0.1-0.1,0.1-0.1c0,0,0.1-0.1,0.1-0.2c0,0,0.1-0.1,0.1-0.1
			c0,0,0.1-0.1,0.1-0.1c0,0,0.1-0.1,0.1-0.1c0-0.1,0.1-0.1,0.1-0.2c0-0.1,0-0.1,0.1-0.2c0-0.1,0-0.1,0.1-0.2l0,0c0,0,0,0,0,0
			c0-0.1,0-0.2,0-0.3c0-0.1,0-0.1,0-0.2c0-0.2,0-0.4,0-0.6c0,0,0-0.1,0-0.1c0,0,0,0,0,0c0,0,0,0,0-0.1c0,0,0,0,0,0c0,0,0,0,0,0
			c0,0,0,0,0,0c0,0,0,0,0,0c0,0,0,0,0,0c0,0,0,0,0,0c0,0,0,0,0,0c0,0,0,0-0.1,0c0,0-0.1,0-0.1,0c0,0-0.1,0-0.1,0c0,0-0.1,0-0.1,0
			c0,0-0.1,0-0.1,0c0,0-0.1,0-0.1,0c0,0-0.1,0-0.1,0c-0.1,0-0.1,0-0.2,0c-0.1,0-0.1,0-0.2,0c-0.1,0-0.1,0-0.2,0c-0.1,0-0.1,0-0.2,0
			c-0.1,0-0.1,0-0.2,0c-0.1,0-0.1,0-0.2,0c-0.7,0-1.7,0-3.1,0c-2.1,0-3.2-2-3.6-2.8c0.5-2.8,2-4.8,4.3-6.1c0,0,0,0,0-0.1
			c0.5-0.3-5.6,0-8.4,3.6c-2.3-0.5-4.4-0.5-6.2-0.1c-0.5,0-1,0-1.7-0.2c-0.5-0.4-1-1-1.5-1.6c-0.9-1.1-1.6-2.5-1.7-4.1c0,0,0,0,0,0
			c0,0,0,0,0-0.1c0,0-3.8,2.9-3.2,10.9c0,0.2,0,0.4,0,0.5c-1,1.3-1.5,2.4-1.6,2.7c-0.9,1.9-1.8,4.6-2.6,8.9c0,0,0.5-1.7,1.6-3.5
			c0,0,0,0,0,0c-0.8,2.4-1.4,6.1-1,11.6c0,0,0.1-1.2,0.4-3c0.3,3.4,1.4,7.7,4.3,12.7c5.4,9.2,13.5,14.1,22.5,15.1c0,0,0,0,0.1,0
			c0.2,0,0.4,0,0.7,0.1c0.2,0,0.5,0,0.7,0.1c0.1,0,0.2,0,0.2,0c1.5,0.1,3.1,0.1,4.6-0.1c0.1,0,0.2,0,0.3,0c1.9-0.1,3.8-0.4,5.7-0.9
			C186.2,147.4,183.3,115.3,183.3,115.3z"/>
	</g>
</g>
<path fill="#FFFFFF" d="M95,21h28.6C118.4,10,107.6,4.1,95,4.1c-9.7,0-18.4,4.7-24.3,11.4l10.4,17.2C82.4,26.4,88.1,21,95,21z
	 M95,50.5c-5.5,0-10.3-3.1-12.6-7.7l-14-23.9C65,23.9,63,30,63,36.5C63,52,74.2,64.8,89,67.6l10.3-17.7C98,50.3,96.5,50.5,95,50.5z
	 M125.1,25h-20.8c3,4,4.8,6.8,4.8,11c0,3.2-1.1,6.4-2.9,8.7L92.8,67.9c0.7,0,1.4,0.2,2.2,0.2c17.7,0,32-14.6,32-32.1
	C127,32.3,126.3,29,125.1,25z M84.3,36.5C84.3,42.3,89.1,47,95,47c5.9,0,10.6-4.7,10.6-10.5c0-5.8-4.8-10.5-10.6-10.5
	C89.1,26,84.3,30.7,84.3,36.5z"/>
<g>
	<g>
		<path fill-rule="evenodd" clip-rule="evenodd" fill="#FFFFFF" d="M37.9,91.1c-17.7,0-32,14.3-32,32c0,17.7,14.3,32,32,32
			c17.7,0,32-14.3,32-32C69.9,105.4,55.6,91.1,37.9,91.1z M16.6,123.1c0-11.8,9.6-21.3,21.3-21.3c5.9,0,11.2,2.4,15,6.2l-20.1,10
			l-10.1,20.1C19,134.3,16.6,129,16.6,123.1z M39.7,121.3v3.6h-3.6v-3.6H39.7z M37.9,144.4c-5.9,0-11.2-2.4-15.1-6.2L43,128.1
			l10-20.1c3.8,3.9,6.2,9.2,6.2,15C59.3,134.9,49.7,144.4,37.9,144.4z"/>
	</g>
</g>
</svg>
