<?xml version="1.0" encoding="utf-8"?>
<!-- Generator: Adobe Illustrator 18.0.0, SVG Export Plug-In . SVG Version: 6.00 Build 0)  -->
<!DOCTYPE svg PUBLIC "-//W3C//DTD SVG 1.1//EN" "http://www.w3.org/Graphics/SVG/1.1/DTD/svg11.dtd">
<svg version="1.1" xmlns="http://www.w3.org/2000/svg" xmlns:xlink="http://www.w3.org/1999/xlink" x="0px" y="0px"
	 viewBox="0 0 56 56" enable-background="new 0 0 56 56" xml:space="preserve">
<g id="Grid" display="none">
	<rect x="0" y="0" display="inline" width="56" height="56"/>
</g>
<g id="Icons">
	<path fill="#A8A8A8" d="M53.6,12.1c-1.9,0.8-3.9,1.4-6,1.7c2.2-1.3,3.8-3.4,4.6-5.8c-2,1.2-4.3,2.1-6.7,2.5c-1.9-2-4.6-3.3-7.7-3.3
		c-5.8,0-10.5,4.7-10.5,10.5c0,0.8,0.1,1.6,0.3,2.4c-8.7-0.4-16.4-4.6-21.6-11c-0.9,1.6-1.4,3.4-1.4,5.3c0,3.6,1.9,6.9,4.7,8.7
		c-1.7-0.1-3.3-0.5-4.8-1.3c0,0,0,0.1,0,0.1c0,5.1,3.6,9.3,8.4,10.3c-0.9,0.2-1.8,0.4-2.8,0.4c-0.7,0-1.3-0.1-2-0.2
		c1.3,4.2,5.2,7.2,9.8,7.3c-3.6,2.8-8.1,4.5-13,4.5c-0.8,0-1.7-0.1-2.5-0.1c4.6,3,10.2,4.7,16.1,4.7c19.3,0,29.8-16,29.8-29.8
		c0-0.5,0-0.9,0-1.4C50.4,16.1,52.2,14.2,53.6,12.1z"/>
</g>
</svg>
