<?xml version="1.0" encoding="utf-8"?>
<!-- Generator: Adobe Illustrator 18.0.0, SVG Export Plug-In . SVG Version: 6.00 Build 0)  -->
<!DOCTYPE svg PUBLIC "-//W3C//DTD SVG 1.1//EN" "http://www.w3.org/Graphics/SVG/1.1/DTD/svg11.dtd">
<svg version="1.1" id="Layer_1" xmlns="http://www.w3.org/2000/svg" xmlns:xlink="http://www.w3.org/1999/xlink" x="0px" y="0px"
	 viewBox="0 0 60 60" enable-background="new 0 0 60 60" xml:space="preserve">
<g id="Grid" display="none">
	<rect y="0.1" display="inline" width="60" height="60"/>
</g>
<g id="Icons">
	<path fill="#FFFFFF" d="M29.9,5c-13.8,0-25,11.2-25,25s11.2,25,25,25s25-11.2,25-25S43.7,5,29.9,5z M29.9,53
		c-2.2,0-4.4-0.3-6.5-0.9l0,0c0.9-1.4,1.8-3.1,2.3-4.9c0.3-1,1.6-6.3,1.6-6.3c0.8,1.5,3.1,2.9,5.6,2.9c7.4,0,12.4-6.7,12.4-15.8
		c0-6.8-5.8-13.2-14.6-13.2c-10.9,0-16.4,7.8-16.4,14.4c0,4,1.5,7.5,4.7,8.8c0.5,0.2,1,0,1.2-0.6c0.1-0.4,0.4-1.4,0.5-1.8
		c0.2-0.6,0.1-0.8-0.3-1.3c-0.9-1.1-1.5-2.5-1.5-4.5c0-5.8,4.3-11,11.3-11c6.2,0,9.6,3.8,9.6,8.8c0,6.6-2.9,12.2-7.3,12.2
		c-2.4,0-4.2-2-3.6-4.4c0.7-2.9,2-6.1,2-8.2c0-1.9-1-3.5-3.1-3.5c-2.5,0-4.4,2.5-4.4,6c0,2.2,0.7,3.6,0.7,3.6s-2.5,10.7-3,12.5
		c-0.4,1.7-0.5,3.7-0.4,5.3l0,0C12.6,47.5,6.9,39.4,6.9,30c0-12.7,10.3-23,23-23s23,10.3,23,23S42.6,53,29.9,53z"/>
</g>
</svg>
