<?xml version="1.0" encoding="utf-8"?>
<!-- Generator: Adobe Illustrator 18.0.0, SVG Export Plug-In . SVG Version: 6.00 Build 0)  -->
<!DOCTYPE svg PUBLIC "-//W3C//DTD SVG 1.1//EN" "http://www.w3.org/Graphics/SVG/1.1/DTD/svg11.dtd">
<svg version="1.1" xmlns="http://www.w3.org/2000/svg" xmlns:xlink="http://www.w3.org/1999/xlink" x="0px" y="0px"
	 viewBox="0 0 60 60" enable-background="new 0 0 60 60" xml:space="preserve">
<g id="Grid" display="none">
	<rect display="inline" width="60" height="60"/>
</g>
<g id="Icons">
	<path fill="#FFFFFF" d="M46,10H14c-2.2,0-4,1.8-4,4v32c0,2.2,1.8,4,4,4h32c2.2,0,4-1.8,4-4V14C50,11.8,48.2,10,46,10z M35.5,44
		H24.4v-2.5h1.9c0.7,0,1.3-0.6,1.3-1.3l0,0V19.9l0,0c0-0.7-0.6-1.3-1.3-1.3h-1.9V16h11.1v2.6h-1.9c-0.7,0-1.3,0.6-1.3,1.3v20.2
		c0,0.7,0.6,1.3,1.3,1.3h2V44z"/>
</g>
</svg>
