<?xml version="1.0" encoding="utf-8"?>
<!-- Generator: Adobe Illustrator 18.0.0, SVG Export Plug-In . SVG Version: 6.00 Build 0)  -->
<!DOCTYPE svg PUBLIC "-//W3C//DTD SVG 1.1//EN" "http://www.w3.org/Graphics/SVG/1.1/DTD/svg11.dtd">
<svg version="1.1" xmlns="http://www.w3.org/2000/svg" xmlns:xlink="http://www.w3.org/1999/xlink" x="0px" y="0px"
	 viewBox="0 0 143 123" enable-background="new 0 0 143 123" xml:space="preserve">
<g id="Grid" display="none">
	<rect y="0" display="inline" width="143" height="123"/>
</g>
<g id="Layer_1">
	<path fill="#FFFFFF" d="M90.2,34.3c-3.8-4.4-7.4-11.4-9.5-17.1c-2.1,5.7-5.7,12.7-9.6,17.1l7.5-2.7c-0.1,10.5-0.3,20.4-1.5,29.5
		c-0.9,7.3-2.5,14-4.9,20c-3.6,8.9-9.1,16.1-17.8,21.1c-8.7,5-20.5,8-37.5,8v4c15,0,27.1-2.4,36.2-6.8c6.9-3.3,12.2-7.7,16.3-13.1
		c6.1-8,9.4-17.9,11.2-29c1.7-10.4,2-21.8,2.1-33.7L90.2,34.3z"/>
</g>
</svg>
