<?xml version="1.0" encoding="utf-8"?>
<!-- Generator: Adobe Illustrator 18.0.0, SVG Export Plug-In . SVG Version: 6.00 Build 0)  -->
<!DOCTYPE svg PUBLIC "-//W3C//DTD SVG 1.1//EN" "http://www.w3.org/Graphics/SVG/1.1/DTD/svg11.dtd">
<svg version="1.1" id="Layer_1" xmlns="http://www.w3.org/2000/svg" xmlns:xlink="http://www.w3.org/1999/xlink" x="0px" y="0px"
	 viewBox="0 0 60 60" enable-background="new 0 0 60 60" xml:space="preserve">
<g id="Grid" display="none">
	<rect display="inline" width="60" height="60"/>
</g>
<g id="Icons">
	<path fill="#FFFFFF" d="M30,5C16.2,5,5,16.2,5,30s11.2,25,25,25s25-11.2,25-25S43.8,5,30,5z M30,7c9,0,16.8,5.2,20.6,12.8H30l0,0
		c-0.2,0-0.5,0-0.7,0c-0.1,0-0.1,0-0.2,0c-0.2,0-0.4,0.1-0.6,0.1c-0.1,0-0.2,0-0.4,0.1c-0.2,0-0.4,0.1-0.5,0.1s-0.3,0.1-0.4,0.1
		c-0.2,0-0.3,0.1-0.5,0.2c-0.1,0-0.3,0.1-0.4,0.2s-0.3,0.1-0.4,0.2c-0.2,0.1-0.3,0.1-0.4,0.2c-0.2,0-0.3,0-0.5,0.1s-0.3,0.2-0.5,0.3
		c-0.1,0.1-0.2,0.1-0.3,0.2c-0.3,0.2-0.5,0.4-0.7,0.5l0,0c-0.2,0.2-0.5,0.4-0.7,0.6c-0.1,0.1-0.1,0.1-0.2,0.2
		c-0.1,0.2-0.3,0.3-0.4,0.5c-0.1,0.1-0.1,0.2-0.2,0.3c-0.1,0.1-0.2,0.3-0.3,0.5c-0.1,0.1-0.1,0.2-0.2,0.3c-0.1,0.1-0.2,0.3-0.3,0.5
		c-0.1,0.1-0.1,0.2-0.2,0.4c-0.1,0.1-0.1,0.3-0.2,0.5c-0.1,0.1-0.1,0.3-0.2,0.4s-0.1,0.3-0.2,0.4c-0.1,0.2-0.1,0.3-0.2,0.5
		c0,0.1-0.1,0.2-0.1,0.3c0,0.2-0.1,0.4-0.1,0.5l-6.9-12l-0.5-1C16.8,10.1,23,7,30,7z M37.6,30c0,0.4,0,0.8-0.1,1.2v0.1
		c-0.2,1.2-0.7,2.3-1.5,3.3v0.2v0.1c-0.9,1.1-2.1,1.9-3.4,2.4h-0.1c-0.4,0.1-0.7,0.2-1.1,0.3c0,0,0,0-0.1,0
		c-0.4,0.1-0.8,0.1-1.1,0.1c-0.3,0-0.7,0-1-0.1h-0.1c-0.3,0-0.6-0.1-0.9-0.2c0,0,0,0-0.1,0c-0.6-0.2-1.3-0.5-1.8-0.8
		c0,0-0.1,0-0.1-0.1c-1.2-0.7-2.1-1.8-2.8-3v-0.1v-0.1l0,0c-0.5-1-0.8-2.1-0.8-3.3c0-0.5,0.1-1,0.1-1.5v-0.1
		c0.1-0.4,0.2-0.8,0.4-1.2c0,0,0,0,0-0.1c0.2-0.4,0.3-0.8,0.6-1.1v-0.1c0.2-0.4,0.5-0.7,0.7-1l0,0c1.1-1.3,2.7-2.2,4.4-2.5l0,0
		c0.4-0.1,0.9-0.1,1.3-0.1h0.1c1.8,0,3.4,0.6,4.6,1.7l0.3,0.3C36.7,25.7,37.6,27.8,37.6,30z M25.7,52.6C15,50.6,7,41.2,7,30
		c0-4.7,1.4-9.1,3.9-12.8l6.9,12l3.1,5.4c0.4,0.8,0.9,1.5,1.5,2.2l0.1,0.1c0.6,0.6,1.3,1.2,2,1.7c0,0,0.1,0.1,0.2,0.1
		c0.3,0.2,0.7,0.4,1,0.6c0,0,0.1,0,0.1,0.1c0.4,0.2,0.8,0.3,1.3,0.5h0.1c0.4,0.1,0.8,0.2,1.2,0.3c0.1,0,0.1,0,0.2,0
		c0.5,0.1,0.9,0.1,1.4,0.1s1-0.1,1.5-0.1h0.1c0.5-0.1,1-0.2,1.4-0.3l-6.9,11.9L25.7,52.6z M30,53c-0.5,0-1,0-1.6-0.1L35.3,41
		l2.8-4.8c0.6-0.8,1.1-1.8,1.5-2.8v-0.1c0.1-0.2,0.1-0.4,0.2-0.6c0-0.1,0-0.2,0.1-0.3c0-0.2,0.1-0.4,0.1-0.6c0-0.1,0-0.2,0-0.3
		c0-0.2,0.1-0.4,0.1-0.6c0-0.1,0-0.2,0-0.3c0-0.2,0-0.4,0-0.6c0-0.8-0.1-1.5-0.2-2.2v-0.1c-0.1-0.3-0.2-0.6-0.3-0.9
		c0,0,0-0.1-0.1-0.1c-0.1-0.3-0.2-0.6-0.3-0.9c0,0,0-0.1-0.1-0.1c-0.1-0.3-0.3-0.5-0.4-0.8c0,0,0-0.1-0.1-0.1
		c-0.2-0.3-0.3-0.5-0.5-0.8c0,0,0,0,0-0.1c-0.2-0.3-0.4-0.5-0.6-0.8l0,0c-0.2-0.3-0.5-0.5-0.7-0.7h14.9c0.8,2.4,1.3,5,1.3,7.6
		C53,42.7,42.7,53,30,53z"/>
</g>
</svg>
