<?xml version="1.0" encoding="utf-8"?>
<!-- Generator: Adobe Illustrator 18.0.0, SVG Export Plug-In . SVG Version: 6.00 Build 0)  -->
<!DOCTYPE svg PUBLIC "-//W3C//DTD SVG 1.1//EN" "http://www.w3.org/Graphics/SVG/1.1/DTD/svg11.dtd">
<svg version="1.1" id="Layer_1" xmlns="http://www.w3.org/2000/svg" xmlns:xlink="http://www.w3.org/1999/xlink" x="0px" y="0px"
	 viewBox="0 0 160 46" enable-background="new 0 0 160 46" xml:space="preserve">
<g>
	<path d="M154.1,17.7L149.5,32h-0.1l-4.7-14.3h-5.8v-8h-5.7v28.9h5.7V18.5l7,18.8c0.2,0.4,0.2,0.8,0.2,1.3c0,1.3-0.7,2.5-2.2,2.6
		c-1.1,0-2.3-0.1-3.4-0.2v4.7c1.2,0.1,2.3,0.2,3.5,0.2c3.9,0,5.9-1.4,7.2-4.7l8.7-23.5H154.1z"/>
	<path d="M71.2,17.7h-4v-1.3c0-1.7,0.6-2.4,2.2-2.4c0.7,0,1.4,0,2.1,0.1V9.9c-1,0-2-0.2-3-0.2c-4.7,0-7,2.6-7,6.3v1.6h-3.4v3.8h3.4
		v17.1h5.7V21.5h4V17.7z"/>
	<path d="M126.1,20.2L126.1,20.2c-1.4-2.1-3.8-3.1-6.3-3.1c-5.7,0-8.8,4.4-9.2,9.6c-0.6-5.2-4-9.6-10.1-9.6c-5.6,0-9.6,3.7-10.5,8.8
		c-0.8-4.9-4.2-8.8-10-8.8c-6.4,0-10.7,4.8-10.7,11c0,6.5,4.1,11,10.7,11c4.7,0,8.2-2.1,9.8-7h-5.1c-0.4,1.3-2.2,2.7-4.5,2.7
		c-3.2,0-5-1.6-5.1-5.3h14.8c0.5,5.7,4.5,9.6,10.6,9.6c4.7,0,8.2-2.1,9.8-7h-5.1c-0.4,1.3-2.2,2.7-4.5,2.7c-3.2,0-5-1.6-5.1-5.3h15
		c0.5,5.2,3.6,9.6,9.3,9.6c2.7,0,5-1,6.3-3.2h0.1v2.7h5.5V9.7h-5.7V20.2z M75.1,25.9c0.1-1.6,1-4.4,4.8-4.4c2.8,0,4,1.5,4.6,4.4
		H75.1z M95.6,25.9c0.1-1.6,1.1-4.4,4.8-4.4c2.8,0,4,1.5,4.6,4.4H95.6z M121.4,34.8c-3.6,0-5.1-3.4-5.1-6.7c0-3.4,1.3-6.7,5.1-6.7
		c3.7,0,4.9,3.2,4.9,6.6C126.3,31.5,125.1,34.8,121.4,34.8z"/>
	<g>
		<path fill="#2BB24C" d="M28.1,1.8c-2.1-2.1-5.5-2.1-7.5,0l-19,19c-2.1,2.1-2.1,5.5,0,7.5l13.5,13.5c0.9,0.8,2.2,1.3,3.5,1.3H30
			c1.5,0,2.8-0.6,3.8-1.6L47,28.3c2.1-2.1,2.1-5.5,0-7.5L28.1,1.8z"/>
		<g>
			<path fill="#FFFFFF" d="M27.5,36.4l-1.9,1.9c-0.1,0.1-0.3,0.2-0.5,0.2h-1.6c-0.2,0-0.4-0.1-0.5-0.2l-1.9-1.9
				c-0.3-0.3-0.3-0.8,0-1.1l2.7-2.7c0.3-0.3,0.8-0.3,1.1,0l2.7,2.7C27.8,35.7,27.8,36.1,27.5,36.4z M27.5,25.1L20,32.7
				c-0.1,0.1-0.3,0.2-0.5,0.2h-1.6c-0.2,0-0.4-0.1-0.5-0.2l-1.9-1.9c-0.3-0.3-0.3-0.8,0-1.1l8.4-8.4c0.3-0.3,0.8-0.3,1.1,0l2.7,2.7
				C27.8,24.3,27.8,24.8,27.5,25.1z M27.5,13.7L14.3,27c-0.1,0.1-0.3,0.2-0.5,0.2h-1.6c-0.2,0-0.4-0.1-0.5-0.2l-1.9-1.9
				c-0.3-0.3-0.3-0.8,0-1.1L23.8,10c0.3-0.3,0.8-0.3,1.1,0l2.7,2.7C27.8,13,27.8,13.4,27.5,13.7z"/>
		</g>
	</g>
</g>
</svg>
