<?xml version="1.0" encoding="utf-8"?>
<!-- Generator: Adobe Illustrator 18.0.0, SVG Export Plug-In . SVG Version: 6.00 Build 0)  -->
<!DOCTYPE svg PUBLIC "-//W3C//DTD SVG 1.1//EN" "http://www.w3.org/Graphics/SVG/1.1/DTD/svg11.dtd">
<svg version="1.1" xmlns="http://www.w3.org/2000/svg" xmlns:xlink="http://www.w3.org/1999/xlink" x="0px" y="0px"
	 viewBox="0 0 60 60" enable-background="new 0 0 60 60" xml:space="preserve">
<g id="Grid" display="none">
	<rect display="inline" width="60" height="60"/>
</g>
<g id="Icons">
	<path fill="#733781" d="M47.7,33.5c0.4-2.5,0.3-5.1,0.1-7.7c0.2-2.4,0.4-4.8,0.1-7.2c-0.2-1.3-1.7-1.2-2.7-1.4
		c-0.1-0.4-0.3-0.9-0.4-1.3c-3.8-0.6-7.7-0.1-11.5-0.3c0-1.1,0-2.2,0-3.3h-2.4C24.5,13.5,12,15.7,12,15.7v28.6
		c0,0,12.5,2.1,18.7,3.3h2.6c0-1.1,0-2.2,0-3.3c3,0,6,0,9,0c0.8,0,1.7,0.1,2.5-0.4c0.4-0.6,0.3-1.3,0.5-2c1-0.2,2.5-0.1,2.6-1.4
		C48.1,38.2,48.1,35.8,47.7,33.5z M27.1,36.6c-0.9,0-1.8-0.1-2.6-0.1c-1.6-3.1-3.4-6.2-5-9.3c0.1,3,0,6.1,0,9.1
		c-0.7,0-1.5-0.1-2.2-0.1c0-4.2,0-8.3,0-12.5c0.8,0,1.7-0.1,2.5-0.1c1.6,2.9,3.2,5.8,4.8,8.8c0-3,0-6.1,0-9.1c0.8,0,1.6-0.1,2.5-0.1
		V36.6z M43.9,25.1c0,6,0,12,0,18c-3.5,0-7.1,0-10.6,0v-3.3c2.6,0,5.2,0,7.8,0c0-0.5,0-1.1,0-1.6c-2.6,0-5.2,0-7.8,0v-2.1
		c2.6,0,5.2,0,7.8,0c0-0.5,0-1.1,0-1.6c-2.6,0-5.2,0-7.8,0v-2.1c2.6,0,5.2,0,7.8,0c0-0.5,0-1.1,0-1.6c-2.6,0-5.2,0-7.8,0v-2.1
		c2.6,0,5.2,0,7.8,0c0-0.5,0-1.1,0-1.6c-2.6,0-5.2,0-7.8,0v-2.1c2.6,0,5.2,0,7.8,0c0-0.5,0-1.1,0-1.6c-2.6,0-5.2,0-7.8,0v-2.1
		c2.6,0,5.2,0,7.8,0c0-0.5,0-1.1,0-1.6c-2.6,0-5.2,0-7.8,0v-2.9c3.5,0,7.1,0,10.6,0c0,0.5,0,1.1,0,1.6c0.9,0,1.9,0,2.8,0.1
		c0.1,2.2,0.1,4.3,0,6.5C45.8,25.1,44.8,25.1,43.9,25.1z M46.7,40.6c-0.5,0-1.1,0.1-1.6,0.1c0-2.2,0-4.4,0-6.6
		c0.5,0,1.1,0.1,1.6,0.1C46.8,36.3,46.8,38.4,46.7,40.6z M46.7,32.8c-0.5,0-1.1,0.1-1.6,0.1c0-2.2,0-4.4,0-6.6c0.5,0,1.1,0,1.6,0.1
		C46.8,28.5,46.8,30.7,46.7,32.8z"/>
</g>
</svg>
