<?xml version="1.0" encoding="utf-8"?>
<!-- Generator: Adobe Illustrator 18.0.0, SVG Export Plug-In . SVG Version: 6.00 Build 0)  -->
<!DOCTYPE svg PUBLIC "-//W3C//DTD SVG 1.1//EN" "http://www.w3.org/Graphics/SVG/1.1/DTD/svg11.dtd">
<svg version="1.1" id="Layer_1" xmlns="http://www.w3.org/2000/svg" xmlns:xlink="http://www.w3.org/1999/xlink" x="0px" y="0px"
	 viewBox="0 0 60 60" enable-background="new 0 0 60 60" xml:space="preserve">
<g id="Grid" display="none">
	<rect display="inline" width="60" height="60"/>
</g>
<g id="Icons">
	<g>
		<path fill="#FFFFFF" d="M39.5,20.5V30L30,39.5L20.5,30l9.5-9.5H39.5 M34.8,27.4c0.5,0,1.1-0.3,1.6-0.7c0.8-0.8,0.8-2.3,0-3.1
			c-0.4-0.4-1-0.7-1.6-0.7c-0.5,0-1.1,0.3-1.6,0.7c-0.8,0.8-0.8,2.3,0,3.1C33.7,27.3,34.2,27.4,34.8,27.4 M40.9,19.1h-1.4H30h-0.5
			L29,19.5L19.5,29l-1,1l1,1l9.5,9.5l1,1l1-1l9.5-9.5l0.4-0.4V30v-9.5V19.1z M34.8,26c-0.3,0-0.4-0.1-0.7-0.3
			c-0.1-0.1-0.3-0.4-0.3-0.7c0-0.3,0.1-0.4,0.3-0.7c0.1-0.1,0.4-0.3,0.7-0.3s0.4,0.1,0.7,0.3c0.4,0.4,0.4,1,0,1.2
			C35.2,26,35,26,34.8,26z"/>
	</g>
</g>
</svg>
