<?xml version="1.0" encoding="utf-8"?>
<!-- Generator: Adobe Illustrator 18.0.0, SVG Export Plug-In . SVG Version: 6.00 Build 0)  -->
<!DOCTYPE svg PUBLIC "-//W3C//DTD SVG 1.1//EN" "http://www.w3.org/Graphics/SVG/1.1/DTD/svg11.dtd">
<svg version="1.1" xmlns="http://www.w3.org/2000/svg" xmlns:xlink="http://www.w3.org/1999/xlink" x="0px" y="0px"
	 viewBox="0 0 60 60" enable-background="new 0 0 60 60" xml:space="preserve">
<g id="Grid" display="none">
	<rect x="0" display="inline" width="60" height="60"/>
</g>
<g id="Icons">
	<path fill="#000000" d="M30,10c-11,0-20,9-20,20s9,20,20,20s20-9,20-20S41,10,30,10z M30,12c7.1,0,13.2,4.1,16.1,10H30l0,0
		c-0.2,0-0.4,0-0.6,0c0,0-0.1,0-0.1,0c-0.2,0-0.3,0-0.5,0.1c-0.1,0-0.2,0-0.3,0c-0.1,0-0.3,0.1-0.4,0.1c-0.1,0-0.2,0.1-0.3,0.1
		c-0.1,0-0.3,0.1-0.4,0.1c-0.1,0-0.2,0.1-0.3,0.1c-0.1,0-0.2,0.1-0.3,0.1c-0.1,0.1-0.2,0.1-0.3,0.2c-0.1,0.1-0.2,0.1-0.3,0.2
		c-0.1,0.1-0.3,0.2-0.4,0.2c-0.1,0-0.2,0.1-0.2,0.1c-0.2,0.1-0.4,0.3-0.6,0.4c0,0,0,0,0,0c-0.2,0.2-0.4,0.3-0.5,0.5
		c-0.1,0.1-0.1,0.1-0.1,0.2c-0.1,0.1-0.2,0.2-0.3,0.4c-0.1,0.1-0.1,0.1-0.2,0.2c-0.1,0.1-0.2,0.2-0.3,0.4c-0.1,0.1-0.1,0.2-0.2,0.3
		c-0.1,0.1-0.1,0.2-0.2,0.4c-0.1,0.1-0.1,0.2-0.2,0.3c-0.1,0.1-0.1,0.2-0.2,0.4c0,0.1-0.1,0.2-0.1,0.3c0,0.1-0.1,0.2-0.1,0.3
		c0,0.1-0.1,0.2-0.1,0.4c0,0.1,0,0.2-0.1,0.3c0,0.1-0.1,0.3-0.1,0.4L16.8,19l-0.4-0.7C19.6,14.4,24.5,12,30,12z M36,30
		c0,0.3,0,0.6-0.1,0.9c0,0,0,0,0,0.1c-0.2,0.9-0.5,1.8-1.1,2.6l-0.1,0.1l0,0.1c-0.7,0.9-1.6,1.5-2.7,1.9l-0.1,0
		c-0.3,0.1-0.6,0.2-0.9,0.2c0,0,0,0,0,0C30.6,36,30.3,36,30,36c-0.3,0-0.5,0-0.8-0.1c0,0-0.1,0-0.1,0c-0.2,0-0.5-0.1-0.7-0.2
		c0,0,0,0,0,0c-0.5-0.1-1-0.4-1.4-0.6c0,0-0.1,0-0.1,0c-0.9-0.6-1.7-1.4-2.2-2.4l0,0l0,0l0,0C24.2,31.8,24,30.9,24,30
		c0-0.4,0-0.8,0.1-1.1l0-0.1c0.1-0.3,0.2-0.7,0.3-1c0,0,0,0,0,0c0.1-0.3,0.3-0.6,0.4-0.9c0,0,0,0,0-0.1c0.2-0.3,0.4-0.5,0.6-0.8
		c0,0,0,0,0,0c0.9-1,2.1-1.7,3.5-1.9c0,0,0,0,0,0c0.3-0.1,0.7-0.1,1-0.1h0.1c1.4,0,2.6,0.5,3.6,1.3l0.2,0.2C35.2,26.7,36,28.3,36,30
		z M26.6,47.7C18.3,46.1,12,38.8,12,30c0-3.7,1.1-7.1,3-10l5.4,9.4l2.4,4.2c0.3,0.6,0.7,1.2,1.2,1.7c0,0,0,0,0.1,0.1
		c0.5,0.5,1,0.9,1.6,1.3c0,0,0.1,0,0.1,0.1c0.3,0.2,0.5,0.3,0.8,0.4c0,0,0.1,0,0.1,0c0.3,0.1,0.6,0.3,1,0.4c0,0,0,0,0.1,0
		c0.3,0.1,0.6,0.2,1,0.2c0.1,0,0.1,0,0.2,0c0.4,0,0.7,0.1,1.1,0.1c0.4,0,0.8,0,1.2-0.1c0,0,0.1,0,0.1,0c0.4-0.1,0.8-0.1,1.1-0.3
		L27,46.9L26.6,47.7z M30,48c-0.4,0-0.8,0-1.2-0.1l5.4-9.3l2.2-3.8c0.5-0.7,0.9-1.4,1.2-2.2c0,0,0,0,0-0.1c0.1-0.2,0.1-0.3,0.2-0.5
		c0-0.1,0-0.1,0.1-0.2c0-0.2,0.1-0.3,0.1-0.5c0-0.1,0-0.2,0-0.2c0-0.2,0-0.3,0.1-0.5c0-0.1,0-0.2,0-0.2c0-0.2,0-0.3,0-0.5
		c0-0.6-0.1-1.2-0.2-1.7c0,0,0,0,0-0.1c-0.1-0.2-0.1-0.5-0.2-0.7c0,0,0-0.1,0-0.1c-0.1-0.2-0.2-0.4-0.3-0.7c0,0,0-0.1-0.1-0.1
		c-0.1-0.2-0.2-0.4-0.3-0.6c0,0,0-0.1-0.1-0.1c-0.1-0.2-0.3-0.4-0.4-0.6c0,0,0,0,0-0.1c-0.2-0.2-0.3-0.4-0.5-0.6c0,0,0,0,0,0
		c-0.2-0.2-0.4-0.4-0.6-0.6H47c0.7,1.9,1,3.9,1,6C48,39.9,39.9,48,30,48z"/>
</g>
</svg>
