<?xml version="1.0" encoding="utf-8"?>
<!-- Generator: Adobe Illustrator 18.0.0, SVG Export Plug-In . SVG Version: 6.00 Build 0)  -->
<!DOCTYPE svg PUBLIC "-//W3C//DTD SVG 1.1//EN" "http://www.w3.org/Graphics/SVG/1.1/DTD/svg11.dtd">
<svg version="1.1" id="Layer_1" xmlns="http://www.w3.org/2000/svg" xmlns:xlink="http://www.w3.org/1999/xlink" x="0px" y="0px"
	 width="70px" height="60px" viewBox="0 0 70 60" enable-background="new 0 0 70 60" xml:space="preserve">
<g id="Grid">
</g>
<g id="Icons">
	<path fill="#9D9D9D" d="M0,18v4h13.5v-4H0z M0,32h13.5v-4H0V32z M0,42h13.5v-4H0V42z"/>
	<g>
		<path fill="#2BB24C" d="M44.7,8.4c-2-2-5.2-2-7.2,0l-18,18c-2,2-2,5.2,0,7.2l12.9,12.9c0.9,0.8,2.1,1.3,3.3,1.3h10.8
			c1.4,0,2.7-0.6,3.6-1.5l12.6-12.6c2-2,2-5.2,0-7.2L44.7,8.4z"/>
		<g>
			<path fill="#FFFFFF" d="M44.2,41.3l-1.8,1.8c-0.1,0.1-0.3,0.2-0.5,0.2h-1.5c-0.2,0-0.4-0.1-0.5-0.2L38,41.3c-0.3-0.3-0.3-0.7,0-1
				l2.6-2.6c0.3-0.3,0.7-0.3,1,0l2.6,2.6C44.4,40.5,44.4,41,44.2,41.3z M44.2,30.5L37,37.7c-0.1,0.1-0.3,0.2-0.5,0.2H35
				c-0.2,0-0.4-0.1-0.5-0.2l-1.8-1.8c-0.3-0.3-0.3-0.7,0-1l8-8c0.3-0.3,0.7-0.3,1,0l2.6,2.6C44.4,29.8,44.4,30.2,44.2,30.5z
				 M44.2,19.7L31.6,32.3c-0.1,0.1-0.3,0.2-0.5,0.2h-1.5c-0.2,0-0.3-0.1-0.5-0.2l-1.8-1.8c-0.3-0.3-0.3-0.7,0-1l13.4-13.4
				c0.3-0.3,0.7-0.3,1,0l2.6,2.6C44.4,19,44.4,19.4,44.2,19.7z"/>
		</g>
	</g>
</g>
</svg>
