<?xml version="1.0" encoding="utf-8"?>
<!-- Generator: Adobe Illustrator 18.0.0, SVG Export Plug-In . SVG Version: 6.00 Build 0)  -->
<!DOCTYPE svg PUBLIC "-//W3C//DTD SVG 1.1//EN" "http://www.w3.org/Graphics/SVG/1.1/DTD/svg11.dtd">
<svg version="1.1" xmlns="http://www.w3.org/2000/svg" xmlns:xlink="http://www.w3.org/1999/xlink" x="0px" y="0px"
	 viewBox="0 0 60 60" enable-background="new 0 0 60 60" xml:space="preserve">
<g id="Grid" display="none">
	<rect x="0" display="inline" width="60" height="60"/>
</g>
<g id="Icons">
	<path id="Shape_11_" fill="#FFFFFF" d="M30,10c-11,0-20,9-20,20s9,20,20,20s20-9,20-20S41,10,30,10L30,10z M30,14
		c6,0,11,3.2,13.8,8H30c-3.8,0-7.2,2.8-7.8,6.4l-4.8-8.2C20.4,16.4,24.8,14,30,14L30,14z M36,30c0,3.4-2.6,6-6,6s-6-2.6-6-6
		s2.6-6,6-6S36,26.6,36,30L36,30z M14,30c0-3,0.8-5.6,2.2-8l7,12c1.4,2.4,4,4,6.8,4c1,0,1.8-0.2,2.6-0.4l-4.8,8.2
		C20,44.8,14,38,14,30L14,30z M30,46l7-12c0.6-1.2,1.2-2.6,1.2-4c0-2.4-1-4.6-2.8-6H45c0.8,1.8,1.2,3.8,1.2,6C46,38.8,38.8,46,30,46
		L30,46z"/>
</g>
</svg>
