<?xml version="1.0" encoding="utf-8"?>
<!-- Generator: Adobe Illustrator 18.0.0, SVG Export Plug-In . SVG Version: 6.00 Build 0)  -->
<!DOCTYPE svg PUBLIC "-//W3C//DTD SVG 1.1//EN" "http://www.w3.org/Graphics/SVG/1.1/DTD/svg11.dtd">
<svg version="1.1" xmlns="http://www.w3.org/2000/svg" xmlns:xlink="http://www.w3.org/1999/xlink" x="0px" y="0px"
	 viewBox="0 0 60 60" enable-background="new 0 0 60 60" xml:space="preserve">
<g id="Grid" display="none">
	<rect x="0" display="inline" width="60" height="60"/>
</g>
<g id="Icons">
	<path id="Shape_22_" fill="#FFFFFF" d="M47.4,21.6C47,36,38,46,24.2,46.6c-5.6,0.3-9.7-1.6-13.4-3.8c4.1,0.6,9.4-0.9,12.2-3.4
		c-4.1-0.3-6.6-2.5-7.8-5.9c1.3,0.3,2.5,0,3.4,0C14.9,32.2,12.4,30,12,25c0.9,0.6,2.2,0.9,3.4,0.9c-2.8-1.6-4.7-7.5-2.5-11.2
		c4.1,4.4,9.1,8.1,17.2,8.8C28,14.7,39.9,10,44.5,16c2.2-0.3,3.8-1.3,5.3-1.9c-0.6,2.2-1.9,3.4-3.4,4.7c1.6-0.3,3.1-0.6,4.4-1.3
		C50.5,19.1,48.9,20.3,47.4,21.6L47.4,21.6z"/>
</g>
</svg>
