<?xml version="1.0" encoding="utf-8"?>
<!-- Generator: Adobe Illustrator 18.0.0, SVG Export Plug-In . SVG Version: 6.00 Build 0)  -->
<!DOCTYPE svg PUBLIC "-//W3C//DTD SVG 1.1//EN" "http://www.w3.org/Graphics/SVG/1.1/DTD/svg11.dtd">
<svg version="1.1" xmlns="http://www.w3.org/2000/svg" xmlns:xlink="http://www.w3.org/1999/xlink" x="0px" y="0px"
	 viewBox="0 0 60 60" enable-background="new 0 0 60 60" xml:space="preserve">
<g id="Grid" display="none">
	<rect display="inline" width="60" height="60"/>
</g>
<g id="Icons">
	<path fill="#FFFFFF" d="M49.1,41.4l-17.9,8.3c-0.7,0.3-1.8,0.3-2.5,0l-17.9-8.3c-0.7-0.3-0.7-0.8,0-1.1l3.4-1.6
		c0.7-0.3,1.8-0.3,2.5,0l12.1,5.6c0.7,0.3,1.8,0.3,2.5,0l12.1-5.6c0.7-0.3,1.8-0.3,2.5,0l3.4,1.6C49.8,40.6,49.8,41.1,49.1,41.4z
		 M49.1,30.6l-17.9,8.3c-0.7,0.3-1.8,0.3-2.5,0l-17.9-8.3c-0.7-0.3-0.7-0.8,0-1.1l3.4-1.6c0.7-0.3,1.8-0.3,2.5,0l12.1,5.6
		c0.7,0.3,1.8,0.3,2.5,0l12.1-5.6c0.7-0.3,1.8-0.3,2.5,0l3.4,1.6C49.8,29.7,49.8,30.3,49.1,30.6z M49.1,19.7l-17.9,8.3
		c-0.7,0.3-1.8,0.3-2.5,0l-17.9-8.3c-0.7-0.3-0.7-0.8,0-1.1l17.9-8.3c0.7-0.3,1.8-0.3,2.5,0l17.9,8.3C49.8,18.9,49.8,19.4,49.1,19.7
		z"/>
</g>
</svg>
