<?xml version="1.0" encoding="utf-8"?>
<!-- Generator: Adobe Illustrator 18.0.0, SVG Export Plug-In . SVG Version: 6.00 Build 0)  -->
<!DOCTYPE svg PUBLIC "-//W3C//DTD SVG 1.1//EN" "http://www.w3.org/Graphics/SVG/1.1/DTD/svg11.dtd">
<svg version="1.1" id="Layer_1" xmlns="http://www.w3.org/2000/svg" xmlns:xlink="http://www.w3.org/1999/xlink" x="0px" y="0px"
	 width="44px" height="44px" viewBox="0 0 44 44" enable-background="new 0 0 44 44" xml:space="preserve">
<g id="Grid" display="none">
	<rect display="inline" width="44" height="44"/>
</g>
<g id="Icons">
	<path fill="#FFFFFF" d="M23.6,13.6c-0.9-0.9-2.3-0.9-3.2,0l-8,8c-0.9,0.9-0.9,2.3,0,3.2l5.7,5.7c0.4,0.3,0.9,0.6,1.5,0.6h4.8
		c0.6,0,1.2-0.3,1.6-0.7l5.6-5.6c0.9-0.9,0.9-2.3,0-3.2L23.6,13.6z M23.4,28.2L22.6,29c-0.1,0.1-0.1,0.1-0.2,0.1h-0.7
		c-0.1,0-0.2,0-0.2-0.1l-0.8-0.8c-0.1-0.1-0.1-0.3,0-0.5l1.1-1.1c0.1-0.1,0.3-0.1,0.5,0l1.1,1.1C23.5,27.8,23.5,28.1,23.4,28.2z
		 M23.4,23.4l-3.2,3.2c-0.1,0.1-0.1,0.1-0.2,0.1h-0.7c-0.1,0-0.2,0-0.2-0.1l-0.8-0.8c-0.1-0.1-0.1-0.3,0-0.5l3.5-3.5
		c0.1-0.1,0.3-0.1,0.5,0l1.1,1.1C23.5,23.1,23.5,23.3,23.4,23.4z M23.4,18.7l-5.6,5.6c-0.1,0.1-0.1,0.1-0.2,0.1h-0.7
		c-0.1,0-0.2,0-0.2-0.1l-0.8-0.8c-0.1-0.1-0.1-0.3,0-0.5l5.9-5.9c0.1-0.1,0.3-0.1,0.5,0l1.1,1.1C23.5,18.3,23.5,18.5,23.4,18.7z"/>
</g>
</svg>
