<?xml version="1.0" encoding="utf-8"?>
<!-- Generator: Adobe Illustrator 18.0.0, SVG Export Plug-In . SVG Version: 6.00 Build 0)  -->
<!DOCTYPE svg PUBLIC "-//W3C//DTD SVG 1.1//EN" "http://www.w3.org/Graphics/SVG/1.1/DTD/svg11.dtd">
<svg version="1.1" id="Layer_1" xmlns="http://www.w3.org/2000/svg" xmlns:xlink="http://www.w3.org/1999/xlink" x="0px" y="0px"
	 viewBox="0 0 60 60" enable-background="new 0 0 60 60" xml:space="preserve">
<g id="Grid" display="none">
	<rect display="inline" width="60" height="60"/>
</g>
<g id="Icons">
	<g>
		<path fill="#FFFFFF" d="M30,5C16.3,5,5.2,15.4,5.2,28.1c0,7.2,3.5,13.7,9.1,17.9v9l8.8-4.6c2.2,0.6,4.5,0.9,6.9,0.9
			c13.7,0,24.8-10.4,24.8-23.1C54.8,15.4,43.7,5,30,5z M30,49.3c-2.2,0-4.3-0.3-6.4-0.8l-0.8-0.2l-0.7,0.4l-5.9,3.1V45l-0.8-0.6
			c-5.3-4-8.3-10-8.3-16.3C7.2,16.5,17.4,7,30,7s22.8,9.5,22.8,21.1S42.6,49.3,30,49.3z M27.3,21.8L14.1,36l12.2-6.4l6.4,6.4
			L46,21.8l-12.2,6.4L27.3,21.8z"/>
	</g>
</g>
</svg>
