<?xml version="1.0" encoding="utf-8"?>
<!-- Generator: Adobe Illustrator 18.0.0, SVG Export Plug-In . SVG Version: 6.00 Build 0)  -->
<!DOCTYPE svg PUBLIC "-//W3C//DTD SVG 1.1//EN" "http://www.w3.org/Graphics/SVG/1.1/DTD/svg11.dtd">
<svg version="1.1" id="Layer_1" xmlns="http://www.w3.org/2000/svg" xmlns:xlink="http://www.w3.org/1999/xlink" x="0px" y="0px"
	 viewBox="0 0 60 60" enable-background="new 0 0 60 60" xml:space="preserve">
<g id="Grid" display="none">
	<rect display="inline" width="60" height="60"/>
</g>
<g id="Icons">
	<g>
		<g>
			<path fill="#FFFFFF" d="M26.5,7c1.6,0,3.5,0.2,5,0.8c1,0.4,1.9,1.6,2.1,2.8c0.5,0,1.2,0,1.9,0c1.4,0,3,0,4.4,0.2
				c2.7,0.3,4.9,0.7,5.9,1.1c1,0.4,2.1,1.3,2.4,3.1c0.6,3.1,1.3,15.6,0.9,19.7c-0.6,6.5-1.6,10.4-2,11.7C45,52.8,43.2,53,38.2,53
				c-6.4,0-8.4-1-8.4-6.1c0-5,2.1-5.7,5.7-5.7c0.5,0,1,0,1.5,0c0.6,0,0,0.6,0,1.7c0,1.1,0.4,1.5-0.2,1.5c-0.2,0-0.5,0-0.7,0
				c-1.2,0-2.4,0.1-2.4,1.6c0,2.1,0.9,2.1,3.3,2.1c0.2,0,0.3,0,0.5,0c3.4,0,4.1-0.4,4.1-3.5c0-5.1-1.5-5.9-3.5-6.1
				c-2.2-0.3-4.4-0.6-5.4-1C30,36.6,30.2,33,30.2,32h0l-0.1,0.1c0,1.4-0.1,3.4-0.8,5.5c-0.2,0.6-0.4,1.1-0.4,1.1
				c-0.4,0.9-1.1,1.2-1.9,1.2c-0.7,0-1.6-0.2-2.6-0.3c-2.2-0.3-7-1.3-9.1-2.2c-0.9-0.4-1.3-0.8-1.7-1.8c-1.2-2.5-2.5-10.9-2.7-12.1
				c-0.2-1.5-0.2-2.3-0.2-2.3c0-1,0.1-1.9,0.7-2.7c0.3-0.4,0.7-0.7,1.2-1c0.5-0.2,1.2-0.4,2.2-0.4h4.3c0.9,0,1.7-0.8,1.7-1.7
				c0,0,0-0.9,0-2c0-1,0-2.2,0-2.7c0-0.9,0.2-1.5,0.6-2c0.5-0.7,1.4-1.2,2.3-1.5C24.1,7.1,25.2,7,26.5,7 M37.6,28.9
				c0.5-0.1,1-0.1,1.5-0.1c0.1,0,0.2,0,0.3,0c1.2,0,2.2,0.3,3.1,0.7c0-1.3-0.3-3.3-2.3-3.3h-0.1C38.3,26.1,37.8,27.6,37.6,28.9
				 M19.9,8.2l-0.1,0.3c-0.3,0.6-0.5,1.4-0.5,2.2l0,0c0,1,0.1,4.7,0.1,4.7c0,0.2-0.2,0.4-0.4,0.4h-4.3l0,0c-1.1,0-1.9,0.2-2.7,0.5
				c0,0-0.3,0.1-0.4,0.2l0,0L19.9,8.2L19.9,8.2 M26.5,5L26.5,5c-1.4,0-2.7,0.1-3.4,0.3c-0.6,0.2-1.5,0.5-2.3,1.1
				c-0.3-0.1-0.6-0.2-0.9-0.2c-0.1,0-0.2,0-0.3,0c-0.4,0.1-0.9,0.3-1.2,0.6l-8.3,8.3c-0.3,0.3-0.5,0.6-0.6,1
				c-0.1,0.5-0.1,0.9,0.2,1.4c-0.8,1.2-0.9,2.6-0.9,3.7c0,0.1,0,1,0.2,2.6c0,0.1,1.4,9.6,2.9,12.7c0.6,1.3,1.2,2.1,2.7,2.8h0.1
				c2.4,1,7.5,2,9.6,2.3c0.3,0,0.7,0.1,1,0.1c0.7,0.1,1.3,0.2,1.9,0.2c1,0,1.8-0.3,2.5-0.8c-1,1.1-1.7,2.9-1.7,5.7
				c0,7.5,4.5,8.1,10.4,8.1c5.8,0,8.4-0.7,10.8-8c0.2-0.7,1.4-4.6,2.1-12.1c0.4-4.4-0.4-17-1-20.3c-0.4-2.2-1.8-3.9-3.7-4.6
				c-1.5-0.6-4.3-1-6.4-1.2c-1.3-0.2-2.9-0.2-4.6-0.2c-0.2,0-0.3,0-0.5,0c-0.6-1.2-1.6-2.2-2.8-2.7C30.3,5.2,28.1,5,26.5,5z
				 M30.7,39.6c0.1-0.2,0.2-0.4,0.3-0.7c0.3,0.2,0.7,0.4,1.2,0.6l0.2,0.1c-0.9,0.2-1.6,0.6-2.3,1.1C30.3,40.4,30.5,40,30.7,39.6
				L30.7,39.6z M38,46.3c0.3-0.2,0.5-0.4,0.7-0.5c0.7-0.8,0.5-1.7,0.4-2.1c0-0.2-0.1-0.4-0.1-0.6c0-0.1,0.1-0.3,0.1-0.5
				c0.1-0.2,0.2-0.6,0.2-1.1c0.2,0.6,0.4,1.6,0.4,3.3c0,0.9-0.1,1.2-0.1,1.4C39.4,46.2,39,46.3,38,46.3z"/>
		</g>
	</g>
</g>
</svg>
