<?xml version="1.0" encoding="utf-8"?>
<!-- Generator: Adobe Illustrator 18.0.0, SVG Export Plug-In . SVG Version: 6.00 Build 0)  -->
<!DOCTYPE svg PUBLIC "-//W3C//DTD SVG 1.1//EN" "http://www.w3.org/Graphics/SVG/1.1/DTD/svg11.dtd">
<svg version="1.1" xmlns="http://www.w3.org/2000/svg" xmlns:xlink="http://www.w3.org/1999/xlink" x="0px" y="0px"
	 viewBox="0 0 60 60" enable-background="new 0 0 60 60" xml:space="preserve">
<g id="Grid" display="none">
	<rect display="inline" width="60" height="60"/>
</g>
<g id="Icons">
	<path fill="#FFFFFF" d="M46.3,16.6l-2.8-2.8c-1-1-2.3-1.5-3.5-1.5c-1.3,0-2.6,0.5-3.5,1.5v0l-5.7,5.7c-0.8,0.8-1.4,1.8-1.8,2.9
		c-0.4,1.1-0.7,2.3-0.7,3.4c0,0.5,0,0.9,0.1,1.3l0.5,2.6l-3.1,3.1c-0.4,0.4-0.4,1,0,1.4c0.4,0.4,1,0.4,1.4,0l2.2-2.2l0.3,1.3
		c0.1,0.3,0.1,0.6,0.1,0.9c0,0.8-0.2,1.8-0.5,2.7c-0.3,0.9-0.8,1.7-1.3,2.2l-5.7,5.7c-0.6,0.6-1.3,0.9-2.1,0.9
		c-0.8,0-1.5-0.3-2.1-0.9L15.2,42c-0.6-0.6-0.9-1.3-0.9-2.1c0-0.8,0.3-1.5,0.9-2.1l0,0l9.5-9.5L24.1,26L13.7,36.4
		c-1,1-1.5,2.3-1.5,3.5c0,1.3,0.5,2.6,1.5,3.5l2.8,2.8c1,1,2.3,1.5,3.5,1.5c1.3,0,2.6-0.5,3.5-1.5l5.7-5.7c0.8-0.8,1.4-1.8,1.8-2.9
		c0.4-1.1,0.7-2.3,0.7-3.4c0-0.5,0-0.9-0.1-1.3l-0.5-2.6l3.2-3.2c0.4-0.4,0.4-1,0-1.4c-0.4-0.4-1-0.4-1.4,0L30.6,28l-0.3-1.3
		c-0.1-0.3-0.1-0.6-0.1-0.9c0-0.9,0.2-1.8,0.5-2.7c0.3-0.9,0.8-1.7,1.3-2.2l5.7-5.7h0c0.6-0.6,1.3-0.9,2.1-0.9
		c0.8,0,1.5,0.3,2.1,0.9l2.8,2.8c0.6,0.6,0.9,1.3,0.9,2.1c0,0.8-0.3,1.5-0.9,2.1l-9.4,9.4l0.5,2.4l10.4-10.4c1-1,1.5-2.3,1.5-3.5
		C47.7,18.8,47.2,17.5,46.3,16.6z"/>
</g>
</svg>
