<?xml version="1.0" encoding="utf-8"?>
<!-- Generator: Adobe Illustrator 18.0.0, SVG Export Plug-In . SVG Version: 6.00 Build 0)  -->
<!DOCTYPE svg PUBLIC "-//W3C//DTD SVG 1.1//EN" "http://www.w3.org/Graphics/SVG/1.1/DTD/svg11.dtd">
<svg version="1.1" xmlns="http://www.w3.org/2000/svg" xmlns:xlink="http://www.w3.org/1999/xlink" x="0px" y="0px"
	 viewBox="0 0 60 60" enable-background="new 0 0 60 60" xml:space="preserve">
<g id="Grid" display="none">
	<rect display="inline" width="60" height="60"/>
</g>
<g id="Icons">
	<path id="Shape_8_" fill="#FFFFFF" d="M28.4,23.8c0-2-1.2-6-4.2-6c-1.2,0-2.6,0.8-2.6,3.4c0,2.4,1.2,5.8,4,5.8
		C25.6,27,28.4,26.8,28.4,23.8L28.4,23.8z M27.2,33.6h-0.6l0,0c-0.6,0-2.4,0.2-3.6,0.6c-1.4,0.4-3,1.4-3,3.4c0,2.2,2,4.4,6,4.4
		c3,0,4.8-2,4.8-4C30.8,36.6,29.8,35.6,27.2,33.6L27.2,33.6z M46,10H14c-2.2,0-4,1.8-4,4v32c0,2.2,1.8,4,4,4h32c2.2,0,4-1.8,4-4V14
		C50,11.8,48.2,10,46,10L46,10z M24.2,44.4c-5.6,0-8.2-3.2-8.2-6c0-1,0.2-3.2,3-4.8c1.6-1,3.6-1.6,6.2-1.8c-0.4-0.4-0.6-1-0.6-2
		c0-0.4,0-0.6,0.2-1H24c-4,0-6.4-3-6.4-6c0-3.4,2.6-7.2,8.2-7.2h8.4l-0.6,0.6l-1.4,1.4L32,17.8h-1.4c0.8,0.8,1.8,2.2,1.8,4.4
		c0,2.8-1.4,4.2-3.2,5.4c-0.4,0.2-0.8,0.8-0.8,1.4s0.4,1,0.8,1.2c0.2,0.2,0.6,0.4,1,0.6c1.6,1.2,3.8,2.6,3.8,5.8
		C34,40.2,31.4,44.4,24.2,44.4L24.2,44.4z M44,30h-4v4h-2v-4h-4v-2h4v-4h2v4h4V30L44,30z"/>
</g>
</svg>
