<?xml version="1.0" encoding="utf-8"?>
<!-- Generator: Adobe Illustrator 18.0.0, SVG Export Plug-In . SVG Version: 6.00 Build 0)  -->
<!DOCTYPE svg PUBLIC "-//W3C//DTD SVG 1.1//EN" "http://www.w3.org/Graphics/SVG/1.1/DTD/svg11.dtd">
<svg version="1.1" xmlns="http://www.w3.org/2000/svg" xmlns:xlink="http://www.w3.org/1999/xlink" x="0px" y="0px"
	 viewBox="0 0 56 56" enable-background="new 0 0 56 56" xml:space="preserve">
<g id="Grid" display="none">
	<rect x="0" y="0" display="inline" width="56" height="56"/>
</g>
<g id="Icons">
	<path fill="#A8A8A8" d="M12.3,13.6L12.3,13.6h4.4c0.3,0,0.5-0.2,0.5-0.5c0,0-0.1-3.8-0.1-4.8v0c0-0.9,0.2-1.6,0.5-2.2l0.1-0.3
		c0,0,0,0-0.1,0l-8.5,8.5c0,0,0,0,0,0c0.2-0.1,0.4-0.2,0.5-0.2C10.3,13.8,11.2,13.6,12.3,13.6z M46.5,12.7c-0.4-1.9-1.5-2.8-2.5-3.2
		c-1.1-0.4-3.3-0.8-6-1.1c-2.2-0.3-4.8-0.2-6.4-0.2c-0.2-1.3-1.1-2.5-2.1-2.9c-2.7-1.1-6.9-0.8-8-0.5c-0.9,0.2-1.8,0.7-2.3,1.5
		c-0.4,0.5-0.6,1.1-0.6,2.1c0,0.5,0,1.7,0,2.8c0,1.1,0,2,0,2c0,1-0.8,1.7-1.7,1.7h-4.4c-0.9,0-1.7,0.2-2.2,0.4
		c-0.6,0.2-0.9,0.6-1.2,1c-0.6,0.8-0.7,1.8-0.7,2.8c0,0,0,0.8,0.2,2.4c0.2,1.2,1.5,9.7,2.7,12.3c0.5,1,0.8,1.4,1.8,1.9
		c2.1,0.9,7,1.9,9.3,2.2c2.3,0.3,3.7,0.9,4.5-0.9c0,0,0.2-0.4,0.4-1.1c0.7-2.2,0.8-4.2,0.8-5.6c0-0.1,0.2-0.2,0.2,0
		c0,1-0.2,4.6,2.5,5.6c1.1,0.4,3.3,0.7,5.5,1c2,0.2,3.5,1,3.5,6.3c0,3.2-0.7,3.6-4.2,3.6c-2.8,0-3.9,0.1-3.9-2.2
		c0-1.8,1.8-1.6,3.1-1.6c0.6,0,0.2-0.4,0.2-1.6c0-1.1,0.7-1.8,0-1.8c-4.6-0.1-7.3,0-7.3,5.8c0,5.2,2,6.2,8.5,6.2
		c5.1,0,6.9-0.2,9-6.7c0.4-1.3,1.4-5.3,2-11.9C47.9,28.6,47.1,15.9,46.5,12.7z M37.6,26.7c-0.6,0-1.2,0-1.8,0.1
		c0.2-1.3,0.7-2.9,2.6-2.8c2.1,0.1,2.4,2,2.4,3.4C39.9,27,38.8,26.8,37.6,26.7z"/>
</g>
</svg>
