<?xml version="1.0" encoding="utf-8"?>
<!-- Generator: Adobe Illustrator 18.0.0, SVG Export Plug-In . SVG Version: 6.00 Build 0)  -->
<!DOCTYPE svg PUBLIC "-//W3C//DTD SVG 1.1//EN" "http://www.w3.org/Graphics/SVG/1.1/DTD/svg11.dtd">
<svg version="1.1" xmlns="http://www.w3.org/2000/svg" xmlns:xlink="http://www.w3.org/1999/xlink" x="0px" y="0px"
	 viewBox="0 0 60 60" enable-background="new 0 0 60 60" xml:space="preserve">
<g id="Grid" display="none">
	<rect display="inline" width="60" height="60"/>
</g>
<g id="Icons">
	<path fill="#000000" d="M29,13.9l-17,17l17,17l17-17v-17H29z M44,30.1L29,45L14.9,30.9l15-15H44V30.1z M37.5,26.4
		c1,0,2-0.4,2.8-1.2c1.6-1.6,1.6-4.1,0-5.7c-0.8-0.8-1.8-1.2-2.8-1.2c-1,0-2,0.4-2.8,1.2c-1.6,1.6-1.6,4.1,0,5.7
		C35.5,26,36.5,26.4,37.5,26.4z M36.1,21c0.4-0.4,0.9-0.6,1.4-0.6c0.5,0,1,0.2,1.4,0.6c0.4,0.4,0.6,0.9,0.6,1.4c0,0.5-0.2,1-0.6,1.4
		c-0.4,0.4-0.9,0.6-1.4,0.6s-1-0.2-1.4-0.6c-0.4-0.4-0.6-0.9-0.6-1.4C35.5,21.9,35.7,21.4,36.1,21z"/>
</g>
</svg>
