<?xml version="1.0" encoding="utf-8"?>
<!-- Generator: Adobe Illustrator 18.0.0, SVG Export Plug-In . SVG Version: 6.00 Build 0)  -->
<!DOCTYPE svg PUBLIC "-//W3C//DTD SVG 1.1//EN" "http://www.w3.org/Graphics/SVG/1.1/DTD/svg11.dtd">
<svg version="1.1" xmlns="http://www.w3.org/2000/svg" xmlns:xlink="http://www.w3.org/1999/xlink" x="0px" y="0px"
	 viewBox="0 0 60 60" enable-background="new 0 0 60 60" xml:space="preserve">
<g id="Grid" display="none">
	<rect display="inline" width="60" height="60"/>
</g>
<g id="Icons">
	<path fill="#FFFFFF" d="M44.6,20.7c-0.3-1.8-1.4-3.1-3-3.7c-1.1-0.4-3.1-0.7-4.6-0.9C36.1,16,35,16,33.8,16
		c-0.5-0.8-1.2-1.5-2.1-1.8c-1.4-0.6-3.1-0.7-4.2-0.7c-0.2,0-0.5,0-0.5,0c-3.8,0-6.3,2.7-8,4.3c-1.7,1.6-3.7,3.7-4.3,6.1
		c0,0.2-0.1,0.3-0.1,0.5c0,0.1,0,0.2,0,0.3c0,0.3,0,0.6,0,0.8c0,0.1,0,0.2,0,0.3c0,0.3,0,0.6,0.1,0.9c0,0.6,0.1,1,0.1,1.2
		c0.3,1.7,1.1,6.5,2,8.4c0.5,1,1,1.7,2.2,2.2l0,0l0,0c1.7,0.7,5.3,1.5,6.9,1.7c0.2,0,0.4,0.1,0.6,0.1c0.5,0.1,0.9,0.2,1.4,0.2
		c0.1,0,0.2,0,0.4,0c-0.3,1-0.4,2-0.4,2.8c0,5.8,3.7,6.2,7.8,6.2c4.3,0,6.3-0.6,8.1-6c0.2-0.5,1-3.3,1.5-8.5
		C45.6,31.8,45,23,44.6,20.7z M17.5,21.8l5.5-5.4l0,0l-0.1,0.2c-0.2,0.4-0.3,0.9-0.3,1.5v0c0,0.7,0,3.3,0,3.3c0,0.2-0.1,0.3-0.3,0.3
		h-3c-0.7,0-1.4,0.1-1.9,0.4c0,0,0,0-0.1,0L17.5,21.8z M43.3,34.7c-0.4,4.5-1.1,7.2-1.4,8.1c-1.4,4.5-2.7,4.6-6.2,4.6
		c-4.5,0-5.8-0.7-5.8-4.2c0-3.5,1.5-3.9,4-3.9c0.3,0,0.7,0,1,0c0.5,0,0,0.5,0,1.2c0,0.8,0.3,1.1-0.1,1.1c-0.2,0-0.3,0-0.5,0
		c-0.8,0-1.6,0.1-1.6,1.1c0,1.4,0.6,1.5,2.3,1.5h0.3c2.4,0,2.8-0.3,2.8-2.5c0-3.6-1-4.1-2.4-4.3c-1.5-0.2-3.1-0.4-3.8-0.7
		c-1.9-0.7-1.7-3.1-1.7-3.8l-0.1-0.1L30.1,33c0,1-0.1,2.3-0.6,3.9c-0.2,0.4-0.3,0.7-0.3,0.7c-0.3,0.6-0.7,0.8-1.3,0.8
		c-0.5,0-1.1-0.1-1.8-0.2c-1.6-0.2-4.9-0.9-6.3-1.5c-0.7-0.3-0.9-0.6-1.2-1.3c-0.9-1.8-1.8-7.6-1.9-8.4c-0.1-1.1-0.1-1.6-0.1-1.6
		c0-0.7,0.1-1.3,0.5-1.9c0.2-0.3,0.5-0.5,0.8-0.7c0.4-0.2,0.9-0.3,1.5-0.3h3c0.7,0,1.2-0.5,1.2-1.2c0,0,0-0.7,0-1.4
		c0-0.7,0-1.5,0-1.9c0-0.6,0.2-1.1,0.4-1.4c0.4-0.5,1-0.8,1.6-1c0.3-0.1,1.1-0.2,2-0.2c1.1,0,2.4,0.1,3.5,0.5c0.7,0.3,1.3,1.1,1.4,2
		c0.4,0,0.8,0,1.3,0c1,0,2.1,0,3.1,0.2c1.9,0.2,3.4,0.5,4.1,0.8c0.7,0.2,1.4,0.9,1.7,2.2C43.1,23.2,43.6,31.9,43.3,34.7z M37.1,28.8
		L37.1,28.8c-1.3,0-1.7,1.1-1.8,1.9c0.3-0.1,0.7-0.1,1-0.1l0.2,0c0.8,0,1.6,0.2,2.2,0.5C38.7,30.1,38.5,28.8,37.1,28.8z"/>
</g>
</svg>
