<?xml version="1.0" encoding="utf-8"?>
<!-- Generator: Adobe Illustrator 18.0.0, SVG Export Plug-In . SVG Version: 6.00 Build 0)  -->
<!DOCTYPE svg PUBLIC "-//W3C//DTD SVG 1.1//EN" "http://www.w3.org/Graphics/SVG/1.1/DTD/svg11.dtd">
<svg version="1.1" xmlns="http://www.w3.org/2000/svg" xmlns:xlink="http://www.w3.org/1999/xlink" x="0px" y="0px"
	 viewBox="0 0 60 60" enable-background="new 0 0 60 60" xml:space="preserve">
<g id="Grid" display="none">
	<rect display="inline" width="60" height="60"/>
</g>
<g id="Icons">
	<path fill="#000000" d="M36.5,13h-9.7c-2.1,0-5.3,0.3-8,2.4l0,0l0,0c-1.8,1.6-2.9,3.8-2.9,6c0,1.8,0.7,3.6,2,4.9
		c1.4,1.4,3.3,2.2,5.5,2.2c0.1,0,0.2,0,0.3,0l0.1,0l0.7,0l-0.2,0.7c-0.1,0.2-0.1,0.5-0.1,0.9c0,0.8,0.2,1.5,0.7,2.2l0.4,0.7L24.5,33
		c-2.2,0.2-5,0.6-7.3,1.9L17.1,35c-3.2,1.9-3.4,4.7-3.4,5.5c0,1.8,0.9,3.4,2.4,4.5c1.7,1.3,4.2,2,7.3,2c3.6,0,6.6-0.9,8.8-2.7
		c1.9-1.5,3-3.7,3-5.9c0-1.4-0.4-2.6-1.2-3.7c-0.7-1-1.6-1.7-2.6-2.5l-0.1-0.1l-1.6-1.2c-0.3-0.2-0.5-0.4-0.7-0.7
		c-0.2-0.3-0.4-0.6-0.4-1.1c0-0.4,0.1-0.8,0.4-1.1c0.2-0.3,0.5-0.6,0.8-0.9l0,0l0,0c1-0.8,1.9-1.5,2.5-2.5c0.8-1.1,1.2-2.4,1.2-3.9
		c0-1.9-0.7-3.6-2-5l-0.8-0.8h2.3L36.5,13z M30.7,37.4c0.8,0.9,1.1,1.7,1.1,2.8c0,1.4-0.5,2.5-1.6,3.3c-1.1,0.9-2.7,1.3-4.7,1.3h0
		c-2.2,0-4.2-0.5-5.6-1.5c-1.4-1-2-2.2-2-3.7c0-1.3,0.5-2.3,1.5-3.2c0.7-0.6,1.6-1,2.2-1.2c2-0.7,4.6-0.7,4.6-0.7c0.4,0,0.6,0,0.8,0
		l0.1,0l0.1,0.1C28.9,35.8,30,36.7,30.7,37.4z M28.3,25.9c-0.7,0.7-1.9,1.2-2.9,1.2h0l0,0c-1.6,0-3-0.9-4-2.7
		c-0.8-1.4-1.3-3.4-1.3-5c0-1.3,0.3-2.4,0.9-3.2c0.6-0.8,1.9-1.4,2.9-1.4h0l0,0c1.6,0,3,1,4,2.8c0.8,1.5,1.4,3.5,1.4,5.2
		C29.4,24.1,29.1,25.2,28.3,25.9z M42.5,27v-3.9h-2.1V27h-3.9v2.1h3.8v0.5l0,3.4h2.1v-3.9H43h3.4V27H42.5z"/>
</g>
</svg>
