<?xml version="1.0" encoding="utf-8"?>
<!-- Generator: Adobe Illustrator 18.0.0, SVG Export Plug-In . SVG Version: 6.00 Build 0)  -->
<!DOCTYPE svg PUBLIC "-//W3C//DTD SVG 1.1//EN" "http://www.w3.org/Graphics/SVG/1.1/DTD/svg11.dtd">
<svg version="1.1" xmlns="http://www.w3.org/2000/svg" xmlns:xlink="http://www.w3.org/1999/xlink" x="0px" y="0px" width="88px"
	 height="88px" viewBox="0 0 88 88" enable-background="new 0 0 88 88" xml:space="preserve">
<g id="Grid" display="none">
	<rect x="0" y="0" display="inline" width="88" height="88"/>
</g>
<g id="Icons">
	<path id="Shape_41_" fill="#B8B8B8" d="M55.2,32.8c-2.8-3-6.8-4.8-11.2-4.8c-8.8,0-16,7.2-16,16s7.2,16,16,16
		c7.4,0,13.6-5.2,15.4-12h-4.2c-1.6,4.6-6,8-11.2,8c-6.6,0-12-5.4-12-12s5.4-12,12-12c3.4,0,6.2,1.4,8.4,3.6L46,42h14V28L55.2,32.8
		L55.2,32.8z"/>
</g>
</svg>
