<?xml version="1.0" encoding="utf-8"?>
<!-- Generator: Adobe Illustrator 18.0.0, SVG Export Plug-In . SVG Version: 6.00 Build 0)  -->
<!DOCTYPE svg PUBLIC "-//W3C//DTD SVG 1.1//EN" "http://www.w3.org/Graphics/SVG/1.1/DTD/svg11.dtd">
<svg version="1.1" xmlns="http://www.w3.org/2000/svg" xmlns:xlink="http://www.w3.org/1999/xlink" x="0px" y="0px"
	 viewBox="0 0 60 60" enable-background="new 0 0 60 60" xml:space="preserve">
<g id="Grid" display="none">
	<rect x="0" y="0.1" display="inline" width="60" height="60"/>
</g>
<g id="Icons">
	<path fill="#FFFFFF" d="M30,11.8c-9.9,0-18,8.1-18,18c0,9.9,8.1,18,18,18s18-8.1,18-18C48,19.9,39.9,11.8,30,11.8z M30,45.8
		c-1.6,0-3.1-0.2-4.5-0.7c0.6-1,1.3-2.2,1.6-3.4c0.2-0.7,1.1-4.4,1.1-4.4c0.6,1.1,2.2,2,3.9,2c5.1,0,8.6-4.7,8.6-11
		c0-4.7-4-9.2-10.1-9.2c-7.6,0-11.4,5.5-11.4,10c0,2.8,1,5.2,3.3,6.1c0.4,0.2,0.7,0,0.8-0.4c0.1-0.3,0.3-1,0.3-1.3
		c0.1-0.4,0.1-0.5-0.2-0.9c-0.6-0.8-1.1-1.7-1.1-3.1c0-4,3-7.7,7.9-7.7c4.3,0,6.7,2.6,6.7,6.1c0,4.6-2,8.5-5.1,8.5
		c-1.7,0-2.9-1.4-2.5-3.1c0.5-2,1.4-4.2,1.4-5.7c0-1.3-0.7-2.4-2.2-2.4c-1.7,0-3.1,1.8-3.1,4.1c0,1.5,0.5,2.5,0.5,2.5
		s-1.8,7.4-2.1,8.7c-0.3,1.2-0.3,2.5-0.3,3.6C17.9,42,14,36.4,14,29.8c0-8.8,7.2-16,16-16s16,7.2,16,16C46,38.7,38.8,45.8,30,45.8z"
		/>
</g>
</svg>
