<?xml version="1.0" encoding="utf-8"?>
<!-- Generator: Adobe Illustrator 18.0.0, SVG Export Plug-In . SVG Version: 6.00 Build 0)  -->
<!DOCTYPE svg PUBLIC "-//W3C//DTD SVG 1.1//EN" "http://www.w3.org/Graphics/SVG/1.1/DTD/svg11.dtd">
<svg version="1.1" id="Layer_1" xmlns="http://www.w3.org/2000/svg" xmlns:xlink="http://www.w3.org/1999/xlink" x="0px" y="0px"
	 viewBox="0 0 40 40" enable-background="new 0 0 40 40" xml:space="preserve">
<g>
	<path fill="#FFFFFF" d="M22.8,5.1c-1.6-1.6-4.1-1.6-5.7,0L2.9,19.3c-1.6,1.6-1.6,4.1,0,5.7l10.1,10.1c0.7,0.6,1.6,1,2.6,1h8.5
		c1.1,0,2.1-0.5,2.8-1.2l9.9-9.9c1.6-1.6,1.6-4.1,0-5.7L22.8,5.1z M22.4,31L21,32.5c-0.1,0.1-0.2,0.2-0.4,0.2h-1.2
		c-0.1,0-0.3-0.1-0.4-0.1L17.6,31c-0.2-0.2-0.2-0.6,0-0.8l2-2c0.2-0.2,0.6-0.2,0.8,0l2,2C22.7,30.5,22.7,30.8,22.4,31z M22.4,22.5
		l-5.7,5.7c-0.1,0.1-0.2,0.2-0.4,0.2h-1.2c-0.1,0-0.3-0.1-0.4-0.1l-1.4-1.4c-0.2-0.2-0.2-0.6,0-0.8l6.3-6.3c0.2-0.2,0.6-0.2,0.8,0
		l2,2C22.7,22,22.7,22.3,22.4,22.5z M22.4,14L12.5,24c-0.1,0.1-0.2,0.2-0.4,0.2h-1.2c-0.1,0-0.3-0.1-0.4-0.1l-1.4-1.4
		c-0.2-0.2-0.2-0.6,0-0.8l10.5-10.5c0.2-0.2,0.6-0.2,0.8,0l2,2C22.7,13.4,22.7,13.8,22.4,14z"/>
</g>
</svg>
