<?xml version="1.0" encoding="utf-8"?>
<!-- Generator: Adobe Illustrator 18.0.0, SVG Export Plug-In . SVG Version: 6.00 Build 0)  -->
<!DOCTYPE svg PUBLIC "-//W3C//DTD SVG 1.1//EN" "http://www.w3.org/Graphics/SVG/1.1/DTD/svg11.dtd">
<svg version="1.1" id="Layer_1" xmlns="http://www.w3.org/2000/svg" xmlns:xlink="http://www.w3.org/1999/xlink" x="0px" y="0px"
	 viewBox="0 0 80 80" enable-background="new 0 0 80 80" xml:space="preserve">
<g id="Grid" display="none">
	<rect display="inline" width="80" height="80"/>
</g>
<g id="Icons">
	<path fill="#5FB336" d="M48.3,36.8L48.3,36.8c-1.5,0-1.9,1.2-2,2.3c0.4,0,0.8-0.1,1.2-0.1c0.1,0,0.1,0,0.3,0c0.9,0,1.9,0.3,2.5,0.5
		C50.1,38.5,49.9,36.9,48.3,36.8z M61.3,13.3H18.7c-2.9,0-5.3,2.4-5.3,5.3v42.7c0,2.9,2.4,5.3,5.3,5.3h42.7c2.9,0,5.3-2.4,5.3-5.3
		V18.7C66.7,15.7,64.3,13.3,61.3,13.3z M24.9,29.1l6.8-6.8l0,0l-0.1,0.3c-0.3,0.5-0.4,1.1-0.4,1.7l0,0c0,0.8,0,3.9,0,3.9
		c0,0.3-0.1,0.4-0.4,0.4h-3.5c-0.8,0-1.6,0.1-2.1,0.4C25.3,28.9,25.1,29.1,24.9,29.1L24.9,29.1z M55.5,43.9
		c-0.5,5.3-1.3,8.4-1.6,9.5c-1.7,5.2-3.1,5.3-7.2,5.3c-5.2,0-6.8-0.8-6.8-4.9s1.7-4.7,4.7-4.7c0.4,0,0.8,0,1.2,0c0.5,0,0,0.5,0,1.5
		c0,0.9,0.4,1.2-0.1,1.2c-0.1,0-0.4,0-0.5,0c-0.9,0-1.9,0.1-1.9,1.3c0,1.7,0.8,1.7,2.7,1.7h0.4c2.8,0,3.3-0.4,3.3-2.9
		c0-4.1-1.2-4.8-2.8-4.9c-1.7-0.3-3.6-0.5-4.4-0.8c-2.1-0.8-2-3.6-2-4.4l-0.1-0.1l-0.1,0.1c0,1.2-0.1,2.7-0.7,4.5
		c-0.1,0.5-0.3,0.8-0.3,0.8c-0.4,0.8-0.8,0.9-1.5,0.9c-0.5,0-1.3-0.1-2.1-0.3c-1.9-0.3-5.7-1.1-7.3-1.7c-0.8-0.4-1.1-0.7-1.5-1.5
		c-0.9-2-2-8.8-2.1-9.7c-0.1-1.2-0.1-1.9-0.1-1.9c0-0.8,0.1-1.6,0.5-2.1c0.3-0.3,0.5-0.5,0.9-0.8c0.4-0.1,1.1-0.3,1.7-0.3h3.5
		c0.8,0,1.3-0.7,1.3-1.3c0,0,0-0.8,0-1.6s0-1.9,0-2.3c0-0.7,0.1-1.2,0.4-1.6c0.4-0.7,1.2-0.9,1.9-1.2c0.4-0.1,1.3-0.3,2.3-0.3
		c1.3,0,2.8,0.1,4,0.7c0.8,0.3,1.6,1.3,1.7,2.3c0.4,0,0.9,0,1.6,0c1.1,0,2.4,0,3.6,0.1c2.3,0.3,4,0.5,4.8,0.9c0.8,0.3,1.7,1.1,2,2.5
		C55.2,30.4,55.9,40.5,55.5,43.9z"/>
</g>
</svg>
