<?xml version="1.0" encoding="utf-8"?>
<!-- Generator: Adobe Illustrator 18.0.0, SVG Export Plug-In . SVG Version: 6.00 Build 0)  -->
<!DOCTYPE svg PUBLIC "-//W3C//DTD SVG 1.1//EN" "http://www.w3.org/Graphics/SVG/1.1/DTD/svg11.dtd">
<svg version="1.1" xmlns="http://www.w3.org/2000/svg" xmlns:xlink="http://www.w3.org/1999/xlink" x="0px" y="0px"
	 viewBox="0 0 56 56" enable-background="new 0 0 56 56" xml:space="preserve">
<g id="Grid" display="none">
	<rect y="0" display="inline" width="56" height="56"/>
</g>
<g id="Icons">
	<g>
		<path fill="#FFFFFF" d="M52.9,0H3.1C1.4,0,0,1.4,0,3.1v49.8C0,54.6,1.4,56,3.1,56h49.8c1.7,0,3.1-1.4,3.1-3.1V3.1
			C56,1.4,54.6,0,52.9,0z"/>
		<g>
			<g>
				<path fill="#4386EC" d="M35.4,30.7l-1.8-1.4c-0.3-0.3-0.5-0.5-0.8-0.9c-0.3-0.4-0.5-0.8-0.5-1.3c0-0.6,0.1-1,0.5-1.5
					c0.3-0.4,0.5-0.8,0.9-1.1c0.5-0.5,1-0.9,1.5-1.4c0.4-0.5,0.8-1,1.2-1.5c0.8-1.1,1.2-2.6,1.2-4.5c0-1-0.1-1.9-0.3-2.7
					c-0.3-0.8-0.6-1.4-1-2c-0.4-0.6-0.8-1.1-1.1-1.5c-0.4-0.4-0.8-0.7-1.1-0.9h3.2l3.2-1.9H30.2c-1.4,0-2.8,0.2-4.4,0.5
					c-1.6,0.4-3.1,1.2-4.6,2.4C19.1,13.2,18,15.5,18,18c0,2.1,0.8,4,2.3,5.5c1.4,1.7,3.5,2.6,6.3,2.6c0.5,0,1.1,0,1.7-0.1
					c-0.1,0.3-0.2,0.6-0.3,0.9c-0.1,0.3-0.2,0.7-0.2,1.1c0,0.8,0.2,1.4,0.5,2c0.3,0.6,0.6,1.1,1,1.6c-1.2,0-2.7,0.2-4.5,0.5
					c-1.8,0.3-3.6,1-5.3,1.9c-1.5,0.9-2.5,1.9-3.1,3.1c-0.6,1.2-0.9,2.3-0.9,3.2c0,2,0.9,3.7,2.7,5.1c1.8,1.5,4.5,2.3,8.1,2.3
					c4.3-0.1,7.6-1.1,9.9-3.1c2.2-1.9,3.3-4.2,3.3-6.7c0-1.8-0.4-3.2-1.2-4.3C37.5,32.6,36.5,31.6,35.4,30.7z M29,24.8
					c-1.1,0-2-0.3-2.9-1c-0.8-0.7-1.5-1.5-2.1-2.4c-1.1-2-1.6-4-1.6-5.9c0-1.4,0.3-2.7,1.1-3.9c0.9-1.1,2.1-1.7,3.5-1.7
					c1.1,0,2,0.3,2.8,0.9c0.8,0.6,1.4,1.4,1.9,2.4c1,2.1,1.6,4.1,1.6,6.2c0,0.5,0,1.1-0.1,1.8c-0.1,0.7-0.4,1.4-0.8,2
					C31.5,24.2,30.3,24.7,29,24.8z M34.3,44c-1.3,1-3.1,1.6-5.6,1.6c-2.7,0-4.9-0.6-6.4-1.8c-1.6-1.2-2.5-2.7-2.5-4.5
					c0-0.9,0.2-1.7,0.6-2.4c0.3-0.6,0.7-1.2,1.2-1.6c0.5-0.4,1-0.7,1.5-0.9c0.5-0.2,0.8-0.4,1.1-0.5c1.1-0.3,2.2-0.6,3.3-0.7
					c1.1-0.1,1.8-0.1,2-0.1c0.4,0,0.8,0,1.2,0.1c1.9,1.4,3.3,2.5,4.2,3.4c0.9,1,1.3,2.1,1.3,3.4C36.2,41.6,35.6,43,34.3,44z"/>
			</g>
		</g>
	</g>
</g>
</svg>
