<?xml version="1.0" encoding="utf-8"?>
<!-- Generator: Adobe Illustrator 18.0.0, SVG Export Plug-In . SVG Version: 6.00 Build 0)  -->
<!DOCTYPE svg PUBLIC "-//W3C//DTD SVG 1.1//EN" "http://www.w3.org/Graphics/SVG/1.1/DTD/svg11.dtd">
<svg version="1.1" xmlns="http://www.w3.org/2000/svg" xmlns:xlink="http://www.w3.org/1999/xlink" x="0px" y="0px"
	 viewBox="0 0 60 60" enable-background="new 0 0 60 60" xml:space="preserve">
<g id="Grid" display="none">
	<rect display="inline" width="60" height="60"/>
</g>
<g id="Icons">
	<path fill="#000000" d="M38.8,26.6L38.8,26.6c-1.6,0-2.1,1.3-2.2,2.4c0.4-0.1,0.8-0.1,1.3-0.1c0.1,0,0.2,0,0.3,0
		c1,0,1.9,0.2,2.7,0.6C40.9,28.4,40.6,26.7,38.8,26.6z M13.9,18.3l7.3-7.2l0,0l-0.1,0.2c-0.3,0.5-0.4,1.2-0.4,1.9v0
		c0,0.9,0,4.1,0,4.1c0,0.2-0.2,0.4-0.4,0.4h-3.8c-0.9,0-1.7,0.2-2.3,0.4C14.2,18.2,14,18.3,13.9,18.3L13.9,18.3z M46.6,34.1
		c-0.5,5.7-1.4,9-1.7,10.2c-1.8,5.6-3.3,5.8-7.7,5.8c-5.6,0-7.3-0.8-7.3-5.3c0-4.4,1.8-4.9,5-4.9c0.4,0,0.8,0,1.3,0
		c0.6,0,0,0.6,0,1.5c0,1,0.4,1.3-0.1,1.3c-0.2,0-0.4,0-0.6,0c-1,0-2.1,0.1-2.1,1.4c0,1.8,0.8,1.9,2.9,1.9h0.4c3,0,3.6-0.4,3.6-3.1
		c0-4.5-1.3-5.1-3-5.3c-1.9-0.2-3.8-0.5-4.7-0.8c-2.3-0.8-2.1-3.9-2.1-4.7l-0.1-0.1l-0.1,0.1c0,1.2-0.1,2.9-0.7,4.8
		c-0.2,0.5-0.3,0.9-0.3,0.9c-0.4,0.8-0.9,1-1.6,1c-0.6,0-1.4-0.2-2.3-0.3c-1.9-0.2-6.1-1.1-7.9-1.9c-0.8-0.4-1.1-0.7-1.5-1.6
		c-1.1-2.2-2.2-9.5-2.3-10.5c-0.2-1.3-0.2-2-0.2-2c0-0.8,0.1-1.7,0.6-2.3c0.3-0.3,0.6-0.6,1.1-0.8c0.5-0.2,1.1-0.3,1.9-0.3h3.8
		c0.8,0,1.5-0.7,1.5-1.5c0,0,0-0.8,0-1.7c0-0.9,0-1.9,0-2.4c0-0.8,0.2-1.3,0.5-1.8c0.4-0.6,1.3-1.1,2-1.3c0.4-0.1,1.4-0.2,2.5-0.2
		c1.4,0,3,0.2,4.3,0.7c0.9,0.3,1.6,1.4,1.8,2.5c0.5,0,1,0,1.6,0c1.2,0,2.6,0,3.8,0.2c2.4,0.3,4.2,0.6,5.2,1c0.9,0.3,1.8,1.1,2.1,2.7
		C46.3,19.7,47,30.5,46.6,34.1z"/>
</g>
</svg>
