<?xml version="1.0" encoding="utf-8"?>
<!-- Generator: Adobe Illustrator 18.0.0, SVG Export Plug-In . SVG Version: 6.00 Build 0)  -->
<!DOCTYPE svg PUBLIC "-//W3C//DTD SVG 1.1//EN" "http://www.w3.org/Graphics/SVG/1.1/DTD/svg11.dtd">
<svg version="1.1" xmlns="http://www.w3.org/2000/svg" xmlns:xlink="http://www.w3.org/1999/xlink" x="0px" y="0px"
	 viewBox="0 0 60 60" enable-background="new 0 0 60 60" xml:space="preserve">
<g id="Grid" display="none">
	<rect x="0" display="inline" width="60" height="60"/>
</g>
<g id="Icons">
	<path fill="#733781" d="M54.6,34.8c0.6-3.5,0.4-7.1,0.1-10.7c0.2-3.3,0.5-6.7,0.1-10c-0.2-1.8-2.4-1.7-3.7-1.9
		c-0.2-0.6-0.4-1.2-0.6-1.8c-5.3-0.8-10.7-0.2-16-0.4c0-1.5,0-3,0-4.5h-3.4C22.4,7.1,5,10.1,5,10.1v39.8c0,0,17.3,3,26,4.5h3.6
		c0-1.5,0-3,0-4.6c4.2,0,8.3,0,12.5,0c1.1-0.1,2.4,0.1,3.4-0.5c0.5-0.8,0.5-1.8,0.7-2.8c1.3-0.2,3.4-0.1,3.7-1.9
		C55.1,41.4,55.1,38.1,54.6,34.8z M26,39.1c-1.2,0-2.4-0.1-3.7-0.2c-2.3-4.3-4.7-8.6-6.9-13c0.1,4.2,0.1,8.4,0.1,12.6
		c-1-0.1-2.1-0.1-3.1-0.2c0-5.8,0-11.5,0-17.3c1.2-0.1,2.3-0.1,3.5-0.2c2.2,4.1,4.5,8.1,6.6,12.2c0-4.2,0-8.4,0-12.6
		c1.1-0.1,2.3-0.1,3.4-0.2V39.1z M49.3,23.2c0,8.3,0,16.7,0,25c-4.9,0-9.8,0-14.8,0v-4.6c3.6,0,7.2,0,10.8,0c0-0.8,0-1.5,0-2.3
		c-3.6,0-7.2,0-10.8,0v-2.9c3.6,0,7.2,0,10.8,0c0-0.8,0-1.5,0-2.3c-3.6,0-7.2,0-10.8,0v-2.9c3.6,0,7.2,0,10.8,0c0-0.8,0-1.5,0-2.3
		c-3.6,0-7.2,0-10.8,0v-2.9c3.6,0,7.2,0,10.8,0c0-0.8,0-1.5,0-2.3c-3.6,0-7.2,0-10.8,0v-2.9c3.6,0,7.2,0,10.8,0c0-0.8,0-1.5,0-2.3
		c-3.6,0-7.2,0-10.8,0v-2.9c3.6,0,7.2,0,10.8,0c0-0.8,0-1.5,0-2.3c-3.6,0-7.2,0-10.8,0v-4c4.9,0,9.8,0,14.8,0c0,0.8,0,1.5,0,2.3
		c1.3,0,2.6,0,3.9,0.1c0.1,3,0.1,6,0,9C51.9,23.2,50.6,23.2,49.3,23.2z M53.2,44.7c-0.8,0-1.5,0.1-2.2,0.1c0-3.1,0-6.1,0-9.2
		c0.7,0,1.5,0.1,2.2,0.1C53.3,38.7,53.3,41.7,53.2,44.7z M53.2,33.9c-0.7,0-1.5,0.1-2.2,0.1c0-3,0-6.1,0-9.1c0.7,0,1.5,0.1,2.2,0.1
		C53.3,27.9,53.3,30.9,53.2,33.9z"/>
</g>
</svg>
