<?xml version="1.0" encoding="utf-8"?>
<!-- Generator: Adobe Illustrator 18.0.0, SVG Export Plug-In . SVG Version: 6.00 Build 0)  -->
<!DOCTYPE svg PUBLIC "-//W3C//DTD SVG 1.1//EN" "http://www.w3.org/Graphics/SVG/1.1/DTD/svg11.dtd">
<svg version="1.1" id="Layer_1" xmlns="http://www.w3.org/2000/svg" xmlns:xlink="http://www.w3.org/1999/xlink" x="0px" y="0px"
	 viewBox="0 0 96 96" enable-background="new 0 0 96 96" xml:space="preserve">
<g id="Grid" display="none">
	<rect display="inline" width="96" height="96"/>
</g>
<g id="Icons">
	<path fill="#4F4F4F" d="M36,36h18h4c0-2.2-1.8-4-4-4H36c-0.4,0-0.8,0.1-1.2,0.2c-0.3,0.1-0.6,0.2-0.8,0.4c-0.1,0.1-0.2,0.1-0.3,0.2
		c-0.4,0.3-0.8,0.7-1.1,1.2c-0.2,0.3-0.3,0.5-0.4,0.8C32.1,35.2,32,35.6,32,36v18c0,0.4,0.1,0.8,0.2,1.2c0.1,0.3,0.2,0.6,0.4,0.8
		c0.2,0.3,0.4,0.6,0.6,0.8c0.2,0.2,0.5,0.4,0.8,0.6c0.3,0.2,0.5,0.3,0.8,0.4c0.4,0.1,0.8,0.2,1.2,0.2v-4V36z M60,38H42
		c-0.4,0-0.8,0.1-1.2,0.2c-0.3,0.1-0.6,0.2-0.8,0.4c-0.1,0.1-0.2,0.1-0.3,0.2c-0.4,0.3-0.8,0.7-1.1,1.2c-0.2,0.3-0.3,0.5-0.4,0.8
		C38.1,41.2,38,41.6,38,42v18c0,0.4,0.1,0.8,0.2,1.2c0.1,0.3,0.2,0.6,0.4,0.8c0.2,0.3,0.4,0.6,0.6,0.8c0.2,0.2,0.5,0.4,0.8,0.6
		c0.3,0.2,0.5,0.3,0.8,0.4c0.4,0.1,0.8,0.2,1.2,0.2h18c2.2,0,4-1.8,4-4V42C64,39.8,62.2,38,60,38z M60,60H42V42h18V60z"/>
</g>
</svg>
