<?xml version="1.0" encoding="utf-8"?>
<!-- Generator: Adobe Illustrator 18.0.0, SVG Export Plug-In . SVG Version: 6.00 Build 0)  -->
<!DOCTYPE svg PUBLIC "-//W3C//DTD SVG 1.1//EN" "http://www.w3.org/Graphics/SVG/1.1/DTD/svg11.dtd">
<svg version="1.1" xmlns="http://www.w3.org/2000/svg" xmlns:xlink="http://www.w3.org/1999/xlink" x="0px" y="0px"
	 viewBox="0 0 60 60" enable-background="new 0 0 60 60" xml:space="preserve">
<g id="Grid" display="none">
	<rect display="inline" width="60" height="60"/>
</g>
<g id="Icons">
	<g>
		<g>
			<path fill-rule="evenodd" clip-rule="evenodd" fill="#FFFFFF" d="M12,25c-2.8,0-5,2.2-5,5s2.2,5,5,5s5-2.2,5-5S14.8,25,12,25z
				 M12,33c-1.7,0-3-1.3-3-3s1.3-3,3-3s3,1.3,3,3S13.7,33,12,33z M30,25c-2.8,0-5,2.2-5,5s2.2,5,5,5s5-2.2,5-5S32.8,25,30,25z
				 M30,33c-1.7,0-3-1.3-3-3s1.3-3,3-3s3,1.3,3,3S31.7,33,30,33z M48,25c-2.8,0-5,2.2-5,5s2.2,5,5,5s5-2.2,5-5S50.8,25,48,25z
				 M48,33c-1.7,0-3-1.3-3-3s1.3-3,3-3s3,1.3,3,3S49.7,33,48,33z"/>
		</g>
	</g>
</g>
</svg>
