<?xml version="1.0" encoding="utf-8"?>
<!-- Generator: Adobe Illustrator 18.0.0, SVG Export Plug-In . SVG Version: 6.00 Build 0)  -->
<!DOCTYPE svg PUBLIC "-//W3C//DTD SVG 1.1//EN" "http://www.w3.org/Graphics/SVG/1.1/DTD/svg11.dtd">
<svg version="1.1" id="Layer_1" xmlns="http://www.w3.org/2000/svg" xmlns:xlink="http://www.w3.org/1999/xlink" x="0px" y="0px"
	 viewBox="0 0 60 60" enable-background="new 0 0 60 60" xml:space="preserve">
<g id="Grid" display="none">
	<rect display="inline" width="60" height="60"/>
</g>
<g id="Icons">
	<g>
		<path fill="#FFFFFF" d="M29,10L7.8,31.2l19,19L48,29V10H29z M46,28.1L26.8,47.4L10.6,31.2L29.9,12H46V28.1z M39.5,22.5
			c1,0,2-0.4,2.8-1.2c1.6-1.6,1.6-4.1,0-5.7c-0.8-0.8-1.8-1.2-2.8-1.2s-2,0.4-2.8,1.2c-1.6,1.6-1.6,4.1,0,5.7
			C37.5,22.1,38.5,22.5,39.5,22.5z M38.1,17.1c0.4-0.4,0.9-0.6,1.4-0.6s1,0.2,1.4,0.6s0.6,0.9,0.6,1.4s-0.2,1-0.6,1.4
			c-0.4,0.4-0.9,0.6-1.4,0.6s-1-0.2-1.4-0.6s-0.6-0.9-0.6-1.4S37.7,17.4,38.1,17.1z"/>
	</g>
</g>
</svg>
