<?xml version="1.0" encoding="utf-8"?>
<!-- Generator: Adobe Illustrator 18.0.0, SVG Export Plug-In . SVG Version: 6.00 Build 0)  -->
<!DOCTYPE svg PUBLIC "-//W3C//DTD SVG 1.1//EN" "http://www.w3.org/Graphics/SVG/1.1/DTD/svg11.dtd">
<svg version="1.1" id="Layer_1" xmlns="http://www.w3.org/2000/svg" xmlns:xlink="http://www.w3.org/1999/xlink" x="0px" y="0px"
	 viewBox="0 0 60 60" enable-background="new 0 0 60 60" xml:space="preserve">
<g id="Grid" display="none">
	<rect display="inline" width="60" height="60"/>
</g>
<g id="Icons">
	<g>
		<path fill="#FFFFFF" d="M32.5,40.9V19.2c0-0.8,0.6-1.4,1.4-1.4H36V15H24v2.8h2c0.8,0,1.4,0.6,1.4,1.4l0,0v21.7l0,0
			c0,0.8-0.6,1.4-1.4,1.4h-2V45h12v-2.7h-2.1C33.1,42.3,32.5,41.7,32.5,40.9z M46.7,5H13.3C8.7,5,5,8.7,5,13.3v33.3
			c0,4.6,3.7,8.3,8.3,8.3h33.3c4.6,0,8.3-3.7,8.3-8.3V13.3C55,8.7,51.3,5,46.7,5z M53,46.7c0,3.5-2.8,6.3-6.3,6.3H13.3
			C9.8,53,7,50.2,7,46.7V13.3C7,9.8,9.8,7,13.3,7h33.3c3.5,0,6.3,2.8,6.3,6.3v33.4H53z"/>
	</g>
</g>
</svg>
