<?xml version="1.0" encoding="utf-8"?>
<!-- Generator: Adobe Illustrator 18.0.0, SVG Export Plug-In . SVG Version: 6.00 Build 0)  -->
<!DOCTYPE svg PUBLIC "-//W3C//DTD SVG 1.1//EN" "http://www.w3.org/Graphics/SVG/1.1/DTD/svg11.dtd">
<svg version="1.1" xmlns="http://www.w3.org/2000/svg" xmlns:xlink="http://www.w3.org/1999/xlink" x="0px" y="0px"
	 viewBox="0 0 60 60" enable-background="new 0 0 60 60" xml:space="preserve">
<g id="Grid" display="none">
	<rect display="inline" width="60" height="60"/>
</g>
<g id="Icons">
	<path fill="#000000" d="M24.7,32.1c-1.5-2.9-3.2-5.8-4.7-8.7c-0.8,0-1.7,0.1-2.5,0.1c0,4.1,0,8.2,0,12.4c0.7,0,1.5,0.1,2.2,0.1
		c0-3,0-6,0-9c1.6,3.1,3.3,6.2,4.9,9.3c0.9,0,1.7,0.1,2.6,0.1V22.9c-0.8,0-1.6,0.1-2.4,0.1C24.7,26.1,24.7,29.1,24.7,32.1z
		 M47.6,33.3c0.4-2.5,0.3-5.1,0.1-7.6c0.2-2.4,0.4-4.8,0.1-7.2c-0.2-1.3-1.7-1.2-2.6-1.4c-0.1-0.4-0.3-0.9-0.4-1.3
		c-3.8-0.6-7.6-0.1-11.4-0.3c0-1.1,0-2.2,0-3.2h-2.4l-18.7,3.3v28.4l18.5,3.2h2.5c0-1.1,0-2.2,0-3.3c3,0,5.9,0,8.9,0
		c0.8,0,1.7,0.1,2.5-0.4c0.4-0.6,0.3-1.3,0.5-2c0.9-0.2,2.4-0.1,2.6-1.4C47.9,38,47.9,35.7,47.6,33.3z M31.8,45.9h-1l-17.2-3v-26
		l17.4-3h0.9V45.9z M43.8,25c0,5.9,0,11.9,0,17.8c-3.5,0-7,0-10.6,0v-3.3c2.6,0,5.1,0,7.7,0c0-0.5,0-1.1,0-1.6c-2.6,0-5.1,0-7.7,0
		v-2c2.6,0,5.1,0,7.7,0c0-0.5,0-1.1,0-1.6c-2.6,0-5.1,0-7.7,0v-2c2.6,0,5.1,0,7.7,0c0-0.5,0-1.1,0-1.6c-2.6,0-5.1,0-7.7,0v-2
		c2.6,0,5.1,0,7.7,0c0-0.5,0-1.1,0-1.6c-2.6,0-5.1,0-7.7,0v-2c2.6,0,5.1,0,7.7,0c0-0.5,0-1.1,0-1.6c-2.6,0-5.1,0-7.7,0v-2
		c2.6,0,5.1,0,7.7,0c0-0.5,0-1.1,0-1.6c-2.6,0-5.1,0-7.7,0v-2.8c3.5,0,7,0,10.6,0c0,0.5,0,1.1,0,1.6c0.9,0,1.9,0,2.8,0.1
		c0.1,2.1,0.1,4.3,0,6.4C45.6,25,44.7,25,43.8,25z M46.6,40.4c-0.5,0-1.1,0.1-1.6,0.1c0-2.2,0-4.4,0-6.5c0.5,0,1.1,0.1,1.6,0.1
		C46.6,36.1,46.6,38.2,46.6,40.4z M46.6,32.7c-0.5,0-1,0.1-1.6,0.1c0-2.2,0-4.4,0-6.5c0.5,0,1.1,0,1.6,0.1
		C46.6,28.4,46.7,30.5,46.6,32.7z"/>
</g>
</svg>
