<?xml version="1.0" encoding="utf-8"?>
<!-- Generator: Adobe Illustrator 18.0.0, SVG Export Plug-In . SVG Version: 6.00 Build 0)  -->
<!DOCTYPE svg PUBLIC "-//W3C//DTD SVG 1.1//EN" "http://www.w3.org/Graphics/SVG/1.1/DTD/svg11.dtd">
<svg version="1.1" xmlns="http://www.w3.org/2000/svg" xmlns:xlink="http://www.w3.org/1999/xlink" x="0px" y="0px"
	 viewBox="0 0 60 60" enable-background="new 0 0 60 60" xml:space="preserve">
<g id="Grid" display="none">
	<rect display="inline" width="60" height="60"/>
</g>
<g id="Icons">
	<path id="Shape_29_" fill="#FFFFFF" d="M30,22c2.2,0,4-1.8,4-4s-1.8-4-4-4s-4,1.8-4,4S27.8,22,30,22L30,22z M30,26
		c-2.2,0-4,1.8-4,4s1.8,4,4,4s4-1.8,4-4S32.2,26,30,26L30,26z M30,38c-2.2,0-4,1.8-4,4s1.8,4,4,4s4-1.8,4-4S32.2,38,30,38L30,38z"/>
</g>
</svg>
