<?xml version="1.0" encoding="utf-8"?>
<!-- Generator: Adobe Illustrator 18.0.0, SVG Export Plug-In . SVG Version: 6.00 Build 0)  -->
<!DOCTYPE svg PUBLIC "-//W3C//DTD SVG 1.1//EN" "http://www.w3.org/Graphics/SVG/1.1/DTD/svg11.dtd">
<svg version="1.1" xmlns="http://www.w3.org/2000/svg" xmlns:xlink="http://www.w3.org/1999/xlink" x="0px" y="0px"
	 viewBox="0 0 60 60" enable-background="new 0 0 60 60" xml:space="preserve">
<g id="Grid" display="none">
	<rect display="inline" width="60" height="60"/>
</g>
<g id="Icons">
	<path fill="#FFFFFF" d="M30,12c-9.9,0-17.9,7.5-17.9,16.7c0,5.2,2.6,9.8,6.5,12.9V48l6.3-3.3c1.6,0.4,3.3,0.7,5,0.7
		c9.9,0,17.9-7.5,17.9-16.7C47.9,19.5,39.9,12,30,12z M30,43.3c-1.5,0-3-0.2-4.5-0.6l-0.8-0.2l-0.7,0.4l-3.4,1.8v-4.1L19.9,40
		c-3.7-2.8-5.8-6.9-5.8-11.3C14.1,20.6,21.2,14,30,14s15.9,6.6,15.9,14.7S38.8,43.3,30,43.3z M32.7,28.7l-4.6-4.6l-9.6,10.2l8.8-4.6
		l4.6,4.6l9.6-10.2L32.7,28.7z"/>
</g>
</svg>
