<?xml version="1.0" encoding="utf-8"?>
<!-- Generator: Adobe Illustrator 18.0.0, SVG Export Plug-In . SVG Version: 6.00 Build 0)  -->
<!DOCTYPE svg PUBLIC "-//W3C//DTD SVG 1.1//EN" "http://www.w3.org/Graphics/SVG/1.1/DTD/svg11.dtd">
<svg version="1.1" xmlns="http://www.w3.org/2000/svg" xmlns:xlink="http://www.w3.org/1999/xlink" x="0px" y="0px"
	 viewBox="0 0 56 56" enable-background="new 0 0 56 56" xml:space="preserve">
<g id="Grid" display="none">
	<rect x="0" y="0" display="inline" width="56" height="56"/>
</g>
<g id="Icons">
	<path fill="#FFFFFF" d="M52.9,0H3.1C1.4,0,0,1.4,0,3.1v49.8C0,54.6,1.4,56,3.1,56H30V34h-7v-8h7v-6.4c0-7.2,4.2-11.2,10.7-11.2
		c3.1,0,6.3,0.2,6.3,0.3V16h-4.2c-3.5,0-3.8,2-3.8,4.5V26h8l-1.1,8H39v22h13.9c1.7,0,3.1-1.4,3.1-3.1V3.1C56,1.4,54.6,0,52.9,0z"/>
</g>
</svg>
