<?xml version="1.0" encoding="utf-8"?>
<!-- Generator: Adobe Illustrator 18.0.0, SVG Export Plug-In . SVG Version: 6.00 Build 0)  -->
<!DOCTYPE svg PUBLIC "-//W3C//DTD SVG 1.1//EN" "http://www.w3.org/Graphics/SVG/1.1/DTD/svg11.dtd">
<svg version="1.1" xmlns="http://www.w3.org/2000/svg" xmlns:xlink="http://www.w3.org/1999/xlink" x="0px" y="0px"
	 viewBox="0 0 60 60" enable-background="new 0 0 60 60" xml:space="preserve">
<g id="Grid" display="none">
	<rect display="inline" width="60" height="60"/>
</g>
<g id="Icons">
	<path id="Shape_26_" fill="#000000" d="M37.5,34.5h-1.6l-0.6-0.6c2-2.2,3.2-5.2,3.2-8.4c0-7.2-5.8-13-13-13s-13,5.8-13,13
		s5.8,13,13,13c3.2,0,6.2-1.2,8.4-3.2l0.6,0.6v1.6l10,10l3-3L37.5,34.5L37.5,34.5z M25.5,34.5c-5,0-9-4-9-9s4-9,9-9s9,4,9,9
		S30.5,34.5,25.5,34.5L25.5,34.5z"/>
</g>
</svg>
