<?xml version="1.0" encoding="utf-8"?>
<!-- Generator: Adobe Illustrator 18.0.0, SVG Export Plug-In . SVG Version: 6.00 Build 0)  -->
<!DOCTYPE svg PUBLIC "-//W3C//DTD SVG 1.1//EN" "http://www.w3.org/Graphics/SVG/1.1/DTD/svg11.dtd">
<svg version="1.1" id="Layer_1" xmlns="http://www.w3.org/2000/svg" xmlns:xlink="http://www.w3.org/1999/xlink" x="0px" y="0px"
	 viewBox="0 0 80 80" enable-background="new 0 0 80 80" xml:space="preserve">
<g id="Grid" display="none">
	<rect display="inline" width="80" height="80"/>
</g>
<g id="Icons">
	<path fill="#733781" d="M56,44.3c0,2.4,0,4.7,0,7.1c0.5,0,1.1-0.1,1.7-0.1c0-2.3,0-4.5,0-6.8C57.2,44.4,56.5,44.3,56,44.3z
		 M57.7,27.9c-1.1,0-2,0-3.1,0c0-0.5,0-1.2,0-1.7c-3.7,0-7.5,0-11.3,0v3.1c2.8,0,5.5,0,8.3,0c0,0.5,0,1.2,0,1.7c-2.8,0-5.5,0-8.3,0
		v2.1c2.8,0,5.5,0,8.3,0c0,0.5,0,1.2,0,1.7c-2.8,0-5.5,0-8.3,0v2.1c2.8,0,5.5,0,8.3,0c0,0.5,0,1.2,0,1.7c-2.8,0-5.5,0-8.3,0v2.1
		c2.8,0,5.5,0,8.3,0c0,0.5,0,1.2,0,1.7c-2.8,0-5.5,0-8.3,0v2.1c2.8,0,5.5,0,8.3,0c0,0.5,0,1.2,0,1.7c-2.8,0-5.5,0-8.3,0v2.1
		c2.8,0,5.5,0,8.3,0c0,0.5,0,1.2,0,1.7c-2.8,0-5.5,0-8.3,0v3.5c3.7,0,7.5,0,11.3,0c0-6.4,0-12.7,0-19.1c0.9,0,2,0,2.9,0
		C57.9,32.4,57.7,30.1,57.7,27.9z M34.3,42.4c-1.6-3.2-3.3-6.3-5.1-9.3c-0.9,0-1.7,0.1-2.7,0.1c0,4.4,0,8.8,0,13.2
		c0.8,0,1.6,0.1,2.4,0.1c0-3.2,0-6.4,0-9.6c1.7,3.3,3.6,6.7,5.3,9.9c0.9,0,1.9,0.1,2.8,0.1V32.5c-0.9,0-1.7,0.1-2.7,0.1
		C34.3,35.9,34.3,39.1,34.3,42.4z M61.3,13.3H18.7c-2.9,0-5.3,2.4-5.3,5.3v42.7c0,2.9,2.4,5.3,5.3,5.3h42.7c2.9,0,5.3-2.4,5.3-5.3
		V18.7C66.7,15.7,64.3,13.3,61.3,13.3z M58.9,51.2c-0.1,1.3-1.7,1.2-2.8,1.5c-0.1,0.7-0.1,1.5-0.5,2.1c-0.8,0.5-1.7,0.4-2.7,0.4
		c-3.2,0-6.4,0-9.6,0c0,1.2,0,2.3,0,3.5h-2.7c-6.7-1.2-19.9-3.5-19.9-3.5V24.8c0,0,13.3-2.3,20-3.5h2.5c0,1.2,0,2.3,0,3.5
		c4,0.1,8.1-0.3,12.3,0.3c0.1,0.4,0.3,0.9,0.4,1.3c1.1,0.1,2.7,0,2.8,1.5c0.3,2.5,0.1,5.1,0,7.6c0.3,2.7,0.4,5.5-0.1,8.1
		C59.2,46.1,59.2,48.7,58.9,51.2z M56,36c0,2.3,0,4.7,0,6.9c0.5,0,1.1,0,1.7-0.1c0.1-2.3,0.1-4.5,0-6.8C57.2,36.1,56.5,36.1,56,36z"
		/>
</g>
</svg>
