<?xml version="1.0" encoding="utf-8"?>
<!-- Generator: Adobe Illustrator 18.0.0, SVG Export Plug-In . SVG Version: 6.00 Build 0)  -->
<!DOCTYPE svg PUBLIC "-//W3C//DTD SVG 1.1//EN" "http://www.w3.org/Graphics/SVG/1.1/DTD/svg11.dtd">
<svg version="1.1" xmlns="http://www.w3.org/2000/svg" xmlns:xlink="http://www.w3.org/1999/xlink" x="0px" y="0px"
	 viewBox="0 0 180 54" enable-background="new 0 0 180 54" xml:space="preserve">
<g id="Grid" display="none">
	<rect x="0" y="0" display="inline" width="180" height="54"/>
</g>
<g id="Layer_1">
	<g>
		<g>
			<g>
				<polygon fill="#FFFFFF" points="28,23.9 17.3,23.9 14,14 10.7,23.9 0,23.9 8.7,30.1 5.3,40 14,33.9 22.7,40 19.3,30.1 				"/>
			</g>
		</g>
	</g>
	<g opacity="0.3">
		<g>
			<g>
				<path fill="#FFFFFF" d="M17.3,23.9L14,14l-3.3,9.9H0l8.7,6.1L5.3,40l8.7-6.1l8.7,6.1l-3.3-9.9l8.7-6.1H17.3z M180,23.9h-10.7
					L166,14l-3.3,9.9H152l8.7,6.1l-3.3,9.9l8.7-6.1l8.7,6.1l-3.3-9.9L180,23.9z M131.3,23.9L128,14l-3.3,9.9H114l8.7,6.1l-3.3,9.9
					l8.7-6.1l8.7,6.1l-3.3-9.9l8.7-6.1H131.3z M93.3,23.9L90,14l-3.3,9.9H76l8.7,6.1L81.3,40l8.7-6.1l8.7,6.1l-3.3-9.9l8.7-6.1H93.3
					z M55.3,23.9L52,14l-3.3,9.9H38l8.7,6.1L43.3,40l8.7-6.1l8.7,6.1l-3.3-9.9l8.7-6.1H55.3z"/>
			</g>
		</g>
	</g>
	<polygon fill="#FFFFFF" points="48.7,24.3 38,24.3 46.7,30.3 43.3,40.1 52,33.9 52,14 	"/>
</g>
</svg>
