<?xml  version="1.0" encoding="UTF-8"?>
<!DOCTYPE svg PUBLIC "-//W3C//DTD SVG 1.0//EN" "http://www.w3.org/TR/2001/REC-SVG-20010904/DTD/svg10.dtd" >
<svg xmlns="http://www.w3.org/2000/svg" >
<metadata>
<version>1.0</version>
<id><![CDATA[Soho W02 Medium Condensed]]></id>
<vendor>Monotype Imaging Inc.</vendor>
<credits>
<name>Fonts.com WebFonts</name>
<URL>http://webfonts.fonts.com</URL>
<role>Home of the Web fonts</role>
</credits>
<license>
<URL>http://webfonts.fonts.com/Legal</URL>
</license>
<copyright><![CDATA[Copyright (c) 2007 Monotype Imaging Inc. Soho is designed by Sebastian Lester. All rights reserved.]]></copyright>
<trademark><![CDATA[Soho is a trademark of Monotype Imaging, Inc and may be registered in certain jurisdictions.]]></trademark>
<licensee>
<name></name>
</licensee>
</metadata>
<defs >
<font horiz-adv-x="464" id="4c6bed95-28cb-46fb-ab41-b7b77dc312ff">
<font-face font-family="" panose-1="2 4 6 6 4 5 6 2 2 4" ascent="990" descent="-222" units-per-em="1000" alphabetic="0">
</font-face>
<missing-glyph horiz-adv-x="0" />

<glyph unicode="&#xA;" />
<glyph unicode="&#xD;" horiz-adv-x="0" />
<glyph unicode=" " horiz-adv-x="168" />
<glyph unicode="!" horiz-adv-x="226" d="M53 0V144H173V0H53ZM167 207H59L48 770H178L167 207Z"  />
<glyph unicode="&quot;" horiz-adv-x="368" d="M298 524H212L229 764H338L298 524ZM156 764L116 524H30L46 764H156Z"  />
<glyph unicode="#" horiz-adv-x="566" d="M412 190L397 0H302L317 190H211L196 0H100L116 190H47V275H123L137 457H47V541H145L161 743H257L240 541H346L363 743H458L442 541H519V457H434L420 275H519V190H412ZM233 457L218 275H324L339 457H233Z"  />
<glyph unicode="$" horiz-adv-x="484" d="M444 193Q444 109 405 60T292 -4V-121H187V-10Q142 -7 106 -1T51 11V153H132L142 89Q156 89 175 89T224 88Q275 88 298 114T322 191Q322 211 319 227T307 256T284 283T249 310L161 370Q131 391 108 411T70 456T48 508T40 572Q40 720 187 747V856H292V753Q337 751 374 744T427 732V595H345L335 653Q319 655 301 655T255 656Q207 656 185 637T162 571Q162 553 165 539T177 512T199 487T233 460L317 403Q380 360 412 312T444 193Z"  />
<glyph unicode="%" horiz-adv-x="898" d="M862 188Q862 143 854 107T828 45T781 5T709 -9Q666 -9 637 5T589 45T563 107T555 188V258Q555 303 563 339T589 400T636 440T709 454Q752 454 781 440T828 401T854 339T862 258V188ZM769 258Q769 294 765 317T754 353T735 372T709 377Q694 377 683 372T664 354T653 317T649 258V188Q649 152 652 129T663 93T682 74T709 69Q724 69 735 74T753 92T765 129T769 188V258ZM317 0H216L579 744H680L317 0ZM343 488Q343 446 336 410T312 347T265 306T190 291Q145 291 115 306T68 347T44 410T37 488V557Q37 599 44 635T68 697T115 739T190 754Q235 754 264 739T311 698T336 636T343 557V488ZM250 557Q250 592 247 615T237 652T218 671T190 677Q157 677 144 651T130 557V488Q130 453 133 430T143 393T162 374T190 368Q206 368 217 373T236 393T247 430T250 488V557Z"  />
<glyph unicode="&amp;" horiz-adv-x="593" d="M410 37Q379 14 339 2T246 -11Q201 -11 163 -1T96 31T53 90T37 181V187Q37 252 62 301T139 391Q106 436 83 481T60 583V588Q60 673 111 713T256 754Q284 754 311 752T361 746T401 739T429 732V597H348L337 657Q317 659 298 659T258 659Q220 659 198 643T175 584V579Q175 539 192 508T232 447L417 204Q428 241 431 280T435 357L394 363V435H570V363L529 357Q529 293 518 232T480 121L555 23V0H439L410 37ZM253 77Q317 77 356 108L202 309Q179 287 167 258T154 187V181Q154 127 181 102T253 77Z"  />
<glyph unicode="&apos;" horiz-adv-x="186" d="M116 524H30L46 764H156L116 524Z"  />
<glyph unicode="(" horiz-adv-x="288" d="M160 -200Q137 -161 116 -112T78 -3T51 124T41 267V275Q41 350 51 418T78 545T116 654T160 743H267Q216 645 187 532T157 275V267Q157 124 186 11T267 -200H160Z"  />
<glyph unicode=")" horiz-adv-x="288" d="M246 267Q246 192 236 125T210 -2T172 -111T128 -200H21Q72 -102 101 11T131 267V275Q131 419 102 532T21 743H128Q150 704 171 655T209 546T236 418T246 275V267H246Z"  />
<glyph unicode="*" horiz-adv-x="479" d="M386 572Q367 566 347 561T305 553Q321 539 334 523T359 492L394 445L316 389L281 437Q270 453 259 470T238 507Q229 487 218 470T196 437L162 390L83 445L118 493Q129 508 142 524T173 554Q151 557 131 562T93 573L37 590L66 680L123 662Q160 651 198 630Q194 651 193 671T191 711V770H288V711Q288 671 279 629Q299 640 318 647T356 661L412 680L442 590L386 572Z"  />
<glyph unicode="+" horiz-adv-x="512" d="M303 345V178H211V345H42V435H211V602H303V435H470V345H303Z"  />
<glyph unicode="&#x2c;" horiz-adv-x="233" d="M110 -94H13L79 146H204L110 -94Z"  />
<glyph unicode="-" horiz-adv-x="277" d="M35 249V338H242V249H35Z"  />
<glyph unicode="." horiz-adv-x="203" d="M44 0V146H159V0H44Z"  />
<glyph unicode="/" horiz-adv-x="343" d="M117 0H3L226 743H341L117 0Z"  />
<glyph unicode="0" horiz-adv-x="514" d="M477 284Q477 217 466 163T430 69T362 9T257 -12Q194 -12 152 9T84 69T48 162T37 284V459Q37 526 47 580T83 673T151 733T257 754Q320 754 362 733T429 674T466 581T477 459V284ZM356 459Q356 514 351 552T333 613T302 646T257 656Q231 656 213 646T182 613T164 552T158 459V284Q158 228 164 191T182 130T212 96T257 86Q283 86 302 96T333 129T350 190T356 284V459Z"  />
<glyph unicode="1" horiz-adv-x="461" d="M35 0V89L171 96V630L35 585V681L201 745H291V96L426 89V0H35Z"  />
<glyph unicode="2" horiz-adv-x="473" d="M40 0V95Q40 157 49 201T78 280T131 345T209 412Q245 440 266 460T299 497T313 531T317 568Q317 621 291 640T199 660Q186 660 168 659T133 657L124 595H44V731Q53 734 71 737T113 745T164 751T218 754Q331 754 384 711T438 572Q438 542 432 516T409 462T363 406T289 341Q246 308 220 283T180 234T161 182T156 115V99H338L347 155H427V0H40Z"  />
<glyph unicode="3" horiz-adv-x="476" d="M439 196Q439 137 425 97T381 33T310 -1T212 -12Q186 -12 160 -9T111 -3T71 5T43 13V152H123L133 86Q150 84 167 84T202 84Q231 84 253 88T289 104T311 139T318 200V228Q318 254 315 274T302 309T274 330T227 338H73V427H227Q256 427 274 434T301 455T314 489T318 535V551Q318 585 312 606T292 639T256 655T201 659Q185 659 168 659T134 657L125 595H44V731Q51 733 68 737T109 744T159 751T212 754Q267 754 309 745T381 712T424 651T439 555V540Q439 484 421 445T365 383Q404 360 421 321T439 225V196H439Z"  />
<glyph unicode="4" horiz-adv-x="509" d="M403 187V82L443 77V0H242V77L282 82V187H24V291L286 743H403V281H482V187H403ZM286 574L123 281H286V574Z"  />
<glyph unicode="5" horiz-adv-x="470" d="M433 204Q433 142 417 101T372 34T300 -1T203 -12Q174 -12 147 -9T98 -2T59 6T34 12V152H114L124 86Q155 83 188 83Q222 83 245 88T284 106T305 143T312 204V239Q312 273 307 296T288 333T249 354T184 361H44L69 743H415V594H335L326 645H170L158 453H204Q273 453 317 439T387 396T423 329T433 239V204H433Z"  />
<glyph unicode="6" horiz-adv-x="507" d="M470 217Q470 146 451 101T400 31T331 -3T256 -12Q209 -12 169 -2T100 37T54 116T37 248V488Q37 551 47 600T83 684T154 736T271 754Q298 754 324 752T374 746T415 739T443 732V595H363L353 657Q336 658 318 658T282 659Q238 659 213 649T176 617T160 565T157 493V451Q178 456 209 460T267 465Q312 465 349 456T413 426T455 367T470 272V217ZM350 266Q350 300 345 322T329 357T300 375T254 380Q236 380 209 378T157 368V240Q157 154 179 118T256 81Q304 81 327 116T350 217V266Z"  />
<glyph unicode="7" horiz-adv-x="463" d="M194 0H67L323 645H122L113 593H33V743H436V631L194 0Z"  />
<glyph unicode="8" horiz-adv-x="521" d="M483 211Q483 133 464 89T413 22T342 -6T262 -12H259Q218 -12 179 -7T108 21T58 88T38 211V220Q38 285 55 323T109 387Q78 409 59 444T40 541V553Q40 613 57 651T103 713T172 745T259 754H262Q308 754 348 745T418 713T464 652T481 553V541Q481 479 462 444T412 387Q448 361 465 323T483 220V211ZM363 221Q363 287 348 314T290 342H231Q189 342 173 315T157 221V212Q157 170 164 145T184 105T216 86T259 81H262Q286 81 305 85T337 104T356 144T363 212V221ZM362 552Q362 618 337 640T262 663H259Q209 663 184 641T158 552V540Q158 488 173 459T231 430H290Q332 430 347 459T362 540V552Z"  />
<glyph unicode="9" horiz-adv-x="507" d="M470 256Q470 193 460 144T424 60T353 7T236 -11Q209 -11 183 -9T133 -3T92 5T64 12V150H144L154 87Q171 85 189 85T226 84Q270 84 295 94T332 126T347 178T350 250V293Q329 287 298 283T240 278Q195 278 158 287T94 317T52 376T37 471V526Q37 597 56 642T107 712T176 746T251 755Q297 755 337 745T407 707T453 628T470 497V256ZM350 504Q350 589 328 625T251 662Q203 662 180 627T157 526V477Q157 444 162 422T178 387T207 369T253 363Q271 363 298 366T350 376V504Z"  />
<glyph unicode=":" horiz-adv-x="214" d="M49 0V146H164V0H49ZM164 408H49V554H164V408Z"  />
<glyph unicode=";" horiz-adv-x="235" d="M97 -93H1L66 146H194L97 -93ZM69 408V554H184V408H69Z"  />
<glyph unicode="&lt;" horiz-adv-x="512" d="M301 135L82 390L301 644H430L212 390L430 135H301Z"  />
<glyph unicode="=" horiz-adv-x="512" d="M72 223V315H440V223H72ZM72 463V555H440V463H72Z"  />
<glyph unicode="&gt;" horiz-adv-x="512" d="M211 135H82L300 390L82 644H211L430 390L211 135Z"  />
<glyph unicode="?" horiz-adv-x="399" d="M26 761Q57 769 97 774T172 780Q220 780 255 773T314 746T349 696T361 618V612Q361 572 348 530T293 432Q267 397 250 373T224 329T211 291T207 249V207H104V249Q104 277 106 301T115 348T135 397T172 455Q189 479 200 498T219 535T229 568T232 601V606Q232 651 215 666T156 681Q144 681 133 681T113 680L103 626H26V761ZM99 146H213V0H99V146Z"  />
<glyph unicode="@" horiz-adv-x="659" d="M626 370Q626 300 611 241T561 140T471 74T338 50Q291 50 259 60T208 89T179 135T170 196Q170 210 171 233T174 277Q178 340 190 381T224 446T274 479T339 489Q376 489 411 482T475 466L450 143Q504 167 529 225T555 370Q555 484 508 542T358 600Q305 600 263 584T191 530T140 434T111 289Q108 259 106 226T103 156Q103 115 112 77T143 10T205 -36T306 -54Q330 -54 353 -53T395 -50T428 -47T447 -45V-96Q444 -97 431 -99T398 -104T354 -109T306 -111Q230 -111 178 -90T94 -33T47 52T33 157Q33 194 35 230T42 296Q53 392 77 461T141 574T235 639T358 660Q492 660 559 585T626 370ZM374 409Q357 412 337 412Q322 412 311 408T291 389T276 347T267 274Q265 242 265 226T264 196Q264 155 278 139T331 123H354L374 409Z"  />
<glyph unicode="A" horiz-adv-x="590" d="M20 0V90L60 94L183 648L142 654V743H384L529 94L570 90V0H370V89L404 93L377 222H212L184 93L219 89V0H20ZM317 522Q309 557 306 590T298 652H292Q288 623 285 591T273 522L230 323H359L317 522Z"  />
<glyph unicode="B" horiz-adv-x="530" d="M497 211Q497 145 478 104T426 38T345 6T242 -3Q189 -3 139 -3T29 0V90L70 95V647L29 653V743Q86 745 139 746T243 747Q300 747 346 739T425 709T476 649T494 551V539Q494 488 475 446T417 383Q459 361 478 318T497 224V211ZM379 225Q379 279 358 309T274 340H188V95H248Q280 95 304 99T345 116T370 151T379 211V225ZM376 549Q376 582 368 602T343 632T303 646T249 649H188V428H274Q305 428 325 435T356 457T371 491T376 537V549Z"  />
<glyph unicode="C" horiz-adv-x="461" d="M429 8Q419 5 402 2T365 -5T323 -10T281 -12Q228 -12 183 -1T104 44T53 136T34 293V450Q34 547 52 606T104 699T182 743T281 754Q301 754 323 752T365 747T402 741T429 735V592H347L337 649Q325 649 313 649T289 650Q256 650 231 643T189 615T164 554T155 450V293Q155 229 163 190T189 129T232 100T290 92Q301 92 313 92T337 94L347 153H429V8H429Z"  />
<glyph unicode="D" horiz-adv-x="555" d="M518 298Q518 230 506 175T463 80T380 19T247 -3Q193 -3 138 -3T29 0V89L70 96V648L29 654V743Q83 745 137 746T247 747Q326 747 378 726T462 665T505 571T518 448V298ZM398 448Q398 503 391 541T366 602T320 635T248 645H189V98H248Q291 98 320 108T366 143T390 205T398 298V448Z"  />
<glyph unicode="E" horiz-adv-x="470" d="M29 0V89L68 94V649L29 654V743H438V593H356L347 643H189V433H422V335H189V100H347L356 152H438V0H29Z"  />
<glyph unicode="F" horiz-adv-x="465" d="M190 334V94L230 89V0H29V89L70 95V649L29 654V743H439V593H357L348 643H190V433H423V334H190Z"  />
<glyph unicode="G" horiz-adv-x="502" d="M466 9Q455 6 436 3T391 -4T338 -9T279 -12Q229 -12 185 -1T107 43T54 135T34 289V454Q34 553 56 612T113 703T192 744T282 754Q313 754 342 752T397 745T439 738T464 732V592H382L372 647Q357 648 339 649T304 650Q269 650 241 645T194 620T165 561T155 454V289Q155 225 163 187T188 127T230 99T289 92Q305 92 320 92T349 94V299L279 306V389H466V9H466Z"  />
<glyph unicode="H" horiz-adv-x="610" d="M581 743V654L540 649V94L581 90V0H379V89L420 94V338H190V94L231 89V0H29V90L70 94V649L29 654V743H231V654L190 649V441H420V649L379 654V743H581Z"  />
<glyph unicode="I" horiz-adv-x="262" d="M30 0V90L71 94V649L30 654V743H231V654L191 649V94L231 90V0H30Z"  />
<glyph unicode="J" horiz-adv-x="256" d="M185 649V-65Q185 -145 152 -178T48 -211Q29 -211 7 -208T-30 -200V-119H24Q51 -119 58 -108T65 -67V649L25 654V743H226V654L185 649Z"  />
<glyph unicode="K" horiz-adv-x="545" d="M29 0V90L68 94V649L29 654V743H230V654L189 649V399L387 743H521V654L474 649L311 377L475 94L521 90V0H379L189 349V94L230 89V0H29Z"  />
<glyph unicode="L" horiz-adv-x="445" d="M29 0V90L68 94V649L29 654V743H229V654L189 649V101H329L338 156H420V0H29Z"  />
<glyph unicode="M" horiz-adv-x="680" d="M29 0V90L68 94V649L29 654V743H206L305 482Q314 459 322 434T338 385H340Q348 409 356 434T373 482L473 743H651V654L611 649V94L651 90V0H453V89L494 94V435Q494 475 496 513T500 588H498Q488 557 479 526T458 466L389 289H289L221 467Q210 496 200 526T181 588H179Q185 514 185 435V94L226 89V0H29Z"  />
<glyph unicode="N" horiz-adv-x="600" d="M570 743V654L530 649V0H389L214 474Q205 498 195 527T175 587H173Q176 553 178 516T180 444V94L221 89V0H29V90L69 94V649L29 654V743H211L383 288Q392 264 403 232T423 172H425Q422 211 420 251T418 322V649L377 654V743H570Z"  />
<glyph unicode="O" horiz-adv-x="542" d="M508 303Q508 150 451 69T271 -12Q148 -12 91 68T34 303V440Q34 595 91 674T271 754Q394 754 451 675T508 440V303ZM388 440Q388 552 361 601T271 651Q209 651 182 602T155 440V303Q155 190 182 141T271 91Q333 91 360 140T388 303V440Z"  />
<glyph unicode="P" horiz-adv-x="522" d="M29 0V89L70 94V649L29 654V744Q132 747 237 747Q292 747 338 739T419 706T473 637T493 523V508Q493 438 474 394T421 325T342 290T244 280H188V94L234 89V0H29ZM374 523Q374 561 367 585T343 622T301 641T242 646H188V381H242Q276 381 301 386T342 406T366 445T374 508V523Z"  />
<glyph unicode="Q" horiz-adv-x="542" d="M508 302Q508 170 465 91T328 -6V-71Q328 -83 329 -90T336 -102T350 -107T376 -108H437V-184Q426 -188 397 -193T333 -198Q305 -198 283 -193T245 -173T221 -135T213 -74V-6Q119 11 77 91T34 302V440Q34 595 92 674T271 754Q393 754 450 675T508 440V302ZM388 440Q388 553 361 602T271 651Q209 651 182 602T155 440V303Q155 190 182 141T271 91Q333 91 360 140T388 303V440Z"  />
<glyph unicode="R" horiz-adv-x="553" d="M29 0V90L70 94V649L29 654V743Q128 746 232 746Q287 746 334 737T417 704T472 636T492 523V514Q492 431 467 384T392 310L485 94L533 90V0H397L277 284Q268 283 258 283T239 283H188V94L229 89V0H29ZM373 522Q373 560 366 584T342 622T299 641T236 646H188V380H240Q277 380 302 387T344 409T366 450T373 513V522Z"  />
<glyph unicode="S" horiz-adv-x="465" d="M434 193Q434 93 380 41T221 -12Q192 -12 164 -10T113 -4T71 4T42 11V152H123L132 91Q148 89 158 89T176 88T191 87T208 87Q263 87 287 110T312 191Q312 211 309 227T297 256T274 283T239 310L152 370Q92 411 62 456T31 572Q31 754 244 754Q272 754 299 752T349 746T389 739T417 732V596H336L326 653Q311 654 301 654T284 655T270 656T255 656Q201 656 177 637T153 571Q153 552 156 538T168 510T190 485T224 458L308 401Q340 379 364 358T403 311T426 258T434 193Z"  />
<glyph unicode="T" horiz-adv-x="506" d="M401 593L392 644H313V93L354 89V0H152V89L193 93V644H114L105 593H24V743H482V593H401Z"  />
<glyph unicode="U" horiz-adv-x="592" d="M563 743V654L523 649V275Q523 215 512 163T475 71T405 10T296 -12Q231 -12 188 10T118 71T81 162T70 275V649L29 654V743H231V654L190 649V289Q190 235 194 198T209 136T242 101T296 90Q329 90 350 101T383 136T399 197T403 289V649L362 654V743H563Z"  />
<glyph unicode="V" horiz-adv-x="589" d="M568 743V654L527 649L383 0H205L60 649L20 654V743H220V654L184 649L271 230Q280 185 284 153T293 90H295Q299 121 303 153T317 230L403 649L368 654V743H568Z"  />
<glyph unicode="W" horiz-adv-x="763" d="M743 743V654L702 649L620 0H462L399 335Q394 359 390 389T383 442H380Q377 420 373 390T364 335L302 0H142L60 649L20 654V743H218V654L180 649L221 272Q226 232 228 197T234 127H237Q242 159 246 194T258 268L311 537H452L506 265Q514 227 518 192T526 127H530Q532 163 535 198T543 272L584 649L546 654V743H743Z"  />
<glyph unicode="X" horiz-adv-x="549" d="M264 261L187 93L225 89V0H20V89L65 95L204 380L69 648L24 654V743H237V654L201 650L282 488L356 650L319 654V743H524V654L479 648L342 371L481 95L528 89V0H316V89L349 93L264 261Z"  />
<glyph unicode="Y" horiz-adv-x="515" d="M495 743V654L454 648L317 290V94L357 89V0H157V89L198 94V289L60 648L20 654V743H214V654L180 650L224 524Q236 490 243 465T257 412H259Q265 439 272 464T292 524L336 650L303 654V743H495Z"  />
<glyph unicode="Z" horiz-adv-x="476" d="M29 0V114L306 644H128L118 592H38V743H438V629L161 100H357L367 155H447V0H29Z"  />
<glyph unicode="[" horiz-adv-x="306" d="M59 -201V743H278V650H174V-109H278V-201H59Z"  />
<glyph unicode="\" horiz-adv-x="353" d="M231 0L9 743H122L345 0H231Z"  />
<glyph unicode="]" horiz-adv-x="306" d="M28 -201V-109H132V651H28V743H247V-201H28Z"  />
<glyph unicode="^" horiz-adv-x="537" d="M364 408L268 691L172 408H58L177 744H359L478 408H364Z"  />
<glyph unicode="_" horiz-adv-x="438" d="M-14 -120V-50H452V-120H-14Z"  />
<glyph unicode="`" horiz-adv-x="345" d="M143 616L25 764H152L248 616H143Z"  />
<glyph unicode="a" horiz-adv-x="465" d="M294 0V31Q272 14 238 2T164 -11Q92 -11 62 29T32 141V169Q32 218 46 250T87 300T152 326T240 333H283V380Q283 410 280 428T268 457T241 471T196 475Q184 475 173 475T149 474L139 426H60V543Q67 546 82 550T119 558T165 566T218 569Q270 569 305 559T361 526T390 467T399 380V94L439 89V0H294ZM286 261H241Q214 261 195 257T165 243T149 216T144 171V135Q144 97 158 85T199 73Q225 73 249 82T286 99V261Z"  />
<glyph unicode="b" horiz-adv-x="461" d="M429 229Q429 166 418 121T380 46T313 3T212 -11Q192 -11 175 -11T138 -9T96 -5T43 1V677L3 682V771H157V542Q178 556 204 563T257 570Q352 570 390 514T429 350V229ZM314 350Q314 385 311 408T299 446T275 467T237 473Q223 473 200 469T156 453V88Q169 87 183 87T217 86Q244 86 262 91T292 113T309 157T314 229V350Z"  />
<glyph unicode="c" horiz-adv-x="391" d="M362 10Q342 2 306 -4T225 -11Q172 -11 136 4T78 50T45 124T35 225V334Q35 391 45 434T77 508T136 553T225 569Q270 569 307 563T362 548V425H283L274 472Q266 473 257 473T243 473Q219 473 202 468T173 447T156 405T150 334V225Q150 181 155 154T172 111T201 91T243 85Q264 85 293 87T362 93V10H362Z"  />
<glyph unicode="d" horiz-adv-x="488" d="M314 0V26Q291 9 261 -1T193 -11Q109 -11 72 46T35 211V333Q35 400 47 445T85 517T146 557T229 569Q249 569 268 567T307 561V681L256 685V770H422V94L462 89V0H314ZM308 467Q288 470 270 472T238 474Q215 474 199 469T172 449T156 407T150 333V211Q150 142 166 114T227 85Q267 85 308 107V467Z"  />
<glyph unicode="e" horiz-adv-x="461" d="M148 242V229Q148 187 151 159T166 114T200 90T259 83Q292 83 335 86T413 96V11Q390 3 348 -4T251 -11Q193 -11 152 1T84 43T46 120T33 241V308Q33 440 81 504T232 569Q288 569 326 551T387 499T421 415T431 302V242H148ZM317 333Q317 366 315 392T303 437T278 466T233 476Q205 476 189 466T163 437T151 392T148 333V321H317V333Z"  />
<glyph unicode="f" horiz-adv-x="336" d="M209 468V94L249 89V0H54V89L94 94V468L19 477V558H94V625Q94 662 100 691T120 741T159 771T221 782Q250 782 275 777T317 767V694Q303 695 286 696T255 697Q239 697 230 694T217 682T211 660T209 625V558H313V468H209Z"  />
<glyph unicode="g" horiz-adv-x="473" d="M440 -37Q440 -123 391 -169T233 -215Q127 -215 79 -170T31 -41Q31 -9 42 23T74 79Q34 109 34 159Q34 215 78 245Q59 267 49 299T39 380Q39 420 47 454T76 514T136 554T237 569H445V496L401 488Q409 474 418 447T428 380Q428 285 379 238T233 191Q207 191 185 195T146 204Q128 189 128 168Q128 150 137 144T173 137H232Q282 137 320 131T385 105T426 52T440 -37ZM327 -39Q327 -11 323 7T309 35T280 48T232 52H163Q153 39 147 18T141 -39Q141 -86 159 -109T234 -133Q289 -133 308 -110T327 -39ZM316 380Q316 404 313 423T300 456T275 476T233 483Q207 483 191 476T166 456T154 423T151 380Q151 356 154 337T166 305T191 284T233 277Q259 277 275 284T300 304T312 337T316 380Z"  />
<glyph unicode="h" horiz-adv-x="518" d="M337 0V374Q337 403 334 422T325 452T307 468T277 473Q251 473 226 465T181 443V94L221 89V0H26V89L66 94V676L26 681V770H181V532Q204 546 237 557T311 569Q354 569 381 555T425 515T446 454T452 378V94L492 89V0H337Z"  />
<glyph unicode="i" horiz-adv-x="248" d="M26 0V90L66 94V463L26 469V558H182V94L221 90V0H26ZM64 652V770H184V652H64Z"  />
<glyph unicode="j" horiz-adv-x="237" d="M181 -69Q181 -108 175 -136T153 -181T112 -207T50 -215Q30 -215 10 -213T-21 -208V-127H24Q50 -127 58 -116T66 -69V464L25 469V558H181V-69ZM63 652V770H182V652H63Z"  />
<glyph unicode="k" horiz-adv-x="477" d="M315 0L181 263V0H26V89L66 94V676L26 681V770H181V310L315 558H450V469L393 464L292 290L399 95L451 89V0H315Z"  />
<glyph unicode="l" horiz-adv-x="247" d="M26 0V89L66 94V676L26 681V770H181V94L221 89V0H26Z"  />
<glyph unicode="m" horiz-adv-x="735" d="M553 0V391Q553 412 553 427T548 453T534 469T506 475Q488 475 466 466T423 444Q425 430 425 417T426 391V0H309V391Q309 432 304 453T265 475Q244 475 221 465T181 443V94L221 89V0H26V89L66 94V464L26 469V558H176V520Q204 544 237 556T303 569Q341 569 364 557T403 519Q438 545 471 557T535 569Q582 569 608 553T648 512T665 455T668 392V94L709 89V0H553Z"  />
<glyph unicode="n" horiz-adv-x="518" d="M337 0V378Q337 406 335 424T327 454T311 470T283 475Q243 475 181 441V94L221 89V0H26V89L66 94V464L26 469V558H176V520Q207 540 241 554T315 569Q360 569 387 556T429 518T447 458T452 378V94L492 89V0H337Z"  />
<glyph unicode="o" horiz-adv-x="467" d="M433 226Q433 101 382 45T233 -11Q137 -11 86 45T34 226V332Q34 457 85 513T233 569Q330 569 381 513T433 332V226ZM318 332Q318 411 298 442T233 473Q189 473 169 443T148 332V226Q148 186 153 159T168 116T195 92T233 85Q278 85 298 115T318 226V332Z"  />
<glyph unicode="p" horiz-adv-x="486" d="M26 -204V-114L66 -110V464L26 469V558H174V527Q202 548 235 558T300 569Q380 569 416 517T453 349V225Q453 159 440 114T401 42T338 2T255 -11Q238 -11 218 -9T181 -2V-110L221 -114V-204H26ZM337 349Q337 419 322 445T265 472Q245 472 226 467T180 447V92Q215 85 249 85Q271 85 287 90T315 110T331 152T337 225V349Z"  />
<glyph unicode="q" d="M263 -204V-114L303 -110V17Q277 3 250 -4T196 -11Q150 -11 119 2T68 43T40 112T31 210V331Q31 397 42 442T78 515T144 556T247 569Q266 569 284 569T322 567T365 563T417 557V-110L457 -115V-204H263ZM303 471Q290 472 273 472T244 473Q217 473 198 469T168 449T151 406T146 331V210Q146 175 149 152T160 114T181 93T217 86Q232 86 254 90T303 107V471Z"  />
<glyph unicode="r" horiz-adv-x="347" d="M327 468Q292 468 251 461T181 440V94L221 89V0H26V89L66 94V464L26 469V558H174V518Q210 551 251 560T327 569V468H327Z"  />
<glyph unicode="s" horiz-adv-x="398" d="M368 147Q368 112 358 83T325 33T268 1T183 -11Q163 -11 142 -9T100 -5T62 1T34 8V137H114L123 83Q147 81 158 81T183 81Q224 81 238 96T253 147Q253 160 250 170T238 191T214 213T175 240L145 259Q113 279 91 298T55 338T35 381T29 431Q29 569 208 569Q225 569 246 568T287 564T326 558T356 550V431H276L266 476Q254 477 240 477T212 478Q177 478 161 468T144 431Q144 417 147 407T158 388T179 368T212 345L246 323Q281 300 304 281T342 242T362 200T368 147Z"  />
<glyph unicode="t" horiz-adv-x="346" d="M319 3Q308 -1 282 -6T224 -11Q157 -11 130 21T103 124V468L25 477V558H103V690H218V558H318V468H218V129Q218 112 219 102T223 87T235 79T257 77Q272 77 292 78T319 80V3H319Z"  />
<glyph unicode="u" horiz-adv-x="518" d="M340 0V38Q308 18 273 4T197 -11Q153 -11 127 4T88 46T70 107T66 180V464L26 469V558H181V180Q181 152 183 134T191 104T208 88T237 83Q275 83 337 117V464L297 469V558H452V94L492 89V0H340Z"  />
<glyph unicode="v" horiz-adv-x="500" d="M477 558V469L437 463L330 0H168L61 463L21 469V558H214V468L178 464L223 230Q231 185 237 148T249 76H251Q256 111 262 148T277 230L322 464L286 468V558H477Z"  />
<glyph unicode="w" horiz-adv-x="735" d="M713 558V469L670 464L599 0H453L387 274Q379 309 375 333T369 379H366Q363 357 360 333T348 274L281 0H137L65 464L23 469V558H213V468L178 464L206 243Q211 205 214 173T220 110H224Q230 142 235 173T249 241L305 476H432L488 242Q497 206 502 174T514 110H517Q520 141 523 173T531 243L558 464L524 468V558H713Z"  />
<glyph unicode="x" horiz-adv-x="478" d="M229 181L141 0H23V89L69 95L171 288L75 463L27 469V558H156L247 389L329 558H449V469L400 464L303 285L407 94L454 89V0H329L229 181Z"  />
<glyph unicode="y" horiz-adv-x="513" d="M491 558V469L446 464L326 -16Q314 -65 301 -102T268 -165T217 -202T141 -215Q111 -215 84 -211T38 -202V-120Q63 -122 81 -122T117 -123Q138 -123 150 -118T171 -101T185 -69T198 -16L202 2L68 464L21 469V558H220V468L185 464L231 268Q235 249 239 232T246 198T253 160T260 114H262Q265 140 268 159T274 196T280 229T287 266L329 464L293 468V558H491Z"  />
<glyph unicode="z" horiz-adv-x="400" d="M29 0V113L250 467H122L112 425H37V558H370V450L148 91H286L296 142H371V0H29Z"  />
<glyph unicode="{" horiz-adv-x="324" d="M246 -204Q192 -204 159 -194T107 -163T82 -115T75 -50V116Q75 143 73 160T65 191T50 214T27 236V304Q41 316 50 326T64 349T72 379T75 424V588Q75 625 81 654T106 703T158 733T246 743H294V651H249Q229 651 218 649T200 640T192 621T190 588V424Q190 394 186 371T174 330T154 298T125 270Q141 257 153 243T174 210T186 169T191 116V-50Q191 -70 192 -81T200 -100T217 -109T249 -111H295V-204H246Z"  />
<glyph unicode="|" horiz-adv-x="232" d="M59 -204V743H173V-204H59Z"  />
<glyph unicode="}" horiz-adv-x="324" d="M297 236Q283 224 274 214T260 191T252 161T249 116V-50Q249 -86 243 -114T218 -163T165 -193T77 -204H29V-111H75Q95 -111 106 -109T124 -100T131 -82T133 -50V116Q133 146 137 169T150 210T170 242T199 270Q182 283 170 297T150 330T138 371T134 424V588Q134 608 132 620T124 639T107 648T75 651H30V743H77Q131 743 165 733T217 703T242 654T249 588V424Q249 397 251 380T259 349T274 326T297 304V236H297Z"  />
<glyph unicode="~" horiz-adv-x="536" d="M477 463Q477 400 454 364T369 328Q335 328 312 337T266 369L226 409Q212 423 203 430T180 437Q161 437 156 425T150 388V331H58V388Q58 452 85 488T173 524Q203 524 225 513T270 479L309 440Q323 426 332 420T357 414Q377 414 381 427T386 463V520H477V463H477Z"  />
<glyph unicode="&#xA0;" horiz-adv-x="168" />
<glyph unicode="&#xA1;" horiz-adv-x="226" d="M48 -212L59 352H167L177 -212H48ZM173 415H53V559H173V415Z"  />
<glyph unicode="&#xA2;" horiz-adv-x="400" d="M362 10Q348 5 324 0T269 -8V-116H168V-4Q95 12 65 71T35 227V332Q35 429 65 487T168 562V672H270V567Q301 564 325 559T362 548V426H283L274 473H244Q219 473 202 468T173 447T156 404T150 332V227Q150 182 155 155T172 112T201 91T244 85Q266 85 295 87T362 93V10H362Z"  />
<glyph unicode="&#xA3;" horiz-adv-x="486" d="M59 0V83Q81 108 89 143T97 204V340H35V430H97V508Q97 572 106 619T137 696T197 740T292 755Q343 755 384 748T450 733V593H369L358 651Q347 653 335 653T309 653Q277 653 259 647T231 624T218 580T215 509V430H387V340H215V204Q215 180 210 152T187 96H450V0H59Z"  />
<glyph unicode="&#xA4;" horiz-adv-x="541" d="M433 154L366 219Q344 206 319 200T271 193Q246 193 222 199T175 219L107 154L43 216L111 282Q98 303 92 328T85 377Q85 402 91 425T111 471L43 537L107 598L175 533Q197 547 222 553T271 560Q297 560 321 554T368 534L434 597L497 536L431 471Q444 448 451 424T459 377Q459 352 453 328T432 281L497 217L433 154ZM376 377Q376 428 345 455T271 482Q229 482 198 455T167 377Q167 350 175 330T198 297T231 278T271 271Q292 271 311 277T344 297T367 330T376 377Z"  />
<glyph unicode="&#xA5;" horiz-adv-x="530" d="M324 240V90L364 85V0H164V85L205 90V240H26V318H195L159 407H28V486H127L65 650L22 656V743H155L231 524Q240 498 249 466T264 412H266Q272 434 281 466T299 524L375 743H508V656L464 650L402 486H502V407H370L333 318H502V240H324Z"  />
<glyph unicode="&#xA6;" horiz-adv-x="232" d="M59 352V743H173V352H59ZM59 -203V188H173V-203H59Z"  />
<glyph unicode="&#xA7;" horiz-adv-x="490" d="M446 -14Q446 -58 434 -95T396 -160T330 -202T232 -218Q177 -218 129 -210T57 -196V-55H139L147 -115Q162 -116 183 -116T232 -117Q281 -117 302 -94T323 -16Q323 4 321 21T309 56T279 90T225 129L146 177Q92 210 68 255T44 360Q44 387 50 415T70 466Q56 488 50 516T44 574Q44 660 92 707T254 754Q283 754 310 752T359 746T399 739T427 732V596H345L335 653Q319 654 299 654T254 655Q202 655 182 636T162 574Q162 556 164 539T175 505T205 470T264 432L313 406Q355 384 381 361T421 313T441 261T447 205Q447 178 441 150T418 96Q433 70 439 42T446 -14ZM338 192Q338 216 337 233T330 263T309 289T268 316L216 345Q177 367 164 379T145 398V370Q145 345 146 329T154 300T172 278T207 255L284 211Q302 200 314 192T338 173V192Z"  />
<glyph unicode="&#xA8;" horiz-adv-x="359" d="M226 637V754H326V637H226ZM134 637H33V754H134V637Z"  />
<glyph unicode="&#xA9;" horiz-adv-x="668" d="M626 379Q626 295 606 229T547 116T455 46T333 21Q266 21 212 45T120 116T61 228T40 379Q40 463 60 529T119 641T212 711T333 736Q400 736 454 712T547 642T605 530T626 379ZM555 379Q555 517 497 593T333 669Q228 669 170 593T111 379Q111 240 169 164T333 87Q438 87 496 163T555 379ZM435 175Q419 170 390 167T335 163Q255 163 221 210T186 337V420Q186 502 220 547T335 593Q348 593 363 592T392 590T417 586T435 581V487H377L369 519Q364 520 358 520T344 520Q303 520 289 498T275 420V337Q275 283 289 261T344 238Q351 238 356 238T369 239L377 271H435V175Z"  />
<glyph unicode="&#xAA;" horiz-adv-x="341" d="M213 433V453Q199 443 176 435T124 426Q79 426 58 451T36 519V535Q36 567 47 586T77 615T122 629T178 632H205V655Q205 688 195 698T150 708Q142 708 134 708T118 707L113 682H56V757Q69 762 99 768T168 774Q237 774 264 747T291 655V501L314 499V433H213ZM208 584H179Q145 584 132 576T119 536V519Q119 498 128 493T153 487Q169 487 184 492T208 502V584Z"  />
<glyph unicode="&#xAB;" horiz-adv-x="444" d="M313 68L206 280L313 492H420L316 280L420 68H313ZM240 68H133L26 280L133 492H240L136 280L240 68Z"  />
<glyph unicode="&#xAC;" horiz-adv-x="512" d="M344 223V463H72V555H440V223H344Z"  />
<glyph unicode="&#xAD;" horiz-adv-x="277" d="M35 249V338H242V249H35Z"  />
<glyph unicode="&#xAE;" horiz-adv-x="541" d="M500 478Q500 413 485 360T439 270T367 213T270 193Q216 193 173 213T101 270T56 360T40 478Q40 544 55 597T100 686T173 743T270 763Q324 763 366 743T439 687T484 597T500 478ZM440 478Q440 587 396 647T270 708Q188 708 144 648T99 478Q99 368 143 308T270 248Q351 248 395 308T440 478ZM317 326L262 444H251H237V326H158V368L176 371V598L158 600V646Q181 647 204 647T253 647Q279 647 301 643T338 629T363 600T372 551V547Q372 512 360 491T323 458L365 372L388 369V326H317ZM309 551Q309 580 296 588T254 596H237V494H255Q286 494 297 505T309 547V551Z"  />
<glyph unicode="&#xAF;" horiz-adv-x="354" d="M28 652V732H325V652H28Z"  />
<glyph unicode="&#xB0;" horiz-adv-x="377" d="M347 598Q347 566 335 538T301 488T251 455T189 443Q156 443 127 455T77 488T44 537T31 598Q31 631 43 659T77 709T127 742T189 754Q222 754 250 742T300 709T334 660T347 598ZM271 598Q271 635 247 658T188 682Q154 682 130 659T106 598Q106 562 130 538T188 514Q223 514 247 538T271 598Z"  />
<glyph unicode="&#xB1;" horiz-adv-x="512" d="M50 0V85H462V0H50ZM303 368V201H211V368H45V457H211V624H303V457H467V368H303Z"  />
<glyph unicode="&#xB2;" horiz-adv-x="356" d="M37 301V358Q37 397 43 424T63 474T98 514T152 554Q176 569 190 580T211 600T221 618T223 639Q223 665 208 675T150 686Q142 686 130 686T106 683L100 646H42V740Q50 742 64 744T96 749T131 753T166 755Q244 755 280 729T317 643Q317 623 312 606T296 573T264 539T214 502Q186 484 170 471T144 445T132 417T129 380V373H246L251 407H310V301H37Z"  />
<glyph unicode="&#xB3;" horiz-adv-x="355" d="M314 422Q314 350 276 321T159 292Q141 292 123 294T89 298T59 304T38 309V403H97L102 364Q113 363 125 363T150 362Q186 362 203 373T221 426V438Q221 466 211 481T162 497H58V562H163Q200 562 210 577T221 620V628Q221 663 206 674T149 685Q138 685 126 685T103 683L97 646H39V740Q45 742 58 744T87 749T122 753T159 755Q235 755 274 728T314 633V625Q314 593 303 569T266 529Q292 515 303 491T314 435V422H314Z"  />
<glyph unicode="&#xB4;" horiz-adv-x="345" d="M198 616H92L189 764H315L198 616Z"  />
<glyph unicode="&#xB5;" horiz-adv-x="524" d="M29 -204V-114L69 -110V464L29 469V558H184V180Q184 152 186 134T194 104T211 88T240 83Q278 83 340 117V464L300 469V558H455V94L495 89V0H343V38Q314 20 284 8T221 -7Q210 -7 201 -6T184 -2V-110L224 -114V-204H29Z"  />
<glyph unicode="&#xB6;" horiz-adv-x="587" d="M454 -199V658H399V-199H255V-108L311 -102V250H285Q232 250 187 262T109 302T58 376T39 492V503Q39 577 58 624T111 697T193 733T297 743H541V-199H454Z"  />
<glyph unicode="&#xB7;" horiz-adv-x="203" d="M44 284V430H159V284H44Z"  />
<glyph unicode="&#xB8;" horiz-adv-x="337" d="M143 -204H40L125 -61H249L143 -204Z"  />
<glyph unicode="&#xB9;" horiz-adv-x="329" d="M45 300V366L120 370V655L45 628V707L145 748H214V370L289 366V300H45Z"  />
<glyph unicode="&#xBA;" horiz-adv-x="349" d="M313 577Q313 496 277 461T175 426Q109 426 73 461T36 577V623Q36 704 72 739T175 774Q241 774 277 739T313 623V577ZM228 623Q228 670 216 687T175 705Q146 705 134 688T121 623V577Q121 530 133 513T175 496Q204 496 216 513T228 577V623Z"  />
<glyph unicode="&#xBB;" horiz-adv-x="444" d="M312 68H205L309 280L205 492H312L419 280L312 68ZM239 280L132 68H25L129 280L25 492H132L239 280Z"  />
<glyph unicode="&#xBC;" horiz-adv-x="785" d="M701 106V54L727 51V0H582V51L608 54V106H433V177L618 446H701V174H753V106H701ZM612 331L508 174H612V331ZM282 0H181L543 744H644L282 0ZM37 300V366L112 370V655L37 628V707L136 748H206V370L281 366V300H37Z"  />
<glyph unicode="&#xBD;" horiz-adv-x="852" d="M536 0V57Q536 96 542 123T562 172T597 212T651 252Q675 267 689 278T710 298T720 317T722 338Q722 364 707 374T649 385Q640 385 628 385T604 382L599 345H540V439Q549 441 563 443T594 448T629 452T664 454Q742 454 779 428T816 342Q816 322 811 305T795 272T763 238T713 201Q685 183 668 170T642 144T631 116T628 79V72H744L750 106H809V0H536ZM282 0H181L543 744H644L282 0ZM37 300V366L112 370V655L37 628V707L136 748H206V370L281 366V300H37Z"  />
<glyph unicode="&#xBE;" horiz-adv-x="816" d="M729 106V54L755 51V0H609V51L635 54V106H461V177L646 446H729V174H781V106H729ZM639 331L536 174H639V331ZM297 0H195L557 744H659L297 0ZM309 422Q309 350 271 321T155 292Q119 292 84 298T33 309V403H92L97 364Q108 363 120 363T145 362Q181 362 198 373T216 426V438Q216 466 206 481T158 497H53V562H158Q195 562 205 577T216 620V628Q216 663 201 674T144 685Q133 685 121 685T98 683L92 646H34V740Q48 744 83 749T155 755Q231 755 270 728T309 633V625Q309 593 298 569T261 529Q287 515 298 491T309 435V422Z"  />
<glyph unicode="&#xBF;" horiz-adv-x="399" d="M373 -203Q342 -211 302 -216T227 -222Q179 -222 144 -215T85 -188T50 -138T38 -60V-54Q38 -14 51 28T106 126Q132 161 149 185T175 229T188 267T192 309V351H295V309Q295 281 293 257T284 210T264 161T227 103Q210 79 199 60T180 23T170 -10T167 -43V-48Q167 -93 184 -108T243 -123Q255 -123 266 -123T286 -122L296 -68H373V-203ZM300 412H186V558H300V412Z"  />
<glyph unicode="&#xC0;" horiz-adv-x="590" d="M20 0V90L60 94L183 648L142 654V743H384L529 94L570 90V0H370V89L404 93L377 222H212L184 93L219 89V0H20ZM317 522Q309 557 306 590T298 652H292Q288 623 285 591T273 522L230 323H359L317 522ZM262 790L144 938H271L367 790H262Z"  />
<glyph unicode="&#xC1;" horiz-adv-x="590" d="M20 0V90L60 94L183 648L142 654V743H384L529 94L570 90V0H370V89L404 93L377 222H212L184 93L219 89V0H20ZM317 522Q309 557 306 590T298 652H292Q288 623 285 591T273 522L230 323H359L317 522ZM338 790H232L329 938H455L338 790Z"  />
<glyph unicode="&#xC2;" horiz-adv-x="590" d="M20 0V90L60 94L183 648L142 654V743H384L529 94L570 90V0H370V89L404 93L377 222H212L184 93L219 89V0H20ZM317 522Q309 557 306 590T298 652H292Q288 623 285 591T273 522L230 323H359L317 522ZM369 790L295 885L221 790H121L223 938H367L469 790H369Z"  />
<glyph unicode="&#xC3;" horiz-adv-x="590" d="M20 0V90L60 94L183 648L142 654V743H384L529 94L570 90V0H370V89L404 93L377 222H212L184 93L219 89V0H20ZM317 522Q309 557 306 590T298 652H292Q288 623 285 591T273 522L230 323H359L317 522ZM475 903Q475 846 452 816T378 786Q353 786 330 793T286 824L256 855Q244 868 238 872T219 876Q192 876 192 832V790H117V832Q117 888 142 918T215 949Q241 949 260 942T301 912L331 881Q344 868 352 864T375 859Q399 859 399 903V945H475V903H475Z"  />
<glyph unicode="&#xC4;" horiz-adv-x="590" d="M20 0V90L60 94L183 648L142 654V743H384L529 94L570 90V0H370V89L404 93L377 222H212L184 93L219 89V0H20ZM317 522Q309 557 306 590T298 652H292Q288 623 285 591T273 522L230 323H359L317 522ZM342 802V919H442V802H342ZM250 802H149V919H250V802Z"  />
<glyph unicode="&#xC5;" horiz-adv-x="590" d="M20 0V90L60 94L183 648L142 654V743H384L529 94L570 90V0H370V89L404 93L377 222H212L184 93L219 89V0H20ZM317 522Q309 557 306 590T298 652H292Q288 623 285 591T273 522L230 323H359L317 522ZM410 875Q410 816 378 789T296 761Q246 761 213 788T180 875Q180 934 213 962T296 990Q346 990 378 963T410 875ZM342 875Q342 907 329 918T296 930Q276 930 263 919T250 875Q250 844 263 833T296 821Q316 821 329 832T342 875Z"  />
<glyph unicode="&#xC6;" horiz-adv-x="773" d="M328 0V89L367 94V222H213L165 0H19V89L60 95L184 648L142 653V743H736V593H655L646 643H488V433H720V335H488V100H645L655 152H736V0H328ZM367 651H298L275 536L230 320H367V651Z"  />
<glyph unicode="&#xC7;" horiz-adv-x="461" d="M429 8Q419 5 402 2T365 -5T323 -10T281 -12Q228 -12 183 -1T104 44T53 136T34 293V450Q34 547 52 606T104 699T182 743T281 754Q301 754 323 752T365 747T402 741T429 735V592H347L337 649Q325 649 313 649T289 650Q256 650 231 643T189 615T164 554T155 450V293Q155 229 163 190T189 129T232 100T290 92Q301 92 313 92T337 94L347 153H429V8ZM220 -204H117L202 -61H326L220 -204Z"  />
<glyph unicode="&#xC8;" horiz-adv-x="470" d="M29 0V89L68 94V649L29 654V743H438V593H356L347 643H189V433H422V335H189V100H347L356 152H438V0H29ZM216 791L98 939H225L321 791H216Z"  />
<glyph unicode="&#xC9;" horiz-adv-x="470" d="M29 0V89L68 94V649L29 654V743H438V593H356L347 643H189V433H422V335H189V100H347L356 152H438V0H29ZM288 791H182L279 939H405L288 791Z"  />
<glyph unicode="&#xCA;" horiz-adv-x="470" d="M29 0V89L68 94V649L29 654V743H438V593H356L347 643H189V433H422V335H189V100H347L356 152H438V0H29ZM321 791L247 886L173 791H73L175 939H319L421 791H321Z"  />
<glyph unicode="&#xCB;" horiz-adv-x="470" d="M29 0V89L68 94V649L29 654V743H438V593H356L347 643H189V433H422V335H189V100H347L356 152H438V0H29ZM297 803V920H397V803H297ZM205 803H104V920H205V803Z"  />
<glyph unicode="&#xCC;" horiz-adv-x="262" d="M30 0V90L71 94V649L30 654V743H231V654L191 649V94L231 90V0H30ZM99 791L-19 939H108L204 791H99Z"  />
<glyph unicode="&#xCD;" horiz-adv-x="262" d="M30 0V90L71 94V649L30 654V743H231V654L191 649V94L231 90V0H30ZM165 791H59L156 939H282L165 791Z"  />
<glyph unicode="&#xCE;" horiz-adv-x="262" d="M30 0V90L71 94V649L30 654V743H231V654L191 649V94L231 90V0H30ZM205 791L131 886L57 791H-43L59 939H203L305 791H205Z"  />
<glyph unicode="&#xCF;" horiz-adv-x="262" d="M30 0V90L71 94V649L30 654V743H231V654L191 649V94L231 90V0H30ZM178 803V920H278V803H178ZM86 803H-15V920H86V803Z"  />
<glyph unicode="&#xD0;" horiz-adv-x="555" d="M518 298Q518 230 506 175T463 80T380 19T247 -3Q193 -3 138 -3T29 0V91L70 97V336H29V432H70V646L29 653V743Q83 745 138 746T247 747Q326 747 378 726T462 665T505 571T518 448V298ZM397 448Q397 503 390 541T366 602T320 635T248 645H189V432H283V336H189V98H248Q291 98 319 108T365 143T390 205T397 298V448Z"  />
<glyph unicode="&#xD1;" horiz-adv-x="600" d="M570 743V654L530 649V0H389L214 474Q205 498 195 527T175 587H173Q176 553 178 516T180 444V94L221 89V0H29V90L69 94V649L29 654V743H211L383 288Q392 264 403 232T423 172H425Q422 211 420 251T418 322V649L377 654V743H570ZM482 905Q482 848 459 818T385 788Q360 788 337 795T293 826L263 857Q251 870 245 874T226 878Q199 878 199 834V792H124V834Q124 890 149 920T222 951Q248 951 267 944T308 914L338 883Q351 870 359 866T382 861Q406 861 406 905V947H482V905H482Z"  />
<glyph unicode="&#xD2;" horiz-adv-x="542" d="M508 303Q508 150 451 69T271 -12Q148 -12 91 68T34 303V440Q34 595 91 674T271 754Q394 754 451 675T508 440V303ZM388 440Q388 552 361 601T271 651Q209 651 182 602T155 440V303Q155 190 182 141T271 91Q333 91 360 140T388 303V440ZM242 791L124 939H251L347 791H242Z"  />
<glyph unicode="&#xD3;" horiz-adv-x="542" d="M508 303Q508 150 451 69T271 -12Q148 -12 91 68T34 303V440Q34 595 91 674T271 754Q394 754 451 675T508 440V303ZM388 440Q388 552 361 601T271 651Q209 651 182 602T155 440V303Q155 190 182 141T271 91Q333 91 360 140T388 303V440ZM303 791H197L294 939H420L303 791Z"  />
<glyph unicode="&#xD4;" horiz-adv-x="542" d="M508 303Q508 150 451 69T271 -12Q148 -12 91 68T34 303V440Q34 595 91 674T271 754Q394 754 451 675T508 440V303ZM388 440Q388 552 361 601T271 651Q209 651 182 602T155 440V303Q155 190 182 141T271 91Q333 91 360 140T388 303V440ZM345 791L271 886L197 791H97L199 939H343L445 791H345Z"  />
<glyph unicode="&#xD5;" horiz-adv-x="542" d="M508 303Q508 150 451 69T271 -12Q148 -12 91 68T34 303V440Q34 595 91 674T271 754Q394 754 451 675T508 440V303ZM388 440Q388 552 361 601T271 651Q209 651 182 602T155 440V303Q155 190 182 141T271 91Q333 91 360 140T388 303V440ZM450 905Q450 848 427 818T353 788Q328 788 305 795T261 826L231 857Q219 870 213 874T194 878Q167 878 167 834V792H92V834Q92 890 117 920T190 951Q216 951 235 944T276 914L306 883Q319 870 327 866T350 861Q374 861 374 905V947H450V905H450Z"  />
<glyph unicode="&#xD6;" horiz-adv-x="542" d="M508 303Q508 150 451 69T271 -12Q148 -12 91 68T34 303V440Q34 595 91 674T271 754Q394 754 451 675T508 440V303ZM388 440Q388 552 361 601T271 651Q209 651 182 602T155 440V303Q155 190 182 141T271 91Q333 91 360 140T388 303V440ZM318 803V920H418V803H318ZM226 803H125V920H226V803Z"  />
<glyph unicode="&#xD7;" horiz-adv-x="512" d="M376 209L256 327L135 208L72 269L193 389L71 509L134 571L256 451L377 570L440 509L319 389L440 270L376 209Z"  />
<glyph unicode="&#xD8;" horiz-adv-x="542" d="M508 303Q508 150 451 69T271 -12Q224 -12 188 -1T124 34L100 -7H9L71 102Q34 177 34 303V440Q34 595 91 674T271 754Q363 754 419 707L444 750H535L471 639Q508 564 508 440V303ZM155 303Q155 289 155 276T156 250L359 603Q331 651 271 651Q209 651 182 602T155 440V303ZM388 440Q388 454 388 466T386 491L183 138Q211 91 271 91Q333 91 360 140T388 303V440Z"  />
<glyph unicode="&#xD9;" horiz-adv-x="592" d="M563 743V654L523 649V275Q523 215 512 163T475 71T405 10T296 -12Q231 -12 188 10T118 71T81 162T70 275V649L29 654V743H231V654L190 649V289Q190 235 194 198T209 136T242 101T296 90Q329 90 350 101T383 136T399 197T403 289V649L362 654V743H563ZM262 791L144 939H271L367 791H262Z"  />
<glyph unicode="&#xDA;" horiz-adv-x="592" d="M563 743V654L523 649V275Q523 215 512 163T475 71T405 10T296 -12Q231 -12 188 10T118 71T81 162T70 275V649L29 654V743H231V654L190 649V289Q190 235 194 198T209 136T242 101T296 90Q329 90 350 101T383 136T399 197T403 289V649L362 654V743H563ZM335 791H229L326 939H452L335 791Z"  />
<glyph unicode="&#xDB;" horiz-adv-x="592" d="M563 743V654L523 649V275Q523 215 512 163T475 71T405 10T296 -12Q231 -12 188 10T118 71T81 162T70 275V649L29 654V743H231V654L190 649V289Q190 235 194 198T209 136T242 101T296 90Q329 90 350 101T383 136T399 197T403 289V649L362 654V743H563ZM369 791L295 886L221 791H121L223 939H367L469 791H369Z"  />
<glyph unicode="&#xDC;" horiz-adv-x="592" d="M563 743V654L523 649V275Q523 215 512 163T475 71T405 10T296 -12Q231 -12 188 10T118 71T81 162T70 275V649L29 654V743H231V654L190 649V289Q190 235 194 198T209 136T242 101T296 90Q329 90 350 101T383 136T399 197T403 289V649L362 654V743H563ZM342 803V920H442V803H342ZM250 803H149V920H250V803Z"  />
<glyph unicode="&#xDD;" horiz-adv-x="515" d="M495 743V654L454 648L317 290V94L357 89V0H157V89L198 94V289L60 648L20 654V743H214V654L180 650L224 524Q236 490 243 465T257 412H259Q265 439 272 464T292 524L336 650L303 654V743H495ZM304 791H198L295 939H421L304 791Z"  />
<glyph unicode="&#xDE;" horiz-adv-x="522" d="M494 373Q494 303 475 259T421 190T342 155T244 145H190V94L231 89V0H29V89L70 94V649L29 654V743H231V654L190 649V612H243Q296 612 342 603T421 570T474 502T494 389V373ZM374 389Q374 427 367 450T343 487T302 506T242 511H190V246H243Q277 246 302 251T343 271T366 310T374 373V389Z"  />
<glyph unicode="&#xDF;" horiz-adv-x="512" d="M481 208Q481 162 472 123T441 54T380 9T284 -8Q273 -8 259 -7T230 -4V86H264Q324 86 345 115T366 210V239Q366 267 362 288T346 325T314 348T264 356H230V440H264Q320 440 338 470T357 556V570Q357 622 340 652T269 683Q215 683 196 649T177 534V0H22V90L62 96V534Q62 585 70 629T102 707T166 759T269 779Q330 779 369 761T431 714T461 647T470 572V558Q470 506 453 467T397 402Q442 378 461 336T481 237V208H481Z"  />
<glyph unicode="&#xE0;" horiz-adv-x="465" d="M294 0V31Q272 14 238 2T164 -11Q92 -11 62 29T32 141V169Q32 218 46 250T87 300T152 326T240 333H283V380Q283 410 280 428T268 457T241 471T196 475Q184 475 173 475T149 474L139 426H60V543Q67 546 82 550T119 558T165 566T218 569Q270 569 305 559T361 526T390 467T399 380V94L439 89V0H294ZM286 261H241Q214 261 195 257T165 243T149 216T144 171V135Q144 97 158 85T199 73Q225 73 249 82T286 99V261ZM196 616L78 764H205L301 616H196Z"  />
<glyph unicode="&#xE1;" horiz-adv-x="465" d="M294 0V31Q272 14 238 2T164 -11Q92 -11 62 29T32 141V169Q32 218 46 250T87 300T152 326T240 333H283V380Q283 410 280 428T268 457T241 471T196 475Q184 475 173 475T149 474L139 426H60V543Q67 546 82 550T119 558T165 566T218 569Q270 569 305 559T361 526T390 467T399 380V94L439 89V0H294ZM286 261H241Q214 261 195 257T165 243T149 216T144 171V135Q144 97 158 85T199 73Q225 73 249 82T286 99V261ZM277 616H171L268 764H394L277 616Z"  />
<glyph unicode="&#xE2;" horiz-adv-x="465" d="M294 0V31Q272 14 238 2T164 -11Q92 -11 62 29T32 141V169Q32 218 46 250T87 300T152 326T240 333H283V380Q283 410 280 428T268 457T241 471T196 475Q184 475 173 475T149 474L139 426H60V543Q67 546 82 550T119 558T165 566T218 569Q270 569 305 559T361 526T390 467T399 380V94L439 89V0H294ZM286 261H241Q214 261 195 257T165 243T149 216T144 171V135Q144 97 158 85T199 73Q225 73 249 82T286 99V261ZM304 616L230 711L156 616H56L158 764H302L404 616H304Z"  />
<glyph unicode="&#xE3;" horiz-adv-x="465" d="M294 0V31Q272 14 238 2T164 -11Q92 -11 62 29T32 141V169Q32 218 46 250T87 300T152 326T240 333H283V380Q283 410 280 428T268 457T241 471T196 475Q184 475 173 475T149 474L139 426H60V543Q67 546 82 550T119 558T165 566T218 569Q270 569 305 559T361 526T390 467T399 380V94L439 89V0H294ZM286 261H241Q214 261 195 257T165 243T149 216T144 171V135Q144 97 158 85T199 73Q225 73 249 82T286 99V261ZM410 730Q410 673 387 643T313 613Q288 613 265 620T221 651L191 682Q179 695 173 699T154 703Q127 703 127 659V617H52V659Q52 715 77 745T150 776Q176 776 195 769T236 739L266 708Q279 695 287 691T310 686Q334 686 334 730V772H410V730H410Z"  />
<glyph unicode="&#xE4;" horiz-adv-x="465" d="M294 0V31Q272 14 238 2T164 -11Q92 -11 62 29T32 141V169Q32 218 46 250T87 300T152 326T240 333H283V380Q283 410 280 428T268 457T241 471T196 475Q184 475 173 475T149 474L139 426H60V543Q67 546 82 550T119 558T165 566T218 569Q270 569 305 559T361 526T390 467T399 380V94L439 89V0H294ZM286 261H241Q214 261 195 257T165 243T149 216T144 171V135Q144 97 158 85T199 73Q225 73 249 82T286 99V261ZM280 637V754H380V637H280ZM188 637H87V754H188V637Z"  />
<glyph unicode="&#xE5;" horiz-adv-x="465" d="M294 0V31Q272 14 238 2T164 -11Q92 -11 62 29T32 141V169Q32 218 46 250T87 300T152 326T240 333H283V380Q283 410 280 428T268 457T241 471T196 475Q184 475 173 475T149 474L139 426H60V543Q67 546 82 550T119 558T165 566T218 569Q270 569 305 559T361 526T390 467T399 380V94L439 89V0H294ZM286 261H241Q214 261 195 257T165 243T149 216T144 171V135Q144 97 158 85T199 73Q225 73 249 82T286 99V261ZM343 714Q343 655 311 628T229 600Q179 600 146 627T113 714Q113 773 146 801T229 829Q279 829 311 802T343 714ZM275 714Q275 746 262 757T229 769Q209 769 196 758T183 714Q183 683 196 672T229 660Q249 660 262 671T275 714Z"  />
<glyph unicode="&#xE6;" horiz-adv-x="711" d="M397 242V229Q397 187 400 159T415 114T449 89T509 81Q546 81 586 84T663 94V11Q640 3 596 -4T499 -11Q439 -11 398 2T332 46Q290 14 249 2T163 -11Q91 -11 62 29T32 141V169Q32 218 46 250T87 300T152 326T240 333H283V380Q283 410 280 428T268 457T241 471T197 475Q184 475 171 475T149 474L139 426H60V543Q67 546 82 550T118 558T165 566T218 569Q274 569 304 559T354 527Q377 547 407 558T482 569Q538 569 576 551T637 499T671 415T681 305V242H397ZM567 333Q567 366 565 392T553 437T528 466T483 476Q455 476 439 466T413 437T401 392T398 333V321H567V333ZM286 261H241Q214 261 195 257T165 243T149 216T144 171V135Q144 97 158 85T198 73Q225 73 248 82T286 99V261Z"  />
<glyph unicode="&#xE7;" horiz-adv-x="391" d="M362 10Q342 2 306 -4T225 -11Q172 -11 136 4T78 50T45 124T35 225V334Q35 391 45 434T77 508T136 553T225 569Q270 569 307 563T362 548V425H283L274 472Q266 473 257 473T243 473Q219 473 202 468T173 447T156 405T150 334V225Q150 181 155 154T172 111T201 91T243 85Q264 85 293 87T362 93V10ZM182 -204H79L164 -61H288L182 -204Z"  />
<glyph unicode="&#xE8;" horiz-adv-x="461" d="M148 242V229Q148 187 151 159T166 114T200 90T259 83Q292 83 335 86T413 96V11Q390 3 348 -4T251 -11Q193 -11 152 1T84 43T46 120T33 241V308Q33 440 81 504T232 569Q288 569 326 551T387 499T421 415T431 302V242H148ZM317 333Q317 366 315 392T303 437T278 466T233 476Q205 476 189 466T163 437T151 392T148 333V321H317V333ZM206 616L88 764H215L311 616H206Z"  />
<glyph unicode="&#xE9;" horiz-adv-x="461" d="M148 242V229Q148 187 151 159T166 114T200 90T259 83Q292 83 335 86T413 96V11Q390 3 348 -4T251 -11Q193 -11 152 1T84 43T46 120T33 241V308Q33 440 81 504T232 569Q288 569 326 551T387 499T421 415T431 302V242H148ZM317 333Q317 366 315 392T303 437T278 466T233 476Q205 476 189 466T163 437T151 392T148 333V321H317V333ZM266 616H160L257 764H383L266 616Z"  />
<glyph unicode="&#xEA;" horiz-adv-x="461" d="M148 242V229Q148 187 151 159T166 114T200 90T259 83Q292 83 335 86T413 96V11Q390 3 348 -4T251 -11Q193 -11 152 1T84 43T46 120T33 241V308Q33 440 81 504T232 569Q288 569 326 551T387 499T421 415T431 302V242H148ZM317 333Q317 366 315 392T303 437T278 466T233 476Q205 476 189 466T163 437T151 392T148 333V321H317V333ZM308 616L234 711L160 616H60L162 764H306L408 616H308Z"  />
<glyph unicode="&#xEB;" horiz-adv-x="461" d="M148 242V229Q148 187 151 159T166 114T200 90T259 83Q292 83 335 86T413 96V11Q390 3 348 -4T251 -11Q193 -11 152 1T84 43T46 120T33 241V308Q33 440 81 504T232 569Q288 569 326 551T387 499T421 415T431 302V242H148ZM317 333Q317 366 315 392T303 437T278 466T233 476Q205 476 189 466T163 437T151 392T148 333V321H317V333ZM276 637V754H376V637H276ZM184 637H83V754H184V637Z"  />
<glyph unicode="&#xEC;" horiz-adv-x="248" d="M26 0V90L66 94V463L26 468V558H181V94L221 90V0H26ZM81 616L-37 764H90L186 616H81Z"  />
<glyph unicode="&#xED;" horiz-adv-x="248" d="M26 0V90L66 94V463L26 468V558H181V94L221 90V0H26ZM145 616H39L136 764H262L145 616Z"  />
<glyph unicode="&#xEE;" horiz-adv-x="248" d="M26 0V90L66 94V463L26 468V558H181V94L221 90V0H26ZM197 616L123 711L49 616H-51L51 764H195L297 616H197Z"  />
<glyph unicode="&#xEF;" horiz-adv-x="248" d="M26 0V90L66 94V463L26 468V558H181V94L221 90V0H26ZM171 637V754H271V637H171ZM79 637H-22V754H79V637Z"  />
<glyph unicode="&#xF0;" horiz-adv-x="467" d="M433 230Q433 103 382 47T233 -10Q135 -10 85 45T34 226V322Q34 447 85 503T231 559Q269 559 299 543Q275 622 216 662L129 588L86 629L153 691Q115 702 72 702H50V781Q59 782 67 782T84 783Q125 783 159 777T223 759L275 803L320 761L283 727Q363 673 398 571T433 329V230ZM318 327Q318 403 298 433T233 463Q189 463 169 433T148 323V226Q148 146 168 116T233 85Q277 85 297 115T318 226V327Z"  />
<glyph unicode="&#xF1;" horiz-adv-x="518" d="M337 0V378Q337 406 335 424T327 454T311 470T283 475Q243 475 181 441V94L221 89V0H26V89L66 94V464L26 469V558H176V520Q207 540 241 554T315 569Q360 569 387 556T429 518T447 458T452 378V94L492 89V0H337ZM434 730Q434 673 411 643T337 613Q312 613 289 620T245 651L215 682Q203 695 197 699T178 703Q151 703 151 659V617H76V659Q76 715 101 745T174 776Q200 776 219 769T260 739L290 708Q303 695 311 691T334 686Q358 686 358 730V772H434V730H434Z"  />
<glyph unicode="&#xF2;" horiz-adv-x="467" d="M433 226Q433 101 382 45T233 -11Q137 -11 86 45T34 226V332Q34 457 85 513T233 569Q330 569 381 513T433 332V226ZM318 332Q318 411 298 442T233 473Q189 473 169 443T148 332V226Q148 186 153 159T168 116T195 92T233 85Q278 85 298 115T318 226V332ZM204 616L86 764H213L309 616H204Z"  />
<glyph unicode="&#xF3;" horiz-adv-x="467" d="M433 226Q433 101 382 45T233 -11Q137 -11 86 45T34 226V332Q34 457 85 513T233 569Q330 569 381 513T433 332V226ZM318 332Q318 411 298 442T233 473Q189 473 169 443T148 332V226Q148 186 153 159T168 116T195 92T233 85Q278 85 298 115T318 226V332ZM273 616H167L264 764H390L273 616Z"  />
<glyph unicode="&#xF4;" horiz-adv-x="467" d="M433 226Q433 101 382 45T233 -11Q137 -11 86 45T34 226V332Q34 457 85 513T233 569Q330 569 381 513T433 332V226ZM318 332Q318 411 298 442T233 473Q189 473 169 443T148 332V226Q148 186 153 159T168 116T195 92T233 85Q278 85 298 115T318 226V332ZM307 616L233 711L159 616H59L161 764H305L407 616H307Z"  />
<glyph unicode="&#xF5;" horiz-adv-x="467" d="M433 226Q433 101 382 45T233 -11Q137 -11 86 45T34 226V332Q34 457 85 513T233 569Q330 569 381 513T433 332V226ZM318 332Q318 411 298 442T233 473Q189 473 169 443T148 332V226Q148 186 153 159T168 116T195 92T233 85Q278 85 298 115T318 226V332ZM413 730Q413 673 390 643T316 613Q291 613 268 620T224 651L194 682Q182 695 176 699T157 703Q130 703 130 659V617H55V659Q55 715 80 745T153 776Q179 776 198 769T239 739L269 708Q282 695 290 691T313 686Q337 686 337 730V772H413V730H413Z"  />
<glyph unicode="&#xF6;" horiz-adv-x="467" d="M433 226Q433 101 382 45T233 -11Q137 -11 86 45T34 226V332Q34 457 85 513T233 569Q330 569 381 513T433 332V226ZM318 332Q318 411 298 442T233 473Q189 473 169 443T148 332V226Q148 186 153 159T168 116T195 92T233 85Q278 85 298 115T318 226V332ZM280 637V754H380V637H280ZM188 637H87V754H188V637Z"  />
<glyph unicode="&#xF7;" horiz-adv-x="512" d="M199 113V249H314V113H199ZM449 345H63V436H449V345ZM199 528V664H314V528H199Z"  />
<glyph unicode="&#xF8;" horiz-adv-x="467" d="M433 226Q433 101 382 45T233 -11Q172 -11 129 10L106 -30H13L69 67Q34 125 34 226V332Q34 457 85 513T233 569Q299 569 343 544L368 588H461L401 484Q433 428 433 332V226ZM148 205L290 453Q270 473 233 473Q189 473 169 443T148 332V226V205ZM318 332V339L181 100Q199 85 233 85Q278 85 298 115T318 226V332Z"  />
<glyph unicode="&#xF9;" horiz-adv-x="518" d="M340 0V38Q308 18 273 4T197 -11Q153 -11 127 4T88 46T70 107T66 180V464L26 469V558H181V180Q181 152 183 134T191 104T208 88T237 83Q275 83 337 117V464L297 469V558H452V94L492 89V0H340ZM223 616L105 764H232L328 616H223Z"  />
<glyph unicode="&#xFA;" horiz-adv-x="518" d="M340 0V38Q308 18 273 4T197 -11Q153 -11 127 4T88 46T70 107T66 180V464L26 469V558H181V180Q181 152 183 134T191 104T208 88T237 83Q275 83 337 117V464L297 469V558H452V94L492 89V0H340ZM291 616H185L282 764H408L291 616Z"  />
<glyph unicode="&#xFB;" horiz-adv-x="518" d="M340 0V38Q308 18 273 4T197 -11Q153 -11 127 4T88 46T70 107T66 180V464L26 469V558H181V180Q181 152 183 134T191 104T208 88T237 83Q275 83 337 117V464L297 469V558H452V94L492 89V0H340ZM331 616L257 711L183 616H83L185 764H329L431 616H331Z"  />
<glyph unicode="&#xFC;" horiz-adv-x="518" d="M340 0V38Q308 18 273 4T197 -11Q153 -11 127 4T88 46T70 107T66 180V464L26 469V558H181V180Q181 152 183 134T191 104T208 88T237 83Q275 83 337 117V464L297 469V558H452V94L492 89V0H340ZM302 637V754H402V637H302ZM210 637H109V754H210V637Z"  />
<glyph unicode="&#xFD;" horiz-adv-x="513" d="M491 558V469L446 464L326 -16Q314 -65 301 -102T268 -165T217 -202T141 -215Q111 -215 84 -211T38 -202V-120Q63 -122 81 -122T117 -123Q138 -123 150 -118T171 -101T185 -69T198 -16L202 2L68 464L21 469V558H220V468L185 464L231 268Q235 249 239 232T246 198T253 160T260 114H262Q265 140 268 159T274 196T280 229T287 266L329 464L293 468V558H491ZM319 616H213L310 764H436L319 616Z"  />
<glyph unicode="&#xFE;" horiz-adv-x="486" d="M452 226Q452 160 439 115T400 42T338 2T255 -11Q222 -11 182 -3V-110L221 -114V-203H26V-114L66 -110V676L26 681V770H175V527Q232 569 298 569Q379 569 415 515T452 346V226ZM337 346Q337 417 322 444T265 472Q245 472 226 467T180 447V92Q200 88 217 86T249 84Q271 84 287 89T315 110T331 153T337 226V346Z"  />
<glyph unicode="&#xFF;" horiz-adv-x="513" d="M491 558V469L446 464L326 -16Q314 -65 301 -102T268 -165T217 -202T141 -215Q111 -215 84 -211T38 -202V-120Q63 -122 81 -122T117 -123Q138 -123 150 -118T171 -101T185 -69T198 -16L202 2L68 464L21 469V558H220V468L185 464L231 268Q235 249 239 232T246 198T253 160T260 114H262Q265 140 268 159T274 196T280 229T287 266L329 464L293 468V558H491ZM307 637V754H407V637H307ZM215 637H114V754H215V637Z"  />
<glyph unicode="&#x100;" horiz-adv-x="590" d="M20 0V90L60 94L183 648L142 654V743H384L529 94L570 90V0H370V89L404 93L377 222H212L184 93L219 89V0H20ZM317 522Q309 557 306 590T298 652H292Q288 623 285 591T273 522L230 323H359L317 522ZM147 802V882H444V802H147Z"  />
<glyph unicode="&#x101;" horiz-adv-x="465" d="M294 0V31Q272 14 238 2T164 -11Q92 -11 62 29T32 141V169Q32 218 46 250T87 300T152 326T240 333H283V380Q283 410 280 428T268 457T241 471T196 475Q184 475 173 475T149 474L139 426H60V543Q67 546 82 550T119 558T165 566T218 569Q270 569 305 559T361 526T390 467T399 380V94L439 89V0H294ZM286 261H241Q214 261 195 257T165 243T149 216T144 171V135Q144 97 158 85T199 73Q225 73 249 82T286 99V261ZM84 652V732H381V652H84Z"  />
<glyph unicode="&#x102;" horiz-adv-x="590" d="M20 0V90L60 94L183 648L142 654V743H384L529 94L570 90V0H370V89L404 93L377 222H212L184 93L219 89V0H20ZM317 522Q309 557 306 590T298 652H292Q288 623 285 591T273 522L230 323H359L317 522ZM446 942Q440 872 406 831T296 789Q258 789 231 800T185 831T158 879T145 942H224Q228 890 244 872T296 854Q331 854 347 872T368 942H446H446Z"  />
<glyph unicode="&#x103;" horiz-adv-x="465" d="M294 0V31Q272 14 238 2T164 -11Q92 -11 62 29T32 141V169Q32 218 46 250T87 300T152 326T240 333H283V380Q283 410 280 428T268 457T241 471T196 475Q184 475 173 475T149 474L139 426H60V543Q67 546 82 550T119 558T165 566T218 569Q270 569 305 559T361 526T390 467T399 380V94L439 89V0H294ZM286 261H241Q214 261 195 257T165 243T149 216T144 171V135Q144 97 158 85T199 73Q225 73 249 82T286 99V261ZM379 768Q373 698 339 657T229 615Q191 615 164 626T118 657T91 705T78 768H157Q161 716 177 698T229 680Q264 680 280 698T301 768H379H379Z"  />
<glyph unicode="&#x104;" horiz-adv-x="590" d="M570 -200Q553 -205 529 -209T479 -213Q421 -213 391 -191T361 -119Q361 -53 449 0H370V89L404 93L377 222H212L184 93L219 89V0H20V90L60 94L183 648L142 654V743H384L529 94L570 90V0Q534 -21 513 -36T480 -63T465 -86T461 -108Q461 -126 471 -134T509 -143Q526 -143 542 -142T570 -140V-200ZM317 522Q309 557 306 590T298 652H292Q288 623 285 591T273 522L230 323H359L317 522Z"  />
<glyph unicode="&#x105;" horiz-adv-x="465" d="M439 -200Q422 -205 398 -209T348 -213Q290 -213 260 -191T230 -119Q230 -53 318 0H294V31Q272 14 238 2T164 -11Q92 -11 62 29T32 141V169Q32 218 46 250T87 300T152 326T240 333H283V380Q283 410 280 428T268 457T241 471T196 475Q184 475 173 475T149 474L139 426H60V543Q67 546 82 550T119 558T165 566T218 569Q270 569 305 559T361 526T390 467T399 380V94L439 89V0Q403 -21 382 -36T349 -63T334 -86T330 -108Q330 -126 340 -134T378 -143Q395 -143 411 -142T439 -140V-200ZM286 261H241Q214 261 195 257T165 243T149 216T144 171V135Q144 97 158 85T199 73Q225 73 249 82T286 99V261Z"  />
<glyph unicode="&#x106;" horiz-adv-x="461" d="M429 8Q419 5 402 2T365 -5T323 -10T281 -12Q228 -12 183 -1T104 44T53 136T34 293V450Q34 547 52 606T104 699T182 743T281 754Q301 754 323 752T365 747T402 741T429 735V592H347L337 649Q325 649 313 649T289 650Q256 650 231 643T189 615T164 554T155 450V293Q155 229 163 190T189 129T232 100T290 92Q301 92 313 92T337 94L347 153H429V8H429ZM297 790H191L288 938H414L297 790Z"  />
<glyph unicode="&#x107;" horiz-adv-x="391" d="M362 10Q342 2 306 -4T225 -11Q172 -11 136 4T78 50T45 124T35 225V334Q35 391 45 434T77 508T136 553T225 569Q270 569 307 563T362 548V425H283L274 472Q266 473 257 473T243 473Q219 473 202 468T173 447T156 405T150 334V225Q150 181 155 154T172 111T201 91T243 85Q264 85 293 87T362 93V10H362ZM253 616H147L244 764H370L253 616Z"  />
<glyph unicode="&#x108;" horiz-adv-x="461" d="M429 8Q419 5 402 2T365 -5T323 -10T281 -12Q228 -12 183 -1T104 44T53 136T34 293V450Q34 547 52 606T104 699T182 743T281 754Q301 754 323 752T365 747T402 741T429 735V592H347L337 649Q325 649 313 649T289 650Q256 650 231 643T189 615T164 554T155 450V293Q155 229 163 190T189 129T232 100T290 92Q301 92 313 92T337 94L347 153H429V8H429ZM326 791L252 886L178 791H78L180 939H324L426 791H326Z"  />
<glyph unicode="&#x109;" horiz-adv-x="391" d="M362 10Q342 2 306 -4T225 -11Q172 -11 136 4T78 50T45 124T35 225V334Q35 391 45 434T77 508T136 553T225 569Q270 569 307 563T362 548V425H283L274 472Q266 473 257 473T243 473Q219 473 202 468T173 447T156 405T150 334V225Q150 181 155 154T172 111T201 91T243 85Q264 85 293 87T362 93V10H362ZM281 616L207 711L133 616H33L135 764H279L381 616H281Z"  />
<glyph unicode="&#x10A;" horiz-adv-x="461" d="M429 8Q419 5 402 2T365 -5T323 -10T281 -12Q228 -12 183 -1T104 44T53 136T34 293V450Q34 547 52 606T104 699T182 743T281 754Q301 754 323 752T365 747T402 741T429 735V592H347L337 649Q325 649 313 649T289 650Q256 650 231 643T189 615T164 554T155 450V293Q155 229 163 190T189 129T232 100T290 92Q301 92 313 92T337 94L347 153H429V8H429ZM198 791V908H316V791H198Z"  />
<glyph unicode="&#x10B;" horiz-adv-x="391" d="M362 10Q342 2 306 -4T225 -11Q172 -11 136 4T78 50T45 124T35 225V334Q35 391 45 434T77 508T136 553T225 569Q270 569 307 563T362 548V425H283L274 472Q266 473 257 473T243 473Q219 473 202 468T173 447T156 405T150 334V225Q150 181 155 154T172 111T201 91T243 85Q264 85 293 87T362 93V10H362ZM158 652V769H276V652H158Z"  />
<glyph unicode="&#x10C;" horiz-adv-x="461" d="M429 8Q419 5 402 2T365 -5T323 -10T281 -12Q228 -12 183 -1T104 44T53 136T34 293V450Q34 547 52 606T104 699T182 743T281 754Q301 754 323 752T365 747T402 741T429 735V592H347L337 649Q325 649 313 649T289 650Q256 650 231 643T189 615T164 554T155 450V293Q155 229 163 190T189 129T232 100T290 92Q301 92 313 92T337 94L347 153H429V8H429ZM332 791H188L86 939H186L260 844L334 939H434L332 791Z"  />
<glyph unicode="&#x10D;" horiz-adv-x="391" d="M362 10Q342 2 306 -4T225 -11Q172 -11 136 4T78 50T45 124T35 225V334Q35 391 45 434T77 508T136 553T225 569Q270 569 307 563T362 548V425H283L274 472Q266 473 257 473T243 473Q219 473 202 468T173 447T156 405T150 334V225Q150 181 155 154T172 111T201 91T243 85Q264 85 293 87T362 93V10H362ZM289 616H145L43 764H143L217 669L291 764H391L289 616Z"  />
<glyph unicode="&#x10E;" horiz-adv-x="555" d="M518 298Q518 230 506 175T463 80T380 19T247 -3Q193 -3 138 -3T29 0V89L70 96V648L29 654V743Q83 745 137 746T247 747Q326 747 378 726T462 665T505 571T518 448V298ZM398 448Q398 503 391 541T366 602T320 635T248 645H189V98H248Q291 98 320 108T366 143T390 205T398 298V448ZM358 790H214L112 938H212L286 843L360 938H460L358 790Z"  />
<glyph unicode="&#x10F;" horiz-adv-x="602" d="M548 534H460L501 770H612L548 534ZM314 0V26Q291 9 261 -1T193 -11Q108 -11 72 45T35 211V333Q35 400 47 445T85 517T146 557T229 569Q249 569 268 567T306 561V681L256 685V770H422V94L462 89V0H314ZM308 467Q288 470 270 472T238 474Q215 474 199 469T172 449T156 407T150 333V211Q150 142 166 114T226 85Q267 85 308 107V467Z"  />
<glyph unicode="&#x110;" horiz-adv-x="555" d="M518 298Q518 230 506 175T463 80T380 19T247 -3Q193 -3 138 -3T29 0V91L70 97V336H29V432H70V646L29 653V743Q83 745 138 746T247 747Q326 747 378 726T462 665T505 571T518 448V298ZM397 448Q397 503 390 541T366 602T320 635T248 645H189V432H283V336H189V98H248Q291 98 319 108T365 143T390 205T397 298V448Z"  />
<glyph unicode="&#x111;" horiz-adv-x="492" d="M314 0V26Q291 9 261 -1T195 -11Q110 -11 73 46T35 213V331Q35 398 47 444T85 517T146 557T229 569Q249 569 268 567T306 561V631H175V707H306V770H422V707H468V631H422V94L462 89V0H314ZM308 466Q288 470 270 472T238 474Q215 474 199 469T172 449T156 406T150 331V213Q150 178 153 154T166 114T189 93T226 86Q269 86 308 107V466Z"  />
<glyph unicode="&#x112;" horiz-adv-x="470" d="M29 0V89L68 94V649L29 654V743H438V593H356L347 643H189V433H422V335H189V100H347L356 152H438V0H29ZM105 803V883H402V803H105Z"  />
<glyph unicode="&#x113;" horiz-adv-x="461" d="M148 242V229Q148 187 151 159T166 114T200 90T259 83Q292 83 335 86T413 96V11Q390 3 348 -4T251 -11Q193 -11 152 1T84 43T46 120T33 241V308Q33 440 81 504T232 569Q288 569 326 551T387 499T421 415T431 302V242H148ZM317 333Q317 366 315 392T303 437T278 466T233 476Q205 476 189 466T163 437T151 392T148 333V321H317V333ZM86 652V732H383V652H86Z"  />
<glyph unicode="&#x114;" horiz-adv-x="470" d="M29 0V89L68 94V649L29 654V743H438V593H356L347 643H189V433H422V335H189V100H347L356 152H438V0H29ZM405 943Q399 873 365 832T255 790Q217 790 190 801T144 832T117 880T104 943H183Q187 891 203 873T255 855Q290 855 306 873T327 943H405H405Z"  />
<glyph unicode="&#x115;" horiz-adv-x="461" d="M148 242V229Q148 187 151 159T166 114T200 90T259 83Q292 83 335 86T413 96V11Q390 3 348 -4T251 -11Q193 -11 152 1T84 43T46 120T33 241V308Q33 440 81 504T232 569Q288 569 326 551T387 499T421 415T431 302V242H148ZM317 333Q317 366 315 392T303 437T278 466T233 476Q205 476 189 466T163 437T151 392T148 333V321H317V333ZM388 767Q382 697 348 656T238 614Q200 614 173 625T127 656T100 704T87 767H166Q170 715 186 697T238 679Q273 679 289 697T310 767H388H388Z"  />
<glyph unicode="&#x116;" horiz-adv-x="470" d="M29 0V89L68 94V649L29 654V743H438V593H356L347 643H189V433H422V335H189V100H347L356 152H438V0H29ZM194 803V920H312V803H194Z"  />
<glyph unicode="&#x117;" horiz-adv-x="461" d="M148 242V229Q148 187 151 159T166 114T200 90T259 83Q292 83 335 86T413 96V11Q390 3 348 -4T251 -11Q193 -11 152 1T84 43T46 120T33 241V308Q33 440 81 504T232 569Q288 569 326 551T387 499T421 415T431 302V242H148ZM317 333Q317 366 315 392T303 437T278 466T233 476Q205 476 189 466T163 437T151 392T148 333V321H317V333ZM177 653V770H295V653H177Z"  />
<glyph unicode="&#x118;" horiz-adv-x="470" d="M412 0Q384 -21 367 -36T341 -63T329 -84T326 -103Q326 -123 336 -133T374 -143Q391 -143 407 -142T434 -140V-200Q417 -205 394 -209T344 -213Q286 -213 256 -188T226 -119Q226 -86 248 -57T309 0H29V91L68 96V647L29 652V743H438V593H356L347 643H189V433H424V335H189V100H347L356 152H438V0H412Z"  />
<glyph unicode="&#x119;" horiz-adv-x="461" d="M148 242V229Q148 187 151 159T166 114T200 90T259 83Q292 83 335 86T413 96V11Q377 -10 356 -26T323 -55T308 -80T304 -103Q304 -121 314 -132T352 -143Q369 -143 385 -142T413 -140V-200Q396 -205 372 -209T322 -213Q204 -213 204 -114Q204 -88 218 -62T261 -11H251Q193 -11 152 1T84 43T46 120T33 241V308Q33 440 81 504T232 569Q288 569 326 551T387 499T421 415T431 302V242H148ZM317 333Q317 366 315 392T303 437T278 466T233 476Q205 476 189 466T163 437T151 392T148 333V321H317V333Z"  />
<glyph unicode="&#x11A;" horiz-adv-x="470" d="M29 0V89L68 94V649L29 654V743H438V593H356L347 643H189V433H422V335H189V100H347L356 152H438V0H29ZM326 791H182L80 939H180L254 844L328 939H428L326 791Z"  />
<glyph unicode="&#x11B;" horiz-adv-x="461" d="M148 242V229Q148 187 151 159T166 114T200 90T259 83Q292 83 335 86T413 96V11Q390 3 348 -4T251 -11Q193 -11 152 1T84 43T46 120T33 241V308Q33 440 81 504T232 569Q288 569 326 551T387 499T421 415T431 302V242H148ZM317 333Q317 366 315 392T303 437T278 466T233 476Q205 476 189 466T163 437T151 392T148 333V321H317V333ZM310 616H166L64 764H164L238 669L312 764H412L310 616Z"  />
<glyph unicode="&#x11C;" horiz-adv-x="502" d="M466 9Q455 6 436 3T391 -4T338 -9T279 -12Q229 -12 185 -1T107 43T54 135T34 289V454Q34 553 56 612T113 703T192 744T282 754Q313 754 342 752T397 745T439 738T464 732V592H382L372 647Q357 648 339 649T304 650Q269 650 241 645T194 620T165 561T155 454V289Q155 225 163 187T188 127T230 99T289 92Q305 92 320 92T349 94V299L279 306V389H466V9H466ZM339 791L265 886L191 791H91L193 939H337L439 791H339Z"  />
<glyph unicode="&#x11D;" horiz-adv-x="473" d="M440 -37Q440 -123 391 -169T233 -215Q127 -215 79 -170T31 -41Q31 -9 42 23T74 79Q34 109 34 159Q34 215 78 245Q59 267 49 299T39 380Q39 420 47 454T76 514T136 554T237 569H445V496L401 488Q409 474 418 447T428 380Q428 285 379 238T233 191Q207 191 185 195T146 204Q128 189 128 168Q128 150 137 144T173 137H232Q282 137 320 131T385 105T426 52T440 -37ZM327 -39Q327 -11 323 7T309 35T280 48T232 52H163Q153 39 147 18T141 -39Q141 -86 159 -109T234 -133Q289 -133 308 -110T327 -39ZM316 380Q316 404 313 423T300 456T275 476T233 483Q207 483 191 476T166 456T154 423T151 380Q151 356 154 337T166 305T191 284T233 277Q259 277 275 284T300 304T312 337T316 380ZM305 616L231 711L157 616H57L159 764H303L405 616H305Z"  />
<glyph unicode="&#x11E;" horiz-adv-x="502" d="M466 9Q455 6 436 3T391 -4T338 -9T279 -12Q229 -12 185 -1T107 43T54 135T34 289V454Q34 553 56 612T113 703T192 744T282 754Q313 754 342 752T397 745T439 738T464 732V592H382L372 647Q357 648 339 649T304 650Q269 650 241 645T194 620T165 561T155 454V289Q155 225 163 187T188 127T230 99T289 92Q305 92 320 92T349 94V299L279 306V389H466V9H466ZM431 944Q425 874 391 833T281 791Q243 791 216 802T170 833T143 881T130 944H209Q213 892 229 874T281 856Q316 856 332 874T353 944H431H431Z"  />
<glyph unicode="&#x11F;" horiz-adv-x="473" d="M440 -37Q440 -123 391 -169T233 -215Q127 -215 79 -170T31 -41Q31 -9 42 23T74 79Q34 109 34 159Q34 215 78 245Q59 267 49 299T39 380Q39 420 47 454T76 514T136 554T237 569H445V496L401 488Q409 474 418 447T428 380Q428 285 379 238T233 191Q207 191 185 195T146 204Q128 189 128 168Q128 150 137 144T173 137H232Q282 137 320 131T385 105T426 52T440 -37ZM327 -39Q327 -11 323 7T309 35T280 48T232 52H163Q153 39 147 18T141 -39Q141 -86 159 -109T234 -133Q289 -133 308 -110T327 -39ZM316 380Q316 404 313 423T300 456T275 476T233 483Q207 483 191 476T166 456T154 423T151 380Q151 356 154 337T166 305T191 284T233 277Q259 277 275 284T300 304T312 337T316 380ZM385 768Q379 698 345 657T235 615Q197 615 170 626T124 657T97 705T84 768H163Q167 716 183 698T235 680Q270 680 286 698T307 768H385H385Z"  />
<glyph unicode="&#x120;" horiz-adv-x="502" d="M466 9Q455 6 436 3T391 -4T338 -9T279 -12Q229 -12 185 -1T107 43T54 135T34 289V454Q34 553 56 612T113 703T192 744T282 754Q313 754 342 752T397 745T439 738T464 732V592H382L372 647Q357 648 339 649T304 650Q269 650 241 645T194 620T165 561T155 454V289Q155 225 163 187T188 127T230 99T289 92Q305 92 320 92T349 94V299L279 306V389H466V9H466ZM211 803V920H329V803H211Z"  />
<glyph unicode="&#x121;" horiz-adv-x="473" d="M440 -37Q440 -123 391 -169T233 -215Q127 -215 79 -170T31 -41Q31 -9 42 23T74 79Q34 109 34 159Q34 215 78 245Q59 267 49 299T39 380Q39 420 47 454T76 514T136 554T237 569H445V496L401 488Q409 474 418 447T428 380Q428 285 379 238T233 191Q207 191 185 195T146 204Q128 189 128 168Q128 150 137 144T173 137H232Q282 137 320 131T385 105T426 52T440 -37ZM327 -39Q327 -11 323 7T309 35T280 48T232 52H163Q153 39 147 18T141 -39Q141 -86 159 -109T234 -133Q289 -133 308 -110T327 -39ZM316 380Q316 404 313 423T300 456T275 476T233 483Q207 483 191 476T166 456T154 423T151 380Q151 356 154 337T166 305T191 284T233 277Q259 277 275 284T300 304T312 337T316 380ZM178 653V770H296V653H178Z"  />
<glyph unicode="&#x122;" horiz-adv-x="502" d="M466 9Q455 6 436 3T391 -4T338 -9T279 -12Q229 -12 185 -1T107 43T54 135T34 289V454Q34 553 56 612T113 703T192 744T282 754Q313 754 342 752T397 745T439 738T464 732V592H382L372 647Q357 648 339 649T304 650Q269 650 241 645T194 620T165 561T155 454V289Q155 225 163 187T188 127T230 99T289 92Q305 92 320 92T349 94V299L279 306V389H466V9H466ZM267 -204H168L222 -61H347L267 -204Z"  />
<glyph unicode="&#x123;" horiz-adv-x="473" d="M440 -37Q440 -123 391 -169T233 -215Q127 -215 79 -170T31 -41Q31 -9 42 23T74 79Q34 109 34 159Q34 215 78 245Q59 267 49 299T39 380Q39 420 47 454T76 514T136 554T237 569H445V496L401 488Q409 474 418 447T428 380Q428 285 379 238T233 191Q207 191 185 195T146 204Q128 189 128 168Q128 150 137 144T173 137H232Q282 137 320 131T385 105T426 52T440 -37ZM327 -39Q327 -11 323 7T309 35T280 48T232 52H163Q153 39 147 18T141 -39Q141 -86 159 -109T234 -133Q289 -133 308 -110T327 -39ZM316 380Q316 404 313 423T300 456T275 476T233 483Q207 483 191 476T166 456T154 423T151 380Q151 356 154 337T166 305T191 284T233 277Q259 277 275 284T300 304T312 337T316 380ZM291 617H167L246 761H345L291 617Z"  />
<glyph unicode="&#x124;" horiz-adv-x="610" d="M581 743V654L540 649V94L581 90V0H379V89L420 94V338H190V94L231 89V0H29V90L70 94V649L29 654V743H231V654L190 649V441H420V649L379 654V743H581ZM379 791L305 886L231 791H131L233 939H377L479 791H379Z"  />
<glyph unicode="&#x125;" horiz-adv-x="518" d="M337 0V374Q337 403 334 422T325 452T307 468T277 473Q251 473 226 465T181 443V94L221 89V0H26V89L66 94V676L26 681V770H181V532Q204 546 237 557T311 569Q354 569 381 555T425 515T446 454T452 378V94L492 89V0H337ZM333 798L259 893L185 798H85L187 946H331L433 798H333Z"  />
<glyph unicode="&#x126;" horiz-adv-x="610" d="M581 743V654L540 649V594H581V518H540V94L581 90V0H379V89L420 94V338H190V94L231 89V0H29V90L70 94V518H26V594H70V649L29 654V743H231V654L190 649V594H420V649L379 654V743H581ZM420 441V518H190V441H420Z"  />
<glyph unicode="&#x127;" horiz-adv-x="518" d="M23 708H66V770H181V708H314V630H181V532Q204 546 237 557T311 569Q354 569 381 555T425 515T446 454T452 378V94L492 89V0H337V374Q337 432 325 452T278 473Q252 473 227 465T181 443V94L221 89V0H26V89L66 94V630H23V708Z"  />
<glyph unicode="&#x128;" horiz-adv-x="262" d="M30 0V90L71 94V649L30 654V743H231V654L191 649V94L231 90V0H30ZM310 903Q310 846 287 816T213 786Q188 786 165 793T121 824L91 855Q79 868 73 872T54 876Q27 876 27 832V790H-48V832Q-48 888 -23 918T50 949Q76 949 95 942T136 912L166 881Q179 868 187 864T210 859Q234 859 234 903V945H310V903H310Z"  />
<glyph unicode="&#x129;" horiz-adv-x="248" d="M26 0V90L66 94V463L26 468V558H181V94L221 90V0H26ZM301 730Q301 673 278 643T204 613Q179 613 156 620T112 651L82 682Q70 695 64 699T45 703Q18 703 18 659V617H-57V659Q-57 715 -32 745T41 776Q67 776 86 769T127 739L157 708Q170 695 178 691T201 686Q225 686 225 730V772H301V730H301Z"  />
<glyph unicode="&#x12A;" horiz-adv-x="262" d="M30 0V90L71 94V649L30 654V743H231V654L191 649V94L231 90V0H30ZM-18 803V883H279V803H-18Z"  />
<glyph unicode="&#x12B;" horiz-adv-x="248" d="M26 0V90L66 94V463L26 468V558H181V94L221 90V0H26ZM-25 652V732H272V652H-25Z"  />
<glyph unicode="&#x12E;" horiz-adv-x="262" d="M231 0Q195 -21 174 -36T142 -63T128 -86T124 -108Q124 -126 134 -134T172 -143Q189 -143 205 -142T233 -140V-200Q216 -205 192 -209T142 -213Q84 -213 54 -191T24 -119Q24 -86 44 -57T110 0H30V90L71 94V649L30 654V743H231V654L191 649V94L231 90V0H231Z"  />
<glyph unicode="&#x12F;" horiz-adv-x="248" d="M187 0Q161 -20 146 -35T122 -62T111 -83T108 -102Q108 -122 118 -132T156 -143Q173 -143 189 -142T217 -140V-200Q199 -205 176 -209T126 -213Q68 -213 38 -187T8 -117Q8 -85 24 -58T79 0H26V90L66 94V463L26 469V558H182V94L221 90V0H187ZM64 652V770H184V652H64Z"  />
<glyph unicode="&#x130;" horiz-adv-x="262" d="M30 0V90L71 94V649L30 654V743H231V654L191 649V94L231 90V0H30ZM73 803V920H191V803H73Z"  />
<glyph unicode="&#x131;" horiz-adv-x="248" d="M26 0V90L66 94V463L26 468V558H181V94L221 90V0H26Z"  />
<glyph unicode="&#x132;" horiz-adv-x="518" d="M30 0V90L71 94V649L30 654V743H231V654L191 649V94L231 90V0H30ZM447 649V-65Q447 -145 414 -178T310 -211Q291 -211 269 -208T232 -200V-119H286Q313 -119 320 -108T327 -67V649L287 654V743H488V654L447 649Z"  />
<glyph unicode="&#x133;" horiz-adv-x="463" d="M26 0V90L66 94V463L26 469V558H182V94L221 90V0H26ZM64 652V770H184V652H64ZM407 -69Q407 -108 401 -136T379 -181T338 -207T276 -215Q256 -215 236 -213T205 -208V-127H250Q276 -127 284 -116T292 -69V464L251 469V558H407V-69ZM289 652V770H408V652H289Z"  />
<glyph unicode="&#x134;" horiz-adv-x="256" d="M185 649V-65Q185 -145 152 -178T48 -211Q29 -211 7 -208T-30 -200V-119H24Q51 -119 58 -108T65 -67V649L25 654V743H226V654L185 649ZM201 791L127 886L53 791H-47L55 939H199L301 791H201Z"  />
<glyph unicode="&#x135;" horiz-adv-x="237" d="M181 -68Q181 -143 153 -178T55 -214Q31 -214 11 -211T-21 -205V-125Q-10 -126 0 -126T25 -126Q51 -126 58 -115T66 -68V462L26 467V558H181V-68H181ZM198 616L124 711L50 616H-50L52 764H196L298 616H198Z"  />
<glyph unicode="&#x136;" horiz-adv-x="545" d="M29 0V90L68 94V649L29 654V743H230V654L189 649V399L387 743H521V654L474 649L311 377L475 94L521 90V0H379L189 349V94L230 89V0H29ZM265 -204H166L220 -61H345L265 -204Z"  />
<glyph unicode="&#x137;" horiz-adv-x="477" d="M315 0L181 263V0H26V89L66 94V676L26 681V770H181V310L315 558H450V469L393 464L292 290L399 95L451 89V0H315ZM233 -204H134L188 -61H313L233 -204Z"  />
<glyph unicode="&#x139;" horiz-adv-x="445" d="M29 0V90L68 94V649L29 654V743H229V654L189 649V101H329L338 156H420V0H29ZM277 791H171L268 939H394L277 791Z"  />
<glyph unicode="&#x13A;" horiz-adv-x="247" d="M26 0V89L66 94V676L26 681V770H181V94L221 89V0H26ZM158 797H52L149 945H275L158 797Z"  />
<glyph unicode="&#x13B;" horiz-adv-x="445" d="M29 0V90L68 94V649L29 654V743H229V654L189 649V101H329L338 156H420V0H29ZM225 -204H126L180 -61H305L225 -204Z"  />
<glyph unicode="&#x13C;" horiz-adv-x="247" d="M26 0V89L66 94V676L26 681V770H181V94L221 89V0H26ZM111 -204H12L66 -61H191L111 -204Z"  />
<glyph unicode="&#x13D;" horiz-adv-x="486" d="M29 0V90L68 95V648L29 653V743H230V653L190 648V102H329L339 158H421V0H29ZM378 528H284L338 764H455L378 528Z"  />
<glyph unicode="&#x13E;" horiz-adv-x="363" d="M26 0V89L66 94V676L26 681V770H181V94L221 89V0H26ZM310 534H222L262 770H373L310 534Z"  />
<glyph unicode="&#x13F;" horiz-adv-x="445" d="M29 0V90L68 94V649L29 654V743H229V654L189 649V101H329L338 156H420V0H29ZM265 307V424H383V307H265Z"  />
<glyph unicode="&#x140;" horiz-adv-x="372" d="M26 0V89L66 94V676L26 681V770H181V94L221 89V0H26ZM233 287V404H351V287H233Z"  />
<glyph unicode="&#x141;" horiz-adv-x="445" d="M28 0V89L68 94V267L11 210V319L68 377V649L28 654V743H229V654L188 649V486L276 580V470L188 376V101H328L338 157H419V0H28Z"  />
<glyph unicode="&#x142;" horiz-adv-x="247" d="M14 333L66 390V676L26 681V770H181V517L231 572V470L181 415V94L221 89V0H26V89L66 94V288L14 231V333Z"  />
<glyph unicode="&#x143;" horiz-adv-x="600" d="M570 743V654L530 649V0H389L214 474Q205 498 195 527T175 587H173Q176 553 178 516T180 444V94L221 89V0H29V90L69 94V649L29 654V743H211L383 288Q392 264 403 232T423 172H425Q422 211 420 251T418 322V649L377 654V743H570ZM346 791H240L337 939H463L346 791Z"  />
<glyph unicode="&#x144;" horiz-adv-x="518" d="M337 0V378Q337 406 335 424T327 454T311 470T283 475Q243 475 181 441V94L221 89V0H26V89L66 94V464L26 469V558H176V520Q207 540 241 554T315 569Q360 569 387 556T429 518T447 458T452 378V94L492 89V0H337ZM295 616H189L286 764H412L295 616Z"  />
<glyph unicode="&#x145;" horiz-adv-x="600" d="M570 743V654L530 649V0H389L214 474Q205 498 195 527T175 587H173Q176 553 178 516T180 444V94L221 89V0H29V90L69 94V649L29 654V743H211L383 288Q392 264 403 232T423 172H425Q422 211 420 251T418 322V649L377 654V743H570ZM290 -204H191L245 -61H370L290 -204Z"  />
<glyph unicode="&#x146;" horiz-adv-x="518" d="M337 0V378Q337 406 335 424T327 454T311 470T283 475Q243 475 181 441V94L221 89V0H26V89L66 94V464L26 469V558H176V520Q207 540 241 554T315 569Q360 569 387 556T429 518T447 458T452 378V94L492 89V0H337ZM246 -204H147L201 -61H326L246 -204Z"  />
<glyph unicode="&#x147;" horiz-adv-x="600" d="M570 743V654L530 649V0H389L214 474Q205 498 195 527T175 587H173Q176 553 178 516T180 444V94L221 89V0H29V90L69 94V649L29 654V743H211L383 288Q392 264 403 232T423 172H425Q422 211 420 251T418 322V649L377 654V743H570ZM375 791H231L129 939H229L303 844L377 939H477L375 791Z"  />
<glyph unicode="&#x148;" horiz-adv-x="518" d="M337 0V378Q337 406 335 424T327 454T311 470T283 475Q243 475 181 441V94L221 89V0H26V89L66 94V464L26 469V558H176V520Q207 540 241 554T315 569Q360 569 387 556T429 518T447 458T452 378V94L492 89V0H337ZM333 616H189L87 764H187L261 669L335 764H435L333 616Z"  />
<glyph unicode="&#x149;" horiz-adv-x="518" d="M337 0V378Q337 406 335 424T327 454T311 470T283 475Q243 475 181 441V94L221 89V0H26V89L66 94V464L26 469V558H176V520Q207 540 241 554T315 569Q360 569 387 556T429 518T447 458T452 378V94L492 89V0H337ZM-20 534H-106L-66 770H46L-20 534Z"  />
<glyph unicode="&#x14C;" horiz-adv-x="542" d="M508 303Q508 150 451 69T271 -12Q148 -12 91 68T34 303V440Q34 595 91 674T271 754Q394 754 451 675T508 440V303ZM388 440Q388 552 361 601T271 651Q209 651 182 602T155 440V303Q155 190 182 141T271 91Q333 91 360 140T388 303V440ZM124 803V883H421V803H124Z"  />
<glyph unicode="&#x14D;" horiz-adv-x="467" d="M433 226Q433 101 382 45T233 -11Q137 -11 86 45T34 226V332Q34 457 85 513T233 569Q330 569 381 513T433 332V226ZM318 332Q318 411 298 442T233 473Q189 473 169 443T148 332V226Q148 186 153 159T168 116T195 92T233 85Q278 85 298 115T318 226V332ZM87 652V732H384V652H87Z"  />
<glyph unicode="&#x14E;" horiz-adv-x="542" d="M508 303Q508 150 451 69T271 -12Q148 -12 91 68T34 303V440Q34 595 91 674T271 754Q394 754 451 675T508 440V303ZM388 440Q388 552 361 601T271 651Q209 651 182 602T155 440V303Q155 190 182 141T271 91Q333 91 360 140T388 303V440ZM423 944Q417 874 383 833T273 791Q235 791 208 802T162 833T135 881T122 944H201Q205 892 221 874T273 856Q308 856 324 874T345 944H423H423Z"  />
<glyph unicode="&#x14F;" horiz-adv-x="467" d="M433 226Q433 101 382 45T233 -11Q137 -11 86 45T34 226V332Q34 457 85 513T233 569Q330 569 381 513T433 332V226ZM318 332Q318 411 298 442T233 473Q189 473 169 443T148 332V226Q148 186 153 159T168 116T195 92T233 85Q278 85 298 115T318 226V332ZM385 767Q379 697 345 656T235 614Q197 614 170 625T124 656T97 704T84 767H163Q167 715 183 697T235 679Q270 679 286 697T307 767H385H385Z"  />
<glyph unicode="&#x150;" horiz-adv-x="542" d="M508 303Q508 150 451 69T271 -12Q148 -12 91 68T34 303V440Q34 595 91 674T271 754Q394 754 451 675T508 440V303ZM388 440Q388 552 361 601T271 651Q209 651 182 602T155 440V303Q155 190 182 141T271 91Q333 91 360 140T388 303V440ZM419 791H316L413 940H537L419 791ZM343 940L225 791H123L220 940H343Z"  />
<glyph unicode="&#x151;" horiz-adv-x="467" d="M433 226Q433 101 382 45T233 -11Q137 -11 86 45T34 226V332Q34 457 85 513T233 569Q330 569 381 513T433 332V226ZM318 332Q318 411 298 442T233 473Q189 473 169 443T148 332V226Q148 186 153 159T168 116T195 92T233 85Q278 85 298 115T318 226V332ZM372 614H269L366 763H490L372 614ZM296 763L178 614H76L173 763H296Z"  />
<glyph unicode="&#x152;" horiz-adv-x="765" d="M394 0Q365 -5 337 -8T278 -12Q151 -12 94 68T37 302V440Q37 594 94 674T278 754Q307 754 336 751T394 743H724V593H642L633 643H474V433H708V335H474V100H633L642 152H724V0H394ZM355 644Q334 648 318 649T281 651Q214 651 186 602T158 440V302Q158 190 186 141T281 91Q301 91 316 92T355 97V644Z"  />
<glyph unicode="&#x153;" horiz-adv-x="747" d="M434 242V229Q434 187 437 159T452 114T486 89T546 81Q582 81 622 84T700 94V11Q677 3 633 -4T536 -11Q476 -11 438 2T376 43Q326 -11 234 -11Q137 -11 86 45T34 226V332Q34 457 85 513T234 569Q329 569 377 513Q422 569 518 569Q574 569 612 551T673 499T707 415T717 305V242H434ZM604 333Q604 366 601 392T589 437T564 466T519 477Q492 477 476 468T450 442T438 402T434 352V321H604V333ZM319 332Q319 411 299 442T234 473Q190 473 170 443T149 332V226Q149 186 154 159T169 116T195 92T234 85Q278 85 298 115T319 226V332Z"  />
<glyph unicode="&#x154;" horiz-adv-x="553" d="M29 0V90L70 94V649L29 654V743Q128 746 232 746Q287 746 334 737T417 704T472 636T492 523V514Q492 431 467 384T392 310L485 94L533 90V0H397L277 284Q268 283 258 283T239 283H188V94L229 89V0H29ZM373 522Q373 560 366 584T342 622T299 641T236 646H188V380H240Q277 380 302 387T344 409T366 450T373 513V522ZM312 791H206L303 939H429L312 791Z"  />
<glyph unicode="&#x155;" horiz-adv-x="347" d="M327 468Q292 468 251 461T181 440V94L221 89V0H26V89L66 94V464L26 469V558H174V518Q210 551 251 560T327 569V468H327ZM228 616H122L219 764H345L228 616Z"  />
<glyph unicode="&#x156;" horiz-adv-x="553" d="M29 0V90L70 94V649L29 654V743Q128 746 232 746Q287 746 334 737T417 704T472 636T492 523V514Q492 431 467 384T392 310L485 94L533 90V0H397L277 284Q268 283 258 283T239 283H188V94L229 89V0H29ZM373 522Q373 560 366 584T342 622T299 641T236 646H188V380H240Q277 380 302 387T344 409T366 450T373 513V522ZM272 -204H173L227 -61H352L272 -204Z"  />
<glyph unicode="&#x157;" horiz-adv-x="347" d="M327 468Q292 468 251 461T181 440V94L221 89V0H26V89L66 94V464L26 469V558H174V518Q210 551 251 560T327 569V468H327ZM171 -204H72L126 -61H251L171 -204Z"  />
<glyph unicode="&#x158;" horiz-adv-x="553" d="M29 0V90L70 94V649L29 654V743Q128 746 232 746Q287 746 334 737T417 704T472 636T492 523V514Q492 431 467 384T392 310L485 94L533 90V0H397L277 284Q268 283 258 283T239 283H188V94L229 89V0H29ZM373 522Q373 560 366 584T342 622T299 641T236 646H188V380H240Q277 380 302 387T344 409T366 450T373 513V522ZM346 791H202L100 939H200L274 844L348 939H448L346 791Z"  />
<glyph unicode="&#x159;" horiz-adv-x="347" d="M327 468Q292 468 251 461T181 440V94L221 89V0H26V89L66 94V464L26 469V558H174V518Q210 551 251 560T327 569V468H327ZM252 616H108L6 764H106L180 669L254 764H354L252 616Z"  />
<glyph unicode="&#x15A;" horiz-adv-x="465" d="M434 193Q434 93 380 41T221 -12Q192 -12 164 -10T113 -4T71 4T42 11V152H123L132 91Q148 89 158 89T176 88T191 87T208 87Q263 87 287 110T312 191Q312 211 309 227T297 256T274 283T239 310L152 370Q92 411 62 456T31 572Q31 754 244 754Q272 754 299 752T349 746T389 739T417 732V596H336L326 653Q311 654 301 654T284 655T270 656T255 656Q201 656 177 637T153 571Q153 552 156 538T168 510T190 485T224 458L308 401Q340 379 364 358T403 311T426 258T434 193ZM265 791H159L256 939H382L265 791Z"  />
<glyph unicode="&#x15B;" horiz-adv-x="398" d="M368 147Q368 112 358 83T325 33T268 1T183 -11Q163 -11 142 -9T100 -5T62 1T34 8V137H114L123 83Q147 81 158 81T183 81Q224 81 238 96T253 147Q253 160 250 170T238 191T214 213T175 240L145 259Q113 279 91 298T55 338T35 381T29 431Q29 569 208 569Q225 569 246 568T287 564T326 558T356 550V431H276L266 476Q254 477 240 477T212 478Q177 478 161 468T144 431Q144 417 147 407T158 388T179 368T212 345L246 323Q281 300 304 281T342 242T362 200T368 147ZM237 616H131L228 764H354L237 616Z"  />
<glyph unicode="&#x15C;" horiz-adv-x="465" d="M434 193Q434 93 380 41T221 -12Q192 -12 164 -10T113 -4T71 4T42 11V152H123L132 91Q148 89 158 89T176 88T191 87T208 87Q263 87 287 110T312 191Q312 211 309 227T297 256T274 283T239 310L152 370Q92 411 62 456T31 572Q31 754 244 754Q272 754 299 752T349 746T389 739T417 732V596H336L326 653Q311 654 301 654T284 655T270 656T255 656Q201 656 177 637T153 571Q153 552 156 538T168 510T190 485T224 458L308 401Q340 379 364 358T403 311T426 258T434 193ZM301 791L227 886L153 791H53L155 939H299L401 791H301Z"  />
<glyph unicode="&#x15D;" horiz-adv-x="398" d="M368 147Q368 112 358 83T325 33T268 1T183 -11Q163 -11 142 -9T100 -5T62 1T34 8V137H114L123 83Q147 81 158 81T183 81Q224 81 238 96T253 147Q253 160 250 170T238 191T214 213T175 240L145 259Q113 279 91 298T55 338T35 381T29 431Q29 569 208 569Q225 569 246 568T287 564T326 558T356 550V431H276L266 476Q254 477 240 477T212 478Q177 478 161 468T144 431Q144 417 147 407T158 388T179 368T212 345L246 323Q281 300 304 281T342 242T362 200T368 147ZM273 616L199 711L125 616H25L127 764H271L373 616H273Z"  />
<glyph unicode="&#x15E;" horiz-adv-x="465" d="M434 193Q434 93 380 41T221 -12Q192 -12 164 -10T113 -4T71 4T42 11V152H123L132 91Q148 89 158 89T176 88T191 87T208 87Q263 87 287 110T312 191Q312 211 309 227T297 256T274 283T239 310L152 370Q92 411 62 456T31 572Q31 754 244 754Q272 754 299 752T349 746T389 739T417 732V596H336L326 653Q311 654 301 654T284 655T270 656T255 656Q201 656 177 637T153 571Q153 552 156 538T168 510T190 485T224 458L308 401Q340 379 364 358T403 311T426 258T434 193ZM191 -205H88L173 -62H297L191 -205Z"  />
<glyph unicode="&#x15F;" horiz-adv-x="398" d="M368 147Q368 112 358 83T325 33T268 1T183 -11Q163 -11 142 -9T100 -5T62 1T34 8V137H114L123 83Q147 81 158 81T183 81Q224 81 238 96T253 147Q253 160 250 170T238 191T214 213T175 240L145 259Q113 279 91 298T55 338T35 381T29 431Q29 569 208 569Q225 569 246 568T287 564T326 558T356 550V431H276L266 476Q254 477 240 477T212 478Q177 478 161 468T144 431Q144 417 147 407T158 388T179 368T212 345L246 323Q281 300 304 281T342 242T362 200T368 147ZM163 -204H60L145 -61H269L163 -204Z"  />
<glyph unicode="&#x160;" horiz-adv-x="465" d="M434 193Q434 93 380 41T221 -12Q192 -12 164 -10T113 -4T71 4T42 11V152H123L132 91Q148 89 158 89T176 88T191 87T208 87Q263 87 287 110T312 191Q312 211 309 227T297 256T274 283T239 310L152 370Q92 411 62 456T31 572Q31 754 244 754Q272 754 299 752T349 746T389 739T417 732V596H336L326 653Q311 654 301 654T284 655T270 656T255 656Q201 656 177 637T153 571Q153 552 156 538T168 510T190 485T224 458L308 401Q340 379 364 358T403 311T426 258T434 193ZM303 791H159L57 939H157L231 844L305 939H405L303 791Z"  />
<glyph unicode="&#x161;" horiz-adv-x="398" d="M368 147Q368 112 358 83T325 33T268 1T183 -11Q163 -11 142 -9T100 -5T62 1T34 8V137H114L123 83Q147 81 158 81T183 81Q224 81 238 96T253 147Q253 160 250 170T238 191T214 213T175 240L145 259Q113 279 91 298T55 338T35 381T29 431Q29 569 208 569Q225 569 246 568T287 564T326 558T356 550V431H276L266 476Q254 477 240 477T212 478Q177 478 161 468T144 431Q144 417 147 407T158 388T179 368T212 345L246 323Q281 300 304 281T342 242T362 200T368 147ZM271 616H127L25 764H125L199 669L273 764H373L271 616Z"  />
<glyph unicode="&#x162;" horiz-adv-x="506" d="M401 593L392 644H313V93L354 89V0H152V89L193 93V644H114L105 593H24V743H482V593H401ZM239 -204H140L194 -61H319L239 -204Z"  />
<glyph unicode="&#x163;" horiz-adv-x="346" d="M319 3Q308 -1 282 -6T224 -11Q157 -11 130 21T103 124V468L25 477V558H103V690H218V558H318V468H218V129Q218 112 219 102T223 87T235 79T257 77Q272 77 292 78T319 80V3H319ZM196 -204H97L151 -61H276L196 -204Z"  />
<glyph unicode="&#x164;" horiz-adv-x="506" d="M401 593L392 644H313V93L354 89V0H152V89L193 93V644H114L105 593H24V743H482V593H401ZM326 791H182L80 939H180L254 844L328 939H428L326 791Z"  />
<glyph unicode="&#x165;" horiz-adv-x="346" d="M334 595H244L279 764H388L334 595ZM319 3Q308 -1 282 -6T224 -11Q157 -11 130 21T103 124V468L25 477V558H103V690H218V558H318V468H218V129Q218 112 219 102T223 87T235 79T257 77Q272 77 292 78T319 80V3Z"  />
<glyph unicode="&#x166;" horiz-adv-x="506" d="M313 378V95L353 90V0H152V90L192 95V378H47V471H192V644H114L104 593H24V743H482V593H401L392 644H313V471H458V378H313Z"  />
<glyph unicode="&#x167;" horiz-adv-x="346" d="M218 318V130Q218 113 219 103T223 86T234 78T256 76Q272 76 291 77T318 80V3Q308 0 282 -5T224 -11Q157 -11 130 21T103 124V318H25V404H103V472H25V558H103V690H218V558H318V472H218V404H318V318H218Z"  />
<glyph unicode="&#x168;" horiz-adv-x="592" d="M563 743V654L523 649V275Q523 215 512 163T475 71T405 10T296 -12Q231 -12 188 10T118 71T81 162T70 275V649L29 654V743H231V654L190 649V289Q190 235 194 198T209 136T242 101T296 90Q329 90 350 101T383 136T399 197T403 289V649L362 654V743H563ZM478 904Q478 847 455 817T381 787Q356 787 333 794T289 825L259 856Q247 869 241 873T222 877Q195 877 195 833V791H120V833Q120 889 145 919T218 950Q244 950 263 943T304 913L334 882Q347 869 355 865T378 860Q402 860 402 904V946H478V904H478Z"  />
<glyph unicode="&#x169;" horiz-adv-x="518" d="M340 0V38Q308 18 273 4T197 -11Q153 -11 127 4T88 46T70 107T66 180V464L26 469V558H181V180Q181 152 183 134T191 104T208 88T237 83Q275 83 337 117V464L297 469V558H452V94L492 89V0H340ZM439 730Q439 673 416 643T342 613Q317 613 294 620T250 651L220 682Q208 695 202 699T183 703Q156 703 156 659V617H81V659Q81 715 106 745T179 776Q205 776 224 769T265 739L295 708Q308 695 316 691T339 686Q363 686 363 730V772H439V730H439Z"  />
<glyph unicode="&#x16A;" horiz-adv-x="592" d="M563 743V654L523 649V275Q523 215 512 163T475 71T405 10T296 -12Q231 -12 188 10T118 71T81 162T70 275V649L29 654V743H231V654L190 649V289Q190 235 194 198T209 136T242 101T296 90Q329 90 350 101T383 136T399 197T403 289V649L362 654V743H563ZM148 803V883H445V803H148Z"  />
<glyph unicode="&#x16B;" horiz-adv-x="518" d="M340 0V38Q308 18 273 4T197 -11Q153 -11 127 4T88 46T70 107T66 180V464L26 469V558H181V180Q181 152 183 134T191 104T208 88T237 83Q275 83 337 117V464L297 469V558H452V94L492 89V0H340ZM107 652V732H404V652H107Z"  />
<glyph unicode="&#x16C;" horiz-adv-x="592" d="M563 743V654L523 649V275Q523 215 512 163T475 71T405 10T296 -12Q231 -12 188 10T118 71T81 162T70 275V649L29 654V743H231V654L190 649V289Q190 235 194 198T209 136T242 101T296 90Q329 90 350 101T383 136T399 197T403 289V649L362 654V743H563ZM446 942Q440 872 406 831T296 789Q258 789 231 800T185 831T158 879T145 942H224Q228 890 244 872T296 854Q331 854 347 872T368 942H446H446Z"  />
<glyph unicode="&#x16D;" horiz-adv-x="518" d="M340 0V38Q308 18 273 4T197 -11Q153 -11 127 4T88 46T70 107T66 180V464L26 469V558H181V180Q181 152 183 134T191 104T208 88T237 83Q275 83 337 117V464L297 469V558H452V94L492 89V0H340ZM403 767Q397 697 363 656T253 614Q215 614 188 625T142 656T115 704T102 767H181Q185 715 201 697T253 679Q288 679 304 697T325 767H403H403Z"  />
<glyph unicode="&#x16E;" horiz-adv-x="592" d="M563 743V654L523 649V275Q523 215 512 163T475 71T405 10T296 -12Q231 -12 188 10T118 71T81 162T70 275V649L29 654V743H231V654L190 649V289Q190 235 194 198T209 136T242 101T296 90Q329 90 350 101T383 136T399 197T403 289V649L362 654V743H563ZM412 900Q412 841 380 814T298 786Q248 786 215 813T182 900Q182 959 215 987T298 1015Q348 1015 380 988T412 900ZM344 900Q344 932 331 943T298 955Q278 955 265 944T252 900Q252 869 265 858T298 846Q318 846 331 857T344 900Z"  />
<glyph unicode="&#x16F;" horiz-adv-x="518" d="M340 0V38Q308 18 273 4T197 -11Q153 -11 127 4T88 46T70 107T66 180V464L26 469V558H181V180Q181 152 183 134T191 104T208 88T237 83Q275 83 337 117V464L297 469V558H452V94L492 89V0H340ZM370 721Q370 662 338 635T256 607Q206 607 173 634T140 721Q140 780 173 808T256 836Q306 836 338 809T370 721ZM302 721Q302 753 289 764T256 776Q236 776 223 765T210 721Q210 690 223 679T256 667Q276 667 289 678T302 721Z"  />
<glyph unicode="&#x170;" horiz-adv-x="592" d="M563 743V654L523 649V275Q523 215 512 163T475 71T405 10T296 -12Q231 -12 188 10T118 71T81 162T70 275V649L29 654V743H231V654L190 649V289Q190 235 194 198T209 136T242 101T296 90Q329 90 350 101T383 136T399 197T403 289V649L362 654V743H563ZM450 791H347L444 940H568L450 791ZM374 940L256 791H154L251 940H374Z"  />
<glyph unicode="&#x171;" horiz-adv-x="518" d="M340 0V38Q308 18 273 4T197 -11Q153 -11 127 4T88 46T70 107T66 180V464L26 469V558H181V180Q181 152 183 134T191 104T208 88T237 83Q275 83 337 117V464L297 469V558H452V94L492 89V0H340ZM399 616H296L393 765H517L399 616ZM323 765L205 616H103L200 765H323Z"  />
<glyph unicode="&#x172;" horiz-adv-x="592" d="M563 743V654L523 649V275Q523 227 516 184T494 106T452 44T389 3Q357 -16 338 -30T309 -57T295 -81T291 -103Q291 -121 301 -132T339 -143Q356 -143 372 -142T400 -140V-200Q383 -205 359 -209T309 -213Q191 -213 191 -114Q191 -86 205 -60T252 -9Q200 -2 165 23T109 85T79 171T70 275V649L29 654V743H231V654L190 649V289Q190 235 194 198T209 136T242 101T296 90Q329 90 350 101T383 136T399 197T403 289V649L362 654V743H563Z"  />
<glyph unicode="&#x173;" horiz-adv-x="518" d="M492 -200Q475 -205 451 -209T401 -213Q343 -213 313 -191T283 -119Q283 -53 371 0H340V38Q308 18 273 4T197 -11Q153 -11 127 4T88 46T70 107T66 180V464L26 469V558H181V180Q181 152 183 134T191 104T208 88T237 83Q275 83 337 117V464L297 469V558H452V94L492 89V0Q456 -21 435 -36T402 -63T387 -86T383 -108Q383 -126 393 -134T431 -143Q448 -143 464 -142T492 -140V-200H492Z"  />
<glyph unicode="&#x174;" horiz-adv-x="763" d="M743 743V654L702 649L620 0H462L399 335Q394 359 390 389T383 442H380Q377 420 373 390T364 335L302 0H142L60 649L20 654V743H218V654L180 649L221 272Q226 232 228 197T234 127H237Q242 159 246 194T258 268L311 537H452L506 265Q514 227 518 192T526 127H530Q532 163 535 198T543 272L584 649L546 654V743H743ZM455 791L381 886L307 791H207L309 939H453L555 791H455Z"  />
<glyph unicode="&#x175;" horiz-adv-x="735" d="M713 558V469L670 464L599 0H453L387 274Q379 309 375 333T369 379H366Q363 357 360 333T348 274L281 0H137L65 464L23 469V558H213V468L178 464L206 243Q211 205 214 173T220 110H224Q230 142 235 173T249 241L305 476H432L488 242Q497 206 502 174T514 110H517Q520 141 523 173T531 243L558 464L524 468V558H713ZM441 616L367 711L293 616H193L295 764H439L541 616H441Z"  />
<glyph unicode="&#x176;" horiz-adv-x="515" d="M495 743V654L454 648L317 290V94L357 89V0H157V89L198 94V289L60 648L20 654V743H214V654L180 650L224 524Q236 490 243 465T257 412H259Q265 439 272 464T292 524L336 650L303 654V743H495ZM333 791L259 886L185 791H85L187 939H331L433 791H333Z"  />
<glyph unicode="&#x177;" horiz-adv-x="513" d="M491 558V469L446 464L326 -16Q314 -65 301 -102T268 -165T217 -202T141 -215Q111 -215 84 -211T38 -202V-120Q63 -122 81 -122T117 -123Q138 -123 150 -118T171 -101T185 -69T198 -16L202 2L68 464L21 469V558H220V468L185 464L231 268Q235 249 239 232T246 198T253 160T260 114H262Q265 140 268 159T274 196T280 229T287 266L329 464L293 468V558H491ZM334 616L260 711L186 616H86L188 764H332L434 616H334Z"  />
<glyph unicode="&#x178;" horiz-adv-x="515" d="M495 743V654L454 648L317 290V94L357 89V0H157V89L198 94V289L60 648L20 654V743H214V654L180 650L224 524Q236 490 243 465T257 412H259Q265 439 272 464T292 524L336 650L303 654V743H495ZM304 812V929H404V812H304ZM212 812H111V929H212V812Z"  />
<glyph unicode="&#x179;" horiz-adv-x="476" d="M29 0V114L306 644H128L118 592H38V743H438V629L161 100H357L367 155H447V0H29ZM289 791H183L280 939H406L289 791Z"  />
<glyph unicode="&#x17A;" horiz-adv-x="400" d="M29 0V113L250 467H122L112 425H37V558H370V450L148 91H286L296 142H371V0H29ZM253 616H147L244 764H370L253 616Z"  />
<glyph unicode="&#x17B;" horiz-adv-x="476" d="M29 0V114L306 644H128L118 592H38V743H438V629L161 100H357L367 155H447V0H29ZM181 802V919H299V802H181Z"  />
<glyph unicode="&#x17C;" horiz-adv-x="400" d="M29 0V113L250 467H122L112 425H37V558H370V450L148 91H286L296 142H371V0H29ZM151 653V770H269V653H151Z"  />
<glyph unicode="&#x17D;" horiz-adv-x="476" d="M29 0V114L306 644H128L118 592H38V743H438V629L161 100H357L367 155H447V0H29ZM318 790H174L72 938H172L246 843L320 938H420L318 790Z"  />
<glyph unicode="&#x17E;" horiz-adv-x="400" d="M29 0V113L250 467H122L112 425H37V558H370V450L148 91H286L296 142H371V0H29ZM281 616H137L35 764H135L209 669L283 764H383L281 616Z"  />
<glyph unicode="&#x192;" horiz-adv-x="482" d="M448 666Q429 668 417 669T391 670Q376 670 366 668T349 657T338 635T331 597L314 437H437L427 347H303L268 6Q263 -40 251 -70T219 -118T175 -143T121 -150Q91 -150 68 -146T27 -136L35 -62Q52 -64 65 -64T93 -65Q107 -65 117 -63T134 -54T145 -32T152 8L188 347H77L87 437H199L215 599Q219 644 232 674T264 722T308 747T364 754Q392 754 415 750T455 741L448 666Z"  />
<glyph unicode="&#x218;" horiz-adv-x="465" d="M434 193Q434 93 380 41T221 -12Q192 -12 164 -10T113 -4T71 4T42 11V152H123L132 91Q148 89 158 89T176 88T191 87T208 87Q263 87 287 110T312 191Q312 211 309 227T297 256T274 283T239 310L152 370Q92 411 62 456T31 572Q31 754 244 754Q272 754 299 752T349 746T389 739T417 732V596H336L326 653Q311 654 301 654T284 655T270 656T255 656Q201 656 177 637T153 571Q153 552 156 538T168 510T190 485T224 458L308 401Q340 379 364 358T403 311T426 258T434 193ZM223 -204H124L178 -61H303L223 -204Z"  />
<glyph unicode="&#x219;" horiz-adv-x="398" d="M368 147Q368 112 358 83T325 33T268 1T183 -11Q163 -11 142 -9T100 -5T62 1T34 8V137H114L123 83Q147 81 158 81T183 81Q224 81 238 96T253 147Q253 160 250 170T238 191T214 213T175 240L145 259Q113 279 91 298T55 338T35 381T29 431Q29 569 208 569Q225 569 246 568T287 564T326 558T356 550V431H276L266 476Q254 477 240 477T212 478Q177 478 161 468T144 431Q144 417 147 407T158 388T179 368T212 345L246 323Q281 300 304 281T342 242T362 200T368 147ZM192 -204H93L147 -61H272L192 -204Z"  />
<glyph unicode="&#x21A;" horiz-adv-x="506" d="M401 593L392 644H313V93L354 89V0H152V89L193 93V644H114L105 593H24V743H482V593H401ZM239 -204H140L194 -61H319L239 -204Z"  />
<glyph unicode="&#x21B;" horiz-adv-x="346" d="M319 3Q308 -1 282 -6T224 -11Q157 -11 130 21T103 124V468L25 477V558H103V690H218V558H318V468H218V129Q218 112 219 102T223 87T235 79T257 77Q272 77 292 78T319 80V3H319ZM196 -204H97L151 -61H276L196 -204Z"  />
<glyph unicode="&#x2C6;" horiz-adv-x="370" d="M259 616L185 711L111 616H11L113 764H257L359 616H259Z"  />
<glyph unicode="&#x2C7;" horiz-adv-x="370" d="M257 616H113L11 764H111L185 669L259 764H359L257 616Z"  />
<glyph unicode="&#x2C9;" horiz-adv-x="354" d="M28 652V732H325V652H28Z"  />
<glyph unicode="&#x2D8;" horiz-adv-x="365" d="M333 767Q327 697 293 656T183 614Q145 614 118 625T72 656T45 704T32 767H111Q115 715 131 697T183 679Q218 679 234 697T255 767H333H333Z"  />
<glyph unicode="&#x2D9;" horiz-adv-x="324" d="M103 652V769H221V652H103Z"  />
<glyph unicode="&#x2DA;" horiz-adv-x="336" d="M283 721Q283 662 251 635T169 607Q119 607 86 634T53 721Q53 780 86 808T169 836Q219 836 251 809T283 721ZM215 721Q215 753 202 764T169 776Q149 776 136 765T123 721Q123 690 136 679T169 667Q189 667 202 678T215 721Z"  />
<glyph unicode="&#x2DB;" horiz-adv-x="340" d="M280 -200Q263 -205 239 -209T189 -213Q131 -213 101 -191T71 -119Q71 -83 97 -51T179 11L280 0Q244 -21 223 -36T190 -63T175 -86T171 -108Q171 -126 181 -134T219 -143Q236 -143 252 -142T280 -140V-200H280Z"  />
<glyph unicode="&#x2DC;" horiz-adv-x="365" d="M363 730Q363 673 340 643T266 613Q241 613 218 620T174 651L144 682Q132 695 126 699T107 703Q80 703 80 659V617H5V659Q5 715 30 745T103 776Q129 776 148 769T189 739L219 708Q232 695 240 691T263 686Q287 686 287 730V772H363V730H363Z"  />
<glyph unicode="&#x2DD;" horiz-adv-x="402" d="M316 614H213L310 763H434L316 614ZM240 763L122 614H20L117 763H240Z"  />
<glyph unicode="&#x394;" horiz-adv-x="549" d="M19 0L184 743H363L530 0H19ZM297 522Q289 559 285 592T275 656H273Q268 626 264 593T252 522L162 99H386L297 522Z"  />
<glyph unicode="&#x3A9;" horiz-adv-x="552" d="M517 364Q517 279 490 214T398 116V87H511V0H305V167Q354 181 375 231T397 361V466Q397 566 367 608T276 651Q216 651 186 609T155 466V361Q155 282 176 232T247 167V0H41V87H154V116Q122 132 99 157T62 214T42 284T35 364V468Q35 602 93 678T276 754Q400 754 458 678T517 468V364H517Z"  />
<glyph unicode="&#x3BC;" horiz-adv-x="524" d="M29 -204V-114L69 -110V464L29 469V558H184V180Q184 152 186 134T194 104T211 88T240 83Q278 83 340 117V464L300 469V558H455V94L495 89V0H343V38Q317 22 288 8T218 -7Q202 -7 184 -2V-110L224 -114V-204H29Z"  />
<glyph unicode="&#x3C0;" horiz-adv-x="556" d="M524 -3Q495 -11 456 -11Q422 -11 400 -3T364 22T344 64T338 125V454H216V0H101V454H30V558H524V454H453V125Q453 96 459 87T485 78H524V-3H524Z"  />
<glyph unicode="&#x2013;" horiz-adv-x="358" d="M35 249V338H323V249H35Z"  />
<glyph unicode="&#x2014;" horiz-adv-x="490" d="M35 249V338H455V249H35Z"  />
<glyph unicode="&#x2018;" horiz-adv-x="212" d="M142 534H30L96 770H182L142 534Z"  />
<glyph unicode="&#x2019;" horiz-adv-x="212" d="M116 534H30L70 770H182L116 534Z"  />
<glyph unicode="&#x201A;" horiz-adv-x="212" d="M116 -93H30L70 143H182L116 -93Z"  />
<glyph unicode="&#x201C;" horiz-adv-x="388" d="M318 534H206L272 770H358L318 534ZM142 534H30L96 770H182L142 534Z"  />
<glyph unicode="&#x201D;" horiz-adv-x="388" d="M292 534H206L246 770H358L292 534ZM116 534H30L70 770H182L116 534Z"  />
<glyph unicode="&#x201E;" horiz-adv-x="388" d="M292 -93H206L246 143H358L292 -93ZM182 143L116 -93H30L70 143H182Z"  />
<glyph unicode="&#x2020;" horiz-adv-x="404" d="M257 475V-130H142V475H44V572H142V770H257V572H360V475H257Z"  />
<glyph unicode="&#x2021;" horiz-adv-x="404" d="M257 249V-130H142V249H44V345H142V475H44V572H142V769H257V572H360V475H257V345H360V249H257Z"  />
<glyph unicode="&#x2022;" horiz-adv-x="418" d="M369 367Q369 334 357 306T323 256T272 223T209 210Q176 210 147 222T96 256T62 305T49 367Q49 400 61 429T96 479T147 513T209 526Q242 526 271 514T322 480T356 429T369 367Z"  />
<glyph unicode="&#x2026;" horiz-adv-x="692" d="M531 0V146H645V0H531ZM404 0H289V146H404V0ZM47 0V146H161V0H47Z"  />
<glyph unicode="&#x2030;" horiz-adv-x="1250" d="M1213 185Q1213 141 1205 105T1179 44T1132 4T1060 -10Q1018 -10 989 4T941 43T914 105T906 185V254Q906 299 914 334T940 395T988 434T1060 448Q1102 448 1131 435T1179 396T1205 335T1213 254V185ZM1120 254Q1120 289 1116 312T1105 348T1086 367T1060 372Q1045 372 1034 367T1016 349T1004 312T1000 254V185Q1000 150 1004 128T1015 92T1034 73T1060 67Q1075 67 1086 72T1104 91T1116 127T1120 185V254ZM857 185Q857 141 849 105T823 44T775 4T704 -10Q661 -10 632 4T584 43T558 105T550 185V254Q550 299 558 334T584 395T631 434T704 448Q746 448 775 435T822 396T849 335T857 254V185ZM763 254Q763 289 759 312T748 348T729 367T703 372Q688 372 677 367T659 349T648 312T644 254V185Q644 150 647 128T658 92T677 73T703 67Q718 67 729 72T747 91T759 127T763 185V254ZM315 0H214L576 744H677L315 0ZM343 491Q343 449 336 413T312 351T265 311T190 296Q145 296 116 311T69 352T44 413T37 491V560Q37 602 44 637T68 699T115 739T190 754Q235 754 264 740T311 700T336 638T343 560V491ZM250 560Q250 628 237 653T190 678Q157 678 144 653T130 560V491Q130 422 143 397T190 372Q223 372 236 397T250 491V560Z"  />
<glyph unicode="&#x2039;" horiz-adv-x="264" d="M132 68L25 280L132 492H239L135 280L239 68H132Z"  />
<glyph unicode="&#x203A;" horiz-adv-x="264" d="M132 68H25L129 280L25 492H132L239 280L132 68Z"  />
<glyph unicode="&#x2044;" horiz-adv-x="416" d="M78 0H-24L338 744H440L78 0Z"  />
<glyph unicode="&#x20AC;" horiz-adv-x="516" d="M478 8Q467 5 451 2T414 -5T372 -10T331 -12Q287 -12 246 -3T173 34T119 117T91 260H34V328H87V417H34V485H90Q95 574 116 627T170 708T243 745T328 754Q349 754 371 753T413 748T450 742T478 735V598H397L387 650Q376 651 366 651T344 651Q318 651 296 647T256 627T228 577T213 485H451L437 417H209Q209 395 209 373T210 328H416L403 260H214Q218 200 229 167T257 116T297 95T346 91Q372 91 408 94T478 101V8H478Z"  />
<glyph unicode="&#x2113;" horiz-adv-x="450" d="M417 42Q385 13 348 -2T270 -18Q127 -18 127 140V221Q112 208 97 197T67 174L34 218Q64 246 85 266T127 308V601Q127 694 161 736T272 779Q309 779 335 769T377 741T400 699T407 648Q407 562 362 484T242 328V150Q242 100 254 81T299 62Q316 62 335 71T374 96L417 42ZM341 648Q341 677 331 694T294 712Q258 712 250 684T242 601V419Q291 477 316 532T341 648Z"  />
<glyph unicode="&#x2122;" horiz-adv-x="753" d="M331 349V410L356 414V684L331 687V748H450L509 620Q514 608 518 598T527 574H528Q533 588 536 598T546 620L606 748H724V687L700 684V414L724 410V349H590V410L615 414V556Q615 592 618 630H617Q612 616 607 601T594 571L555 492H500L462 571Q456 583 450 599T438 630H437Q440 592 440 556V414L465 410V349H331ZM255 653L250 681H210V414L234 410V350H99V410L123 414V681H83L77 653H27V748H306V653H255Z"  />
<glyph unicode="&#x2126;" horiz-adv-x="552" d="M517 364Q517 279 490 214T398 116V87H511V0H305V167Q354 181 375 231T397 361V466Q397 566 367 608T276 651Q216 651 186 609T155 466V361Q155 282 176 232T247 167V0H41V87H154V116Q122 132 99 157T62 214T42 284T35 364V468Q35 602 93 678T276 754Q400 754 458 678T517 468V364H517Z"  />
<glyph unicode="&#x212E;" horiz-adv-x="622" d="M154 282V89Q186 59 224 43T308 26Q351 26 383 36T440 64T484 104T521 153L552 134Q532 104 510 78T458 33T393 4T308 -7Q246 -7 196 16T109 79T53 171T33 283Q33 343 52 395T108 487T195 550T312 573Q376 573 427 550T515 487T570 394T589 282H154ZM467 478Q440 503 399 521T312 540Q266 540 226 525T154 478V315H467V478Z"  />
<glyph unicode="&#x2202;" horiz-adv-x="505" d="M466 492Q466 467 464 437T459 376T452 313T444 255Q432 184 414 134T367 51T301 5T211 -10Q131 -10 85 30T39 161Q39 190 42 219T50 274Q81 500 270 500Q299 500 320 492T355 474Q356 485 356 504T355 537Q353 571 345 600T319 652T272 686T197 699Q179 699 159 698T118 691L122 772Q144 777 167 779T214 781Q282 781 330 760T408 700T452 609T466 492ZM338 327Q338 368 321 386T267 404Q218 404 194 367T162 260Q159 236 156 210T152 161Q152 119 169 102T223 85Q247 85 264 94T295 123T316 176T332 257Q336 281 337 300T338 327Z"  />
<glyph unicode="&#x2206;" horiz-adv-x="549" d="M19 0L184 743H363L530 0H19ZM297 522Q289 559 285 592T275 656H273Q268 626 264 593T252 522L162 99H386L297 522Z"  />
<glyph unicode="&#x220F;" horiz-adv-x="619" d="M519 638V-46H401V638H217V-46H99V638H30V743H589V638H519Z"  />
<glyph unicode="&#x2211;" horiz-adv-x="461" d="M46 -46V57L214 345L46 641V743H416V641H175L324 374V314L175 57H416V-46H46Z"  />
<glyph unicode="&#x2212;" horiz-adv-x="512" d="M63 345V436H449V345H63Z"  />
<glyph unicode="&#x2215;" horiz-adv-x="416" d="M78 0H-24L338 744H440L78 0Z"  />
<glyph unicode="&#x2219;" horiz-adv-x="203" d="M44 284V430H159V284H44Z"  />
<glyph unicode="&#x221A;" horiz-adv-x="704" d="M415 -70H274L148 396H32V488H225L344 28L568 872H673L415 -70Z"  />
<glyph unicode="&#x221E;" horiz-adv-x="636" d="M560 362Q560 335 557 296T540 222T497 161T417 136H411Q351 136 310 183Q295 160 273 147T219 134H212Q161 134 133 158T90 218T73 293T69 361V386Q69 413 72 451T90 525T133 586T213 611H219Q249 611 274 599T318 564Q348 613 411 613H417Q468 613 496 589T539 529T556 454T560 386V362ZM472 386Q472 414 471 439T464 485T447 517T416 529H411Q380 527 372 489T356 374Q353 341 350 313T341 255Q357 235 375 227T409 218H415Q434 218 445 230T463 263T470 309T472 362V386ZM289 491Q274 511 256 520T221 529H215Q195 529 184 517T167 484T160 438T158 386V361Q158 334 159 308T166 263T183 231T214 219H220Q245 219 256 255T275 378Q278 410 281 435T289 491Z"  />
<glyph unicode="&#x222B;" horiz-adv-x="403" d="M366 684Q356 686 338 687T304 688Q289 688 280 685T267 675T261 654T259 619V-54Q259 -91 253 -119T233 -167T195 -197T134 -207Q104 -207 77 -202T36 -192V-119Q47 -120 65 -121T99 -122Q114 -122 123 -119T136 -109T142 -88T144 -53V620Q144 657 149 685T169 732T208 762T269 772Q299 772 325 767T366 757V684H366Z"  />
<glyph unicode="&#x2248;" horiz-adv-x="512" d="M465 555Q465 492 442 456T357 420Q323 420 300 429T254 461L214 501Q200 515 191 522T168 529Q149 529 144 517T138 480V423H46V480Q46 544 73 580T161 616Q191 616 213 605T258 571L297 532Q311 518 320 512T345 506Q365 506 369 519T374 555V612H465V555ZM465 295Q465 232 442 196T357 160Q323 160 300 169T254 201L214 241Q200 255 191 262T168 269Q149 269 144 257T138 220V163H46V220Q46 284 73 320T161 356Q191 356 213 345T258 311L297 272Q311 258 320 252T345 246Q365 246 369 259T374 295V352H465V295Z"  />
<glyph unicode="&#x2260;" horiz-adv-x="512" d="M258 223L195 -1H94L157 223H68V315H184L225 463H68V555H252L306 744H407L352 555H443V463H326L285 315H443V223H258Z"  />
<glyph unicode="&#x2264;" horiz-adv-x="512" d="M50 0V85H461V0H50ZM278 152L59 398L278 644H407L189 398L407 152H278Z"  />
<glyph unicode="&#x2265;" horiz-adv-x="512" d="M50 0V85H461V0H50ZM233 152H104L322 398L104 644H233L452 398L233 152Z"  />
<glyph unicode="&#x25CA;" horiz-adv-x="526" d="M262 57L40 360L264 670L486 361L262 57ZM264 525L145 360L262 199L381 361L264 525Z"  />
<glyph unicode="&#xE504;" horiz-adv-x="442" d="M260 617H136L215 761H314L260 617Z"  />
<glyph unicode="&#xF6BE;" horiz-adv-x="237" d="M181 -68Q181 -143 153 -178T55 -214Q31 -214 11 -211T-21 -205V-125Q-10 -126 0 -126T25 -126Q51 -126 58 -115T66 -68V462L26 467V558H181V-68H181Z"  />
<glyph unicode="&#xF6C3;" horiz-adv-x="442" d="M218 -204H119L173 -61H298L218 -204Z"  />
<glyph unicode="&#xFB01;" horiz-adv-x="545" d="M327 0V90L367 94V468H209V94L249 89V0H54V89L94 94V468L19 478V558H94V625Q94 663 100 692T120 742T159 772T221 782Q250 782 276 777T317 767V694Q306 695 288 696T255 697Q224 697 217 682T209 625V558H483V94L522 90V0H327ZM365 652V770H485V652H365Z"  />
<glyph unicode="&#xFB02;" horiz-adv-x="556" d="M336 0V89L375 94V693Q365 694 352 694T325 695T297 696T271 697Q253 697 241 695T222 685T212 663T209 625V558H313V468H209V94L248 89V0H54V89L94 94V468L18 478V558H94V625Q94 671 102 701T129 749T174 774T238 782Q274 782 312 778T376 770H491V94L531 89V0H336Z"  />

</font>
</defs>
</svg>
