<?xml  version="1.0" encoding="UTF-8"?>
<!DOCTYPE svg PUBLIC "-//W3C//DTD SVG 1.0//EN" "http://www.w3.org/TR/2001/REC-SVG-20010904/DTD/svg10.dtd" >
<svg xmlns="http://www.w3.org/2000/svg" >
<metadata>
<version>1.0</version>
<id><![CDATA[ITC Officina Sans W04 Bold]]></id>
<vendor>Monotype Imaging Inc.</vendor>
<credits>
<name>Fonts.com WebFonts</name>
<URL>http://webfonts.fonts.com</URL>
<role>Home of the Web fonts</role>
</credits>
<license>
<URL>http://webfonts.fonts.com/Legal</URL>
</license>
<copyright><![CDATA[Copyright 1997 International Typeface Corporation. All rights reserved.]]></copyright>
<trademark><![CDATA["ITC" and "Officina" are trademarks of International Typeface Corporation Registered in U.S. Patent and Trademark Office and may be registered in certain other jurisdictions.]]></trademark>
<licensee>
<name></name>
</licensee>
</metadata>
<defs >
<font horiz-adv-x="497" id="ebc91d92-26bc-4055-b4bf-dfe311adf1d4">
<font-face font-family="" panose-1="2 0 8 6 5 0 0 2 0 4" ascent="724" descent="-276" units-per-em="1000" alphabetic="0">
</font-face>
<missing-glyph horiz-adv-x="500" d="M12 665H487V0H12V665ZM250 375L411 618H88L250 375ZM60 91L221 333L60 575V91ZM278 333L440 90V575L278 333ZM250 290L88 48H411L250 290Z"  />

<glyph unicode="&#xA;" />
<glyph unicode="&#xD;" horiz-adv-x="206" />
<glyph unicode=" " horiz-adv-x="206" />
<glyph unicode="!" horiz-adv-x="352" d="M248 676L226 273Q225 259 222 256T205 253H145Q131 253 128 256T124 273L101 676V683Q101 691 105 694T121 697H228Q249 697 249 687V685L248 676ZM261 57Q261 22 237 -2T177 -27Q142 -27 117 -2T92 58Q92 93 117 117T178 142Q212 142 236 117T261 57Z"  />
<glyph unicode="&quot;" horiz-adv-x="537" d="M433 664L413 433Q412 421 409 418T392 414H350Q337 414 334 417T329 433L307 664V670Q307 680 311 683T327 686H413Q434 686 434 675V673L433 664ZM230 670Q230 668 230 667T229 664L209 433Q208 421 205 418T188 414H146Q133 414 130 417T125 433L104 664Q103 668 103 673Q103 686 123 686H210Q230 686 230 673V670Z"  />
<glyph unicode="#" horiz-adv-x="537" d="M492 399Q492 386 489 383T471 379H411L393 211H444Q458 211 461 208T465 190V137Q465 123 462 120T444 116H384L365 -61Q363 -72 359 -76T344 -80H296Q284 -80 280 -77T276 -64V-58L295 116H194L175 -61Q173 -72 169 -76T154 -80H106Q86 -80 86 -67V-64Q86 -61 87 -58L105 116H66Q52 116 49 119T45 137V190Q45 204 48 207T66 211H115L133 379H93Q79 379 76 382T72 399V456Q72 469 75 472T93 476H143L160 639Q162 651 166 654T181 658H229Q241 658 245 655T249 644V636L232 476H332L350 639Q352 650 355 654T371 658H418Q439 658 439 647V645L438 636L421 476H471Q485 476 488 473T492 456V399ZM222 379L204 211H305L322 379H222Z"  />
<glyph unicode="$" horiz-adv-x="537" d="M476 185Q476 107 429 55T300 -11V-55Q300 -69 297 -72T279 -76H259Q245 -76 242 -73T238 -55V-13Q206 -11 175 -5T119 9T79 26T64 43L65 52L95 136Q98 144 104 144Q109 144 125 136Q159 119 185 110T238 99V294Q210 306 191 315T159 331T136 344T118 358Q62 407 62 488Q62 567 107 615T238 676V727Q238 741 241 744T259 748H279Q293 748 296 745T300 727V678Q328 676 356 671T407 657T443 639T457 621Q457 619 457 616T454 610L423 542Q420 534 414 534Q411 534 409 535T394 543Q350 567 300 572V388Q327 375 347 365T381 346T407 329T427 310Q476 260 476 185ZM245 574Q176 557 176 495Q176 466 192 445T245 406V574ZM361 180Q361 212 345 234T293 276V96Q326 104 343 125T361 180Z"  />
<glyph unicode="%" horiz-adv-x="833" d="M787 166Q787 81 746 33T630 -15Q561 -15 521 31T481 157Q481 242 523 291T638 340Q706 340 746 293T787 166ZM602 665Q602 659 599 652L318 -22Q311 -40 294 -40H243Q223 -40 223 -29Q223 -24 227 -15L509 662Q516 677 532 677H583Q602 677 602 665ZM353 488Q353 403 312 355T196 307Q127 307 87 353T47 480Q47 564 89 613T204 663Q272 663 312 616T353 488ZM692 159Q692 266 633 266Q607 266 593 239T578 164Q578 59 635 59Q692 59 692 159ZM258 482Q258 589 199 589Q173 589 159 563T144 488Q144 381 201 381Q258 381 258 482Z"  />
<glyph unicode="&amp;" horiz-adv-x="611" d="M607 39Q607 34 597 25L546 -18Q538 -24 532 -24Q526 -24 517 -14L462 48Q440 28 419 14T375 -9T326 -22T269 -26Q217 -26 175 -13T104 25T58 85T42 165Q42 196 49 221T73 270T118 316T187 365Q160 397 142 421T114 464T99 501T95 537Q95 573 110 604T152 658T214 694T291 707Q331 707 364 696T420 663T457 613T470 548Q470 521 464 498T442 452T403 405T343 354L450 227Q462 250 470 282T482 350Q483 361 491 361Q493 361 501 359L575 339Q587 336 587 324Q587 308 582 285T569 237T550 187T527 140L598 54Q605 46 606 44T607 39ZM350 540Q350 573 333 592T284 611Q253 611 233 591T213 540Q213 528 215 518T223 497T241 472T271 436Q273 434 275 431T282 423Q320 457 335 482T350 540ZM251 294Q175 244 175 180Q175 137 204 109T277 80Q339 80 387 134L251 294Z"  />
<glyph unicode="&apos;" horiz-adv-x="352" d="M239 670Q239 668 239 667T238 664L218 433Q217 421 214 418T197 414H155Q142 414 139 417T134 433L113 664Q112 668 112 673Q112 686 132 686H219Q239 686 239 673V670Z"  />
<glyph unicode="(" horiz-adv-x="444" d="M406 -215Q406 -223 398 -228L346 -260Q341 -263 335 -263Q326 -263 305 -237T242 -148Q177 -50 147 44T117 244Q117 301 125 353T150 456T195 558T262 666Q280 692 292 708T312 734T325 747T335 751Q345 751 381 727Q397 717 401 713T406 703Q406 698 405 695T398 685Q385 667 371 644T343 597T317 550T298 509Q272 449 260 384T248 244Q248 183 256 128T283 19T329 -88T398 -197Q406 -209 406 -215Z"  />
<glyph unicode=")" horiz-adv-x="444" d="M328 244Q328 187 320 135T295 32T250 -70T183 -178Q148 -229 133 -246T110 -263Q100 -263 64 -239Q48 -228 44 -224T39 -215Q39 -208 47 -197Q58 -182 72 -159T101 -112T127 -63T147 -21Q172 39 184 104T197 244Q197 329 181 401T133 541Q127 553 116 574T91 616T66 657T47 685Q39 696 39 703Q39 710 47 716L100 748Q104 751 110 751Q120 751 141 725T203 636Q268 538 298 444T328 244Z"  />
<glyph unicode="*" horiz-adv-x="537" d="M459 513Q459 507 455 505T440 501L316 484L405 396Q411 391 412 388T414 382Q414 377 412 375T403 367L351 329Q341 322 336 322Q332 322 330 325T323 336L268 449L212 337Q208 329 206 326T199 323Q192 323 184 330L132 368Q125 373 123 375T121 382Q121 389 130 397L220 484L96 502Q85 504 82 506T78 514Q78 518 81 527L101 588Q106 605 114 605Q117 605 118 605T128 599L238 540L218 664L217 669Q216 671 216 675Q216 681 220 683T237 686H301Q321 686 321 674L320 663L298 540L409 598Q416 602 417 602T423 603Q428 603 430 600T436 587L456 526Q458 518 458 517T459 513Z"  />
<glyph unicode="+" horiz-adv-x="500" d="M196 541Q196 555 199 558T216 562H283Q297 562 300 559T304 541V386H457Q471 386 474 383T478 365V302Q478 289 475 286T457 282H304V127Q304 114 301 111T283 107H216Q203 107 200 110T196 127V282H43Q29 282 26 285T22 302V365Q22 379 25 382T43 386H196V541Z"  />
<glyph unicode="&#x2c;" horiz-adv-x="296" d="M235 114Q235 107 230 100L111 -124Q106 -132 104 -135T97 -138Q95 -138 94 -138T85 -135L47 -122Q37 -118 34 -116T31 -108Q31 -106 31 -105T34 -96L96 108Q99 118 103 121T119 125H215Q235 125 235 114Z"  />
<glyph unicode="-" horiz-adv-x="370" d="M310 315Q324 315 327 312T331 295V216Q331 202 328 199T310 196H60Q46 196 43 199T39 216V295Q39 309 42 312T60 315H310Z"  />
<glyph unicode="." horiz-adv-x="296" d="M243 79Q243 39 216 12T148 -16Q108 -16 81 11T53 80Q53 99 60 116T81 146T112 166T150 174Q169 174 186 167T215 146T235 116T243 79Z"  />
<glyph unicode="/" horiz-adv-x="444" d="M414 734Q414 730 411 721L86 -245Q80 -263 59 -263H1Q-11 -263 -15 -261T-19 -250Q-19 -248 -19 -247T-16 -239L310 728Q316 746 337 746H396Q414 746 414 734Z"  />
<glyph unicode="0" horiz-adv-x="537" d="M506 343Q506 289 503 247T492 172T472 112T442 63Q379 -17 265 -17Q151 -17 91 71T31 329Q31 527 108 613Q138 648 183 667T280 686Q325 686 364 668T433 617Q472 572 489 508T506 343ZM377 315Q377 358 376 390T372 448T365 491T353 525Q328 579 270 579Q213 579 187 520T160 333Q160 206 186 148T269 90Q330 90 356 149Q367 175 372 212T377 315Z"  />
<glyph unicode="1" horiz-adv-x="537" d="M228 513L124 456Q116 451 114 451T109 450Q104 450 96 464L70 508Q64 518 64 523Q64 528 76 537L264 669H334Q347 669 350 666T354 648V93H426Q440 93 443 90T447 72V21Q447 7 444 4T426 0H133Q119 0 116 3T112 21V72Q112 86 115 89T133 93H228V513Z"  />
<glyph unicode="2" horiz-adv-x="537" d="M474 495Q474 400 415 335Q404 323 396 315T375 297T342 270T284 225Q245 195 230 170T213 112H447Q461 112 464 109T468 91V21Q468 7 465 4T447 0H87Q73 0 73 14V22Q73 53 74 76T79 119T89 154T104 188Q115 208 126 223T155 256T198 295T264 347Q315 386 334 417T354 491Q354 532 333 553T272 575Q235 575 213 557T171 490Q165 475 156 475Q151 475 145 477L81 501Q69 505 69 516Q69 525 73 538T85 566T102 595T122 621Q179 686 284 686Q375 686 424 636T474 495Z"  />
<glyph unicode="3" horiz-adv-x="537" d="M464 189Q464 95 393 36Q360 8 323 -4T235 -17Q193 -17 152 -9T74 16Q57 24 51 28T45 38Q45 40 47 48L67 120Q69 129 78 129Q82 129 88 126Q129 106 160 98T224 89Q278 89 306 117T335 196Q335 248 305 272T209 296H179Q165 296 162 299T158 317V383Q158 397 161 400T179 404H211Q238 404 255 408T284 421Q301 433 310 454T319 498Q319 536 297 558T237 581Q211 581 190 569T147 530Q138 520 134 520Q131 520 125 524L70 574Q65 579 65 584Q65 594 86 618Q149 686 244 686Q288 686 324 673T387 637T427 581T441 508Q441 454 419 419T346 359Q464 321 464 189Z"  />
<glyph unicode="4" horiz-adv-x="537" d="M51 132Q37 132 34 135T30 152V257L279 673Q287 686 292 686Q297 686 306 682L366 657Q381 650 381 643Q381 638 375 629L142 233H298L311 394Q312 407 315 410T332 413H400Q414 413 417 410T421 392V230H478Q492 230 495 227T499 206V152Q499 139 496 136T478 132H421V2Q421 -12 418 -15T400 -18H317Q303 -18 300 -15T296 2V132H51Z"  />
<glyph unicode="5" horiz-adv-x="537" d="M486 227Q486 172 468 127T415 50T333 1T226 -17Q151 -17 79 9Q61 16 61 28Q61 34 62 39L76 112Q77 121 85 121Q87 121 93 119Q107 114 124 109T158 101T192 95T220 93Q288 93 328 129T369 225Q369 276 343 303T269 331Q208 331 169 285Q161 276 155 276Q153 276 152 276T145 278L85 297Q75 300 72 303T69 311Q69 316 70 321L101 650Q103 663 105 666T122 669H415Q429 669 432 666T436 648V581Q436 567 433 564T415 561H209L191 405Q215 421 238 427T294 434Q337 434 372 419T432 377T472 311T486 227Z"  />
<glyph unicode="6" horiz-adv-x="537" d="M488 235Q488 168 471 121T418 39Q361 -17 272 -17Q168 -17 114 58T59 278Q59 371 80 446T139 575T231 657T353 686Q372 686 391 683T424 676T448 665T457 653Q457 649 455 644L434 574Q432 566 426 566Q425 566 419 568Q384 581 355 581Q292 581 250 539T188 416Q217 445 242 456T305 468Q374 468 423 422Q456 391 472 346T488 235ZM367 231Q367 296 345 329T280 363Q238 363 215 328T191 229Q191 163 213 128T276 93Q319 93 343 129T367 231Z"  />
<glyph unicode="7" horiz-adv-x="537" d="M238 0Q234 -10 232 -12T222 -15Q220 -15 218 -15T213 -14L136 0Q118 3 118 12Q118 19 122 26L325 551H82Q68 551 65 554T61 572V648Q61 662 64 665T82 669H443Q457 669 460 666T464 648V609L238 0Z"  />
<glyph unicode="8" horiz-adv-x="537" d="M501 177Q501 145 489 114T454 57Q390 -17 264 -17Q213 -17 171 -5T100 30Q68 56 50 94T32 174Q32 234 69 280T174 352Q57 403 57 511Q57 548 73 580T117 635T184 672T268 686Q313 686 351 673T416 636T460 581T476 511Q476 462 449 424T362 354Q501 294 501 177ZM350 497Q350 535 327 559T266 583Q230 583 207 560T183 499Q183 464 202 442T271 399Q313 417 331 439T350 497ZM375 181Q375 210 361 234T320 275Q307 283 296 288T261 304Q205 278 182 249T158 181Q158 137 187 112T266 86Q314 86 344 112T375 181Z"  />
<glyph unicode="9" horiz-adv-x="537" d="M477 391Q477 296 457 221T397 93T303 12T178 -17Q139 -17 112 -10T84 9V19L98 89Q100 99 108 99Q111 99 119 97Q133 93 150 91T183 88Q311 88 350 260Q320 227 294 214T230 201Q162 201 113 247Q79 279 64 325T48 440Q48 496 63 541T106 619T174 668T263 686Q368 686 422 611T477 391ZM345 440Q345 576 258 576Q216 576 193 540T169 440Q169 375 191 341T257 306Q300 306 322 340T345 440Z"  />
<glyph unicode=":" horiz-adv-x="296" d="M243 409Q243 369 216 342T148 314Q108 314 81 341T53 410Q53 429 60 446T81 476T112 496T150 504Q169 504 186 497T215 476T235 446T243 409ZM243 79Q243 39 216 12T148 -16Q108 -16 81 11T53 80Q53 99 60 116T81 146T112 166T150 174Q169 174 186 167T215 146T235 116T243 79Z"  />
<glyph unicode=";" horiz-adv-x="296" d="M251 409Q251 369 224 342T156 314Q116 314 89 341T61 410Q61 429 68 446T89 476T120 496T158 504Q177 504 194 497T223 476T243 446T251 409ZM235 114Q235 107 230 100L111 -124Q106 -132 104 -135T97 -138Q95 -138 94 -138T85 -135L47 -122Q37 -118 34 -116T31 -108Q31 -106 31 -105T34 -96L96 108Q99 118 103 121T119 125H215Q235 125 235 114Z"  />
<glyph unicode="&lt;" horiz-adv-x="500" d="M27 279V390L473 616V493L154 334L473 175V52L27 279Z"  />
<glyph unicode="=" horiz-adv-x="500" d="M478 387Q478 373 475 370T457 366H43Q30 366 26 370T22 387V449Q22 463 25 466T43 470H457Q471 470 474 467T478 449V387ZM478 220Q478 206 475 203T457 199H43Q29 199 26 202T22 220V283Q22 296 25 299T43 303H457Q471 303 474 300T478 283V220Z"  />
<glyph unicode="&gt;" horiz-adv-x="500" d="M27 52V175L346 334L27 493V616L473 390V279L27 52Z"  />
<glyph unicode="?" horiz-adv-x="500" d="M441 521Q441 426 364 376Q348 365 329 357T276 338V270Q276 256 273 253T256 249H185Q171 249 168 252T164 270V395Q164 406 168 410T187 418Q317 446 317 522Q317 557 293 575T223 594Q197 594 174 588T113 566Q104 562 101 561T96 560Q89 560 86 570L60 638Q58 644 58 649Q58 658 76 668T122 687T182 702T243 708Q288 708 324 695T387 657T427 598T441 521ZM309 57Q309 22 285 -2T225 -27Q190 -27 165 -2T140 58Q140 93 165 117T226 142Q243 142 258 136T284 118T302 91T309 57Z"  />
<glyph unicode="@" horiz-adv-x="1000" d="M925 357Q925 292 904 236T846 138T759 73T650 49Q608 49 586 65T556 118Q528 81 500 65T436 49Q394 49 371 80T348 168Q348 231 370 288T430 387Q449 407 474 418T527 430Q576 430 607 396L612 407Q617 418 628 418H686Q698 418 698 408L697 398L652 184Q650 179 650 171T649 158Q649 128 689 128Q718 128 744 145T789 193T820 263T832 350Q832 404 814 447T762 520T678 566T568 582Q485 582 420 557T304 479Q250 424 220 346T189 185Q189 52 273 -26Q312 -62 365 -79T495 -96Q571 -96 645 -80T782 -32Q789 -28 793 -27T800 -26Q807 -26 809 -32L826 -77Q828 -84 829 -85T830 -89Q830 -96 815 -105Q790 -121 754 -134T675 -157T584 -172T489 -178Q390 -178 320 -155T199 -83Q148 -34 121 36T93 188Q93 237 103 285T132 378T178 463T240 536Q306 599 391 631T573 664Q658 664 729 639T845 568Q883 529 904 474T925 357ZM585 334Q569 348 559 353T534 358Q504 358 483 321Q476 308 470 289T458 248T450 206T447 167Q447 128 475 128Q491 128 508 138T537 163Q552 182 561 222L585 334Z"  />
<glyph unicode="A" horiz-adv-x="556" d="M552 11Q552 0 532 0H423Q410 0 407 2T400 17L357 181H188L145 17Q142 5 139 3T123 0H24Q4 0 4 11Q4 14 4 16T7 24L204 669Q208 681 211 683T226 686H330Q342 686 345 684T352 669L549 24Q552 13 552 11ZM294 446Q291 461 289 473T283 500T277 533T269 581Q266 559 263 543T258 512T252 482T243 446L203 275H331L294 446Z"  />
<glyph unicode="B" horiz-adv-x="574" d="M525 194Q525 166 518 140T498 90T467 49T428 21Q404 9 371 5T276 0H106Q92 0 89 3T85 21V665Q85 679 88 682T106 686H268Q304 686 329 685T372 680T403 672T430 657Q462 635 481 596T500 510Q500 455 477 419T399 359Q459 343 492 300T525 194ZM367 496Q367 552 328 575Q317 581 304 583T268 586H215V401H257Q288 401 304 404T335 418Q350 429 358 449T367 496ZM387 202Q387 254 359 276T264 298H215V109H262Q330 109 358 130T387 202Z"  />
<glyph unicode="C" horiz-adv-x="480" d="M465 51Q465 39 443 24Q381 -17 298 -17Q186 -17 127 51Q84 100 62 176T40 353Q40 446 59 511T119 624Q151 662 195 682T291 703Q331 703 369 690T442 652Q463 637 463 628Q463 622 461 620L420 546Q416 538 410 538Q406 538 402 540T380 556Q340 587 299 587Q184 587 184 373Q184 223 223 150Q236 126 260 113T313 99Q338 99 356 106T403 135Q411 139 413 139Q417 139 422 130L462 60Q465 55 465 51Z"  />
<glyph unicode="D" horiz-adv-x="593" d="M553 342Q553 214 522 136T426 25Q411 17 397 13T365 5T323 1T263 0H106Q92 0 89 3T85 21V665Q85 679 88 682T106 686H263Q288 686 304 686T330 685T349 683T367 680Q463 662 508 580T553 342ZM409 336Q409 384 406 420T395 483T375 528T346 557Q329 569 311 573T257 577H222V109H257Q298 109 321 115T361 135Q387 158 398 204T409 336Z"  />
<glyph unicode="E" horiz-adv-x="482" d="M460 675Q460 672 458 662L438 594Q435 584 431 581T416 577H222V413H389Q403 413 406 410T410 392V325Q410 311 407 308T389 304H222V109H432Q446 109 449 106T453 88V21Q453 7 450 4T432 0H106Q92 0 89 3T85 21V665Q85 679 88 682T106 686H440Q460 686 460 675Z"  />
<glyph unicode="F" horiz-adv-x="445" d="M460 675Q460 673 460 670T458 662L438 594Q435 583 432 580T416 577H222V413H389Q403 413 406 410T410 392V325Q410 311 407 308T389 304H222V21Q222 7 219 4T201 0H106Q92 0 89 3T85 21V665Q85 679 88 682T106 686H440Q460 686 460 675Z"  />
<glyph unicode="G" horiz-adv-x="556" d="M310 251Q296 251 293 254T289 272V339Q289 353 292 356T310 360H487Q501 360 504 357T508 339V59Q508 48 506 44T492 32Q456 9 407 -4T305 -17Q40 -17 40 342Q40 521 108 612T309 703Q356 703 398 692T475 659Q487 651 490 648T494 639Q494 635 492 631L455 556Q452 551 448 551Q443 551 439 554Q416 566 400 574T369 586T343 593T315 595Q286 595 261 583T222 551Q201 520 191 468T180 348Q180 283 188 231T212 151Q226 126 254 111T316 95Q352 95 385 111V251H310Z"  />
<glyph unicode="H" horiz-adv-x="630" d="M409 406V665Q409 679 412 682T429 686H525Q539 686 542 683T546 665V21Q546 7 543 4T525 0H429Q415 0 412 3T409 21V304H222V21Q222 7 219 4T201 0H106Q92 0 89 3T85 21V665Q85 679 88 682T106 686H201Q215 686 218 683T222 665V406H409Z"  />
<glyph unicode="I" horiz-adv-x="352" d="M108 587H54Q40 587 37 590T33 608V665Q33 679 36 682T54 686H299Q313 686 316 683T320 665V608Q320 594 317 591T299 587H245V99H299Q313 99 316 96T320 78V21Q320 7 317 4T299 0H54Q40 0 37 3T33 21V78Q33 92 36 95T54 99H108V587Z"  />
<glyph unicode="J" horiz-adv-x="426" d="M85 587Q71 587 68 590T64 608V665Q64 679 67 682T85 686H340Q353 686 356 683T360 665V211Q360 155 354 121T332 61Q308 21 268 2T168 -17Q107 -17 70 5T10 76Q-11 122 -11 178Q-11 192 -8 197T3 202H99Q110 202 110 188V175Q110 94 170 94Q203 94 214 119Q220 132 221 145T223 192V587H85Z"  />
<glyph unicode="K" horiz-adv-x="574" d="M582 45Q582 40 580 38T568 31L482 -13Q480 -14 475 -15T468 -17Q462 -17 455 -7L222 302V21Q222 7 219 4T201 0H106Q92 0 89 3T85 21V665Q85 679 88 682T106 686H201Q215 686 218 683T222 665V384L439 684Q447 695 454 695Q459 695 467 691L540 654Q549 649 551 647T554 639Q554 637 553 634T547 625L340 351L574 60Q582 52 582 45Z"  />
<glyph unicode="L" horiz-adv-x="482" d="M480 113Q480 111 480 110T478 101L460 18Q458 7 454 4T437 0H106Q92 0 89 3T85 21V665Q85 679 88 682T106 686H201Q215 686 218 683T222 665V124H460Q480 124 480 113Z"  />
<glyph unicode="M" horiz-adv-x="704" d="M635 39Q636 28 636 23T636 13Q636 6 632 3T615 0H525Q511 0 508 3T504 20L497 373V407Q497 424 497 449T498 517Q476 419 461 372L397 167Q393 156 390 154T374 151H313Q301 151 298 153T291 168L235 363Q233 371 229 388T219 428T208 473T198 517L199 376V360L191 20Q191 7 188 4T170 0H89Q69 0 69 15V21L98 666Q99 679 102 682T119 686H218Q229 686 232 684T240 670L320 417Q322 410 325 398T332 369T340 336T347 302Q353 326 357 342T366 371T373 395T381 418L466 670Q470 681 473 683T488 686H582Q596 686 599 683T603 666L635 39Z"  />
<glyph unicode="N" horiz-adv-x="611" d="M538 21Q538 7 535 4T517 0H453Q439 0 435 3T423 19L251 343Q239 366 230 384T213 419T200 451T187 485Q188 459 188 444T189 418T190 394T190 363V21Q190 7 187 4T169 0H94Q80 0 77 3T73 21V665Q73 679 76 682T94 686H172Q186 686 190 684T201 669L359 375Q377 342 393 301T423 221Q422 249 422 267T421 298T421 322T421 347V665Q421 679 424 682T442 686H517Q531 686 534 683T538 665V21Z"  />
<glyph unicode="O" horiz-adv-x="574" d="M535 351Q535 -17 284 -17Q40 -17 40 346Q40 456 61 526T128 641Q193 703 292 703Q342 703 387 684T461 632Q535 548 535 351ZM391 340Q391 472 366 533T286 595Q236 595 210 531T184 342Q184 91 287 91Q391 91 391 340Z"  />
<glyph unicode="P" horiz-adv-x="519" d="M501 498Q501 447 485 406T439 336T367 290T273 274H222V21Q222 7 219 4T201 0H106Q92 0 89 3T85 21V665Q85 679 88 682T106 686H268Q328 686 364 680T425 658Q460 636 480 594T501 498ZM369 490Q369 543 346 563T261 584H222V387H250Q316 387 342 410T369 490Z"  />
<glyph unicode="Q" horiz-adv-x="574" d="M566 -19Q566 -22 562 -26L489 -77Q480 -83 476 -83Q462 -83 435 -62T372 -3Q349 -11 332 -14T288 -17Q163 -17 102 72T40 347Q40 455 60 524T126 641Q186 703 286 703Q535 703 535 357Q535 257 517 180T466 62Q481 48 502 32T554 -5Q566 -13 566 -19ZM391 343Q391 473 366 534T286 595Q236 595 210 531T184 341Q184 91 287 91Q391 91 391 343Z"  />
<glyph unicode="R" horiz-adv-x="556" d="M544 22Q544 14 528 10L439 -15Q432 -17 431 -17T427 -18Q421 -18 413 -4L272 281H219V21Q219 7 216 4T198 0H106Q92 0 89 3T85 24V665Q85 679 88 682T106 686H269Q325 686 358 680T417 660Q502 612 502 489Q502 420 476 375T390 298L539 37Q544 29 544 22ZM366 490Q366 543 343 563T258 584H219V387H247Q313 387 339 410T366 490Z"  />
<glyph unicode="S" horiz-adv-x="482" d="M451 194Q451 147 435 109T391 44T322 1T233 -14Q203 -14 167 -8T99 7T46 26T24 46Q24 49 26 57L59 143Q62 152 68 152Q71 152 77 149Q166 100 230 100Q273 100 296 121T320 183Q320 200 315 216T299 244Q293 251 286 257T267 270T236 287T185 313Q140 335 110 356T62 399T37 448T29 507Q29 596 88 648T248 700Q278 700 311 694T373 679T420 658T439 637Q439 635 439 635T436 629L400 553Q396 546 391 546Q390 546 389 546T384 548T373 553T352 564Q302 590 252 590Q210 590 186 571T161 517Q161 480 200 454Q205 451 210 448T225 440T253 425T305 399Q383 360 417 312T451 194Z"  />
<glyph unicode="T" horiz-adv-x="407" d="M437 675Q437 669 435 663L414 584Q411 573 407 570T392 567H269V21Q269 7 266 4T248 0H151Q137 0 134 3T130 21V567H4Q-10 567 -13 570T-17 587V665Q-17 679 -14 682T4 686H417Q437 686 437 675Z"  />
<glyph unicode="U" horiz-adv-x="611" d="M548 232Q548 166 536 127T493 56Q457 18 409 1T295 -17Q156 -17 100 70Q82 99 74 136T66 232V665Q66 679 69 682T87 686H182Q196 686 199 683T203 665V232Q203 207 204 191T207 162T213 142T223 126Q249 91 305 91Q365 91 390 123T416 230V665Q416 679 419 682T437 686H527Q541 686 544 683T548 665V232Z"  />
<glyph unicode="V" horiz-adv-x="518" d="M522 667Q522 665 522 664T520 655L337 3Q334 -8 330 -11T315 -14H198Q185 -14 182 -12T176 3L-1 653Q-3 663 -3 665Q-3 670 0 672T15 677L120 696Q124 697 128 697H131Q137 697 139 694T144 679L231 272Q233 261 237 241T243 209Q247 187 250 166T257 124Q262 150 265 168T272 201T279 233T288 272L382 675Q386 692 396 692L406 691L503 680Q522 677 522 667Z"  />
<glyph unicode="W" horiz-adv-x="778" d="M767 659Q767 657 767 653T765 647L619 4Q617 -7 613 -10T597 -14H508Q495 -14 492 -11T486 4L421 345Q414 380 410 403T404 445T400 478T397 514Q395 497 394 486T392 466T389 447T384 422Q382 411 380 400T376 378Q372 370 369 344L292 4Q289 -9 286 -11T270 -14H180Q167 -14 164 -12T158 4L26 650Q24 655 24 660Q24 666 27 669T42 674L130 691Q138 692 139 692T141 692Q147 692 149 689T154 674L214 342Q217 322 219 309T224 278T228 237T235 171Q237 188 239 202T244 227Q246 239 248 261T259 317L338 665Q341 678 344 680T361 683H441Q454 683 457 681T463 665L531 350Q535 329 538 313T544 282T549 250T554 213L560 166Q564 204 566 229T571 273T577 309T584 350L642 674Q644 685 646 688T655 692Q657 692 658 692T666 690L750 672Q767 668 767 659Z"  />
<glyph unicode="X" horiz-adv-x="519" d="M528 23Q528 14 511 10L413 -14Q406 -16 405 -16T401 -17Q395 -17 387 -3L294 181Q289 191 285 198T278 213T272 228T264 247Q258 233 254 225T247 211T241 198T232 181L138 -2Q131 -15 124 -15Q120 -15 112 -13L16 14Q-1 19 -1 26Q-1 30 5 41L189 363L21 645Q16 653 16 655T15 660Q15 669 33 673L132 696L138 698Q141 699 145 699Q149 699 151 697T158 684L233 534Q238 523 242 515T249 500T256 483T265 460Q272 482 278 499T294 535L363 686Q367 695 369 698T377 701Q379 701 381 701T389 699L483 672Q500 668 500 659Q500 653 495 645L336 361L522 37Q528 27 528 23Z"  />
<glyph unicode="Y" horiz-adv-x="482" d="M502 662Q502 657 497 648L313 281V21Q313 7 310 4T292 0H197Q183 0 180 3T176 21V282L-16 650Q-20 658 -20 659T-21 664Q-21 674 -2 677L102 694Q107 696 108 696T112 696Q117 696 119 694T127 681L207 511Q214 497 218 487T226 467T235 441T249 401Q260 438 270 465T293 518L371 682Q375 690 377 693T384 696Q388 696 391 695L396 694L485 675Q502 671 502 662Z"  />
<glyph unicode="Z" horiz-adv-x="500" d="M485 111Q484 110 484 108V101L472 19Q470 6 467 3T450 0H52Q38 0 35 3T31 21V101L303 572H62Q42 572 42 583Q42 585 42 586T44 595L62 669Q65 681 68 683T84 686H428Q442 686 445 683T449 665V575L184 123H464Q485 123 485 111Z"  />
<glyph unicode="[" horiz-adv-x="426" d="M256 -102H346Q359 -102 362 -105T366 -123V-184Q366 -198 363 -201T346 -205H150Q136 -205 133 -202T129 -184V694Q129 708 132 711T150 715H346Q359 715 362 712T366 694V633Q366 619 363 616T346 612H256V-102Z"  />
<glyph unicode="\" horiz-adv-x="445" d="M463 -251Q463 -263 445 -263H386Q366 -263 360 -245L33 722Q31 728 31 729T30 733Q30 746 50 746H108Q128 746 135 728L460 -238Q462 -244 462 -246T463 -251Z"  />
<glyph unicode="]" horiz-adv-x="426" d="M81 612Q67 612 64 615T60 633V694Q60 708 63 711T81 715H277Q291 715 294 712T298 694V-184Q298 -198 295 -201T277 -205H81Q67 -205 64 -202T60 -184V-123Q60 -109 63 -106T81 -102H171V612H81Z"  />
<glyph unicode="^" horiz-adv-x="500" d="M365 366L250 596L135 366H12L173 689H327L488 366H365Z"  />
<glyph unicode="_" horiz-adv-x="514" d="M0 -145V-62H514V-145H0Z"  />
<glyph unicode="`" horiz-adv-x="500" d="M301 629Q301 623 296 616L281 584Q277 576 274 573T267 570Q265 570 261 571T254 573L77 643Q61 650 61 657Q61 661 66 671L97 732Q105 746 111 746Q113 746 115 746T125 740L288 643Q301 635 301 629Z"  />
<glyph unicode="a" horiz-adv-x="482" d="M439 28Q439 21 431 18L353 -13Q348 -16 341 -16Q327 -16 311 43Q281 12 252 -1T183 -14Q114 -14 74 27T33 137Q33 268 182 298Q202 302 227 304T294 307V338Q294 381 280 397T228 413Q183 413 116 387Q110 384 105 384Q98 384 95 394L74 454Q72 460 72 465Q72 473 87 481T127 496T182 507T243 511Q364 511 399 434Q407 418 410 399T413 351V147Q413 114 418 90T436 39Q439 33 439 28ZM294 224Q219 224 187 206T154 144Q154 115 172 95T218 75Q258 75 294 114V224Z"  />
<glyph unicode="b" horiz-adv-x="519" d="M485 260Q485 191 472 142T428 55Q401 20 365 2T286 -17Q255 -17 233 -8T184 27Q173 1 168 -6T155 -14Q152 -14 151 -14T141 -12L60 8Q51 9 51 16Q51 19 54 25Q60 37 63 48T69 71T72 97T73 130V686Q73 696 75 699T88 704L181 723Q183 724 185 724T190 724Q200 724 200 707V467Q235 491 262 501T321 511Q399 511 442 446T485 260ZM358 254Q358 330 337 370T277 410Q259 410 242 403T200 378V101Q228 80 259 80Q305 80 331 126T358 254Z"  />
<glyph unicode="c" horiz-adv-x="407" d="M406 454Q406 449 403 443L368 379Q364 372 359 372Q354 372 349 376Q321 396 304 403T264 410Q213 410 189 370T165 242Q165 160 189 122T265 84Q286 84 305 91T347 112Q354 117 358 117Q362 117 366 110L390 49Q392 43 392 42T393 37Q393 28 380 18T346 1T299 -12T248 -17Q145 -17 89 49T33 237Q33 301 49 351T95 437T167 492T264 511Q287 511 312 506T358 492T392 474T406 454Z"  />
<glyph unicode="d" horiz-adv-x="519" d="M445 123Q445 108 445 99T447 81T452 65T460 44Q461 42 463 38T465 31Q465 25 456 22L373 -11Q367 -14 363 -14Q355 -14 348 0T336 37Q270 -17 196 -17Q118 -17 76 49T33 238Q33 312 47 363T92 451Q143 511 219 511Q245 511 268 505T318 483V686Q318 696 320 699T333 704L426 723L435 724Q445 724 445 707V123ZM318 392Q282 410 246 410Q199 410 180 373T160 245Q160 157 178 119T238 81Q285 81 318 116V392Z"  />
<glyph unicode="e" horiz-adv-x="481" d="M450 238Q450 223 446 218T428 213H159Q161 148 187 118T270 87Q325 87 384 118Q391 122 397 122Q403 122 408 113L433 53Q435 48 435 47T436 42Q436 34 428 28T395 11Q330 -17 257 -17Q162 -17 108 32Q72 65 53 119T33 243Q33 303 48 352T93 437T162 492T252 511Q450 511 450 238ZM317 306Q315 368 299 394T244 420Q206 420 187 394T161 306H317Z"  />
<glyph unicode="f" horiz-adv-x="352" d="M380 688Q380 686 380 686T378 680L360 609Q356 600 351 600Q347 600 341 603Q310 617 281 617Q246 617 233 596Q228 588 227 577T225 536V494H339Q356 494 356 484Q356 480 354 474L340 416Q336 401 321 401H225V17Q225 6 222 3T208 0H115Q104 0 101 3T98 17V401H22Q9 401 7 404T5 425V480Q5 494 22 494H98V536Q98 587 105 616T131 669Q176 724 258 724Q281 724 303 721T342 713T369 702T380 688Z"  />
<glyph unicode="g" horiz-adv-x="500" d="M464 474Q464 472 464 470T458 456Q446 428 441 403T436 343V195Q436 113 439 32Q440 12 440 -4T441 -31Q441 -117 393 -163T253 -209Q221 -209 186 -204T120 -190T70 -173T50 -154Q50 -150 52 -144L73 -75Q76 -65 84 -65Q88 -65 93 -68Q174 -105 241 -105Q283 -105 300 -86T318 -22Q318 -10 317 6T313 43Q285 23 257 15T197 6Q121 6 77 71T33 249Q33 309 46 357T82 440T140 492T216 511Q251 511 276 501T331 465Q340 487 350 500T366 514Q372 514 376 512L455 484Q464 479 464 474ZM313 377Q292 393 276 399T242 406Q202 406 181 367T160 254Q160 182 179 145T234 107Q280 107 313 141V377Z"  />
<glyph unicode="h" horiz-adv-x="537" d="M204 17Q204 6 201 3T187 0H94Q83 0 80 3T77 17V686Q77 697 79 699T92 704L185 723Q187 724 189 724T194 724Q204 724 204 707V453Q265 511 342 511Q378 511 407 497T452 457Q463 438 467 415T472 354V17Q472 6 469 3T455 0H362Q351 0 348 3T345 17V325Q345 371 333 390T290 409Q267 409 248 400T204 368V17Z"  />
<glyph unicode="i" horiz-adv-x="296" d="M235 641Q235 607 212 584T154 560Q120 560 97 583T73 642Q73 675 97 698T155 722Q188 722 211 698T235 641ZM221 17Q221 6 218 3T204 0H111Q100 0 97 3T94 17V401H18Q7 401 4 404T1 418V477Q1 488 4 491T18 494H204Q215 494 218 491T221 477V17Z"  />
<glyph unicode="j" horiz-adv-x="296" d="M235 641Q235 607 212 584T154 560Q120 560 97 583T73 642Q73 675 97 698T155 722Q188 722 211 698T235 641ZM221 10Q221 -28 220 -55T216 -102T208 -138T196 -166Q177 -200 140 -218T50 -236Q29 -236 9 -234T-26 -227T-51 -218T-61 -208Q-61 -206 -59 -198L-37 -123Q-35 -116 -28 -116Q-26 -116 -25 -116T-20 -118Q9 -131 36 -131Q79 -131 90 -82Q92 -70 93 -50T94 10V401H18Q7 401 4 404T1 418V477Q1 488 4 491T18 494H204Q215 494 218 491T221 477V10Z"  />
<glyph unicode="k" horiz-adv-x="500" d="M503 43Q503 37 493 31L414 -13Q409 -16 408 -16T404 -17Q397 -17 391 -8L204 232V17Q204 6 201 3T187 0H94Q83 0 80 3T77 17V686Q77 696 79 699T92 704L185 723L194 724Q204 724 204 707V306L398 501Q404 507 405 508T410 509Q413 509 414 508T422 502L476 459Q484 453 484 447Q484 442 477 435L313 277L497 55Q503 49 503 43Z"  />
<glyph unicode="l" horiz-adv-x="278" d="M289 11Q289 6 280 1T257 -8T224 -14T188 -17Q99 -17 74 55Q71 64 69 71T67 92T66 124T65 177V685Q65 701 80 704L170 722Q178 724 179 724T182 724Q192 724 192 707V186Q192 165 192 153T192 135T192 126T194 120Q200 100 219 100Q227 100 234 101T252 106Q255 107 259 107Q265 107 267 101L287 19L288 15Q289 13 289 11Z"  />
<glyph unicode="m" horiz-adv-x="778" d="M199 17Q199 6 196 3T182 0H91Q80 0 77 3T74 17V353Q74 372 73 386T70 413T65 436T56 461Q53 467 53 472Q53 481 64 484L145 511Q149 512 151 512T155 513Q163 513 171 494T187 441Q229 479 262 495T336 511Q413 511 445 441Q488 480 522 495T599 511Q668 511 695 461Q706 440 709 416T713 346V17Q713 6 710 3T696 0H604Q593 0 590 3T587 17V334Q587 376 577 393T542 411Q522 411 503 401T456 366V17Q456 6 453 3T439 0H348Q337 0 334 3T331 17V324Q331 374 322 391T285 409Q265 409 245 399T199 366V17Z"  />
<glyph unicode="n" horiz-adv-x="537" d="M201 17Q201 6 198 3T184 0H91Q80 0 77 3T74 17V353Q74 417 53 462Q50 468 50 472Q50 478 58 481L147 514Q153 516 157 516Q166 516 175 498T193 447Q231 482 265 496T343 511Q410 511 441 473T472 353V17Q472 6 469 3T455 0H362Q351 0 348 3T345 17V325Q345 370 332 389T288 409Q266 409 247 400T201 368V17Z"  />
<glyph unicode="o" horiz-adv-x="500" d="M468 248Q468 187 453 138T410 55T342 2T251 -17Q148 -17 91 52T33 247Q33 368 91 438Q123 476 162 493T255 511Q304 511 343 493T410 440T453 358T468 248ZM333 246Q333 335 314 372T249 410Q206 410 187 372T168 247Q168 160 187 122T250 84Q295 84 314 122T333 246Z"  />
<glyph unicode="p" horiz-adv-x="519" d="M486 255Q486 -17 303 -17Q273 -17 250 -11T201 9V-172Q201 -183 199 -185T186 -190L93 -210L83 -211Q74 -211 74 -195V355Q74 384 70 405T54 454Q52 460 52 462Q52 467 62 471L149 508Q155 511 158 511Q165 511 172 497T186 459Q217 487 246 499T313 511Q398 511 442 446T486 255ZM359 251Q359 334 340 372T279 410Q258 410 241 402T201 374V98Q221 87 236 83T271 79Q295 79 312 88T339 117T354 170T359 251Z"  />
<glyph unicode="q" horiz-adv-x="500" d="M470 473Q470 467 466 460Q452 434 447 408T442 343V-169Q442 -180 440 -182T427 -187L334 -207L324 -208Q315 -208 315 -191V22Q266 -17 204 -17Q122 -17 77 50T32 240Q32 303 44 353T81 438T139 492T215 511Q248 511 276 500T332 465Q357 513 372 513Q376 513 384 510L459 484Q470 481 470 473ZM315 373Q279 403 242 403Q201 403 182 363T162 238Q162 79 238 79Q279 79 315 118V373Z"  />
<glyph unicode="r" horiz-adv-x="352" d="M365 489Q365 486 363 478L332 397Q329 388 324 388Q323 388 317 390Q295 398 277 398Q245 398 201 350V17Q201 6 198 3T184 0H91Q80 0 77 3T74 17V321Q74 342 73 359T68 391T59 423T44 460Q42 466 42 469Q42 476 52 479L133 508Q139 510 140 510T145 511Q154 511 164 490T183 433Q191 442 196 448T204 458T210 465T217 472Q256 511 308 511Q331 511 348 504T365 489Z"  />
<glyph unicode="s" horiz-adv-x="426" d="M393 145Q393 113 381 83T347 29Q302 -17 224 -17Q182 -17 138 -6T54 25Q40 32 36 35T32 44Q32 47 32 49T35 56L58 117Q62 127 68 127Q71 127 77 124Q156 81 213 81Q239 81 255 95T271 133Q271 143 268 151T257 165T234 179T194 196Q146 214 125 225T90 250Q50 288 50 348Q50 384 63 414T100 465T156 499T228 511Q252 511 278 507T328 495T366 480T381 465Q381 460 378 454L353 397Q348 388 343 388Q341 388 335 390Q277 416 234 416Q170 416 170 365Q170 345 182 334T236 307Q264 296 282 288T314 274T335 261T352 247Q393 206 393 145Z"  />
<glyph unicode="t" horiz-adv-x="370" d="M366 22Q366 14 360 10T335 0Q282 -17 234 -17Q155 -17 121 34Q108 53 104 75T99 140V401H30Q19 401 16 404T13 418V477Q13 488 16 491T30 494H99V620Q99 631 101 633T115 638L207 651H216Q226 651 226 635V494H340Q357 494 357 484Q357 478 356 475L343 416Q341 407 338 404T325 401H226V158Q226 118 233 106T263 94Q270 94 276 94T290 97T306 102T329 111Q335 113 338 113Q345 113 348 103L364 33Q366 28 366 26T366 22Z"  />
<glyph unicode="u" horiz-adv-x="537" d="M485 15Q485 10 475 7L391 -12Q385 -14 384 -14T380 -14Q363 -14 350 41Q316 9 286 -4T212 -17Q136 -17 99 26Q88 38 82 50T72 79T67 119T65 178V471Q65 482 67 484T80 489L173 509Q175 510 177 510T181 510Q192 510 192 494V184Q192 150 194 136T201 111Q208 98 222 91T253 84Q293 84 336 120V471Q336 482 338 484T351 489L444 509L454 510Q463 510 463 494V126Q463 89 467 68T482 24Q485 19 485 15Z"  />
<glyph unicode="v" horiz-adv-x="444" d="M449 480Q449 477 447 469L281 -6Q278 -15 275 -17T262 -19H180Q170 -19 167 -17T161 -6L-2 469Q-5 476 -5 480Q-5 489 11 490L109 500Q114 501 115 501T117 501Q125 501 129 487L193 258Q201 229 209 194T226 114Q234 154 243 192T261 258L331 487Q335 501 343 501H345Q346 501 347 501T351 500L434 490Q449 489 449 480Z"  />
<glyph unicode="w" horiz-adv-x="667" d="M658 477Q658 475 658 474T655 467L517 6Q514 -4 512 -6T498 -8H415Q404 -8 402 -6T397 8L350 261Q349 265 349 268T347 277T345 290T343 312L339 349L336 373Q333 352 331 339T328 313T324 289T318 261L259 7Q257 -4 254 -6T241 -8H159Q148 -8 146 -6T141 7L20 467Q18 474 18 475T18 478Q18 485 33 488L121 501Q122 502 124 502T129 502Q138 502 141 488L188 258Q190 249 192 237T196 207T202 164T209 101Q214 152 218 188T227 245L277 479Q279 490 281 492T295 494H385Q395 494 398 492T403 479L448 254Q450 245 452 228T458 189T463 144T468 101Q472 138 475 164T480 209T485 242T490 267L541 488Q545 502 552 502Q554 502 557 502T561 501L643 488Q658 485 658 477Z"  />
<glyph unicode="x" horiz-adv-x="463" d="M460 21Q460 15 446 11L362 -14Q357 -16 356 -16T352 -16Q346 -16 340 -6L270 101Q261 116 255 125T245 141T238 152T232 162Q224 148 215 133T194 101L121 -6Q116 -13 114 -14T109 -16Q107 -16 106 -16T98 -13L16 16Q3 21 3 27Q3 30 3 32T9 40L160 250L27 443Q22 449 22 451T21 455Q21 462 34 466L116 497Q121 499 123 499T127 500Q130 500 132 498T138 489L194 398L204 380Q206 376 208 372T214 364Q219 355 221 351T229 337Q237 350 242 357T251 371T259 383T270 398L333 490Q339 500 346 500Q348 500 356 497L437 467Q450 462 450 455Q450 453 450 451T444 443L305 250L454 34Q460 27 460 21Z"  />
<glyph unicode="y" horiz-adv-x="444" d="M450 480Q450 478 450 477T448 470L348 104Q343 89 340 72T331 38Q318 -15 309 -49T291 -106T275 -143T255 -170Q212 -222 134 -222Q113 -222 89 -218T45 -206T11 -191T-3 -175Q-3 -173 -3 -172T1 -164L32 -100Q35 -93 41 -93Q44 -93 49 -96Q94 -118 126 -118Q158 -118 174 -102T204 -42L216 0H174Q164 0 161 2T155 13L-2 469Q-4 474 -4 476T-5 480Q-5 489 11 490L113 501H120Q128 501 132 487L198 241Q205 215 210 194T220 152T228 111T237 68Q240 84 242 95T245 116T248 133T252 152Q254 165 256 176T261 198L271 241L327 486Q329 495 331 498T338 501Q342 501 346 500L434 490Q450 489 450 480Z"  />
<glyph unicode="z" horiz-adv-x="426" d="M414 95Q414 91 411 84L381 13Q376 0 362 0H42Q31 0 28 3T25 17V86L258 394H63Q52 394 49 397T46 411V477Q46 488 49 491T63 494H378Q389 494 392 491T395 477V404L169 105H398Q414 105 414 95Z"  />
<glyph unicode="{" horiz-adv-x="444" d="M388 -184Q388 -197 385 -201T371 -205Q317 -205 282 -195T220 -160Q194 -137 183 -106T171 -21V140Q171 178 155 194T101 211H84Q70 211 67 214T63 231V300Q63 314 66 317T84 320H101Q139 320 155 336T171 391V531Q171 626 219 670T370 715Q381 715 384 711T388 695V630Q388 616 385 613T367 610H363Q327 610 311 594T295 540V386Q295 338 279 312T223 266Q264 246 279 220T295 145V-30Q295 -67 311 -83T363 -99H367Q381 -99 384 -102T388 -120V-184Z"  />
<glyph unicode="|" horiz-adv-x="366" d="M129 -171V686H237V-171H129Z"  />
<glyph unicode="}" horiz-adv-x="444" d="M381 211Q381 197 378 194T360 190H343Q305 190 289 174T273 119V-21Q273 -116 225 -160T74 -205Q63 -205 60 -201T56 -185V-120Q56 -106 59 -103T77 -100H81Q117 -100 133 -84T149 -30V124Q149 172 164 198T221 245Q180 265 165 291T149 366V541Q149 578 133 594T81 610H77Q63 610 60 613T56 631V695Q56 708 59 712T73 716Q127 716 162 706T224 671Q250 648 261 617T273 532V371Q273 333 289 317T343 300H360Q374 300 377 297T381 279V211Z"  />
<glyph unicode="~" horiz-adv-x="500" d="M498 373Q467 301 432 269T349 237Q340 237 332 238T312 243T283 253T241 271Q217 281 203 287T178 297T162 301T147 302Q124 302 108 288T70 235L2 292Q31 361 67 394T151 427Q172 427 196 420T265 392Q286 383 299 377T322 368T338 364T353 363Q375 363 392 378T430 429L498 373Z"  />
<glyph unicode="&#xA0;" horiz-adv-x="206" />
<glyph unicode="&#xA1;" horiz-adv-x="352" d="M261 376Q261 341 237 317T177 292Q142 292 117 317T92 377Q92 412 117 436T178 461Q212 461 236 436T261 376ZM252 -249Q252 -263 232 -263H125Q104 -263 104 -252V-250L105 -242L127 161Q128 174 131 177T148 181H208Q222 181 225 178T229 161L252 -242V-249Z"  />
<glyph unicode="&#xA2;" horiz-adv-x="537" d="M459 553Q459 551 459 550T456 544L419 475Q416 470 413 470Q411 470 407 472T384 486Q370 494 346 498V177Q362 179 373 182T403 195Q409 197 410 197Q415 197 417 192L445 122Q447 117 447 116T448 112Q448 106 440 100T417 88T384 78T346 71V19Q346 5 343 2T325 -1H307Q293 -1 290 2T286 19V69Q249 71 226 79T179 104Q133 138 110 195T86 327Q86 445 138 515T286 597V650Q286 664 289 667T307 671H325Q339 671 342 668T346 650V597Q368 595 388 590T424 579T449 566T459 553ZM286 501Q247 490 229 450T211 332Q211 260 229 223T286 175V501Z"  />
<glyph unicode="&#xA3;" horiz-adv-x="537" d="M530 98Q530 94 528 86L510 17Q506 0 488 0H53Q39 0 36 3T32 21V89Q32 103 35 106T53 110H123Q129 136 131 154T134 195Q134 218 132 239T121 293H42Q28 293 25 296T21 314V364Q21 378 24 381T42 385H103Q95 414 92 434T89 479Q89 524 105 561T150 624T222 664T316 678Q346 678 377 673T435 658T477 639T494 618Q494 614 491 608L458 546Q452 536 446 536Q443 536 439 537T422 545Q391 559 367 565T319 572Q268 572 240 545T211 469Q211 449 214 432T225 387H363Q376 387 379 384T383 366V314Q383 300 380 297T363 293H242Q250 264 253 243T257 195Q257 175 255 156T247 110H510Q530 110 530 98Z"  />
<glyph unicode="&#xA4;" horiz-adv-x="627" d="M544 175Q530 161 516 146T487 117Q470 134 453 150T418 184Q392 167 363 158T303 149Q277 149 247 156T187 184Q170 167 153 151T119 117Q104 131 90 146T61 175L130 241Q112 269 104 298T95 354Q95 381 103 410T130 467Q113 484 96 500T61 534Q75 548 89 563T119 592Q136 575 153 559T187 525Q216 545 246 552T303 560Q330 560 361 552T418 525Q435 542 452 558T487 592Q501 578 515 563T544 534Q527 517 510 501T475 467Q495 438 502 409T510 354Q510 328 502 299T475 241L544 175ZM428 355Q428 382 418 404T390 443T350 469T303 479Q276 479 253 469T213 442T187 403T177 355Q177 329 187 307T214 267T254 240T303 230Q329 230 351 240T391 267T418 306T428 355Z"  />
<glyph unicode="&#xA5;" horiz-adv-x="537" d="M339 298H495Q509 298 512 295T516 277V267Q516 253 513 250T495 246H331V21Q331 7 328 4T310 0H235Q221 0 218 3T214 21V246H43Q29 246 26 249T22 267V277Q22 291 25 294T43 298H206L180 349H43Q29 349 26 352T22 370V380Q22 394 25 397T43 401H155L32 650Q30 655 29 658T28 664Q28 669 31 672T46 677L136 694L147 695Q156 695 161 680L228 510Q236 490 241 478T250 452T261 419T277 366Q284 393 290 412T301 448T313 481T328 518L393 680Q397 690 399 693T407 696Q410 696 412 695L418 693L493 675Q511 671 511 663Q511 658 506 648L388 401H495Q509 401 512 398T516 380V370Q516 356 513 353T495 349H364L339 298Z"  />
<glyph unicode="&#xA6;" horiz-adv-x="366" d="M129 328V686H237V328H129ZM129 -171V158H237V-171H129Z"  />
<glyph unicode="&#xA7;" horiz-adv-x="537" d="M470 226Q470 131 370 81Q411 58 429 29T448 -43Q448 -78 434 -108T394 -162T334 -198T262 -212Q233 -212 200 -205T137 -188T89 -165T70 -141Q70 -139 70 -136T73 -130L104 -69Q109 -61 113 -61Q119 -61 124 -65Q202 -115 265 -115Q292 -115 308 -101T324 -63Q324 -51 320 -42T304 -23T271 -2T217 25Q192 37 175 46T145 63T123 78T104 94Q67 129 67 192Q67 246 92 281T172 339Q131 362 114 389T96 456Q96 490 109 518T147 568T206 600T280 612Q360 612 425 570Q439 562 439 552Q439 546 435 541L406 485Q402 478 395 478Q390 478 383 482Q364 492 350 499T323 510T301 515T278 517Q248 517 230 505T212 473Q212 464 213 458T225 445T259 425T324 392Q349 380 366 370T396 352T418 337T435 320Q470 282 470 226ZM347 211Q347 222 344 231T331 249T305 268T264 292Q224 271 207 252T189 209Q189 198 193 189T207 170T235 151T280 128Q316 149 331 168T347 211Z"  />
<glyph unicode="&#xA8;" horiz-adv-x="500" d="M407 637Q407 608 387 588T338 568Q309 568 289 588T269 637Q269 666 289 686T339 706Q367 706 387 686T407 637ZM230 637Q230 608 210 588T161 568Q132 568 112 588T92 637Q92 666 112 686T162 706Q190 706 210 686T230 637Z"  />
<glyph unicode="&#xA9;" horiz-adv-x="739" d="M705 343Q705 269 679 205T607 92T500 15T370 -13Q301 -13 240 15T133 91T61 204T34 342Q34 417 60 482T133 595T241 671T374 699Q442 699 502 671T607 594T678 481T705 343ZM623 342Q623 403 603 456T549 548T468 610T367 633Q316 633 270 610T190 548T136 456T116 343Q116 283 136 230T190 138T271 76T370 53Q422 53 468 76T548 138T603 229T623 342ZM496 174Q496 165 486 157T460 142T424 131T384 127Q300 127 257 183T214 349Q214 448 258 503T380 559Q398 559 418 554T455 542T484 525T495 508Q495 504 492 500L466 457Q461 449 454 449Q450 449 447 451T431 461Q408 478 384 478Q318 478 318 360Q318 282 336 245T393 208Q408 208 417 211T446 228Q450 232 456 232Q462 232 468 223L493 183Q496 177 496 174Z"  />
<glyph unicode="&#xAA;" horiz-adv-x="296" d="M276 452Q276 445 267 442L218 423Q212 421 209 421Q203 421 198 427T188 451Q168 434 151 428T110 422Q64 422 37 447T10 515Q10 570 47 594T174 621V634Q174 657 167 665T136 674Q128 674 123 674T110 672T92 667T65 659Q59 657 56 657Q48 657 45 665L32 701L31 709Q31 715 41 721T67 731T104 739T148 742Q206 742 233 718T260 642V522Q260 503 263 491T274 461Q276 453 276 452ZM174 576Q133 576 115 564T97 522Q97 505 106 495T132 484Q154 484 174 504V576Z"  />
<glyph unicode="&#xAB;" horiz-adv-x="593" d="M531 447Q531 444 530 441T524 431L404 244L524 62Q530 53 530 47Q530 42 517 33L468 2Q460 -3 459 -3T454 -4Q450 -4 448 -2T440 8L270 236Q264 243 264 250Q264 256 270 264L440 486Q445 493 447 495T453 497Q459 497 468 491L518 460Q526 455 528 453T531 447ZM301 47Q301 42 288 33L239 2Q231 -3 230 -3T225 -4Q221 -4 219 -2T211 8L41 236Q35 243 35 250Q35 256 41 264L211 486Q216 493 218 495T224 497Q230 497 239 491L289 460Q301 452 301 447Q301 440 295 431L175 244L295 62Q301 51 301 47Z"  />
<glyph unicode="&#xAC;" horiz-adv-x="500" d="M43 366Q30 366 26 370T22 387V449Q22 463 25 466T43 470H457Q471 470 474 467T478 449V220Q478 206 475 203T457 199H390Q377 199 374 202T370 220V366H43Z"  />
<glyph unicode="&#xAD;" horiz-adv-x="370" d="M39 295Q39 309 42 312T60 315H310Q324 315 327 312T331 295V216Q331 202 328 199T310 196H60Q46 196 43 199T39 216V295Z"  />
<glyph unicode="&#xAE;" horiz-adv-x="443" d="M423 564Q423 520 407 481T364 413T301 367T222 350Q180 350 144 367T80 413T36 480T20 563Q20 608 36 647T79 715T144 760T224 777Q265 777 301 760T364 714T407 646T423 564ZM374 563Q374 600 362 632T329 687T280 724T220 738Q189 738 162 724T115 687T82 632T70 564Q70 528 82 497T114 441T162 404T222 390Q253 390 280 403T329 440T362 495T374 563ZM316 458Q316 453 307 450L276 442Q273 441 271 441Q264 441 262 447L211 542H196V458Q196 447 184 447H151Q144 447 142 449T140 459V676Q140 687 151 687H211Q259 687 280 670T301 616Q301 570 261 549L314 465Q316 461 316 458ZM244 617Q244 633 237 638T207 644H196V585H203Q226 585 235 592T244 617Z"  />
<glyph unicode="&#xAF;" horiz-adv-x="500" d="M352 681Q366 681 369 678T372 660V615Q372 601 369 598T352 595H148Q134 595 131 598T127 615V660Q127 674 130 677T148 681H352Z"  />
<glyph unicode="&#xB0;" horiz-adv-x="537" d="M426 545Q426 512 414 484T380 434T330 401T268 388Q236 388 208 400T158 434T124 483T111 545Q111 578 123 607T157 657T208 690T271 703Q302 703 330 691T380 657T413 607T426 545ZM343 545Q343 577 322 598T268 620Q237 620 216 598T194 545Q194 513 215 492T268 470Q300 470 321 491T343 545Z"  />
<glyph unicode="&#xB1;" horiz-adv-x="500" d="M478 302Q478 289 475 286T457 282H304V176Q304 162 301 159T283 155H216Q203 155 200 158T196 176V282H43Q29 282 26 285T22 302V365Q22 379 25 382T43 386H196V541Q196 555 199 558T216 562H283Q297 562 300 559T304 541V386H457Q471 386 474 383T478 365V302ZM478 35Q478 21 475 18T457 14H43Q29 14 26 17T22 35V98Q22 111 25 114T43 118H457Q471 118 474 115T478 98V35Z"  />
<glyph unicode="&#xB2;" horiz-adv-x="370" d="M324 726Q324 705 320 688T304 654T273 620T223 582Q184 555 170 539T155 510V508H301Q313 508 316 505T320 491V450Q320 439 317 436T301 432H67Q53 432 53 445V450Q53 485 58 508T75 551Q82 563 90 572T110 592T138 615T179 644Q207 664 221 682T236 724Q236 745 224 756T188 768Q167 768 154 758T127 721Q125 716 121 712T111 708Q110 708 104 710L59 726Q51 729 51 739Q51 752 61 772T86 805Q106 822 132 833T194 844Q257 844 290 814T324 726Z"  />
<glyph unicode="&#xB3;" horiz-adv-x="370" d="M317 547Q317 517 304 494T270 454T220 430T163 422Q136 422 109 426T58 442Q35 452 35 460Q35 465 36 467L49 510Q52 518 61 518Q63 518 65 518T73 516Q99 505 118 500T156 494Q223 494 223 552Q223 607 146 607H127Q115 607 112 609T108 624V662Q108 673 111 675T127 678H147Q178 678 195 690T213 729Q213 749 200 760T164 772Q135 772 111 744Q104 736 98 736Q94 736 87 741L54 767Q48 771 48 778Q48 781 50 786T60 799Q82 821 108 832T169 844Q229 844 265 814T302 735Q302 706 288 685T250 648H249Q281 634 299 609T317 547Z"  />
<glyph unicode="&#xB4;" horiz-adv-x="500" d="M439 657Q439 648 424 643L247 573Q243 572 239 571T233 570Q229 570 227 573T220 584L204 616Q199 625 199 630Q199 635 212 643L375 740Q383 745 385 745T389 746Q393 746 396 743T403 732L434 671Q439 661 439 657Z"  />
<glyph unicode="&#xB5;" horiz-adv-x="537" d="M485 15Q485 10 475 7L391 -12Q385 -14 384 -14T380 -14Q363 -14 350 41Q302 -17 245 -17Q234 -17 223 -15T192 -6V-172Q192 -183 190 -185T177 -190L84 -210L74 -211Q65 -211 65 -195V471Q65 482 67 484T80 489L173 509Q175 510 177 510T181 510Q192 510 192 494V184Q192 153 194 137T201 111Q208 98 222 91T253 84Q293 84 336 120V471Q336 482 338 484T351 489L444 509L454 510Q463 510 463 494V126Q463 89 467 68T482 24Q485 19 485 15Z"  />
<glyph unicode="&#xB6;" horiz-adv-x="667" d="M624 617Q624 603 621 600T604 596H548V-165Q548 -178 544 -182T527 -187H466Q454 -187 450 -183T446 -166V596H379V-165Q379 -179 376 -182T358 -186H297Q283 -186 280 -183T277 -165V161Q257 157 245 156T217 154Q169 154 129 171T59 219Q-1 285 -1 419Q-1 602 108 660Q123 668 138 673T171 681T214 685T271 686H604Q618 686 621 683T624 665V617ZM277 596Q233 596 204 588T156 561T131 511T123 433Q123 332 149 289T238 246Q248 246 256 247T277 251V596Z"  />
<glyph unicode="&#xB7;" horiz-adv-x="296" d="M220 334Q220 305 199 284T149 263Q119 263 98 284T76 334Q76 365 97 385T148 406Q177 406 198 385T220 334Z"  />
<glyph unicode="&#xB8;" horiz-adv-x="500" d="M342 -128Q342 -168 313 -192T233 -216Q201 -216 180 -211T159 -198L160 -189L169 -147Q171 -143 174 -143Q177 -143 179 -144Q197 -150 217 -150Q247 -150 247 -127Q247 -104 208 -104Q194 -104 190 -102T186 -92V-86L195 0H274L270 -55Q342 -63 342 -128Z"  />
<glyph unicode="&#xB9;" horiz-adv-x="370" d="M153 729L93 699Q85 695 81 695Q77 695 75 696T68 704L52 732Q48 739 48 743Q48 745 49 747T57 754L181 833H227Q239 833 242 831T246 816V497H287Q301 497 303 495T306 479V450Q306 437 304 435T287 432H97Q85 432 82 435T78 450V479Q78 490 81 493T97 497H153V729Z"  />
<glyph unicode="&#xBA;" horiz-adv-x="333" d="M309 583Q309 508 271 465T167 422Q99 422 62 464T24 583Q24 658 62 700T170 743Q234 743 271 701T309 583ZM213 581Q213 632 203 653T166 674Q141 674 131 653T120 582Q120 533 130 512T167 491Q191 491 202 512T213 581Z"  />
<glyph unicode="&#xBB;" horiz-adv-x="593" d="M558 250Q558 247 557 244T552 236L382 8Q377 0 374 -2T368 -4Q365 -4 364 -4T354 2L304 33Q296 38 294 40T291 48Q291 50 292 52T298 62L418 244L298 431Q291 442 291 446Q291 452 304 460L354 491Q363 497 368 497Q372 497 374 495T382 486L552 264Q558 257 558 250ZM328 250Q328 243 323 236L153 8Q148 0 145 -2T139 -4Q136 -4 134 -4T124 2L75 33Q67 38 65 40T62 48Q62 50 63 52T69 62L189 244L69 431Q62 442 62 447Q62 452 75 460L124 491Q133 497 139 497Q142 497 145 495T153 486L323 264Q328 257 328 250Z"  />
<glyph unicode="&#xBC;" horiz-adv-x="871" d="M828 94Q828 83 824 80T809 77H778V7Q778 -4 775 -7T759 -11H706Q695 -11 691 -8T687 7V77H536Q524 77 521 80T517 94V157L677 401Q684 411 690 411Q695 411 701 408L739 394Q753 389 753 381Q753 378 753 377T748 369L604 147H689L697 236Q698 246 701 249T716 252H759Q770 252 774 249T778 234V145H809Q821 145 824 142T828 127V94ZM603 664Q603 661 602 660T599 652L318 -22Q310 -40 295 -40H244Q223 -40 223 -29Q223 -26 223 -24T227 -15L509 662Q516 677 532 677H583Q603 677 603 664ZM294 286Q294 275 291 272T275 268H88Q77 268 73 271T69 286V316Q69 327 73 330T88 333H143V564L91 538Q83 534 79 534Q73 534 66 544L50 570Q45 576 45 582Q45 588 55 594L170 669H216Q227 669 231 666T235 651V333H275Q287 333 290 330T294 316V286Z"  />
<glyph unicode="&#xBD;" horiz-adv-x="871" d="M809 294Q809 235 770 197Q762 189 757 185T744 174T722 158T685 132Q643 102 642 76H786Q797 76 801 73T805 59V17Q805 6 801 3T786 0H555Q541 0 541 14V18Q541 55 545 76T562 117Q569 129 576 138T595 158T623 181T666 212Q697 234 709 251T721 291Q721 335 674 335Q652 335 640 326T614 288Q608 276 600 276Q597 276 595 276T585 280L550 292Q538 296 538 306Q538 316 549 336T574 371Q614 411 681 411Q741 411 775 380T809 294ZM596 664Q596 659 593 652L312 -22Q304 -40 288 -40H237Q217 -40 217 -29Q217 -24 221 -15L503 662Q510 677 525 677H577Q596 677 596 664ZM291 286Q291 275 288 272T272 268H85Q74 268 70 271T66 286V316Q66 327 70 330T85 333H140V564L88 538Q80 534 76 534Q70 534 63 544L47 570Q42 576 42 582Q42 588 52 594L167 669H213Q224 669 228 666T232 651V333H272Q284 333 287 330T291 316V286Z"  />
<glyph unicode="&#xBE;" horiz-adv-x="871" d="M836 94Q836 83 832 80T817 77H786V7Q786 -4 783 -7T767 -11H714Q703 -11 699 -8T695 7V77H544Q532 77 529 80T525 94V157L685 401Q692 411 698 411Q703 411 709 408L747 394Q761 389 761 381Q761 378 761 377T756 369L612 147H697L705 236Q706 246 709 249T724 252H767Q778 252 782 249T786 234V145H817Q829 145 832 142T836 127V94ZM618 665Q618 661 615 652L334 -22Q326 -40 310 -40H259Q239 -40 239 -29Q239 -23 242 -15L524 662Q531 677 547 677H598Q618 677 618 665ZM314 383Q314 327 272 292T161 257Q140 257 118 260T77 269T46 281T34 294Q34 296 34 297T37 306L49 344Q52 354 60 354Q63 354 66 353T83 346Q122 330 154 330Q220 330 220 387Q220 415 203 427T145 440H126Q115 440 111 443T107 458V497Q107 508 111 511T126 514H146Q210 514 210 564Q210 584 198 595T163 607Q148 607 136 601T109 579Q102 571 97 571Q92 571 87 575L53 603Q47 609 47 614Q47 622 62 637Q104 679 167 679Q227 679 263 649T299 569Q299 540 288 521T248 483Q283 467 298 444T314 383Z"  />
<glyph unicode="&#xBF;" horiz-adv-x="500" d="M361 387Q361 370 355 355T337 328T310 310T276 303Q241 303 217 328T192 388Q192 423 217 447T278 472Q295 472 310 466T336 448T354 421T361 387ZM441 -204Q441 -213 423 -223T377 -242T316 -257T255 -263Q211 -263 175 -250T112 -212T72 -153T58 -76Q58 -6 96 36T223 107V175Q223 189 226 192T243 196H314Q328 196 331 193T335 175V50Q335 39 331 35T312 27Q182 -3 182 -77Q182 -112 206 -130T276 -149Q323 -149 386 -121Q395 -117 398 -116T403 -115Q410 -115 413 -125L439 -193Q441 -201 441 -204Z"  />
<glyph unicode="&#xC0;" horiz-adv-x="556" d="M335 804Q335 802 335 801T331 791L318 758Q313 747 311 745T303 742Q301 742 300 742T291 745L103 799Q86 804 86 812Q86 814 86 816T90 825L117 888Q124 904 130 904Q133 904 135 904T145 899L320 818Q329 813 332 811T335 804ZM552 11Q552 0 532 0H423Q410 0 407 2T400 17L357 181H188L145 17Q142 5 139 3T123 0H24Q4 0 4 11Q4 14 4 16T7 24L204 669Q208 681 211 683T226 686H330Q342 686 345 684T352 669L549 24Q552 13 552 11ZM294 446Q291 461 289 473T283 500T277 533T269 581Q266 559 263 543T258 512T252 482T243 446L203 275H331L294 446Z"  />
<glyph unicode="&#xC1;" horiz-adv-x="556" d="M470 812Q470 804 453 799L265 745Q257 743 256 743T252 742Q247 742 245 744T238 758L225 791Q221 799 221 804Q221 808 224 810T236 818L411 899Q419 903 421 903T426 904Q430 904 432 901T439 888L466 825Q470 814 470 812ZM552 11Q552 0 532 0H423Q410 0 407 2T400 17L357 181H188L145 17Q142 5 139 3T123 0H24Q4 0 4 11Q4 14 4 16T7 24L204 669Q208 681 211 683T226 686H330Q342 686 345 684T352 669L549 24Q552 13 552 11ZM294 446Q291 461 289 473T283 500T277 533T269 581Q266 559 263 543T258 512T252 482T243 446L203 275H331L294 446Z"  />
<glyph unicode="&#xC2;" horiz-adv-x="556" d="M427 793Q427 789 421 779L401 748Q393 736 387 736Q384 736 382 736T372 741L278 784L183 741Q173 736 167 736Q161 736 154 748L135 779Q129 789 129 794Q129 800 140 808L264 892Q270 896 279 896Q287 896 293 892L418 805Q427 800 427 793ZM552 11Q552 0 532 0H423Q410 0 407 2T400 17L357 181H188L145 17Q142 5 139 3T123 0H24Q4 0 4 11Q4 14 4 16T7 24L204 669Q208 681 211 683T226 686H330Q342 686 345 684T352 669L549 24Q552 13 552 11ZM294 446Q291 461 289 473T283 500T277 533T269 581Q266 559 263 543T258 512T252 482T243 446L203 275H331L294 446Z"  />
<glyph unicode="&#xC3;" horiz-adv-x="556" d="M437 853Q437 849 432 838T416 813Q396 783 376 771T328 759Q311 759 297 764T260 785Q249 792 243 794T230 796Q209 796 192 767Q188 758 183 758Q181 758 180 758T174 762L126 785Q118 789 118 794Q118 799 125 812T141 838Q160 866 178 877T224 888Q241 888 257 883T297 864Q310 856 316 854T330 852Q340 852 347 858T366 883Q368 888 374 888Q376 888 377 888T382 885L429 862Q437 859 437 853ZM552 11Q552 0 532 0H423Q410 0 407 2T400 17L357 181H188L145 17Q142 5 139 3T123 0H24Q4 0 4 11Q4 14 4 16T7 24L204 669Q208 681 211 683T226 686H330Q342 686 345 684T352 669L549 24Q552 13 552 11ZM294 446Q291 461 289 473T283 500T277 533T269 581Q266 559 263 543T258 512T252 482T243 446L203 275H331L294 446Z"  />
<glyph unicode="&#xC4;" horiz-adv-x="556" d="M441 821Q441 791 420 770T370 749Q340 749 319 770T298 821Q298 850 319 871T371 892Q400 892 420 871T441 821ZM552 11Q552 0 532 0H423Q410 0 407 2T400 17L357 181H188L145 17Q142 5 139 3T123 0H24Q4 0 4 11Q4 14 4 16T7 24L204 669Q208 681 211 683T226 686H330Q342 686 345 684T352 669L549 24Q552 13 552 11ZM294 446Q291 461 289 473T283 500T277 533T269 581Q266 559 263 543T258 512T252 482T243 446L203 275H331L294 446ZM258 821Q258 791 237 770T187 749Q157 749 136 770T115 821Q115 850 136 871T188 892Q217 892 237 871T258 821Z"  />
<glyph unicode="&#xC5;" horiz-adv-x="556" d="M386 853Q386 831 378 812T354 777T320 754T278 745Q255 745 236 753T202 776T179 810T170 853Q170 875 178 895T201 929T236 952T279 961Q301 961 320 953T354 929T377 895T386 853ZM552 11Q552 0 532 0H423Q410 0 407 2T400 17L357 181H188L145 17Q142 5 139 3T123 0H24Q4 0 4 11Q4 14 4 16T7 24L204 669Q208 681 211 683T226 686H330Q342 686 345 684T352 669L549 24Q552 13 552 11ZM321 853Q321 872 309 884T277 897Q260 897 247 884T234 853Q234 835 247 822T278 809Q295 809 308 822T321 853ZM294 446Q291 461 289 473T283 500T277 533T269 581Q266 559 263 543T258 512T252 482T243 446L203 275H331L294 446Z"  />
<glyph unicode="&#xC6;" horiz-adv-x="741" d="M719 674Q719 672 719 670T717 663L701 594Q699 584 695 581T679 577H480V413H652Q666 413 669 410T673 392V325Q673 311 670 308T652 304H480V109H695Q709 109 712 106T716 88V21Q716 7 713 4T695 0H368Q355 0 352 3T348 21V181H180L116 16Q112 7 108 4T93 0H-2Q-22 0 -22 12Q-22 14 -22 16T-18 25L258 671Q263 682 266 684T281 686H699Q719 686 719 674ZM349 623Q344 609 338 592T324 555Q319 543 315 533T308 515L294 482L209 275H348V483Q348 518 348 554T349 623Z"  />
<glyph unicode="&#xC7;" horiz-adv-x="480" d="M465 51Q465 37 437 20Q409 3 383 -5T324 -16L321 -57Q395 -65 395 -131Q395 -173 365 -197T283 -222Q248 -222 227 -217T206 -203Q206 -201 206 -201T208 -195L217 -152Q217 -148 222 -148Q225 -148 227 -149Q249 -154 266 -154Q297 -154 297 -131Q297 -108 256 -107Q242 -107 238 -105T234 -97Q234 -93 235 -89L242 -12Q168 5 127 50Q85 97 63 174T40 354Q40 446 59 511T119 624Q151 662 195 682T291 703Q331 703 369 690T442 652Q463 637 463 627Q463 624 461 620L425 546Q420 537 415 537Q411 537 407 539T383 556Q339 587 299 587Q184 587 184 373Q184 223 223 150Q236 126 260 113T314 99Q340 99 361 107T409 136Q416 141 419 141Q423 141 427 134L462 60Q464 56 464 55T465 51Z"  />
<glyph unicode="&#xC8;" horiz-adv-x="482" d="M350 811Q350 809 350 808T346 798L333 765Q328 754 326 752T318 749Q316 749 315 749T306 752L118 806Q101 811 101 819Q101 821 101 823T105 832L132 895Q139 911 145 911Q148 911 150 911T160 906L335 825Q344 820 347 818T350 811ZM460 675Q460 672 458 662L438 594Q435 584 431 581T416 577H222V413H389Q403 413 406 410T410 392V325Q410 311 407 308T389 304H222V109H432Q446 109 449 106T453 88V21Q453 7 450 4T432 0H106Q92 0 89 3T85 21V665Q85 679 88 682T106 686H440Q460 686 460 675Z"  />
<glyph unicode="&#xC9;" horiz-adv-x="482" d="M430 819Q430 811 413 806L225 752Q217 750 216 750T212 749Q207 749 205 751T198 765L185 798Q181 806 181 811Q181 815 184 817T196 825L371 906Q379 910 381 910T386 911Q390 911 392 908T399 895L426 832Q430 821 430 819ZM460 675Q460 672 458 662L438 594Q435 584 431 581T416 577H222V413H389Q403 413 406 410T410 392V325Q410 311 407 308T389 304H222V109H432Q446 109 449 106T453 88V21Q453 7 450 4T432 0H106Q92 0 89 3T85 21V665Q85 679 88 682T106 686H440Q460 686 460 675Z"  />
<glyph unicode="&#xCA;" horiz-adv-x="482" d="M411 793Q411 789 405 779L385 748Q377 736 371 736Q368 736 366 736T356 741L262 784L167 741Q157 736 151 736Q145 736 138 748L119 779Q113 789 113 794Q113 800 124 808L248 892Q254 896 263 896Q271 896 277 892L402 805Q411 800 411 793ZM460 675Q460 672 458 662L438 594Q435 584 431 581T416 577H222V413H389Q403 413 406 410T410 392V325Q410 311 407 308T389 304H222V109H432Q446 109 449 106T453 88V21Q453 7 450 4T432 0H106Q92 0 89 3T85 21V665Q85 679 88 682T106 686H440Q460 686 460 675Z"  />
<glyph unicode="&#xCB;" horiz-adv-x="482" d="M438 821Q438 791 417 770T367 749Q337 749 316 770T295 821Q295 850 316 871T368 892Q397 892 417 871T438 821ZM460 675Q460 672 458 662L438 594Q435 584 431 581T416 577H222V413H389Q403 413 406 410T410 392V325Q410 311 407 308T389 304H222V109H432Q446 109 449 106T453 88V21Q453 7 450 4T432 0H106Q92 0 89 3T85 21V665Q85 679 88 682T106 686H440Q460 686 460 675ZM255 821Q255 791 234 770T184 749Q154 749 133 770T112 821Q112 850 133 871T185 892Q214 892 234 871T255 821Z"  />
<glyph unicode="&#xCC;" horiz-adv-x="352" d="M233 804Q233 802 233 801T229 791L216 758Q211 747 209 745T201 742Q199 742 198 742T189 745L1 799Q-16 804 -16 812Q-16 814 -16 816T-12 825L15 888Q22 904 28 904Q31 904 33 904T43 899L218 818Q227 813 230 811T233 804ZM320 21Q320 7 317 4T299 0H54Q40 0 37 3T33 21V78Q33 92 36 95T54 99H108V587H54Q40 587 37 590T33 608V665Q33 679 36 682T54 686H299Q313 686 316 683T320 665V608Q320 594 317 591T299 587H245V99H299Q313 99 316 96T320 78V21Z"  />
<glyph unicode="&#xCD;" horiz-adv-x="352" d="M368 812Q368 804 351 799L163 745Q155 743 154 743T150 742Q145 742 143 744T136 758L123 791Q119 799 119 804Q119 808 122 810T134 818L309 899Q317 903 319 903T324 904Q328 904 330 901T337 888L364 825Q368 814 368 812ZM320 21Q320 7 317 4T299 0H54Q40 0 37 3T33 21V78Q33 92 36 95T54 99H108V587H54Q40 587 37 590T33 608V665Q33 679 36 682T54 686H299Q313 686 316 683T320 665V608Q320 594 317 591T299 587H245V99H299Q313 99 316 96T320 78V21Z"  />
<glyph unicode="&#xCE;" horiz-adv-x="352" d="M325 793Q325 789 319 779L299 748Q291 736 285 736Q282 736 280 736T270 741L176 784L81 741Q71 736 65 736Q59 736 52 748L33 779Q27 789 27 794Q27 800 38 808L162 892Q168 896 177 896Q185 896 191 892L316 805Q325 800 325 793ZM320 21Q320 7 317 4T299 0H54Q40 0 37 3T33 21V78Q33 92 36 95T54 99H108V587H54Q40 587 37 590T33 608V665Q33 679 36 682T54 686H299Q313 686 316 683T320 665V608Q320 594 317 591T299 587H245V99H299Q313 99 316 96T320 78V21Z"  />
<glyph unicode="&#xCF;" horiz-adv-x="352" d="M339 821Q339 791 318 770T268 749Q238 749 217 770T196 821Q196 850 217 871T269 892Q298 892 318 871T339 821ZM320 21Q320 7 317 4T299 0H54Q40 0 37 3T33 21V78Q33 92 36 95T54 99H108V587H54Q40 587 37 590T33 608V665Q33 679 36 682T54 686H299Q313 686 316 683T320 665V608Q320 594 317 591T299 587H245V99H299Q313 99 316 96T320 78V21ZM156 821Q156 791 135 770T85 749Q55 749 34 770T13 821Q13 850 34 871T86 892Q115 892 135 871T156 821Z"  />
<glyph unicode="&#xD0;" horiz-adv-x="593" d="M553 343Q553 89 426 25Q411 17 397 12T365 5T323 1T262 0H104Q91 0 88 3T84 21V312H35Q21 312 18 315T14 333V380Q14 394 17 397T35 401H84V665Q84 679 87 682T104 686H262Q287 686 303 686T330 685T349 683T367 680Q462 662 507 580T553 343ZM416 335Q416 384 413 420T401 483T381 528T350 557Q341 563 332 567T313 573T289 576T256 577H221V401H321Q335 401 338 398T342 380V333Q342 319 339 316T321 312H221V109H256Q299 109 323 115T365 135Q392 157 404 204T416 335Z"  />
<glyph unicode="&#xD1;" horiz-adv-x="611" d="M478 853Q478 849 473 838T457 813Q437 783 417 771T369 759Q352 759 338 764T301 785Q290 792 284 794T271 796Q250 796 233 767Q229 758 224 758Q222 758 221 758T215 762L167 785Q159 789 159 794Q159 799 166 812T182 838Q201 866 219 877T265 888Q282 888 298 883T338 864Q351 856 357 854T371 852Q381 852 388 858T407 883Q409 888 415 888Q417 888 418 888T423 885L470 862Q478 859 478 853ZM538 21Q538 7 535 4T517 0H453Q439 0 435 3T423 19L251 343Q239 366 230 384T213 419T200 451T187 485Q188 459 188 444T189 418T190 394T190 363V21Q190 7 187 4T169 0H94Q80 0 77 3T73 21V665Q73 679 76 682T94 686H172Q186 686 190 684T201 669L359 375Q377 342 393 301T423 221Q422 249 422 267T421 298T421 322T421 347V665Q421 679 424 682T442 686H517Q531 686 534 683T538 665V21Z"  />
<glyph unicode="&#xD2;" horiz-adv-x="574" d="M345 804Q345 802 345 801T341 791L328 758Q323 747 321 745T313 742Q311 742 310 742T301 745L113 799Q96 804 96 812Q96 814 96 816T100 825L127 888Q134 904 140 904Q143 904 145 904T155 899L330 818Q339 813 342 811T345 804ZM535 351Q535 -17 284 -17Q40 -17 40 346Q40 456 61 526T128 641Q193 703 292 703Q342 703 387 684T461 632Q535 548 535 351ZM391 340Q391 472 366 533T286 595Q236 595 210 531T184 342Q184 91 287 91Q391 91 391 340Z"  />
<glyph unicode="&#xD3;" horiz-adv-x="574" d="M479 812Q479 804 462 799L274 745Q266 743 265 743T261 742Q256 742 254 744T247 758L234 791Q230 799 230 804Q230 808 233 810T245 818L420 899Q428 903 430 903T435 904Q439 904 441 901T448 888L475 825Q479 814 479 812ZM535 351Q535 -17 284 -17Q40 -17 40 346Q40 456 61 526T128 641Q193 703 292 703Q342 703 387 684T461 632Q535 548 535 351ZM391 340Q391 472 366 533T286 595Q236 595 210 531T184 342Q184 91 287 91Q391 91 391 340Z"  />
<glyph unicode="&#xD4;" horiz-adv-x="574" d="M437 793Q437 789 431 779L411 748Q403 736 397 736Q394 736 392 736T382 741L288 784L193 741Q183 736 177 736Q171 736 164 748L145 779Q139 789 139 794Q139 800 150 808L274 892Q280 896 289 896Q297 896 303 892L428 805Q437 800 437 793ZM535 351Q535 -17 284 -17Q40 -17 40 346Q40 456 61 526T128 641Q193 703 292 703Q342 703 387 684T461 632Q535 548 535 351ZM391 340Q391 472 366 533T286 595Q236 595 210 531T184 342Q184 91 287 91Q391 91 391 340Z"  />
<glyph unicode="&#xD5;" horiz-adv-x="574" d="M447 853Q447 849 442 838T426 813Q406 783 386 771T338 759Q321 759 307 764T270 785Q259 792 253 794T240 796Q219 796 202 767Q198 758 193 758Q191 758 190 758T184 762L136 785Q128 789 128 794Q128 799 135 812T151 838Q170 866 188 877T234 888Q251 888 267 883T307 864Q320 856 326 854T340 852Q350 852 357 858T376 883Q378 888 384 888Q386 888 387 888T392 885L439 862Q447 859 447 853ZM535 351Q535 -17 284 -17Q40 -17 40 346Q40 456 61 526T128 641Q193 703 292 703Q342 703 387 684T461 632Q535 548 535 351ZM391 340Q391 472 366 533T286 595Q236 595 210 531T184 342Q184 91 287 91Q391 91 391 340Z"  />
<glyph unicode="&#xD6;" horiz-adv-x="574" d="M450 821Q450 791 429 770T379 749Q349 749 328 770T307 821Q307 850 328 871T380 892Q409 892 429 871T450 821ZM535 351Q535 -17 284 -17Q40 -17 40 346Q40 456 61 526T128 641Q193 703 292 703Q342 703 387 684T461 632Q535 548 535 351ZM391 340Q391 472 366 533T286 595Q236 595 210 531T184 342Q184 91 287 91Q391 91 391 340ZM267 821Q267 791 246 770T196 749Q166 749 145 770T124 821Q124 850 145 871T197 892Q226 892 246 871T267 821Z"  />
<glyph unicode="&#xD7;" horiz-adv-x="500" d="M444 212Q444 206 435 197L388 150Q378 141 373 141Q367 141 359 150L249 262L141 152Q134 145 132 144T127 142Q121 142 112 151L67 196Q58 205 58 211Q58 217 66 225L178 333L66 443Q56 452 56 457Q56 463 65 472L112 519Q119 525 121 526T127 528Q133 528 141 519L251 407L359 518Q365 524 367 525T373 527Q377 527 380 526T388 518L433 473Q442 464 442 459Q442 452 434 444L322 336L434 226Q444 217 444 212Z"  />
<glyph unicode="&#xD8;" horiz-adv-x="574" d="M534 342Q534 -17 285 -17Q244 -17 212 -9T151 20L110 -57Q105 -66 103 -68T97 -71Q93 -71 92 -71T82 -66L51 -50Q37 -43 37 -36Q37 -31 42 -22L96 80Q81 105 70 133T53 192T43 261T39 342Q39 394 43 436T57 513T82 576T119 630Q183 703 285 703Q320 703 349 696T408 673L439 732Q446 746 453 746Q455 746 457 746T467 741L498 725Q512 718 512 712Q512 705 507 697L468 622Q503 572 518 506T534 342ZM353 569Q326 600 285 600Q228 600 198 534T168 341Q168 306 170 275T178 198L353 569ZM405 345Q405 383 403 421T394 504L215 124Q231 104 248 95T288 86Q405 86 405 345Z"  />
<glyph unicode="&#xD9;" horiz-adv-x="611" d="M363 804Q363 802 363 801T359 791L346 758Q341 747 339 745T331 742Q329 742 328 742T319 745L131 799Q114 804 114 812Q114 814 114 816T118 825L145 888Q152 904 158 904Q161 904 163 904T173 899L348 818Q357 813 360 811T363 804ZM548 232Q548 166 536 127T493 56Q457 18 409 1T295 -17Q156 -17 100 70Q82 99 74 136T66 232V665Q66 679 69 682T87 686H182Q196 686 199 683T203 665V232Q203 207 204 191T207 162T213 142T223 126Q249 91 305 91Q365 91 390 123T416 230V665Q416 679 419 682T437 686H527Q541 686 544 683T548 665V232Z"  />
<glyph unicode="&#xDA;" horiz-adv-x="611" d="M498 812Q498 804 481 799L293 745Q285 743 284 743T280 742Q275 742 273 744T266 758L253 791Q249 799 249 804Q249 808 252 810T264 818L439 899Q447 903 449 903T454 904Q458 904 460 901T467 888L494 825Q498 814 498 812ZM548 232Q548 166 536 127T493 56Q457 18 409 1T295 -17Q156 -17 100 70Q82 99 74 136T66 232V665Q66 679 69 682T87 686H182Q196 686 199 683T203 665V232Q203 207 204 191T207 162T213 142T223 126Q249 91 305 91Q365 91 390 123T416 230V665Q416 679 419 682T437 686H527Q541 686 544 683T548 665V232Z"  />
<glyph unicode="&#xDB;" horiz-adv-x="611" d="M455 793Q455 789 449 779L429 748Q421 736 415 736Q412 736 410 736T400 741L306 784L211 741Q201 736 195 736Q189 736 182 748L163 779Q157 789 157 794Q157 800 168 808L292 892Q298 896 307 896Q315 896 321 892L446 805Q455 800 455 793ZM548 232Q548 166 536 127T493 56Q457 18 409 1T295 -17Q156 -17 100 70Q82 99 74 136T66 232V665Q66 679 69 682T87 686H182Q196 686 199 683T203 665V232Q203 207 204 191T207 162T213 142T223 126Q249 91 305 91Q365 91 390 123T416 230V665Q416 679 419 682T437 686H527Q541 686 544 683T548 665V232Z"  />
<glyph unicode="&#xDC;" horiz-adv-x="611" d="M470 821Q470 791 449 770T399 749Q369 749 348 770T327 821Q327 850 348 871T400 892Q429 892 449 871T470 821ZM548 232Q548 166 536 127T493 56Q457 18 409 1T295 -17Q156 -17 100 70Q82 99 74 136T66 232V665Q66 679 69 682T87 686H182Q196 686 199 683T203 665V232Q203 207 204 191T207 162T213 142T223 126Q249 91 305 91Q365 91 390 123T416 230V665Q416 679 419 682T437 686H527Q541 686 544 683T548 665V232ZM287 821Q287 791 266 770T216 749Q186 749 165 770T144 821Q144 850 165 871T217 892Q246 892 266 871T287 821Z"  />
<glyph unicode="&#xDD;" horiz-adv-x="482" d="M450 819Q450 811 433 806L245 752Q237 750 236 750T232 749Q227 749 225 751T218 765L205 798Q201 806 201 811Q201 815 204 817T216 825L391 906Q399 910 401 910T406 911Q410 911 412 908T419 895L446 832Q450 821 450 819ZM502 662Q502 657 497 648L313 281V21Q313 7 310 4T292 0H197Q183 0 180 3T176 21V282L-16 650Q-20 658 -20 659T-21 664Q-21 674 -2 677L102 694Q107 696 108 696T112 696Q117 696 119 694T127 681L207 511Q214 497 218 487T226 467T235 441T249 401Q260 438 270 465T293 518L371 682Q375 690 377 693T384 696Q388 696 391 695L396 694L485 675Q502 671 502 662Z"  />
<glyph unicode="&#xDE;" horiz-adv-x="519" d="M501 391Q501 340 485 299T439 229T367 183T273 167H222V21Q222 7 219 4T201 0H106Q92 0 89 3T85 21V665Q85 679 88 682T106 686H201Q215 686 218 683T222 665V580H268Q328 580 364 574T425 552Q461 530 481 488T501 391ZM369 384Q369 437 346 457T261 478H222V280H250Q316 280 342 303T369 384Z"  />
<glyph unicode="&#xDF;" horiz-adv-x="593" d="M566 147Q566 70 520 27T392 -16Q363 -16 329 -10T272 6Q263 10 261 13T258 21L259 31L276 96Q278 103 285 103Q290 103 297 99Q320 88 345 82T390 76Q419 76 434 91T450 134Q450 147 448 157T437 178T413 202T374 235Q355 250 343 260T322 278T307 292T296 306Q285 320 279 339T273 378Q273 393 276 406T285 432T303 459T332 491Q354 514 361 528T369 563Q369 627 290 627Q265 627 244 619T211 596Q206 589 203 582T197 565T195 541T194 506V17Q194 6 191 3T177 0H84Q73 0 70 3T67 17V495Q67 526 69 551T78 595T93 631T116 661Q177 725 291 725Q383 725 435 686T488 579Q488 561 485 547T473 518T451 487T415 450Q398 434 393 425T387 403Q387 394 388 388T397 374T421 352T468 314Q497 291 516 272T546 233T561 194T566 147Z"  />
<glyph unicode="&#xE0;" horiz-adv-x="482" d="M322 629Q322 623 317 616L302 584Q298 576 295 573T288 570Q286 570 282 571T275 573L98 643Q82 650 82 657Q82 661 87 671L118 732Q126 746 132 746Q134 746 136 746T146 740L309 643Q322 635 322 629ZM439 28Q439 21 431 18L353 -13Q348 -16 341 -16Q327 -16 311 43Q281 12 252 -1T183 -14Q114 -14 74 27T33 137Q33 268 182 298Q202 302 227 304T294 307V338Q294 381 280 397T228 413Q183 413 116 387Q110 384 105 384Q98 384 95 394L74 454Q72 460 72 465Q72 473 87 481T127 496T182 507T243 511Q364 511 399 434Q407 418 410 399T413 351V147Q413 114 418 90T436 39Q439 33 439 28ZM294 224Q219 224 187 206T154 144Q154 115 172 95T218 75Q258 75 294 114V224Z"  />
<glyph unicode="&#xE1;" horiz-adv-x="482" d="M404 657Q404 648 389 643L212 573Q208 572 204 571T198 570Q194 570 192 573T185 584L169 616Q164 625 164 630Q164 635 177 643L340 740Q348 745 350 745T354 746Q358 746 361 743T368 732L399 671Q404 661 404 657ZM439 28Q439 21 431 18L353 -13Q348 -16 341 -16Q327 -16 311 43Q281 12 252 -1T183 -14Q114 -14 74 27T33 137Q33 268 182 298Q202 302 227 304T294 307V338Q294 381 280 397T228 413Q183 413 116 387Q110 384 105 384Q98 384 95 394L74 454Q72 460 72 465Q72 473 87 481T127 496T182 507T243 511Q364 511 399 434Q407 418 410 399T413 351V147Q413 114 418 90T436 39Q439 33 439 28ZM294 224Q219 224 187 206T154 144Q154 115 172 95T218 75Q258 75 294 114V224Z"  />
<glyph unicode="&#xE2;" horiz-adv-x="482" d="M379 628Q379 625 373 615L354 583Q349 575 347 573T339 570Q336 570 326 576L241 626L155 576Q144 570 142 570Q137 570 135 572T127 583L109 615Q103 624 103 628Q103 632 105 635T114 643L227 732Q234 737 236 738T241 740Q244 740 246 739T256 732L368 643Q375 638 377 635T379 628ZM439 28Q439 21 431 18L353 -13Q348 -16 341 -16Q327 -16 311 43Q281 12 252 -1T183 -14Q114 -14 74 27T33 137Q33 268 182 298Q202 302 227 304T294 307V338Q294 381 280 397T228 413Q183 413 116 387Q110 384 105 384Q98 384 95 394L74 454Q72 460 72 465Q72 473 87 481T127 496T182 507T243 511Q364 511 399 434Q407 418 410 399T413 351V147Q413 114 418 90T436 39Q439 33 439 28ZM294 224Q219 224 187 206T154 144Q154 115 172 95T218 75Q258 75 294 114V224Z"  />
<glyph unicode="&#xE3;" horiz-adv-x="482" d="M396 675Q396 670 391 660T375 635Q355 606 336 594T290 581Q273 581 260 586T224 606Q214 613 208 615T194 617Q174 617 158 588Q153 580 149 580Q147 580 140 583L93 607Q86 611 86 616Q86 620 92 633T108 660Q126 687 144 698T189 709Q206 709 221 705T260 686Q272 679 278 677T292 674Q302 674 309 680T327 705Q329 710 334 710Q336 710 337 710T342 707L388 684Q396 681 396 675ZM439 28Q439 21 431 18L353 -13Q348 -16 341 -16Q327 -16 311 43Q281 12 252 -1T183 -14Q114 -14 74 27T33 137Q33 268 182 298Q202 302 227 304T294 307V338Q294 381 280 397T228 413Q183 413 116 387Q110 384 105 384Q98 384 95 394L74 454Q72 460 72 465Q72 473 87 481T127 496T182 507T243 511Q364 511 399 434Q407 418 410 399T413 351V147Q413 114 418 90T436 39Q439 33 439 28ZM294 224Q219 224 187 206T154 144Q154 115 172 95T218 75Q258 75 294 114V224Z"  />
<glyph unicode="&#xE4;" horiz-adv-x="482" d="M393 637Q393 608 373 588T324 568Q295 568 275 588T255 637Q255 666 275 686T325 706Q353 706 373 686T393 637ZM216 637Q216 608 196 588T147 568Q118 568 98 588T78 637Q78 666 98 686T148 706Q176 706 196 686T216 637ZM439 28Q439 21 431 18L353 -13Q348 -16 341 -16Q327 -16 311 43Q281 12 252 -1T183 -14Q114 -14 74 27T33 137Q33 268 182 298Q202 302 227 304T294 307V338Q294 381 280 397T228 413Q183 413 116 387Q110 384 105 384Q98 384 95 394L74 454Q72 460 72 465Q72 473 87 481T127 496T182 507T243 511Q364 511 399 434Q407 418 410 399T413 351V147Q413 114 418 90T436 39Q439 33 439 28ZM294 224Q219 224 187 206T154 144Q154 115 172 95T218 75Q258 75 294 114V224Z"  />
<glyph unicode="&#xE5;" horiz-adv-x="482" d="M340 669Q340 647 332 628T309 595T276 572T235 564Q214 564 195 572T162 594T139 628T131 669Q131 714 161 744T237 774Q258 774 276 766T309 743T332 710T340 669ZM439 28Q439 21 431 18L353 -13Q348 -16 341 -16Q327 -16 311 43Q281 12 252 -1T183 -14Q114 -14 74 27T33 137Q33 268 182 298Q202 302 227 304T294 307V338Q294 381 280 397T228 413Q183 413 116 387Q110 384 105 384Q98 384 95 394L74 454Q72 460 72 465Q72 473 87 481T127 496T182 507T243 511Q364 511 399 434Q407 418 410 399T413 351V147Q413 114 418 90T436 39Q439 33 439 28ZM277 669Q277 686 265 698T235 711Q218 711 206 699T193 668Q193 651 205 639T235 626Q252 626 264 638T277 669ZM294 224Q219 224 187 206T154 144Q154 115 172 95T218 75Q258 75 294 114V224Z"  />
<glyph unicode="&#xE6;" horiz-adv-x="722" d="M691 242Q691 225 687 219T672 213H407Q409 146 433 117T512 87Q527 87 539 88T564 93T592 103T627 118Q633 121 638 121Q645 121 648 112L673 52Q675 50 675 47T676 41Q676 32 659 22T617 3T561 -11T502 -17Q395 -17 339 49Q303 16 266 1T180 -14Q111 -14 72 25T33 135Q33 180 47 211T91 263T170 294T287 306V348Q287 413 226 413Q202 413 171 406T111 387Q105 384 100 384Q92 384 89 395L68 454Q66 459 66 460T66 464Q66 471 72 475T96 487Q125 498 160 504T226 511Q277 511 307 496T357 445Q408 511 499 511Q559 511 602 482T668 398Q679 372 685 329T691 242ZM559 306Q558 366 541 393T488 420Q440 420 421 375Q416 364 414 350T407 306H559ZM287 222Q249 222 230 220T197 211Q154 192 154 141Q154 112 170 94T211 75Q231 75 251 85T287 112V222Z"  />
<glyph unicode="&#xE7;" horiz-adv-x="407" d="M406 454Q406 447 403 443L368 379Q364 372 359 372Q354 372 349 376Q321 396 304 403T264 410Q213 410 189 370T165 242Q165 159 189 121T265 83Q305 83 347 112Q354 117 358 117Q362 117 366 110L390 49Q392 43 392 42T393 37Q393 22 356 5Q347 0 340 -3T324 -8T304 -12T276 -16L274 -55Q345 -64 345 -127Q345 -169 316 -192T236 -216Q204 -216 183 -211T162 -198Q162 -196 162 -195T164 -189L173 -147Q173 -143 177 -143Q180 -143 182 -144Q200 -150 220 -150Q250 -150 250 -127Q250 -106 211 -104Q197 -104 193 -102T189 -94V-92Q189 -89 190 -87L197 -12Q115 6 74 68T33 237Q33 301 49 351T95 437T167 492T264 511Q287 511 312 506T358 492T392 474T406 454Z"  />
<glyph unicode="&#xE8;" horiz-adv-x="481" d="M334 629Q334 623 329 616L314 584Q310 576 307 573T300 570Q298 570 294 571T287 573L110 643Q94 650 94 657Q94 661 99 671L130 732Q138 746 144 746Q146 746 148 746T158 740L321 643Q334 635 334 629ZM450 238Q450 223 446 218T428 213H159Q161 148 187 118T270 87Q325 87 384 118Q391 122 397 122Q403 122 408 113L433 53Q435 48 435 47T436 42Q436 34 428 28T395 11Q330 -17 257 -17Q162 -17 108 32Q72 65 53 119T33 243Q33 303 48 352T93 437T162 492T252 511Q450 511 450 238ZM317 306Q315 368 299 394T244 420Q206 420 187 394T161 306H317Z"  />
<glyph unicode="&#xE9;" horiz-adv-x="481" d="M430 657Q430 648 415 643L238 573Q234 572 230 571T224 570Q220 570 218 573T211 584L195 616Q190 625 190 630Q190 635 203 643L366 740Q374 745 376 745T380 746Q384 746 387 743T394 732L425 671Q430 661 430 657ZM450 238Q450 223 446 218T428 213H159Q161 148 187 118T270 87Q325 87 384 118Q391 122 397 122Q403 122 408 113L433 53Q435 48 435 47T436 42Q436 34 428 28T395 11Q330 -17 257 -17Q162 -17 108 32Q72 65 53 119T33 243Q33 303 48 352T93 437T162 492T252 511Q450 511 450 238ZM317 306Q315 368 299 394T244 420Q206 420 187 394T161 306H317Z"  />
<glyph unicode="&#xEA;" horiz-adv-x="481" d="M392 628Q392 625 386 615L367 583Q362 575 360 573T352 570Q349 570 339 576L254 626L168 576Q157 570 155 570Q150 570 148 572T140 583L122 615Q116 624 116 628Q116 632 118 635T127 643L240 732Q247 737 249 738T254 740Q257 740 259 739T269 732L381 643Q388 638 390 635T392 628ZM450 238Q450 223 446 218T428 213H159Q161 148 187 118T270 87Q325 87 384 118Q391 122 397 122Q403 122 408 113L433 53Q435 48 435 47T436 42Q436 34 428 28T395 11Q330 -17 257 -17Q162 -17 108 32Q72 65 53 119T33 243Q33 303 48 352T93 437T162 492T252 511Q450 511 450 238ZM317 306Q315 368 299 394T244 420Q206 420 187 394T161 306H317Z"  />
<glyph unicode="&#xEB;" horiz-adv-x="481" d="M398 637Q398 608 378 588T329 568Q300 568 280 588T260 637Q260 666 280 686T330 706Q358 706 378 686T398 637ZM221 637Q221 608 201 588T152 568Q123 568 103 588T83 637Q83 666 103 686T153 706Q181 706 201 686T221 637ZM450 238Q450 223 446 218T428 213H159Q161 148 187 118T270 87Q325 87 384 118Q391 122 397 122Q403 122 408 113L433 53Q435 48 435 47T436 42Q436 34 428 28T395 11Q330 -17 257 -17Q162 -17 108 32Q72 65 53 119T33 243Q33 303 48 352T93 437T162 492T252 511Q450 511 450 238ZM317 306Q315 368 299 394T244 420Q206 420 187 394T161 306H317Z"  />
<glyph unicode="&#xEC;" horiz-adv-x="296" d="M204 629Q204 623 199 616L184 584Q180 576 177 573T170 570Q168 570 164 571T157 573L-20 643Q-36 650 -36 657Q-36 661 -31 671L0 732Q8 746 14 746Q16 746 18 746T28 740L191 643Q204 635 204 629ZM221 17Q221 6 218 3T204 0H111Q100 0 97 3T94 17V401H18Q7 401 4 404T1 418V477Q1 488 4 491T18 494H204Q215 494 218 491T221 477V17Z"  />
<glyph unicode="&#xED;" horiz-adv-x="296" d="M333 657Q333 648 318 643L141 573Q137 572 133 571T127 570Q123 570 121 573T114 584L98 616Q93 625 93 630Q93 635 106 643L269 740Q277 745 279 745T283 746Q287 746 290 743T297 732L328 671Q333 661 333 657ZM220 17Q220 6 217 3T203 0H110Q99 0 96 3T93 17V401H17Q6 401 3 404T0 418V477Q0 488 3 491T17 494H203Q214 494 217 491T220 477V17Z"  />
<glyph unicode="&#xEE;" horiz-adv-x="296" d="M286 628Q286 625 280 615L261 583Q256 575 254 573T246 570Q243 570 233 576L148 626L62 576Q51 570 49 570Q44 570 42 572T34 583L16 615Q10 624 10 628Q10 632 12 635T21 643L134 732Q141 737 143 738T148 740Q151 740 153 739T163 732L275 643Q282 638 284 635T286 628ZM221 17Q221 6 218 3T204 0H111Q100 0 97 3T94 17V401H18Q7 401 4 404T1 418V477Q1 488 4 491T18 494H204Q215 494 218 491T221 477V17Z"  />
<glyph unicode="&#xEF;" horiz-adv-x="296" d="M296 637Q296 608 276 588T227 568Q198 568 178 588T158 637Q158 666 178 686T228 706Q256 706 276 686T296 637ZM138 637Q138 608 118 588T69 568Q40 568 20 588T0 637Q0 666 20 686T70 706Q98 706 118 686T138 637ZM221 17Q221 6 218 3T204 0H111Q100 0 97 3T94 17V401H18Q7 401 4 404T1 418V477Q1 488 4 491T18 494H204Q215 494 218 491T221 477V17Z"  />
<glyph unicode="&#xF0;" horiz-adv-x="500" d="M468 244Q468 184 453 136T409 54T341 2T251 -17Q147 -17 90 52T33 249Q33 368 91 438Q119 473 158 492T235 512Q264 512 297 494Q288 516 274 544T249 591L158 548Q153 546 152 546T149 545Q146 545 141 553L124 590Q121 596 121 600Q121 604 129 608L217 648Q200 679 176 709Q169 717 169 722Q169 731 182 733L243 741Q246 742 248 742T253 742Q263 742 274 731T308 690L401 733Q407 735 409 735Q411 735 412 734T417 726L432 694Q435 687 436 686T437 682Q437 679 435 678T425 673L341 633Q401 531 434 430T468 244ZM340 246Q340 335 319 373T250 411Q206 411 187 373T168 247Q168 160 187 122T252 84Q298 84 319 122T340 246Z"  />
<glyph unicode="&#xF1;" horiz-adv-x="537" d="M437 675Q437 670 432 660T416 635Q396 606 377 594T331 581Q314 581 301 586T265 606Q255 613 249 615T235 617Q215 617 199 588Q194 580 190 580Q188 580 181 583L134 607Q127 611 127 616Q127 620 133 633T149 660Q167 687 185 698T230 709Q247 709 262 705T301 686Q313 679 319 677T333 674Q343 674 350 680T368 705Q370 710 375 710Q377 710 378 710T383 707L429 684Q437 681 437 675ZM472 17Q472 6 469 3T455 0H362Q351 0 348 3T345 17V325Q345 370 332 389T288 409Q266 409 247 400T201 368V17Q201 6 198 3T184 0H91Q80 0 77 3T74 17V353Q74 417 53 462Q50 468 50 472Q50 478 58 481L147 514Q153 516 157 516Q166 516 175 498T193 447Q231 482 265 496T343 511Q410 511 441 473T472 353V17Z"  />
<glyph unicode="&#xF2;" horiz-adv-x="500" d="M322 629Q322 623 317 616L302 584Q298 576 295 573T288 570Q286 570 282 571T275 573L98 643Q82 650 82 657Q82 661 87 671L118 732Q126 746 132 746Q134 746 136 746T146 740L309 643Q322 635 322 629ZM468 248Q468 187 453 138T410 55T342 2T251 -17Q148 -17 91 52T33 247Q33 368 91 438Q123 476 162 493T255 511Q304 511 343 493T410 440T453 358T468 248ZM333 246Q333 335 314 372T249 410Q206 410 187 372T168 247Q168 160 187 122T250 84Q295 84 314 122T333 246Z"  />
<glyph unicode="&#xF3;" horiz-adv-x="500" d="M439 657Q439 648 424 643L247 573Q243 572 239 571T233 570Q229 570 227 573T220 584L204 616Q199 625 199 630Q199 635 212 643L375 740Q383 745 385 745T389 746Q393 746 396 743T403 732L434 671Q439 661 439 657ZM468 248Q468 187 453 138T410 55T342 2T251 -17Q148 -17 91 52T33 247Q33 368 91 438Q123 476 162 493T255 511Q304 511 343 493T410 440T453 358T468 248ZM333 246Q333 335 314 372T249 410Q206 410 187 372T168 247Q168 160 187 122T250 84Q295 84 314 122T333 246Z"  />
<glyph unicode="&#xF4;" horiz-adv-x="500" d="M468 248Q468 187 453 138T410 55T342 2T251 -17Q148 -17 91 52T33 247Q33 368 91 438Q123 476 162 493T255 511Q304 511 343 493T410 440T453 358T468 248ZM333 246Q333 335 314 372T249 410Q206 410 187 372T168 247Q168 160 187 122T250 84Q295 84 314 122T333 246ZM388 628Q388 625 382 615L363 583Q358 575 356 573T348 570Q345 570 335 576L250 626L164 576Q153 570 151 570Q146 570 144 572T136 583L118 615Q112 624 112 628Q112 632 114 635T123 643L236 732Q243 737 245 738T250 740Q253 740 255 739T265 732L377 643Q384 638 386 635T388 628Z"  />
<glyph unicode="&#xF5;" horiz-adv-x="500" d="M405 675Q405 670 400 660T384 635Q364 606 345 594T299 581Q282 581 269 586T233 606Q223 613 217 615T203 617Q183 617 167 588Q162 580 158 580Q156 580 149 583L102 607Q95 611 95 616Q95 620 101 633T117 660Q135 687 153 698T198 709Q215 709 230 705T269 686Q281 679 287 677T301 674Q311 674 318 680T336 705Q338 710 343 710Q345 710 346 710T351 707L397 684Q405 681 405 675ZM468 248Q468 187 453 138T410 55T342 2T251 -17Q148 -17 91 52T33 247Q33 368 91 438Q123 476 162 493T255 511Q304 511 343 493T410 440T453 358T468 248ZM333 246Q333 335 314 372T249 410Q206 410 187 372T168 247Q168 160 187 122T250 84Q295 84 314 122T333 246Z"  />
<glyph unicode="&#xF6;" horiz-adv-x="500" d="M408 637Q408 608 388 588T339 568Q310 568 290 588T270 637Q270 666 290 686T340 706Q368 706 388 686T408 637ZM231 637Q231 608 211 588T162 568Q133 568 113 588T93 637Q93 666 113 686T163 706Q191 706 211 686T231 637ZM468 248Q468 187 453 138T410 55T342 2T251 -17Q148 -17 91 52T33 247Q33 368 91 438Q123 476 162 493T255 511Q304 511 343 493T410 440T453 358T468 248ZM333 246Q333 335 314 372T249 410Q206 410 187 372T168 247Q168 160 187 122T250 84Q295 84 314 122T333 246Z"  />
<glyph unicode="&#xF7;" horiz-adv-x="500" d="M321 505Q321 476 300 455T250 434Q220 434 199 455T178 505Q178 536 199 556T250 577Q279 577 300 556T321 505ZM478 302Q478 289 475 286T458 282H43Q29 282 26 285T22 302V365Q22 379 25 382T43 386H458Q471 386 474 383T478 365V302ZM321 162Q321 133 300 112T250 91Q220 91 199 112T178 162Q178 193 198 213T250 234Q279 234 300 213T321 162Z"  />
<glyph unicode="&#xF8;" horiz-adv-x="500" d="M468 248Q468 187 453 138T410 55T342 2T252 -17Q222 -17 198 -12T149 5L122 -43Q116 -54 111 -54Q108 -54 99 -50L73 -36Q66 -32 64 -30T62 -24Q62 -22 62 -21T67 -12L98 44Q65 82 49 132T33 248Q33 309 48 358T91 441T160 493T252 511Q282 511 305 506T351 489L376 533Q381 541 382 543T387 545Q390 545 399 540L425 526Q432 522 434 520T436 515Q436 511 432 503L402 450Q437 410 452 362T468 248ZM298 396Q286 406 276 409T249 413Q198 413 176 375T154 250Q154 219 156 195T164 139L298 396ZM347 242Q347 274 345 298T335 352L203 98Q217 88 226 85T250 81Q301 81 324 119T347 242Z"  />
<glyph unicode="&#xF9;" horiz-adv-x="537" d="M320 629Q320 623 315 616L300 584Q296 576 293 573T286 570Q284 570 280 571T273 573L96 643Q80 650 80 657Q80 661 85 671L116 732Q124 746 130 746Q132 746 134 746T144 740L307 643Q320 635 320 629ZM485 15Q485 10 475 7L391 -12Q385 -14 384 -14T380 -14Q363 -14 350 41Q316 9 286 -4T212 -17Q136 -17 99 26Q88 38 82 50T72 79T67 119T65 178V471Q65 482 67 484T80 489L173 509Q175 510 177 510T181 510Q192 510 192 494V184Q192 150 194 136T201 111Q208 98 222 91T253 84Q293 84 336 120V471Q336 482 338 484T351 489L444 509L454 510Q463 510 463 494V126Q463 89 467 68T482 24Q485 19 485 15Z"  />
<glyph unicode="&#xFA;" horiz-adv-x="537" d="M464 657Q464 648 449 643L272 573Q268 572 264 571T258 570Q254 570 252 573T245 584L229 616Q224 625 224 630Q224 635 237 643L400 740Q408 745 410 745T414 746Q418 746 421 743T428 732L459 671Q464 661 464 657ZM485 15Q485 10 475 7L391 -12Q385 -14 384 -14T380 -14Q363 -14 350 41Q316 9 286 -4T212 -17Q136 -17 99 26Q88 38 82 50T72 79T67 119T65 178V471Q65 482 67 484T80 489L173 509Q175 510 177 510T181 510Q192 510 192 494V184Q192 150 194 136T201 111Q208 98 222 91T253 84Q293 84 336 120V471Q336 482 338 484T351 489L444 509L454 510Q463 510 463 494V126Q463 89 467 68T482 24Q485 19 485 15Z"  />
<glyph unicode="&#xFB;" horiz-adv-x="537" d="M406 628Q406 625 400 615L381 583Q376 575 374 573T366 570Q363 570 353 576L268 626L182 576Q171 570 169 570Q164 570 162 572T154 583L136 615Q130 624 130 628Q130 632 132 635T141 643L254 732Q261 737 263 738T268 740Q271 740 273 739T283 732L395 643Q402 638 404 635T406 628ZM485 15Q485 10 475 7L391 -12Q385 -14 384 -14T380 -14Q363 -14 350 41Q316 9 286 -4T212 -17Q136 -17 99 26Q88 38 82 50T72 79T67 119T65 178V471Q65 482 67 484T80 489L173 509Q175 510 177 510T181 510Q192 510 192 494V184Q192 150 194 136T201 111Q208 98 222 91T253 84Q293 84 336 120V471Q336 482 338 484T351 489L444 509L454 510Q463 510 463 494V126Q463 89 467 68T482 24Q485 19 485 15Z"  />
<glyph unicode="&#xFC;" horiz-adv-x="537" d="M432 637Q432 608 412 588T363 568Q334 568 314 588T294 637Q294 666 314 686T364 706Q392 706 412 686T432 637ZM255 637Q255 608 235 588T186 568Q157 568 137 588T117 637Q117 666 137 686T187 706Q215 706 235 686T255 637ZM485 15Q485 10 475 7L391 -12Q385 -14 384 -14T380 -14Q363 -14 350 41Q316 9 286 -4T212 -17Q136 -17 99 26Q88 38 82 50T72 79T67 119T65 178V471Q65 482 67 484T80 489L173 509Q175 510 177 510T181 510Q192 510 192 494V184Q192 150 194 136T201 111Q208 98 222 91T253 84Q293 84 336 120V471Q336 482 338 484T351 489L444 509L454 510Q463 510 463 494V126Q463 89 467 68T482 24Q485 19 485 15Z"  />
<glyph unicode="&#xFD;" horiz-adv-x="444" d="M411 657Q411 648 396 643L219 573Q215 572 211 571T205 570Q201 570 199 573T192 584L176 616Q171 625 171 630Q171 635 184 643L347 740Q355 745 357 745T361 746Q365 746 368 743T375 732L406 671Q411 661 411 657ZM450 480Q450 478 450 477T448 470L348 104Q343 89 340 72T331 38Q318 -15 309 -49T291 -106T275 -143T255 -170Q212 -222 134 -222Q113 -222 89 -218T45 -206T11 -191T-3 -175Q-3 -173 -3 -172T1 -164L32 -100Q35 -93 41 -93Q44 -93 49 -96Q94 -118 126 -118Q158 -118 174 -102T204 -42L216 0H174Q164 0 161 2T155 13L-2 469Q-4 474 -4 476T-5 480Q-5 489 11 490L113 501H120Q128 501 132 487L198 241Q205 215 210 194T220 152T228 111T237 68Q240 84 242 95T245 116T248 133T252 152Q254 165 256 176T261 198L271 241L327 486Q329 495 331 498T338 501Q342 501 346 500L434 490Q450 489 450 480Z"  />
<glyph unicode="&#xFE;" horiz-adv-x="519" d="M486 255Q486 -17 303 -17Q273 -17 250 -11T201 9V-172Q201 -182 199 -185T186 -190L96 -209Q88 -211 84 -211Q74 -211 74 -195V681Q74 693 78 698T94 705L179 722Q187 724 188 724T192 724Q201 724 201 707V470Q227 492 254 501T313 511Q398 511 442 446T486 255ZM359 251Q359 334 340 372T279 410Q258 410 241 402T201 374V98Q221 87 236 83T271 79Q295 79 312 88T339 117T354 170T359 251Z"  />
<glyph unicode="&#xFF;" horiz-adv-x="444" d="M393 637Q393 608 373 588T324 568Q295 568 275 588T255 637Q255 666 275 686T325 706Q353 706 373 686T393 637ZM216 637Q216 608 196 588T147 568Q118 568 98 588T78 637Q78 666 98 686T148 706Q176 706 196 686T216 637ZM450 480Q450 478 450 477T448 470L348 104Q343 89 340 72T331 38Q318 -15 309 -49T291 -106T275 -143T255 -170Q212 -222 134 -222Q113 -222 89 -218T45 -206T11 -191T-3 -175Q-3 -173 -3 -172T1 -164L32 -100Q35 -93 41 -93Q44 -93 49 -96Q94 -118 126 -118Q158 -118 174 -102T204 -42L216 0H174Q164 0 161 2T155 13L-2 469Q-4 474 -4 476T-5 480Q-5 489 11 490L113 501H120Q128 501 132 487L198 241Q205 215 210 194T220 152T228 111T237 68Q240 84 242 95T245 116T248 133T252 152Q254 165 256 176T261 198L271 241L327 486Q329 495 331 498T338 501Q342 501 346 500L434 490Q450 489 450 480Z"  />
<glyph unicode="&#x100;" horiz-adv-x="556" d="M380 853Q394 853 397 850T400 832V787Q400 773 397 770T380 767H176Q162 767 159 770T155 787V832Q155 846 158 849T176 853H380ZM552 11Q552 0 532 0H423Q410 0 407 2T400 17L357 181H188L145 17Q142 5 139 3T123 0H24Q4 0 4 11Q4 14 4 16T7 24L204 669Q208 681 211 683T226 686H330Q342 686 345 684T352 669L549 24Q552 13 552 11ZM294 446Q291 461 289 473T283 500T277 533T269 581Q266 559 263 543T258 512T252 482T243 446L203 275H331L294 446Z"  />
<glyph unicode="&#x101;" horiz-adv-x="482" d="M343 681Q357 681 360 678T363 660V615Q363 601 360 598T343 595H139Q125 595 122 598T118 615V660Q118 674 121 677T139 681H343ZM439 28Q439 21 431 18L353 -13Q348 -16 341 -16Q327 -16 311 43Q281 12 252 -1T183 -14Q114 -14 74 27T33 137Q33 268 182 298Q202 302 227 304T294 307V338Q294 381 280 397T228 413Q183 413 116 387Q110 384 105 384Q98 384 95 394L74 454Q72 460 72 465Q72 473 87 481T127 496T182 507T243 511Q364 511 399 434Q407 418 410 399T413 351V147Q413 114 418 90T436 39Q439 33 439 28ZM294 224Q219 224 187 206T154 144Q154 115 172 95T218 75Q258 75 294 114V224Z"  />
<glyph unicode="&#x102;" horiz-adv-x="556" d="M418 856Q418 842 411 821T393 786Q357 735 279 735Q188 735 153 799Q146 812 142 827T137 854Q137 868 148 869L215 877L220 878Q224 878 225 876T228 861Q237 814 278 814Q297 814 310 826T327 861Q329 872 330 875T333 878H335L340 877L407 869Q418 868 418 856ZM552 11Q552 0 532 0H423Q410 0 407 2T400 17L357 181H188L145 17Q142 5 139 3T123 0H24Q4 0 4 11Q4 14 4 16T7 24L204 669Q208 681 211 683T226 686H330Q342 686 345 684T352 669L549 24Q552 13 552 11ZM294 446Q291 461 289 473T283 500T277 533T269 581Q266 559 263 543T258 512T252 482T243 446L203 275H331L294 446Z"  />
<glyph unicode="&#x103;" horiz-adv-x="482" d="M381 684Q381 670 374 649T356 614Q320 563 242 563Q151 563 116 627Q109 640 105 655T100 682Q100 696 111 697L178 705L183 706Q187 706 188 704T191 689Q200 642 241 642Q260 642 273 654T290 689Q292 700 293 703T296 706H298L303 705L370 697Q381 696 381 684ZM439 28Q439 21 431 18L353 -13Q348 -16 341 -16Q327 -16 311 43Q281 12 252 -1T183 -14Q114 -14 74 27T33 137Q33 268 182 298Q202 302 227 304T294 307V338Q294 381 280 397T228 413Q183 413 116 387Q110 384 105 384Q98 384 95 394L74 454Q72 460 72 465Q72 473 87 481T127 496T182 507T243 511Q364 511 399 434Q407 418 410 399T413 351V147Q413 114 418 90T436 39Q439 33 439 28ZM294 224Q219 224 187 206T154 144Q154 115 172 95T218 75Q258 75 294 114V224Z"  />
<glyph unicode="&#x104;" horiz-adv-x="556" d="M548 -152Q548 -157 540 -162T518 -173T489 -181T459 -184Q414 -184 387 -161T360 -100Q360 -74 373 -48T410 1Q403 2 400 17L357 181H188L145 17Q142 5 139 3T123 0H24Q4 0 4 11Q4 14 4 16T7 24L204 669Q208 681 211 683T226 686H330Q342 686 345 684T352 669L549 24Q552 13 552 11Q552 0 532 0H472Q455 -23 450 -45T444 -82Q444 -106 472 -106Q492 -106 515 -94Q523 -90 526 -90Q530 -90 532 -96L546 -141Q548 -146 548 -147T548 -150V-152ZM294 446Q291 461 289 473T283 500T277 533T269 581Q266 559 263 543T258 512T252 482T243 446L203 275H331L294 446Z"  />
<glyph unicode="&#x105;" horiz-adv-x="482" d="M453 -152Q453 -157 445 -162T423 -173T394 -181T364 -184Q319 -184 292 -161T265 -100Q265 -71 281 -47T326 0Q319 13 311 43Q281 12 252 -1T183 -14Q114 -14 74 27T33 137Q33 268 182 298Q202 302 227 304T294 307V338Q294 381 280 397T228 413Q183 413 116 387Q110 384 105 384Q98 384 95 394L74 454Q72 460 72 465Q72 473 87 481T127 496T182 507T243 511Q364 511 399 434Q407 418 410 399T413 351V147Q413 114 418 90T436 39Q439 33 439 28Q439 21 431 18L380 -2Q362 -22 356 -40T349 -82Q349 -106 377 -106Q397 -106 420 -94Q428 -90 431 -90Q435 -90 437 -96L451 -141Q453 -146 453 -147T453 -150V-152ZM294 224Q219 224 187 206T154 144Q154 115 172 95T218 75Q258 75 294 114V224Z"  />
<glyph unicode="&#x106;" horiz-adv-x="480" d="M444 829Q444 820 429 815L252 745Q248 744 244 743T238 742Q234 742 232 745T225 756L209 788Q204 797 204 802Q204 807 217 815L380 912Q388 917 390 917T394 918Q398 918 401 915T408 904L439 843Q444 833 444 829ZM465 51Q465 39 443 24Q381 -17 298 -17Q186 -17 127 51Q84 100 62 176T40 353Q40 446 59 511T119 624Q151 662 195 682T291 703Q331 703 369 690T442 652Q463 637 463 628Q463 622 461 620L420 546Q416 538 410 538Q406 538 402 540T380 556Q340 587 299 587Q184 587 184 373Q184 223 223 150Q236 126 260 113T313 99Q338 99 356 106T403 135Q411 139 413 139Q417 139 422 130L462 60Q465 55 465 51Z"  />
<glyph unicode="&#x107;" horiz-adv-x="407" d="M394 657Q394 648 379 643L202 573Q198 572 194 571T188 570Q184 570 182 573T175 584L159 616Q154 625 154 630Q154 635 167 643L330 740Q338 745 340 745T344 746Q348 746 351 743T358 732L389 671Q394 661 394 657ZM406 454Q406 449 403 443L368 379Q364 372 359 372Q354 372 349 376Q321 396 304 403T264 410Q213 410 189 370T165 242Q165 160 189 122T265 84Q286 84 305 91T347 112Q354 117 358 117Q362 117 366 110L390 49Q392 43 392 42T393 37Q393 28 380 18T346 1T299 -12T248 -17Q145 -17 89 49T33 237Q33 301 49 351T95 437T167 492T264 511Q287 511 312 506T358 492T392 474T406 454Z"  />
<glyph unicode="&#x108;" horiz-adv-x="480" d="M423 800Q423 797 417 787L398 755Q393 747 391 745T383 742Q380 742 370 748L285 798L199 748Q188 742 186 742Q181 742 179 744T171 755L153 787Q147 796 147 800Q147 804 149 807T158 815L271 904Q278 909 280 910T285 912Q288 912 290 911T300 904L412 815Q419 810 421 807T423 800ZM465 51Q465 39 443 24Q381 -17 298 -17Q186 -17 127 51Q84 100 62 176T40 353Q40 446 59 511T119 624Q151 662 195 682T291 703Q331 703 369 690T442 652Q463 637 463 628Q463 622 461 620L420 546Q416 538 410 538Q406 538 402 540T380 556Q340 587 299 587Q184 587 184 373Q184 223 223 150Q236 126 260 113T313 99Q338 99 356 106T403 135Q411 139 413 139Q417 139 422 130L462 60Q465 55 465 51Z"  />
<glyph unicode="&#x109;" horiz-adv-x="407" d="M393 628Q393 625 387 615L368 583Q363 575 361 573T353 570Q350 570 340 576L255 626L169 576Q158 570 156 570Q151 570 149 572T141 583L123 615Q117 624 117 628Q117 632 119 635T128 643L241 732Q248 737 250 738T255 740Q258 740 260 739T270 732L382 643Q389 638 391 635T393 628ZM406 454Q406 449 403 443L368 379Q364 372 359 372Q354 372 349 376Q321 396 304 403T264 410Q213 410 189 370T165 242Q165 160 189 122T265 84Q286 84 305 91T347 112Q354 117 358 117Q362 117 366 110L390 49Q392 43 392 42T393 37Q393 28 380 18T346 1T299 -12T248 -17Q145 -17 89 49T33 237Q33 301 49 351T95 437T167 492T264 511Q287 511 312 506T358 492T392 474T406 454Z"  />
<glyph unicode="&#x10A;" horiz-adv-x="480" d="M362 809Q362 777 340 755T285 732Q252 732 230 755T207 810Q207 842 230 864T286 887Q301 887 315 881T339 865T356 840T362 809ZM465 51Q465 39 443 24Q381 -17 298 -17Q186 -17 127 51Q84 100 62 176T40 353Q40 446 59 511T119 624Q151 662 195 682T291 703Q331 703 369 690T442 652Q463 637 463 628Q463 622 461 620L420 546Q416 538 410 538Q406 538 402 540T380 556Q340 587 299 587Q184 587 184 373Q184 223 223 150Q236 126 260 113T313 99Q338 99 356 106T403 135Q411 139 413 139Q417 139 422 130L462 60Q465 55 465 51Z"  />
<glyph unicode="&#x10B;" horiz-adv-x="407" d="M332 637Q332 605 310 583T255 560Q222 560 200 583T177 638Q177 670 200 692T256 715Q271 715 285 709T309 693T326 668T332 637ZM406 454Q406 449 403 443L368 379Q364 372 359 372Q354 372 349 376Q321 396 304 403T264 410Q213 410 189 370T165 242Q165 160 189 122T265 84Q286 84 305 91T347 112Q354 117 358 117Q362 117 366 110L390 49Q392 43 392 42T393 37Q393 28 380 18T346 1T299 -12T248 -17Q145 -17 89 49T33 237Q33 301 49 351T95 437T167 492T264 511Q287 511 312 506T358 492T392 474T406 454Z"  />
<glyph unicode="&#x10C;" horiz-adv-x="480" d="M423 854Q423 850 421 847T412 839L299 750Q291 744 289 743T284 742Q282 742 280 743T270 750L158 839Q151 844 149 847T147 854Q147 857 153 868L172 899Q177 907 179 909T187 912Q189 912 200 906L285 856L371 906Q381 912 384 912Q389 912 391 910T399 899L417 868Q423 856 423 854ZM465 51Q465 39 443 24Q381 -17 298 -17Q186 -17 127 51Q84 100 62 176T40 353Q40 446 59 511T119 624Q151 662 195 682T291 703Q331 703 369 690T442 652Q463 637 463 628Q463 622 461 620L420 546Q416 538 410 538Q406 538 402 540T380 556Q340 587 299 587Q184 587 184 373Q184 223 223 150Q236 126 260 113T313 99Q338 99 356 106T403 135Q411 139 413 139Q417 139 422 130L462 60Q465 55 465 51Z"  />
<glyph unicode="&#x10D;" horiz-adv-x="407" d="M393 682Q393 678 391 675T382 667L269 578Q261 572 259 571T254 570Q252 570 250 571T240 578L128 667Q121 672 119 675T117 682Q117 685 123 696L142 727Q147 735 149 737T157 740Q159 740 170 734L255 684L341 734Q351 740 354 740Q359 740 361 738T369 727L387 696Q393 684 393 682ZM406 454Q406 449 403 443L368 379Q364 372 359 372Q354 372 349 376Q321 396 304 403T264 410Q213 410 189 370T165 242Q165 160 189 122T265 84Q286 84 305 91T347 112Q354 117 358 117Q362 117 366 110L390 49Q392 43 392 42T393 37Q393 28 380 18T346 1T299 -12T248 -17Q145 -17 89 49T33 237Q33 301 49 351T95 437T167 492T264 511Q287 511 312 506T358 492T392 474T406 454Z"  />
<glyph unicode="&#x10E;" horiz-adv-x="593" d="M424 854Q424 850 422 847T413 839L300 750Q292 744 290 743T285 742Q283 742 281 743T271 750L159 839Q152 844 150 847T148 854Q148 857 154 868L173 899Q178 907 180 909T188 912Q190 912 201 906L286 856L372 906Q382 912 385 912Q390 912 392 910T400 899L418 868Q424 856 424 854ZM553 342Q553 214 522 136T426 25Q411 17 397 13T365 5T323 1T263 0H106Q92 0 89 3T85 21V665Q85 679 88 682T106 686H263Q288 686 304 686T330 685T349 683T367 680Q463 662 508 580T553 342ZM409 336Q409 384 406 420T395 483T375 528T346 557Q329 569 311 573T257 577H222V109H257Q298 109 321 115T361 135Q387 158 398 204T409 336Z"  />
<glyph unicode="&#x10F;" horiz-adv-x="519" d="M499 527Q486 531 486 542Q486 550 487 553L512 692Q515 709 534 709H604Q624 709 624 700Q624 697 619 684L549 532Q541 517 532 517Q526 517 519 520L499 527ZM445 123Q445 108 445 99T447 81T452 65T460 44Q461 42 463 38T465 31Q465 25 456 22L373 -11Q367 -14 363 -14Q355 -14 348 0T336 37Q270 -17 196 -17Q118 -17 76 49T33 238Q33 312 47 363T92 451Q143 511 219 511Q245 511 268 505T318 483V686Q318 696 320 699T333 704L426 723L435 724Q445 724 445 707V123ZM318 392Q282 410 246 410Q199 410 180 373T160 245Q160 157 178 119T238 81Q285 81 318 116V392Z"  />
<glyph unicode="&#x110;" horiz-adv-x="593" d="M553 343Q553 89 426 25Q411 17 397 12T365 5T323 1T262 0H104Q91 0 88 3T84 21V312H35Q21 312 18 315T14 333V380Q14 394 17 397T35 401H84V665Q84 679 87 682T104 686H262Q287 686 303 686T330 685T349 683T367 680Q462 662 507 580T553 343ZM416 335Q416 384 413 420T401 483T381 528T350 557Q341 563 332 567T313 573T289 576T256 577H221V401H321Q335 401 338 398T342 380V333Q342 319 339 316T321 312H221V109H256Q299 109 323 115T365 135Q392 157 404 204T416 335Z"  />
<glyph unicode="&#x111;" horiz-adv-x="519" d="M445 636H505Q514 636 516 634T519 622V575Q519 561 505 561H445V123Q445 108 445 99T447 81T452 65T460 44Q461 42 463 38T465 31Q465 25 456 22L373 -11Q367 -14 363 -14Q355 -14 348 0T336 37Q270 -17 196 -17Q118 -17 76 49T33 238Q33 312 47 363T92 451Q143 511 219 511Q245 511 268 505T318 483V561H192Q183 561 181 563T178 575V622Q178 631 180 633T192 636H318V686Q318 696 320 699T333 704L426 723L435 724Q445 724 445 707V636ZM318 392Q282 410 246 410Q199 410 180 373T160 245Q160 157 178 119T238 81Q285 81 318 116V392Z"  />
<glyph unicode="&#x112;" horiz-adv-x="482" d="M371 853Q385 853 388 850T391 832V787Q391 773 388 770T371 767H167Q153 767 150 770T146 787V832Q146 846 149 849T167 853H371ZM460 675Q460 672 458 662L438 594Q435 584 431 581T416 577H222V413H389Q403 413 406 410T410 392V325Q410 311 407 308T389 304H222V109H432Q446 109 449 106T453 88V21Q453 7 450 4T432 0H106Q92 0 89 3T85 21V665Q85 679 88 682T106 686H440Q460 686 460 675Z"  />
<glyph unicode="&#x113;" horiz-adv-x="481" d="M374 614Q374 600 371 597T354 594H150Q136 594 133 597T129 614V659Q129 673 132 676T150 680H354Q368 680 371 677T374 659V614ZM450 238Q450 223 446 218T428 213H159Q161 148 187 118T270 87Q325 87 384 118Q391 122 397 122Q403 122 408 113L433 53Q435 48 435 47T436 42Q436 34 428 28T395 11Q330 -17 257 -17Q162 -17 108 32Q72 65 53 119T33 243Q33 303 48 352T93 437T162 492T252 511Q450 511 450 238ZM317 306Q315 368 299 394T244 420Q206 420 187 394T161 306H317Z"  />
<glyph unicode="&#x114;" horiz-adv-x="482" d="M409 856Q409 842 402 821T384 786Q348 735 270 735Q179 735 144 799Q137 812 133 827T128 854Q128 868 139 869L206 877L211 878Q215 878 216 876T219 861Q228 814 269 814Q288 814 301 826T318 861Q320 872 321 875T324 878H326L331 877L398 869Q409 868 409 856ZM460 675Q460 672 458 662L438 594Q435 584 431 581T416 577H222V413H389Q403 413 406 410T410 392V325Q410 311 407 308T389 304H222V109H432Q446 109 449 106T453 88V21Q453 7 450 4T432 0H106Q92 0 89 3T85 21V665Q85 679 88 682T106 686H440Q460 686 460 675Z"  />
<glyph unicode="&#x115;" horiz-adv-x="481" d="M392 683Q392 669 385 648T367 613Q331 562 253 562Q162 562 127 626Q120 639 116 654T111 681Q111 695 122 696L189 704L194 705Q198 705 199 703T202 688Q211 641 252 641Q271 641 284 653T301 688Q303 699 304 702T307 705H309L314 704L381 696Q392 695 392 683ZM450 238Q450 223 446 218T428 213H159Q161 148 187 118T270 87Q325 87 384 118Q391 122 397 122Q403 122 408 113L433 53Q435 48 435 47T436 42Q436 34 428 28T395 11Q330 -17 257 -17Q162 -17 108 32Q72 65 53 119T33 243Q33 303 48 352T93 437T162 492T252 511Q450 511 450 238ZM317 306Q315 368 299 394T244 420Q206 420 187 394T161 306H317Z"  />
<glyph unicode="&#x116;" horiz-adv-x="482" d="M346 809Q346 777 324 755T269 732Q236 732 214 755T191 810Q191 842 214 864T270 887Q285 887 299 881T323 865T340 840T346 809ZM460 675Q460 672 458 662L438 594Q435 584 431 581T416 577H222V413H389Q403 413 406 410T410 392V325Q410 311 407 308T389 304H222V109H432Q446 109 449 106T453 88V21Q453 7 450 4T432 0H106Q92 0 89 3T85 21V665Q85 679 88 682T106 686H440Q460 686 460 675Z"  />
<glyph unicode="&#x117;" horiz-adv-x="481" d="M329 636Q329 604 307 582T252 559Q219 559 197 582T174 637Q174 669 197 691T253 714Q268 714 282 708T306 692T323 667T329 636ZM450 238Q450 223 446 218T428 213H159Q161 148 187 118T270 87Q325 87 384 118Q391 122 397 122Q403 122 408 113L433 53Q435 48 435 47T436 42Q436 34 428 28T395 11Q330 -17 257 -17Q162 -17 108 32Q72 65 53 119T33 243Q33 303 48 352T93 437T162 492T252 511Q450 511 450 238ZM317 306Q315 368 299 394T244 420Q206 420 187 394T161 306H317Z"  />
<glyph unicode="&#x118;" horiz-adv-x="482" d="M453 21Q453 7 450 4T432 0H342Q323 -20 316 -39T309 -82Q309 -106 337 -106Q357 -106 380 -94Q388 -90 391 -90Q395 -90 397 -96L411 -141Q413 -146 413 -147T413 -150V-152Q413 -157 405 -162T383 -173T354 -181T324 -184Q279 -184 252 -161T225 -100Q225 -71 241 -47T286 0H106Q92 0 89 3T85 21V665Q85 679 88 682T106 686H440Q460 686 460 675Q460 672 458 662L438 594Q435 584 431 581T416 577H222V413H389Q403 413 406 410T410 392V325Q410 311 407 308T389 304H222V109H432Q446 109 449 106T453 88V21Z"  />
<glyph unicode="&#x119;" horiz-adv-x="481" d="M413 -152Q413 -157 405 -162T383 -173T354 -181T324 -184Q279 -184 252 -161T225 -100Q225 -54 265 -17H257Q162 -17 108 32Q72 65 53 119T33 243Q33 303 48 352T93 437T162 492T252 511Q450 511 450 238Q450 223 446 218T428 213H159Q161 148 187 118T270 87Q325 87 384 118Q391 122 397 122Q403 122 408 113L433 53Q435 48 435 47T436 42Q436 34 428 28T395 11Q367 -2 335 -8Q320 -26 315 -43T309 -82Q309 -106 337 -106Q357 -106 380 -94Q388 -90 391 -90Q395 -90 397 -96L411 -141Q413 -146 413 -147T413 -150V-152ZM317 306Q315 368 299 394T244 420Q206 420 187 394T161 306H317Z"  />
<glyph unicode="&#x11A;" horiz-adv-x="482" d="M407 854Q407 850 405 847T396 839L283 750Q275 744 273 743T268 742Q266 742 264 743T254 750L142 839Q135 844 133 847T131 854Q131 857 137 868L156 899Q161 907 163 909T171 912Q173 912 184 906L269 856L355 906Q365 912 368 912Q373 912 375 910T383 899L401 868Q407 856 407 854ZM460 675Q460 672 458 662L438 594Q435 584 431 581T416 577H222V413H389Q403 413 406 410T410 392V325Q410 311 407 308T389 304H222V109H432Q446 109 449 106T453 88V21Q453 7 450 4T432 0H106Q92 0 89 3T85 21V665Q85 679 88 682T106 686H440Q460 686 460 675Z"  />
<glyph unicode="&#x11B;" horiz-adv-x="481" d="M390 681Q390 677 388 674T379 666L266 577Q258 571 256 570T251 569Q249 569 247 570T237 577L125 666Q118 671 116 674T114 681Q114 684 120 695L139 726Q144 734 146 736T154 739Q156 739 167 733L252 683L338 733Q348 739 351 739Q356 739 358 737T366 726L384 695Q390 683 390 681ZM450 238Q450 223 446 218T428 213H159Q161 148 187 118T270 87Q325 87 384 118Q391 122 397 122Q403 122 408 113L433 53Q435 48 435 47T436 42Q436 34 428 28T395 11Q330 -17 257 -17Q162 -17 108 32Q72 65 53 119T33 243Q33 303 48 352T93 437T162 492T252 511Q450 511 450 238ZM317 306Q315 368 299 394T244 420Q206 420 187 394T161 306H317Z"  />
<glyph unicode="&#x11C;" horiz-adv-x="556" d="M439 800Q439 797 433 787L414 755Q409 747 407 745T399 742Q396 742 386 748L301 798L215 748Q204 742 202 742Q197 742 195 744T187 755L169 787Q163 796 163 800Q163 804 165 807T174 815L287 904Q294 909 296 910T301 912Q304 912 306 911T316 904L428 815Q435 810 437 807T439 800ZM310 251Q296 251 293 254T289 272V339Q289 353 292 356T310 360H487Q501 360 504 357T508 339V59Q508 48 506 44T492 32Q456 9 407 -4T305 -17Q40 -17 40 342Q40 521 108 612T309 703Q356 703 398 692T475 659Q487 651 490 648T494 639Q494 635 492 631L455 556Q452 551 448 551Q443 551 439 554Q416 566 400 574T369 586T343 593T315 595Q286 595 261 583T222 551Q201 520 191 468T180 348Q180 283 188 231T212 151Q226 126 254 111T316 95Q352 95 385 111V251H310Z"  />
<glyph unicode="&#x11D;" horiz-adv-x="500" d="M388 628Q388 625 382 615L363 583Q358 575 356 573T348 570Q345 570 335 576L250 626L164 576Q153 570 151 570Q146 570 144 572T136 583L118 615Q112 624 112 628Q112 632 114 635T123 643L236 732Q243 737 245 738T250 740Q253 740 255 739T265 732L377 643Q384 638 386 635T388 628ZM464 474Q464 472 464 470T458 456Q446 428 441 403T436 343V195Q436 113 439 32Q440 12 440 -4T441 -31Q441 -117 393 -163T253 -209Q221 -209 186 -204T120 -190T70 -173T50 -154Q50 -150 52 -144L73 -75Q76 -65 84 -65Q88 -65 93 -68Q174 -105 241 -105Q283 -105 300 -86T318 -22Q318 -10 317 6T313 43Q285 23 257 15T197 6Q121 6 77 71T33 249Q33 309 46 357T82 440T140 492T216 511Q251 511 276 501T331 465Q340 487 350 500T366 514Q372 514 376 512L455 484Q464 479 464 474ZM313 377Q292 393 276 399T242 406Q202 406 181 367T160 254Q160 182 179 145T234 107Q280 107 313 141V377Z"  />
<glyph unicode="&#x11E;" horiz-adv-x="556" d="M441 856Q441 842 434 821T416 786Q380 735 302 735Q211 735 176 799Q169 812 165 827T160 854Q160 868 171 869L238 877L243 878Q247 878 248 876T251 861Q260 814 301 814Q320 814 333 826T350 861Q352 872 353 875T356 878H358L363 877L430 869Q441 868 441 856ZM310 251Q296 251 293 254T289 272V339Q289 353 292 356T310 360H487Q501 360 504 357T508 339V59Q508 48 506 44T492 32Q456 9 407 -4T305 -17Q40 -17 40 342Q40 521 108 612T309 703Q356 703 398 692T475 659Q487 651 490 648T494 639Q494 635 492 631L455 556Q452 551 448 551Q443 551 439 554Q416 566 400 574T369 586T343 593T315 595Q286 595 261 583T222 551Q201 520 191 468T180 348Q180 283 188 231T212 151Q226 126 254 111T316 95Q352 95 385 111V251H310Z"  />
<glyph unicode="&#x11F;" horiz-adv-x="500" d="M390 684Q390 670 383 649T365 614Q329 563 251 563Q160 563 125 627Q118 640 114 655T109 682Q109 696 120 697L187 705L192 706Q196 706 197 704T200 689Q209 642 250 642Q269 642 282 654T299 689Q301 700 302 703T305 706H307L312 705L379 697Q390 696 390 684ZM464 474Q464 472 464 470T458 456Q446 428 441 403T436 343V195Q436 113 439 32Q440 12 440 -4T441 -31Q441 -117 393 -163T253 -209Q221 -209 186 -204T120 -190T70 -173T50 -154Q50 -150 52 -144L73 -75Q76 -65 84 -65Q88 -65 93 -68Q174 -105 241 -105Q283 -105 300 -86T318 -22Q318 -10 317 6T313 43Q285 23 257 15T197 6Q121 6 77 71T33 249Q33 309 46 357T82 440T140 492T216 511Q251 511 276 501T331 465Q340 487 350 500T366 514Q372 514 376 512L455 484Q464 479 464 474ZM313 377Q292 393 276 399T242 406Q202 406 181 367T160 254Q160 182 179 145T234 107Q280 107 313 141V377Z"  />
<glyph unicode="&#x120;" horiz-adv-x="556" d="M310 251Q296 251 293 254T289 272V339Q289 353 292 356T310 360H487Q501 360 504 357T508 339V59Q508 48 506 44T492 32Q456 9 407 -4T305 -17Q40 -17 40 342Q40 521 108 612T309 703Q356 703 398 692T475 659Q487 651 490 648T494 639Q494 635 492 631L455 556Q452 551 448 551Q443 551 439 554Q416 566 400 574T369 586T343 593T315 595Q286 595 261 583T222 551Q201 520 191 468T180 348Q180 283 188 231T212 151Q226 126 254 111T316 95Q352 95 385 111V251H310ZM378 809Q378 777 356 755T301 732Q268 732 246 755T223 810Q223 842 246 864T302 887Q317 887 331 881T355 865T372 840T378 809Z"  />
<glyph unicode="&#x121;" horiz-adv-x="500" d="M327 637Q327 605 305 583T250 560Q217 560 195 583T172 638Q172 670 195 692T251 715Q266 715 280 709T304 693T321 668T327 637ZM464 474Q464 472 464 470T458 456Q446 428 441 403T436 343V195Q436 113 439 32Q440 12 440 -4T441 -31Q441 -117 393 -163T253 -209Q221 -209 186 -204T120 -190T70 -173T50 -154Q50 -150 52 -144L73 -75Q76 -65 84 -65Q88 -65 93 -68Q174 -105 241 -105Q283 -105 300 -86T318 -22Q318 -10 317 6T313 43Q285 23 257 15T197 6Q121 6 77 71T33 249Q33 309 46 357T82 440T140 492T216 511Q251 511 276 501T331 465Q340 487 350 500T366 514Q372 514 376 512L455 484Q464 479 464 474ZM313 377Q292 393 276 399T242 406Q202 406 181 367T160 254Q160 182 179 145T234 107Q280 107 313 141V377Z"  />
<glyph unicode="&#x122;" horiz-adv-x="556" d="M310 251Q296 251 293 254T289 272V339Q289 353 292 356T310 360H487Q501 360 504 357T508 339V59Q508 48 506 44T492 32Q456 9 407 -4T305 -17Q40 -17 40 342Q40 521 108 612T309 703Q356 703 398 692T475 659Q487 651 490 648T494 639Q494 635 492 631L455 556Q452 551 448 551Q443 551 439 554Q416 566 400 574T369 586T343 593T315 595Q286 595 261 583T222 551Q201 520 191 468T180 348Q180 283 188 231T212 151Q226 126 254 111T316 95Q352 95 385 111V251H310ZM289 -227Q281 -241 271 -241Q268 -241 266 -241T259 -239L224 -230Q209 -226 209 -217Q209 -213 212 -204L247 -67Q252 -50 269 -50H354Q375 -50 375 -60Q375 -66 369 -75L289 -227Z"  />
<glyph unicode="&#x123;" horiz-adv-x="500" d="M257 735Q265 749 275 749Q277 749 287 747L322 738Q336 734 336 725Q336 723 336 720T334 712L299 575Q294 558 277 558H192Q171 558 171 568Q171 574 177 583L257 735ZM464 474Q464 472 464 470T458 456Q446 428 441 403T436 343V195Q436 113 439 32Q440 12 440 -4T441 -31Q441 -117 393 -163T253 -209Q221 -209 186 -204T120 -190T70 -173T50 -154Q50 -150 52 -144L73 -75Q76 -65 84 -65Q88 -65 93 -68Q174 -105 241 -105Q283 -105 300 -86T318 -22Q318 -10 317 6T313 43Q285 23 257 15T197 6Q121 6 77 71T33 249Q33 309 46 357T82 440T140 492T216 511Q251 511 276 501T331 465Q340 487 350 500T366 514Q372 514 376 512L455 484Q464 479 464 474ZM313 377Q292 393 276 399T242 406Q202 406 181 367T160 254Q160 182 179 145T234 107Q280 107 313 141V377Z"  />
<glyph unicode="&#x124;" horiz-adv-x="630" d="M453 800Q453 797 447 787L428 755Q423 747 421 745T413 742Q410 742 400 748L315 798L229 748Q218 742 216 742Q211 742 209 744T201 755L183 787Q177 796 177 800Q177 804 179 807T188 815L301 904Q308 909 310 910T315 912Q318 912 320 911T330 904L442 815Q449 810 451 807T453 800ZM409 406V665Q409 679 412 682T429 686H525Q539 686 542 683T546 665V21Q546 7 543 4T525 0H429Q415 0 412 3T409 21V304H222V21Q222 7 219 4T201 0H106Q92 0 89 3T85 21V665Q85 679 88 682T106 686H201Q215 686 218 683T222 665V406H409Z"  />
<glyph unicode="&#x125;" horiz-adv-x="537" d="M277 837Q277 834 271 824L252 792Q247 784 245 782T237 779Q234 779 224 785L139 835L53 785Q42 779 40 779Q35 779 33 781T25 792L7 824Q1 833 1 837Q1 841 3 844T12 852L125 941Q132 946 134 947T139 949Q142 949 144 948T154 941L266 852Q273 847 275 844T277 837ZM204 17Q204 6 201 3T187 0H94Q83 0 80 3T77 17V686Q77 697 79 699T92 704L185 723Q187 724 189 724T194 724Q204 724 204 707V453Q265 511 342 511Q378 511 407 497T452 457Q463 438 467 415T472 354V17Q472 6 469 3T455 0H362Q351 0 348 3T345 17V325Q345 371 333 390T290 409Q267 409 248 400T204 368V17Z"  />
<glyph unicode="&#x126;" horiz-adv-x="630" d="M546 21Q546 7 543 4T525 0H429Q415 0 412 3T409 21V304H222V21Q222 7 219 4T201 0H106Q92 0 89 3T85 21V497H31Q17 497 14 500T10 518V565Q10 579 13 582T31 586H85V665Q85 679 88 682T106 686H201Q215 686 218 683T222 665V586H409V665Q409 679 412 682T429 686H525Q539 686 542 683T546 665V586H599Q613 586 616 583T620 565V518Q620 504 617 501T599 497H546V21ZM409 406V497H222V406H409Z"  />
<glyph unicode="&#x127;" horiz-adv-x="537" d="M77 561H14Q5 561 3 563T0 575V622Q0 631 2 633T14 636H77V686Q77 697 79 699T92 704L185 723Q187 724 189 724T194 724Q204 724 204 707V636H327Q336 636 338 634T341 622V575Q341 561 327 561H204V453Q265 511 342 511Q378 511 407 497T452 457Q463 438 467 415T472 354V17Q472 6 469 3T455 0H362Q351 0 348 3T345 17V325Q345 371 333 390T290 409Q267 409 248 400T204 368V17Q204 6 201 3T187 0H94Q83 0 80 3T77 17V561Z"  />
<glyph unicode="&#x128;" horiz-adv-x="352" d="M331 847Q331 842 326 832T310 807Q290 778 271 766T225 753Q208 753 195 758T159 778Q149 785 143 787T129 789Q109 789 93 760Q88 752 84 752Q82 752 75 755L28 779Q21 783 21 788Q21 792 27 805T43 832Q61 859 79 870T124 881Q141 881 156 877T195 858Q207 851 213 849T227 846Q237 846 244 852T262 877Q264 882 269 882Q271 882 272 882T277 879L323 856Q331 853 331 847ZM108 587H54Q40 587 37 590T33 608V665Q33 679 36 682T54 686H299Q313 686 316 683T320 665V608Q320 594 317 591T299 587H245V99H299Q313 99 316 96T320 78V21Q320 7 317 4T299 0H54Q40 0 37 3T33 21V78Q33 92 36 95T54 99H108V587Z"  />
<glyph unicode="&#x129;" horiz-adv-x="296" d="M18 401Q7 401 4 404T1 418V477Q1 488 4 491T18 494H204Q215 494 218 491T221 477V17Q221 6 218 3T204 0H111Q100 0 97 3T94 17V401H18ZM274 675Q274 670 269 660T253 635Q233 606 214 594T168 581Q151 581 138 586T102 606Q92 613 86 615T72 617Q52 617 36 588Q31 580 27 580Q25 580 18 583L-29 607Q-36 611 -36 616Q-36 620 -30 633T-14 660Q4 687 22 698T67 709Q84 709 99 705T138 686Q150 679 156 677T170 674Q180 674 187 680T205 705Q207 710 212 710Q214 710 215 710T220 707L266 684Q274 681 274 675Z"  />
<glyph unicode="&#x12A;" horiz-adv-x="352" d="M278 853Q292 853 295 850T298 832V787Q298 773 295 770T278 767H74Q60 767 57 770T53 787V832Q53 846 56 849T74 853H278ZM108 587H54Q40 587 37 590T33 608V665Q33 679 36 682T54 686H299Q313 686 316 683T320 665V608Q320 594 317 591T299 587H245V99H299Q313 99 316 96T320 78V21Q320 7 317 4T299 0H54Q40 0 37 3T33 21V78Q33 92 36 95T54 99H108V587Z"  />
<glyph unicode="&#x12B;" horiz-adv-x="296" d="M241 615Q241 601 238 598T221 595H17Q3 595 0 598T-4 615V660Q-4 674 -1 677T17 681H221Q235 681 238 678T241 660V615ZM18 401Q7 401 4 404T1 418V477Q1 488 4 491T18 494H204Q215 494 218 491T221 477V17Q221 6 218 3T204 0H111Q100 0 97 3T94 17V401H18Z"  />
<glyph unicode="&#x12C;" horiz-adv-x="352" d="M316 856Q316 842 309 821T291 786Q255 735 177 735Q86 735 51 799Q44 812 40 827T35 854Q35 868 46 869L113 877L118 878Q122 878 123 876T126 861Q135 814 176 814Q195 814 208 826T225 861Q227 872 228 875T231 878H233L238 877L305 869Q316 868 316 856ZM108 587H54Q40 587 37 590T33 608V665Q33 679 36 682T54 686H299Q313 686 316 683T320 665V608Q320 594 317 591T299 587H245V99H299Q313 99 316 96T320 78V21Q320 7 317 4T299 0H54Q40 0 37 3T33 21V78Q33 92 36 95T54 99H108V587Z"  />
<glyph unicode="&#x12D;" horiz-adv-x="296" d="M259 684Q259 670 252 649T234 614Q198 563 120 563Q29 563 -6 627Q-13 640 -17 655T-22 682Q-22 696 -11 697L56 705L61 706Q65 706 66 704T69 689Q78 642 119 642Q138 642 151 654T168 689Q170 700 171 703T174 706H176L181 705L248 697Q259 696 259 684ZM18 401Q7 401 4 404T1 418V477Q1 488 4 491T18 494H204Q215 494 218 491T221 477V17Q221 6 218 3T204 0H111Q100 0 97 3T94 17V401H18Z"  />
<glyph unicode="&#x12E;" horiz-adv-x="352" d="M320 21Q320 7 317 4T299 0H242Q223 -20 216 -39T209 -82Q209 -106 237 -106Q257 -106 280 -94Q288 -90 291 -90Q295 -90 297 -96L311 -141Q313 -146 313 -147T313 -150V-152Q313 -157 305 -162T283 -173T254 -181T224 -184Q179 -184 152 -161T125 -100Q125 -71 141 -47T186 0H54Q40 0 37 3T33 21V78Q33 92 36 95T54 99H108V587H54Q40 587 37 590T33 608V665Q33 679 36 682T54 686H299Q313 686 316 683T320 665V608Q320 594 317 591T299 587H245V99H299Q313 99 316 96T320 78V21Z"  />
<glyph unicode="&#x12F;" horiz-adv-x="296" d="M243 -152Q243 -157 235 -162T213 -173T184 -181T154 -184Q109 -184 82 -161T55 -100Q55 -71 71 -47T116 0H111Q100 0 97 3T94 17V401H18Q7 401 4 404T1 418V477Q1 488 4 491T18 494H204Q215 494 218 491T221 477V17Q221 6 218 3T204 0H172Q153 -20 146 -39T139 -82Q139 -106 167 -106Q187 -106 210 -94Q218 -90 221 -90Q225 -90 227 -96L241 -141Q243 -146 243 -147T243 -150V-152ZM235 641Q235 607 212 584T154 560Q120 560 97 583T73 642Q73 675 97 698T155 722Q188 722 211 698T235 641Z"  />
<glyph unicode="&#x130;" horiz-adv-x="352" d="M253 809Q253 777 231 755T176 732Q143 732 121 755T98 810Q98 842 121 864T177 887Q192 887 206 881T230 865T247 840T253 809ZM108 587H54Q40 587 37 590T33 608V665Q33 679 36 682T54 686H299Q313 686 316 683T320 665V608Q320 594 317 591T299 587H245V99H299Q313 99 316 96T320 78V21Q320 7 317 4T299 0H54Q40 0 37 3T33 21V78Q33 92 36 95T54 99H108V587Z"  />
<glyph unicode="&#x131;" horiz-adv-x="296" d="M18 401Q7 401 4 404T1 418V477Q1 488 4 491T18 494H204Q215 494 218 491T221 477V17Q221 6 218 3T204 0H111Q100 0 97 3T94 17V401H18Z"  />
<glyph unicode="&#x132;" horiz-adv-x="778" d="M320 21Q320 7 317 4T299 0H54Q40 0 37 3T33 21V78Q33 92 36 95T54 99H108V587H54Q40 587 37 590T33 608V665Q33 679 36 682T54 686H299Q313 686 316 683T320 665V608Q320 594 317 591T299 587H245V99H299Q313 99 316 96T320 78V21ZM712 211Q712 155 706 121T684 61Q660 21 620 2T520 -17Q459 -17 422 5T362 76Q341 122 341 178Q341 192 344 197T355 202H451Q462 202 462 188V175Q462 94 522 94Q555 94 566 119Q572 132 573 145T575 192V587H437Q423 587 420 590T416 608V665Q416 679 419 682T437 686H692Q705 686 708 683T712 665V211Z"  />
<glyph unicode="&#x133;" horiz-adv-x="587" d="M235 641Q235 607 212 584T154 560Q120 560 97 583T73 642Q73 675 97 698T155 722Q188 722 211 698T235 641ZM221 17Q221 6 218 3T204 0H111Q100 0 97 3T94 17V401H18Q7 401 4 404T1 418V477Q1 488 4 491T18 494H204Q215 494 218 491T221 477V17ZM526 641Q526 607 503 584T445 560Q411 560 388 583T364 642Q364 675 388 698T446 722Q479 722 502 698T526 641ZM512 10Q512 -28 511 -55T507 -102T499 -138T487 -166Q468 -200 431 -218T341 -236Q320 -236 300 -234T265 -227T240 -218T230 -208Q230 -206 232 -198L254 -123Q256 -116 263 -116Q265 -116 266 -116T271 -118Q300 -131 327 -131Q370 -131 381 -82Q383 -70 384 -50T385 10V401H309Q298 401 295 404T292 418V477Q292 488 295 491T309 494H495Q506 494 509 491T512 477V10Z"  />
<glyph unicode="&#x134;" horiz-adv-x="426" d="M356 800Q356 797 350 787L331 755Q326 747 324 745T316 742Q313 742 303 748L218 798L132 748Q121 742 119 742Q114 742 112 744T104 755L86 787Q80 796 80 800Q80 804 82 807T91 815L204 904Q211 909 213 910T218 912Q221 912 223 911T233 904L345 815Q352 810 354 807T356 800ZM85 587Q71 587 68 590T64 608V665Q64 679 67 682T85 686H340Q353 686 356 683T360 665V211Q360 155 354 121T332 61Q308 21 268 2T168 -17Q107 -17 70 5T10 76Q-11 122 -11 178Q-11 192 -8 197T3 202H99Q110 202 110 188V175Q110 94 170 94Q203 94 214 119Q220 132 221 145T223 192V587H85Z"  />
<glyph unicode="&#x135;" horiz-adv-x="296" d="M221 10Q221 -28 220 -55T216 -102T208 -138T196 -166Q177 -200 140 -218T50 -236Q29 -236 9 -234T-26 -227T-51 -218T-61 -208Q-61 -206 -59 -198L-37 -123Q-35 -116 -28 -116Q-26 -116 -25 -116T-20 -118Q9 -131 36 -131Q79 -131 90 -82Q92 -70 93 -50T94 10V401H18Q7 401 4 404T1 418V477Q1 488 4 491T18 494H204Q215 494 218 491T221 477V10ZM263 628Q263 625 257 615L238 583Q233 575 231 573T223 570Q220 570 210 576L125 626L39 576Q28 570 26 570Q21 570 19 572T11 583L-7 615Q-13 624 -13 628Q-13 632 -11 635T-2 643L111 732Q118 737 120 738T125 740Q128 740 130 739T140 732L252 643Q259 638 261 635T263 628Z"  />
<glyph unicode="&#x136;" horiz-adv-x="574" d="M582 45Q582 40 580 38T568 31L482 -13Q480 -14 475 -15T468 -17Q462 -17 455 -7L222 302V21Q222 7 219 4T201 0H106Q92 0 89 3T85 21V665Q85 679 88 682T106 686H201Q215 686 218 683T222 665V384L439 684Q447 695 454 695Q459 695 467 691L540 654Q549 649 551 647T554 639Q554 637 553 634T547 625L340 351L574 60Q582 52 582 45ZM295 -227Q287 -241 277 -241Q274 -241 272 -241T265 -239L230 -230Q215 -226 215 -217Q215 -213 218 -204L253 -67Q258 -50 275 -50H360Q381 -50 381 -60Q381 -66 375 -75L295 -227Z"  />
<glyph unicode="&#x137;" horiz-adv-x="500" d="M503 43Q503 37 493 31L414 -13Q409 -16 408 -16T404 -17Q397 -17 391 -8L204 232V17Q204 6 201 3T187 0H94Q83 0 80 3T77 17V686Q77 696 79 699T92 704L185 723L194 724Q204 724 204 707V306L398 501Q404 507 405 508T410 509Q413 509 414 508T422 502L476 459Q484 453 484 447Q484 442 477 435L313 277L497 55Q503 49 503 43ZM258 -227Q250 -241 240 -241Q237 -241 235 -241T228 -239L193 -230Q178 -226 178 -217Q178 -213 181 -204L216 -67Q221 -50 238 -50H323Q344 -50 344 -60Q344 -66 338 -75L258 -227Z"  />
<glyph unicode="&#x138;" horiz-adv-x="500" d="M398 501Q404 507 405 508T410 509Q413 509 414 508T422 502L476 459Q484 453 484 447Q484 442 477 435L313 277L497 55Q503 49 503 43Q503 37 493 31L414 -13Q409 -16 408 -16T404 -17Q397 -17 391 -8L204 232V17Q204 6 201 3T187 0H94Q83 0 80 3T77 17V353Q77 417 56 462Q53 468 53 472Q53 478 61 481L147 514Q153 516 157 516Q165 516 173 504T188 472T199 424T204 367V306L398 501Z"  />
<glyph unicode="&#x139;" horiz-adv-x="482" d="M480 113Q480 111 480 110T478 101L460 18Q458 7 454 4T437 0H106Q92 0 89 3T85 21V665Q85 679 88 682T106 686H201Q215 686 218 683T222 665V124H460Q480 124 480 113ZM343 829Q343 820 328 815L151 745Q147 744 143 743T137 742Q133 742 131 745T124 756L108 788Q103 797 103 802Q103 807 116 815L279 912Q287 917 289 917T293 918Q297 918 300 915T307 904L338 843Q343 833 343 829Z"  />
<glyph unicode="&#x13A;" horiz-adv-x="278" d="M289 11Q289 6 280 1T257 -8T224 -14T188 -17Q99 -17 74 55Q71 64 69 71T67 92T66 124T65 177V685Q65 701 80 704L170 722Q178 724 179 724T182 724Q192 724 192 707V186Q192 165 192 153T192 135T192 126T194 120Q200 100 219 100Q227 100 234 101T252 106Q255 107 259 107Q265 107 267 101L287 19L288 15Q289 13 289 11ZM328 866Q328 857 313 852L136 782Q132 781 128 780T122 779Q118 779 116 782T109 793L93 825Q88 834 88 839Q88 844 101 852L264 949Q272 954 274 954T278 955Q282 955 285 952T292 941L323 880Q328 870 328 866Z"  />
<glyph unicode="&#x13B;" horiz-adv-x="482" d="M480 113Q480 111 480 110T478 101L460 18Q458 7 454 4T437 0H106Q92 0 89 3T85 21V665Q85 679 88 682T106 686H201Q215 686 218 683T222 665V124H460Q480 124 480 113ZM247 -227Q239 -241 229 -241Q226 -241 224 -241T217 -239L182 -230Q167 -226 167 -217Q167 -213 170 -204L205 -67Q210 -50 227 -50H312Q333 -50 333 -60Q333 -66 327 -75L247 -227Z"  />
<glyph unicode="&#x13C;" horiz-adv-x="278" d="M289 11Q289 6 280 1T257 -8T224 -14T188 -17Q99 -17 74 55Q71 64 69 71T67 92T66 124T65 177V685Q65 701 80 704L170 722Q178 724 179 724T182 724Q192 724 192 707V186Q192 165 192 153T192 135T192 126T194 120Q200 100 219 100Q227 100 234 101T252 106Q255 107 259 107Q265 107 267 101L287 19L288 15Q289 13 289 11ZM153 -227Q145 -241 135 -241Q132 -241 130 -241T123 -239L88 -230Q73 -226 73 -217Q73 -213 76 -204L111 -67Q116 -50 133 -50H218Q239 -50 239 -60Q239 -66 233 -75L153 -227Z"  />
<glyph unicode="&#x13D;" horiz-adv-x="482" d="M292 854Q292 850 290 847T281 839L168 750Q160 744 158 743T153 742Q151 742 149 743T139 750L27 839Q20 844 18 847T16 854Q16 857 22 868L41 899Q46 907 48 909T56 912Q58 912 69 906L154 856L240 906Q250 912 253 912Q258 912 260 910T268 899L286 868Q292 856 292 854ZM480 113Q480 111 480 110T478 101L460 18Q458 7 454 4T437 0H106Q92 0 89 3T85 21V665Q85 679 88 682T106 686H201Q215 686 218 683T222 665V124H460Q480 124 480 113Z"  />
<glyph unicode="&#x13E;" horiz-adv-x="278" d="M299 532Q292 517 282 517Q276 517 269 520L249 527Q236 532 236 542Q236 549 237 553L262 692Q265 709 284 709H354Q374 709 374 700Q374 696 369 684L299 532ZM289 11Q289 6 280 1T257 -8T224 -14T188 -17Q99 -17 74 55Q71 64 69 71T67 92T66 124T65 177V685Q65 701 80 704L170 722Q178 724 179 724T182 724Q192 724 192 707V186Q192 165 192 153T192 135T192 126T194 120Q200 100 219 100Q227 100 234 101T252 106Q255 107 259 107Q265 107 267 101L287 19L288 15Q289 13 289 11Z"  />
<glyph unicode="&#x13F;" horiz-adv-x="482" d="M491 363Q491 331 469 309T414 286Q381 286 359 309T336 364Q336 396 359 418T415 441Q430 441 444 435T468 419T485 394T491 363ZM480 113Q480 111 480 110T478 101L460 18Q458 7 454 4T437 0H106Q92 0 89 3T85 21V665Q85 679 88 682T106 686H201Q215 686 218 683T222 665V124H460Q480 124 480 113Z"  />
<glyph unicode="&#x140;" horiz-adv-x="432" d="M427 363Q427 331 405 309T350 286Q317 286 295 309T272 364Q272 396 295 418T351 441Q366 441 380 435T404 419T421 394T427 363ZM289 11Q289 6 280 1T257 -8T224 -14T188 -17Q99 -17 74 55Q71 64 69 71T67 92T66 124T65 177V685Q65 701 80 704L170 722Q178 724 179 724T182 724Q192 724 192 707V186Q192 165 192 153T192 135T192 126T194 120Q200 100 219 100Q227 100 234 101T252 106Q255 107 259 107Q265 107 267 101L287 19L288 15Q289 13 289 11Z"  />
<glyph unicode="&#x141;" horiz-adv-x="482" d="M480 113Q480 111 480 110T478 101L459 18Q456 7 453 4T437 0H105Q91 0 88 3T85 21V260L26 225Q21 222 18 222Q12 222 12 233V296Q12 307 21 312L85 352V665Q85 679 88 682T105 686H202Q216 686 219 683T222 665V437L360 522Q366 526 367 526T371 527Q377 527 377 515V444Q377 436 367 430L222 343V124H459Q480 124 480 113Z"  />
<glyph unicode="&#x142;" horiz-adv-x="296" d="M202 186Q202 166 202 155T202 138T202 128T204 122Q208 100 230 100Q238 100 244 101T262 106Q264 107 269 107Q274 107 276 101L297 15Q297 14 297 14T298 12V11Q298 6 289 1T266 -8T234 -14T198 -17Q109 -17 84 55Q81 64 79 72T77 94T76 126T75 177V285L8 241Q1 236 -2 236Q-8 236 -8 247V310Q-8 320 0 326L75 376V686Q75 697 77 699T90 704L183 723Q185 724 187 724T192 724Q202 724 202 707V454L281 509Q284 512 289 512Q295 512 295 501V437Q295 429 287 423L202 363V186Z"  />
<glyph unicode="&#x143;" horiz-adv-x="611" d="M538 21Q538 7 535 4T517 0H453Q439 0 435 3T423 19L251 343Q239 366 230 384T213 419T200 451T187 485Q188 459 188 444T189 418T190 394T190 363V21Q190 7 187 4T169 0H94Q80 0 77 3T73 21V665Q73 679 76 682T94 686H172Q186 686 190 684T201 669L359 375Q377 342 393 301T423 221Q422 249 422 267T421 298T421 322T421 347V665Q421 679 424 682T442 686H517Q531 686 534 683T538 665V21ZM494 829Q494 820 479 815L302 745Q298 744 294 743T288 742Q284 742 282 745T275 756L259 788Q254 797 254 802Q254 807 267 815L430 912Q438 917 440 917T444 918Q448 918 451 915T458 904L489 843Q494 833 494 829Z"  />
<glyph unicode="&#x144;" horiz-adv-x="537" d="M457 657Q457 648 442 643L265 573Q261 572 257 571T251 570Q247 570 245 573T238 584L222 616Q217 625 217 630Q217 635 230 643L393 740Q401 745 403 745T407 746Q411 746 414 743T421 732L452 671Q457 661 457 657ZM201 17Q201 6 198 3T184 0H91Q80 0 77 3T74 17V353Q74 417 53 462Q50 468 50 472Q50 478 58 481L147 514Q153 516 157 516Q166 516 175 498T193 447Q231 482 265 496T343 511Q410 511 441 473T472 353V17Q472 6 469 3T455 0H362Q351 0 348 3T345 17V325Q345 370 332 389T288 409Q266 409 247 400T201 368V17Z"  />
<glyph unicode="&#x145;" horiz-adv-x="611" d="M538 21Q538 7 535 4T517 0H453Q439 0 435 3T423 19L251 343Q239 366 230 384T213 419T200 451T187 485Q188 459 188 444T189 418T190 394T190 363V21Q190 7 187 4T169 0H94Q80 0 77 3T73 21V665Q73 679 76 682T94 686H172Q186 686 190 684T201 669L359 375Q377 342 393 301T423 221Q422 249 422 267T421 298T421 322T421 347V665Q421 679 424 682T442 686H517Q531 686 534 683T538 665V21ZM290 -227Q282 -241 272 -241Q269 -241 267 -241T260 -239L225 -230Q210 -226 210 -217Q210 -213 213 -204L248 -67Q253 -50 270 -50H355Q376 -50 376 -60Q376 -66 370 -75L290 -227Z"  />
<glyph unicode="&#x146;" horiz-adv-x="537" d="M201 17Q201 6 198 3T184 0H91Q80 0 77 3T74 17V353Q74 417 53 462Q50 468 50 472Q50 478 58 481L147 514Q153 516 157 516Q166 516 175 498T193 447Q231 482 265 496T343 511Q410 511 441 473T472 353V17Q472 6 469 3T455 0H362Q351 0 348 3T345 17V325Q345 370 332 389T288 409Q266 409 247 400T201 368V17ZM253 -227Q245 -241 235 -241Q232 -241 230 -241T223 -239L188 -230Q173 -226 173 -217Q173 -213 176 -204L211 -67Q216 -50 233 -50H318Q339 -50 339 -60Q339 -66 333 -75L253 -227Z"  />
<glyph unicode="&#x147;" horiz-adv-x="611" d="M443 854Q443 850 441 847T432 839L319 750Q311 744 309 743T304 742Q302 742 300 743T290 750L178 839Q171 844 169 847T167 854Q167 857 173 868L192 899Q197 907 199 909T207 912Q209 912 220 906L305 856L391 906Q401 912 404 912Q409 912 411 910T419 899L437 868Q443 856 443 854ZM538 21Q538 7 535 4T517 0H453Q439 0 435 3T423 19L251 343Q239 366 230 384T213 419T200 451T187 485Q188 459 188 444T189 418T190 394T190 363V21Q190 7 187 4T169 0H94Q80 0 77 3T73 21V665Q73 679 76 682T94 686H172Q186 686 190 684T201 669L359 375Q377 342 393 301T423 221Q422 249 422 267T421 298T421 322T421 347V665Q421 679 424 682T442 686H517Q531 686 534 683T538 665V21Z"  />
<glyph unicode="&#x148;" horiz-adv-x="537" d="M406 682Q406 678 404 675T395 667L282 578Q274 572 272 571T267 570Q265 570 263 571T253 578L141 667Q134 672 132 675T130 682Q130 685 136 696L155 727Q160 735 162 737T170 740Q172 740 183 734L268 684L354 734Q364 740 367 740Q372 740 374 738T382 727L400 696Q406 684 406 682ZM201 17Q201 6 198 3T184 0H91Q80 0 77 3T74 17V353Q74 417 53 462Q50 468 50 472Q50 478 58 481L147 514Q153 516 157 516Q166 516 175 498T193 447Q231 482 265 496T343 511Q410 511 441 473T472 353V17Q472 6 469 3T455 0H362Q351 0 348 3T345 17V325Q345 370 332 389T288 409Q266 409 247 400T201 368V17Z"  />
<glyph unicode="&#x149;" horiz-adv-x="597" d="M261 17Q261 6 258 3T244 0H151Q140 0 137 3T134 17V353Q134 417 113 462Q110 468 110 472Q110 478 118 481L207 514Q213 516 217 516Q226 516 235 498T253 447Q291 482 325 496T403 511Q470 511 501 473T532 353V17Q532 6 529 3T515 0H422Q411 0 408 3T405 17V325Q405 370 392 389T348 409Q326 409 307 400T261 368V17ZM181 704Q181 701 180 700T175 690L56 466Q48 452 42 452Q40 452 30 455L-8 468Q-18 471 -21 473T-24 481Q-24 483 -24 485T-21 494L41 698Q46 715 64 715H160Q181 715 181 704Z"  />
<glyph unicode="&#x14A;" horiz-adv-x="611" d="M251 343Q239 366 230 384T213 419T200 451T187 485Q188 459 188 444T189 418T190 394T190 363V21Q190 7 187 4T169 0H94Q80 0 77 3T73 21V665Q73 679 76 682T94 686H172Q186 686 190 684T201 669L359 375Q377 342 393 301T423 221Q422 249 422 267T421 298T421 322T421 347V665Q421 679 424 682T442 686H517Q531 686 534 683T538 665V10Q538 -28 537 -55T533 -102T525 -138T513 -166Q494 -200 457 -218T367 -236Q346 -236 326 -234T291 -227T266 -218T256 -208Q256 -206 258 -198L280 -123Q282 -116 289 -116Q291 -116 292 -116T297 -118Q311 -124 328 -127T358 -131Q379 -131 395 -118T417 -82Q419 -70 420 -44T421 21L251 343Z"  />
<glyph unicode="&#x14B;" horiz-adv-x="537" d="M239 -130Q241 -123 247 -123Q251 -123 260 -127T287 -131Q330 -131 341 -82Q343 -70 344 -44T345 21V325Q345 370 332 389T288 409Q266 409 247 400T201 368V17Q201 6 198 3T184 0H91Q80 0 77 3T74 17V353Q74 417 53 462Q50 468 50 472Q50 478 58 481L147 514Q153 516 157 516Q166 516 175 498T193 447Q231 482 265 496T343 511Q410 511 441 473T472 353V10Q472 -28 471 -55T467 -102T459 -138T447 -166Q428 -200 391 -218T301 -236Q284 -236 269 -235T239 -229Q229 -226 222 -223T215 -215Q215 -213 217 -205L239 -130Z"  />
<glyph unicode="&#x14C;" horiz-adv-x="574" d="M409 787Q409 773 406 770T389 767H185Q171 767 168 770T164 787V832Q164 846 167 849T185 853H389Q403 853 406 850T409 832V787ZM535 351Q535 -17 284 -17Q40 -17 40 346Q40 456 61 526T128 641Q193 703 292 703Q342 703 387 684T461 632Q535 548 535 351ZM391 340Q391 472 366 533T286 595Q236 595 210 531T184 342Q184 91 287 91Q391 91 391 340Z"  />
<glyph unicode="&#x14D;" horiz-adv-x="500" d="M372 615Q372 601 369 598T352 595H148Q134 595 131 598T127 615V660Q127 674 130 677T148 681H352Q366 681 369 678T372 660V615ZM468 248Q468 187 453 138T410 55T342 2T251 -17Q148 -17 91 52T33 247Q33 368 91 438Q123 476 162 493T255 511Q304 511 343 493T410 440T453 358T468 248ZM333 246Q333 335 314 372T249 410Q206 410 187 372T168 247Q168 160 187 122T250 84Q295 84 314 122T333 246Z"  />
<glyph unicode="&#x14E;" horiz-adv-x="574" d="M427 856Q427 842 420 821T402 786Q366 735 288 735Q197 735 162 799Q155 812 151 827T146 854Q146 868 157 869L224 877L229 878Q233 878 234 876T237 861Q246 814 287 814Q306 814 319 826T336 861Q338 872 339 875T342 878H344L349 877L416 869Q427 868 427 856ZM535 351Q535 -17 284 -17Q40 -17 40 346Q40 456 61 526T128 641Q193 703 292 703Q342 703 387 684T461 632Q535 548 535 351ZM391 340Q391 472 366 533T286 595Q236 595 210 531T184 342Q184 91 287 91Q391 91 391 340Z"  />
<glyph unicode="&#x14F;" horiz-adv-x="500" d="M468 248Q468 187 453 138T410 55T342 2T251 -17Q148 -17 91 52T33 247Q33 368 91 438Q123 476 162 493T255 511Q304 511 343 493T410 440T453 358T468 248ZM333 246Q333 335 314 372T249 410Q206 410 187 372T168 247Q168 160 187 122T250 84Q295 84 314 122T333 246ZM390 684Q390 670 383 649T365 614Q329 563 251 563Q160 563 125 627Q118 640 114 655T109 682Q109 696 120 697L187 705L192 706Q196 706 197 704T200 689Q209 642 250 642Q269 642 282 654T299 689Q301 700 302 703T305 706H307L312 705L379 697Q390 696 390 684Z"  />
<glyph unicode="&#x150;" horiz-adv-x="574" d="M523 857Q523 854 521 851T513 843L399 738Q393 732 390 731T384 729Q381 729 379 731T370 738L354 752Q346 758 345 760T344 767Q344 770 345 771T352 781L446 903Q451 910 454 912T461 914Q464 914 466 913T476 905L513 872Q523 863 523 857ZM367 857Q367 852 357 843L242 738Q232 729 227 729Q223 729 213 738L198 752Q188 761 188 767Q188 770 189 771T196 781L290 903Q298 914 305 914Q308 914 309 913T319 905L357 872Q364 867 365 864T367 857ZM535 351Q535 -17 284 -17Q40 -17 40 346Q40 456 61 526T128 641Q193 703 292 703Q342 703 387 684T461 632Q535 548 535 351ZM391 340Q391 472 366 533T286 595Q236 595 210 531T184 342Q184 91 287 91Q391 91 391 340Z"  />
<glyph unicode="&#x151;" horiz-adv-x="500" d="M486 685Q486 682 484 679T476 671L362 566Q356 560 353 559T347 557Q344 557 342 559T333 566L317 580Q309 586 308 588T307 595Q307 598 308 599T315 609L409 731Q414 738 417 740T424 742Q427 742 429 741T439 733L476 700Q486 691 486 685ZM330 685Q330 680 320 671L205 566Q195 557 190 557Q186 557 176 566L161 580Q151 589 151 595Q151 598 152 599T159 609L253 731Q261 742 268 742Q271 742 272 741T282 733L320 700Q327 695 328 692T330 685ZM468 248Q468 187 453 138T410 55T342 2T251 -17Q148 -17 91 52T33 247Q33 368 91 438Q123 476 162 493T255 511Q304 511 343 493T410 440T453 358T468 248ZM333 246Q333 335 314 372T249 410Q206 410 187 372T168 247Q168 160 187 122T250 84Q295 84 314 122T333 246Z"  />
<glyph unicode="&#x152;" horiz-adv-x="778" d="M756 675Q756 673 756 672T753 663L735 594Q731 577 713 577H517V413H687Q700 413 703 410T707 392V325Q707 311 704 308T687 304H517V109H729Q743 109 746 106T749 88V21Q749 7 746 4T729 0H404Q368 -10 343 -13T289 -17Q162 -17 101 72T40 346Q40 454 60 523T126 640Q186 703 292 703Q321 703 345 699T398 686H736Q756 686 756 675ZM385 572Q359 588 340 594T298 600Q267 600 246 586T211 541T191 462T184 344Q184 276 191 228T214 144Q239 88 302 88Q325 88 344 94T385 114V572Z"  />
<glyph unicode="&#x153;" horiz-adv-x="759" d="M728 245Q728 226 724 220T709 213H440Q442 147 468 117T550 87Q578 87 604 94T664 119Q671 122 675 122Q682 122 684 115L711 52Q713 47 713 46T714 42Q714 32 698 22T656 3T601 -11T542 -17Q428 -17 389 49Q363 14 331 -1T252 -17Q149 -17 91 54T33 252Q33 312 48 359T93 441T163 493T255 511Q301 511 331 498T393 451Q425 483 457 497T535 511Q630 511 679 444T728 245ZM596 306Q594 369 578 394T524 420Q486 420 468 395T441 306H596ZM327 246Q327 336 309 373T248 410Q204 410 186 373T167 247Q167 160 185 122T247 84Q289 84 308 122T327 246Z"  />
<glyph unicode="&#x154;" horiz-adv-x="556" d="M467 829Q467 820 452 815L275 745Q271 744 267 743T261 742Q257 742 255 745T248 756L232 788Q227 797 227 802Q227 807 240 815L403 912Q411 917 413 917T417 918Q421 918 424 915T431 904L462 843Q467 833 467 829ZM544 22Q544 14 528 10L439 -15Q432 -17 431 -17T427 -18Q421 -18 413 -4L272 281H219V21Q219 7 216 4T198 0H106Q92 0 89 3T85 24V665Q85 679 88 682T106 686H269Q325 686 358 680T417 660Q502 612 502 489Q502 420 476 375T390 298L539 37Q544 29 544 22ZM366 490Q366 543 343 563T258 584H219V387H247Q313 387 339 410T366 490Z"  />
<glyph unicode="&#x155;" horiz-adv-x="352" d="M396 657Q396 648 381 643L204 573Q200 572 196 571T190 570Q186 570 184 573T177 584L161 616Q156 625 156 630Q156 635 169 643L332 740Q340 745 342 745T346 746Q350 746 353 743T360 732L391 671Q396 661 396 657ZM365 489Q365 486 363 478L332 397Q329 388 324 388Q323 388 317 390Q295 398 277 398Q245 398 201 350V17Q201 6 198 3T184 0H91Q80 0 77 3T74 17V321Q74 342 73 359T68 391T59 423T44 460Q42 466 42 469Q42 476 52 479L133 508Q139 510 140 510T145 511Q154 511 164 490T183 433Q191 442 196 448T204 458T210 465T217 472Q256 511 308 511Q331 511 348 504T365 489Z"  />
<glyph unicode="&#x156;" horiz-adv-x="556" d="M263 -227Q255 -241 245 -241Q242 -241 240 -241T233 -239L198 -230Q183 -226 183 -217Q183 -213 186 -204L221 -67Q226 -50 243 -50H328Q349 -50 349 -60Q349 -66 343 -75L263 -227ZM544 22Q544 14 528 10L439 -15Q432 -17 431 -17T427 -18Q421 -18 413 -4L272 281H219V21Q219 7 216 4T198 0H106Q92 0 89 3T85 24V665Q85 679 88 682T106 686H269Q325 686 358 680T417 660Q502 612 502 489Q502 420 476 375T390 298L539 37Q544 29 544 22ZM366 490Q366 543 343 563T258 584H219V387H247Q313 387 339 410T366 490Z"  />
<glyph unicode="&#x157;" horiz-adv-x="352" d="M365 489Q365 486 363 478L332 397Q329 388 324 388Q323 388 317 390Q295 398 277 398Q245 398 201 350V17Q201 6 198 3T184 0H91Q80 0 77 3T74 17V321Q74 342 73 359T68 391T59 423T44 460Q42 466 42 469Q42 476 52 479L133 508Q139 510 140 510T145 511Q154 511 164 490T183 433Q191 442 196 448T204 458T210 465T217 472Q256 511 308 511Q331 511 348 504T365 489ZM120 -227Q112 -241 102 -241Q99 -241 97 -241T90 -239L55 -230Q40 -226 40 -217Q40 -213 43 -204L78 -67Q83 -50 100 -50H185Q206 -50 206 -60Q206 -66 200 -75L120 -227Z"  />
<glyph unicode="&#x158;" horiz-adv-x="556" d="M416 854Q416 850 414 847T405 839L292 750Q284 744 282 743T277 742Q275 742 273 743T263 750L151 839Q144 844 142 847T140 854Q140 857 146 868L165 899Q170 907 172 909T180 912Q182 912 193 906L278 856L364 906Q374 912 377 912Q382 912 384 910T392 899L410 868Q416 856 416 854ZM544 22Q544 14 528 10L439 -15Q432 -17 431 -17T427 -18Q421 -18 413 -4L272 281H219V21Q219 7 216 4T198 0H106Q92 0 89 3T85 24V665Q85 679 88 682T106 686H269Q325 686 358 680T417 660Q502 612 502 489Q502 420 476 375T390 298L539 37Q544 29 544 22ZM366 490Q366 543 343 563T258 584H219V387H247Q313 387 339 410T366 490Z"  />
<glyph unicode="&#x159;" horiz-adv-x="352" d="M345 682Q345 678 343 675T334 667L221 578Q213 572 211 571T206 570Q204 570 202 571T192 578L80 667Q73 672 71 675T69 682Q69 685 75 696L94 727Q99 735 101 737T109 740Q111 740 122 734L207 684L293 734Q303 740 306 740Q311 740 313 738T321 727L339 696Q345 684 345 682ZM365 489Q365 486 363 478L332 397Q329 388 324 388Q323 388 317 390Q295 398 277 398Q245 398 201 350V17Q201 6 198 3T184 0H91Q80 0 77 3T74 17V321Q74 342 73 359T68 391T59 423T44 460Q42 466 42 469Q42 476 52 479L133 508Q139 510 140 510T145 511Q154 511 164 490T183 433Q191 442 196 448T204 458T210 465T217 472Q256 511 308 511Q331 511 348 504T365 489Z"  />
<glyph unicode="&#x15A;" horiz-adv-x="482" d="M451 194Q451 147 435 109T391 44T322 1T233 -14Q203 -14 167 -8T99 7T46 26T24 46Q24 49 26 57L59 143Q62 152 68 152Q71 152 77 149Q166 100 230 100Q273 100 296 121T320 183Q320 200 315 216T299 244Q293 251 286 257T267 270T236 287T185 313Q140 335 110 356T62 399T37 448T29 507Q29 596 88 648T248 700Q278 700 311 694T373 679T420 658T439 637Q439 635 439 635T436 629L400 553Q396 546 391 546Q390 546 389 546T384 548T373 553T352 564Q302 590 252 590Q210 590 186 571T161 517Q161 480 200 454Q205 451 210 448T225 440T253 425T305 399Q383 360 417 312T451 194ZM437 829Q437 820 422 815L245 745Q241 744 237 743T231 742Q227 742 225 745T218 756L202 788Q197 797 197 802Q197 807 210 815L373 912Q381 917 383 917T387 918Q391 918 394 915T401 904L432 843Q437 833 437 829Z"  />
<glyph unicode="&#x15B;" horiz-adv-x="426" d="M382 657Q382 648 367 643L190 573Q186 572 182 571T176 570Q172 570 170 573T163 584L147 616Q142 625 142 630Q142 635 155 643L318 740Q326 745 328 745T332 746Q336 746 339 743T346 732L377 671Q382 661 382 657ZM393 145Q393 113 381 83T347 29Q302 -17 224 -17Q182 -17 138 -6T54 25Q40 32 36 35T32 44Q32 47 32 49T35 56L58 117Q62 127 68 127Q71 127 77 124Q156 81 213 81Q239 81 255 95T271 133Q271 143 268 151T257 165T234 179T194 196Q146 214 125 225T90 250Q50 288 50 348Q50 384 63 414T100 465T156 499T228 511Q252 511 278 507T328 495T366 480T381 465Q381 460 378 454L353 397Q348 388 343 388Q341 388 335 390Q277 416 234 416Q170 416 170 365Q170 345 182 334T236 307Q264 296 282 288T314 274T335 261T352 247Q393 206 393 145Z"  />
<glyph unicode="&#x15C;" horiz-adv-x="482" d="M386 800Q386 797 380 787L361 755Q356 747 354 745T346 742Q343 742 333 748L248 798L162 748Q151 742 149 742Q144 742 142 744T134 755L116 787Q110 796 110 800Q110 804 112 807T121 815L234 904Q241 909 243 910T248 912Q251 912 253 911T263 904L375 815Q382 810 384 807T386 800ZM451 194Q451 147 435 109T391 44T322 1T233 -14Q203 -14 167 -8T99 7T46 26T24 46Q24 49 26 57L59 143Q62 152 68 152Q71 152 77 149Q166 100 230 100Q273 100 296 121T320 183Q320 200 315 216T299 244Q293 251 286 257T267 270T236 287T185 313Q140 335 110 356T62 399T37 448T29 507Q29 596 88 648T248 700Q278 700 311 694T373 679T420 658T439 637Q439 635 439 635T436 629L400 553Q396 546 391 546Q390 546 389 546T384 548T373 553T352 564Q302 590 252 590Q210 590 186 571T161 517Q161 480 200 454Q205 451 210 448T225 440T253 425T305 399Q383 360 417 312T451 194Z"  />
<glyph unicode="&#x15D;" horiz-adv-x="426" d="M371 628Q371 625 365 615L346 583Q341 575 339 573T331 570Q328 570 318 576L233 626L147 576Q136 570 134 570Q129 570 127 572T119 583L101 615Q95 624 95 628Q95 632 97 635T106 643L219 732Q226 737 228 738T233 740Q236 740 238 739T248 732L360 643Q367 638 369 635T371 628ZM393 145Q393 113 381 83T347 29Q302 -17 224 -17Q182 -17 138 -6T54 25Q40 32 36 35T32 44Q32 47 32 49T35 56L58 117Q62 127 68 127Q71 127 77 124Q156 81 213 81Q239 81 255 95T271 133Q271 143 268 151T257 165T234 179T194 196Q146 214 125 225T90 250Q50 288 50 348Q50 384 63 414T100 465T156 499T228 511Q252 511 278 507T328 495T366 480T381 465Q381 460 378 454L353 397Q348 388 343 388Q341 388 335 390Q277 416 234 416Q170 416 170 365Q170 345 182 334T236 307Q264 296 282 288T314 274T335 261T352 247Q393 206 393 145Z"  />
<glyph unicode="&#x15E;" horiz-adv-x="482" d="M324 -128Q324 -168 295 -192T215 -216Q183 -216 162 -211T141 -198L142 -189L151 -147Q153 -143 156 -143Q159 -143 161 -144Q179 -150 199 -150Q229 -150 229 -127Q229 -104 190 -104Q176 -104 172 -102T168 -92V-86L176 -9Q149 -5 122 1T73 15T38 31T24 46Q24 49 26 57L59 143Q62 152 68 152Q71 152 77 149Q166 100 230 100Q273 100 296 121T320 183Q320 200 315 216T299 244Q293 251 286 257T267 270T236 287T185 313Q140 335 110 356T62 399T37 448T29 507Q29 596 88 648T248 700Q278 700 311 694T373 679T420 658T439 637Q439 635 439 635T436 629L400 553Q396 546 391 546Q390 546 389 546T384 548T373 553T352 564Q302 590 252 590Q210 590 186 571T161 517Q161 480 200 454Q205 451 210 448T225 440T253 425T305 399Q383 360 417 312T451 194Q451 150 437 114T397 50T335 7T255 -13L252 -55Q324 -63 324 -128Z"  />
<glyph unicode="&#x15F;" horiz-adv-x="426" d="M305 -128Q305 -168 276 -192T196 -216Q164 -216 143 -211T122 -198L123 -189L132 -147Q134 -143 137 -143Q140 -143 142 -144Q160 -150 180 -150Q210 -150 210 -127Q210 -104 171 -104Q157 -104 153 -102T149 -92V-86L157 -10Q130 -5 104 3T54 25Q40 32 36 35T32 44Q32 47 32 49T35 56L58 117Q62 127 68 127Q71 127 77 124Q156 81 213 81Q239 81 255 95T271 133Q271 143 268 151T257 165T234 179T194 196Q146 214 125 225T90 250Q50 288 50 348Q50 384 63 414T100 465T156 499T228 511Q252 511 278 507T328 495T366 480T381 465Q381 460 378 454L353 397Q348 388 343 388Q341 388 335 390Q277 416 234 416Q170 416 170 365Q170 345 182 334T236 307Q264 296 282 288T314 274T335 261T352 247Q393 206 393 145Q393 113 381 83T347 29Q305 -14 236 -17L233 -55Q305 -63 305 -128Z"  />
<glyph unicode="&#x160;" horiz-adv-x="482" d="M390 838Q390 832 378 824L255 740Q247 736 240 736Q232 736 226 740L100 827Q92 832 92 839Q92 842 98 853L117 884Q125 896 131 896Q135 896 146 891L241 848L336 891Q346 896 352 896Q357 896 365 884L384 853Q389 845 389 843T390 838ZM451 194Q451 147 435 109T391 44T322 1T233 -14Q203 -14 167 -8T99 7T46 26T24 46Q24 49 26 57L59 143Q62 152 68 152Q71 152 77 149Q166 100 230 100Q273 100 296 121T320 183Q320 200 315 216T299 244Q293 251 286 257T267 270T236 287T185 313Q140 335 110 356T62 399T37 448T29 507Q29 596 88 648T248 700Q278 700 311 694T373 679T420 658T439 637Q439 635 439 635T436 629L400 553Q396 546 391 546Q390 546 389 546T384 548T373 553T352 564Q302 590 252 590Q210 590 186 571T161 517Q161 480 200 454Q205 451 210 448T225 440T253 425T305 399Q383 360 417 312T451 194Z"  />
<glyph unicode="&#x161;" horiz-adv-x="426" d="M366 682Q366 678 364 675T355 667L242 578Q234 572 232 571T227 570Q225 570 223 571T213 578L101 667Q94 672 92 675T90 682Q90 685 96 696L115 727Q120 735 122 737T130 740Q132 740 143 734L228 684L314 734Q324 740 327 740Q332 740 334 738T342 727L360 696Q366 684 366 682ZM393 145Q393 113 381 83T347 29Q302 -17 224 -17Q182 -17 138 -6T54 25Q40 32 36 35T32 44Q32 47 32 49T35 56L58 117Q62 127 68 127Q71 127 77 124Q156 81 213 81Q239 81 255 95T271 133Q271 143 268 151T257 165T234 179T194 196Q146 214 125 225T90 250Q50 288 50 348Q50 384 63 414T100 465T156 499T228 511Q252 511 278 507T328 495T366 480T381 465Q381 460 378 454L353 397Q348 388 343 388Q341 388 335 390Q277 416 234 416Q170 416 170 365Q170 345 182 334T236 307Q264 296 282 288T314 274T335 261T352 247Q393 206 393 145Z"  />
<glyph unicode="&#x162;" horiz-adv-x="407" d="M437 675Q437 669 435 663L414 584Q411 573 407 570T392 567H269V21Q269 7 266 4T248 0H151Q137 0 134 3T130 21V567H4Q-10 567 -13 570T-17 587V665Q-17 679 -14 682T4 686H417Q437 686 437 675ZM188 -227Q180 -241 170 -241Q167 -241 165 -241T158 -239L123 -230Q108 -226 108 -217Q108 -213 111 -204L146 -67Q151 -50 168 -50H253Q274 -50 274 -60Q274 -66 268 -75L188 -227Z"  />
<glyph unicode="&#x163;" horiz-adv-x="370" d="M366 22Q366 14 360 10T335 0Q282 -17 234 -17Q155 -17 121 34Q108 53 104 75T99 140V401H30Q19 401 16 404T13 418V477Q13 488 16 491T30 494H99V620Q99 631 101 633T115 638L207 651H216Q226 651 226 635V494H340Q357 494 357 484Q357 478 356 475L343 416Q341 407 338 404T325 401H226V158Q226 118 233 106T263 94Q270 94 276 94T290 97T306 102T329 111Q335 113 338 113Q345 113 348 103L364 33Q366 28 366 26T366 22ZM211 -227Q203 -241 193 -241Q190 -241 188 -241T181 -239L146 -230Q131 -226 131 -217Q131 -213 134 -204L169 -67Q174 -50 191 -50H276Q297 -50 297 -60Q297 -66 291 -75L211 -227Z"  />
<glyph unicode="&#x164;" horiz-adv-x="407" d="M341 854Q341 850 339 847T330 839L217 750Q209 744 207 743T202 742Q200 742 198 743T188 750L76 839Q69 844 67 847T65 854Q65 857 71 868L90 899Q95 907 97 909T105 912Q107 912 118 906L203 856L289 906Q299 912 302 912Q307 912 309 910T317 899L335 868Q341 856 341 854ZM437 675Q437 669 435 663L414 584Q411 573 407 570T392 567H269V21Q269 7 266 4T248 0H151Q137 0 134 3T130 21V567H4Q-10 567 -13 570T-17 587V665Q-17 679 -14 682T4 686H417Q437 686 437 675Z"  />
<glyph unicode="&#x165;" horiz-adv-x="370" d="M339 552Q332 537 322 537Q316 537 309 540L289 547Q276 552 276 562Q276 569 277 573L302 712Q305 729 324 729H394Q414 729 414 720Q414 716 409 704L339 552ZM366 22Q366 14 360 10T335 0Q282 -17 234 -17Q155 -17 121 34Q108 53 104 75T99 140V401H30Q19 401 16 404T13 418V477Q13 488 16 491T30 494H99V620Q99 631 101 633T115 638L207 651H216Q226 651 226 635V494H340Q357 494 357 484Q357 478 356 475L343 416Q341 407 338 404T325 401H226V158Q226 118 233 106T263 94Q270 94 276 94T290 97T306 102T329 111Q335 113 338 113Q345 113 348 103L364 33Q366 28 366 26T366 22Z"  />
<glyph unicode="&#x166;" horiz-adv-x="407" d="M437 675Q437 669 435 663L414 584Q411 573 407 570T392 567H269V396H358Q372 396 375 393T379 375V328Q379 314 376 311T358 307H269V21Q269 7 266 4T248 0H151Q137 0 134 3T130 21V307H41Q27 307 24 310T20 328V375Q20 389 23 392T41 396H130V567H4Q-10 567 -13 570T-17 587V665Q-17 679 -14 682T4 686H417Q437 686 437 675Z"  />
<glyph unicode="&#x167;" horiz-adv-x="370" d="M366 22Q366 14 360 10T335 0Q282 -17 234 -17Q155 -17 121 34Q108 53 104 75T99 140V234H31Q22 234 20 236T17 248V295Q17 304 19 306T31 309H99V401H30Q19 401 16 404T13 418V477Q13 488 16 491T30 494H99V620Q99 631 101 633T115 638L207 651H216Q226 651 226 635V494H340Q357 494 357 484Q357 478 356 475L343 416Q341 407 338 404T325 401H226V309H299Q308 309 310 307T313 295V248Q313 234 299 234H226V158Q226 118 233 106T263 94Q270 94 276 94T290 97T306 102T329 111Q335 113 338 113Q345 113 348 103L364 33Q366 28 366 26T366 22Z"  />
<glyph unicode="&#x168;" horiz-adv-x="611" d="M548 232Q548 166 536 127T493 56Q457 18 409 1T295 -17Q156 -17 100 70Q82 99 74 136T66 232V665Q66 679 69 682T87 686H182Q196 686 199 683T203 665V232Q203 207 204 191T207 162T213 142T223 126Q249 91 305 91Q365 91 390 123T416 230V665Q416 679 419 682T437 686H527Q541 686 544 683T548 665V232ZM460 847Q460 842 455 832T439 807Q419 778 400 766T354 753Q337 753 324 758T288 778Q278 785 272 787T258 789Q238 789 222 760Q217 752 213 752Q211 752 204 755L157 779Q150 783 150 788Q150 792 156 805T172 832Q190 859 208 870T253 881Q270 881 285 877T324 858Q336 851 342 849T356 846Q366 846 373 852T391 877Q393 882 398 882Q400 882 401 882T406 879L452 856Q460 853 460 847Z"  />
<glyph unicode="&#x169;" horiz-adv-x="537" d="M423 675Q423 670 418 660T402 635Q382 606 363 594T317 581Q300 581 287 586T251 606Q241 613 235 615T221 617Q201 617 185 588Q180 580 176 580Q174 580 167 583L120 607Q113 611 113 616Q113 620 119 633T135 660Q153 687 171 698T216 709Q233 709 248 705T287 686Q299 679 305 677T319 674Q329 674 336 680T354 705Q356 710 361 710Q363 710 364 710T369 707L415 684Q423 681 423 675ZM485 15Q485 10 475 7L391 -12Q385 -14 384 -14T380 -14Q363 -14 350 41Q316 9 286 -4T212 -17Q136 -17 99 26Q88 38 82 50T72 79T67 119T65 178V471Q65 482 67 484T80 489L173 509Q175 510 177 510T181 510Q192 510 192 494V184Q192 150 194 136T201 111Q208 98 222 91T253 84Q293 84 336 120V471Q336 482 338 484T351 489L444 509L454 510Q463 510 463 494V126Q463 89 467 68T482 24Q485 19 485 15Z"  />
<glyph unicode="&#x16A;" horiz-adv-x="611" d="M427 787Q427 773 424 770T407 767H203Q189 767 186 770T182 787V832Q182 846 185 849T203 853H407Q421 853 424 850T427 832V787ZM548 232Q548 166 536 127T493 56Q457 18 409 1T295 -17Q156 -17 100 70Q82 99 74 136T66 232V665Q66 679 69 682T87 686H182Q196 686 199 683T203 665V232Q203 207 204 191T207 162T213 142T223 126Q249 91 305 91Q365 91 390 123T416 230V665Q416 679 419 682T437 686H527Q541 686 544 683T548 665V232Z"  />
<glyph unicode="&#x16B;" horiz-adv-x="537" d="M390 615Q390 601 387 598T370 595H166Q152 595 149 598T145 615V660Q145 674 148 677T166 681H370Q384 681 387 678T390 660V615ZM485 15Q485 10 475 7L391 -12Q385 -14 384 -14T380 -14Q363 -14 350 41Q316 9 286 -4T212 -17Q136 -17 99 26Q88 38 82 50T72 79T67 119T65 178V471Q65 482 67 484T80 489L173 509Q175 510 177 510T181 510Q192 510 192 494V184Q192 150 194 136T201 111Q208 98 222 91T253 84Q293 84 336 120V471Q336 482 338 484T351 489L444 509L454 510Q463 510 463 494V126Q463 89 467 68T482 24Q485 19 485 15Z"  />
<glyph unicode="&#x16C;" horiz-adv-x="611" d="M445 856Q445 842 438 821T420 786Q384 735 306 735Q215 735 180 799Q173 812 169 827T164 854Q164 868 175 869L242 877L247 878Q251 878 252 876T255 861Q264 814 305 814Q324 814 337 826T354 861Q356 872 357 875T360 878H362L367 877L434 869Q445 868 445 856ZM548 232Q548 166 536 127T493 56Q457 18 409 1T295 -17Q156 -17 100 70Q82 99 74 136T66 232V665Q66 679 69 682T87 686H182Q196 686 199 683T203 665V232Q203 207 204 191T207 162T213 142T223 126Q249 91 305 91Q365 91 390 123T416 230V665Q416 679 419 682T437 686H527Q541 686 544 683T548 665V232Z"  />
<glyph unicode="&#x16D;" horiz-adv-x="537" d="M485 15Q485 10 475 7L391 -12Q385 -14 384 -14T380 -14Q363 -14 350 41Q316 9 286 -4T212 -17Q136 -17 99 26Q88 38 82 50T72 79T67 119T65 178V471Q65 482 67 484T80 489L173 509Q175 510 177 510T181 510Q192 510 192 494V184Q192 150 194 136T201 111Q208 98 222 91T253 84Q293 84 336 120V471Q336 482 338 484T351 489L444 509L454 510Q463 510 463 494V126Q463 89 467 68T482 24Q485 19 485 15ZM408 684Q408 670 401 649T383 614Q347 563 269 563Q178 563 143 627Q136 640 132 655T127 682Q127 696 138 697L205 705L210 706Q214 706 215 704T218 689Q227 642 268 642Q287 642 300 654T317 689Q319 700 320 703T323 706H325L330 705L397 697Q408 696 408 684Z"  />
<glyph unicode="&#x16E;" horiz-adv-x="611" d="M409 841Q409 819 401 800T378 767T345 744T304 736Q283 736 264 744T231 766T208 800T200 841Q200 886 230 916T306 946Q327 946 345 938T378 915T401 882T409 841ZM346 841Q346 858 334 870T304 883Q287 883 275 871T262 840Q262 823 274 811T304 798Q321 798 333 810T346 841ZM548 232Q548 166 536 127T493 56Q457 18 409 1T295 -17Q156 -17 100 70Q82 99 74 136T66 232V665Q66 679 69 682T87 686H182Q196 686 199 683T203 665V232Q203 207 204 191T207 162T213 142T223 126Q249 91 305 91Q365 91 390 123T416 230V665Q416 679 419 682T437 686H527Q541 686 544 683T548 665V232Z"  />
<glyph unicode="&#x16F;" horiz-adv-x="537" d="M372 669Q372 647 364 628T341 595T308 572T267 564Q246 564 227 572T194 594T171 628T163 669Q163 714 193 744T269 774Q290 774 308 766T341 743T364 710T372 669ZM309 669Q309 686 297 698T267 711Q250 711 238 699T225 668Q225 651 237 639T267 626Q284 626 296 638T309 669ZM485 15Q485 10 475 7L391 -12Q385 -14 384 -14T380 -14Q363 -14 350 41Q316 9 286 -4T212 -17Q136 -17 99 26Q88 38 82 50T72 79T67 119T65 178V471Q65 482 67 484T80 489L173 509Q175 510 177 510T181 510Q192 510 192 494V184Q192 150 194 136T201 111Q208 98 222 91T253 84Q293 84 336 120V471Q336 482 338 484T351 489L444 509L454 510Q463 510 463 494V126Q463 89 467 68T482 24Q485 19 485 15Z"  />
<glyph unicode="&#x170;" horiz-adv-x="611" d="M541 857Q541 854 539 851T531 843L417 738Q411 732 408 731T402 729Q399 729 397 731T388 738L372 752Q364 758 363 760T362 767Q362 770 363 771T370 781L464 903Q469 910 472 912T479 914Q482 914 484 913T494 905L531 872Q541 863 541 857ZM385 857Q385 852 375 843L260 738Q250 729 245 729Q241 729 231 738L216 752Q206 761 206 767Q206 770 207 771T214 781L308 903Q316 914 323 914Q326 914 327 913T337 905L375 872Q382 867 383 864T385 857ZM548 232Q548 166 536 127T493 56Q457 18 409 1T295 -17Q156 -17 100 70Q82 99 74 136T66 232V665Q66 679 69 682T87 686H182Q196 686 199 683T203 665V232Q203 207 204 191T207 162T213 142T223 126Q249 91 305 91Q365 91 390 123T416 230V665Q416 679 419 682T437 686H527Q541 686 544 683T548 665V232Z"  />
<glyph unicode="&#x171;" horiz-adv-x="537" d="M504 685Q504 682 502 679T494 671L380 566Q374 560 371 559T365 557Q362 557 360 559T351 566L335 580Q327 586 326 588T325 595Q325 598 326 599T333 609L427 731Q432 738 435 740T442 742Q445 742 447 741T457 733L494 700Q504 691 504 685ZM348 685Q348 680 338 671L223 566Q213 557 208 557Q204 557 194 566L179 580Q169 589 169 595Q169 598 170 599T177 609L271 731Q279 742 286 742Q289 742 290 741T300 733L338 700Q345 695 346 692T348 685ZM485 15Q485 10 475 7L391 -12Q385 -14 384 -14T380 -14Q363 -14 350 41Q316 9 286 -4T212 -17Q136 -17 99 26Q88 38 82 50T72 79T67 119T65 178V471Q65 482 67 484T80 489L173 509Q175 510 177 510T181 510Q192 510 192 494V184Q192 150 194 136T201 111Q208 98 222 91T253 84Q293 84 336 120V471Q336 482 338 484T351 489L444 509L454 510Q463 510 463 494V126Q463 89 467 68T482 24Q485 19 485 15Z"  />
<glyph unicode="&#x172;" horiz-adv-x="611" d="M548 232Q548 166 536 127T493 56Q446 6 375 -9Q360 -27 355 -44T349 -82Q349 -106 377 -106Q397 -106 420 -94Q428 -90 431 -90Q435 -90 437 -96L451 -141Q453 -146 453 -147T453 -150V-152Q453 -157 445 -162T423 -173T394 -181T364 -184Q319 -184 292 -161T265 -100Q265 -54 305 -17H295Q156 -17 100 70Q82 99 74 136T66 232V665Q66 679 69 682T87 686H182Q196 686 199 683T203 665V232Q203 207 204 191T207 162T213 142T223 126Q249 91 305 91Q365 91 390 123T416 230V665Q416 679 419 682T437 686H527Q541 686 544 683T548 665V232Z"  />
<glyph unicode="&#x173;" horiz-adv-x="537" d="M463 126Q463 89 467 68T482 24Q485 19 485 15Q485 10 475 7L417 -6Q401 -25 395 -42T389 -82Q389 -106 417 -106Q437 -106 460 -94Q468 -90 471 -90Q475 -90 477 -96L491 -141Q493 -146 493 -147T493 -150V-152Q493 -157 485 -162T463 -173T434 -181T404 -184Q359 -184 332 -161T305 -100Q305 -71 320 -47T364 -1Q356 14 350 41Q316 9 286 -4T212 -17Q136 -17 99 26Q88 38 82 50T72 79T67 119T65 178V471Q65 482 67 484T80 489L173 509Q175 510 177 510T181 510Q192 510 192 494V184Q192 150 194 136T201 111Q208 98 222 91T253 84Q293 84 336 120V471Q336 482 338 484T351 489L444 509L454 510Q463 510 463 494V126Z"  />
<glyph unicode="&#x174;" horiz-adv-x="778" d="M767 659Q767 657 767 653T765 647L619 4Q617 -7 613 -10T597 -14H508Q495 -14 492 -11T486 4L421 345Q414 380 410 403T404 445T400 478T397 514Q395 497 394 486T392 466T389 447T384 422Q382 411 380 400T376 378Q372 370 369 344L292 4Q289 -9 286 -11T270 -14H180Q167 -14 164 -12T158 4L26 650Q24 655 24 660Q24 666 27 669T42 674L130 691Q138 692 139 692T141 692Q147 692 149 689T154 674L214 342Q217 322 219 309T224 278T228 237T235 171Q237 188 239 202T244 227Q246 239 248 261T259 317L338 665Q341 678 344 680T361 683H441Q454 683 457 681T463 665L531 350Q535 329 538 313T544 282T549 250T554 213L560 166Q564 204 566 229T571 273T577 309T584 350L642 674Q644 685 646 688T655 692Q657 692 658 692T666 690L750 672Q767 668 767 659ZM539 800Q539 797 533 787L514 755Q509 747 507 745T499 742Q496 742 486 748L401 798L315 748Q304 742 302 742Q297 742 295 744T287 755L269 787Q263 796 263 800Q263 804 265 807T274 815L387 904Q394 909 396 910T401 912Q404 912 406 911T416 904L528 815Q535 810 537 807T539 800Z"  />
<glyph unicode="&#x175;" horiz-adv-x="667" d="M480 628Q480 625 474 615L455 583Q450 575 448 573T440 570Q437 570 427 576L342 626L256 576Q245 570 243 570Q238 570 236 572T228 583L210 615Q204 624 204 628Q204 632 206 635T215 643L328 732Q335 737 337 738T342 740Q345 740 347 739T357 732L469 643Q476 638 478 635T480 628ZM658 477Q658 475 658 474T655 467L517 6Q514 -4 512 -6T498 -8H415Q404 -8 402 -6T397 8L350 261Q349 265 349 268T347 277T345 290T343 312L339 349L336 373Q333 352 331 339T328 313T324 289T318 261L259 7Q257 -4 254 -6T241 -8H159Q148 -8 146 -6T141 7L20 467Q18 474 18 475T18 478Q18 485 33 488L121 501Q122 502 124 502T129 502Q138 502 141 488L188 258Q190 249 192 237T196 207T202 164T209 101Q214 152 218 188T227 245L277 479Q279 490 281 492T295 494H385Q395 494 398 492T403 479L448 254Q450 245 452 228T458 189T463 144T468 101Q472 138 475 164T480 209T485 242T490 267L541 488Q545 502 552 502Q554 502 557 502T561 501L643 488Q658 485 658 477Z"  />
<glyph unicode="&#x176;" horiz-adv-x="482" d="M502 662Q502 657 497 648L313 281V21Q313 7 310 4T292 0H197Q183 0 180 3T176 21V282L-16 650Q-20 658 -20 659T-21 664Q-21 674 -2 677L102 694Q107 696 108 696T112 696Q117 696 119 694T127 681L207 511Q214 497 218 487T226 467T235 441T249 401Q260 438 270 465T293 518L371 682Q375 690 377 693T384 696Q388 696 391 695L396 694L485 675Q502 671 502 662ZM387 800Q387 797 381 787L362 755Q357 747 355 745T347 742Q344 742 334 748L249 798L163 748Q152 742 150 742Q145 742 143 744T135 755L117 787Q111 796 111 800Q111 804 113 807T122 815L235 904Q242 909 244 910T249 912Q252 912 254 911T264 904L376 815Q383 810 385 807T387 800Z"  />
<glyph unicode="&#x177;" horiz-adv-x="444" d="M373 628Q373 625 367 615L348 583Q343 575 341 573T333 570Q330 570 320 576L235 626L149 576Q138 570 136 570Q131 570 129 572T121 583L103 615Q97 624 97 628Q97 632 99 635T108 643L221 732Q228 737 230 738T235 740Q238 740 240 739T250 732L362 643Q369 638 371 635T373 628ZM450 480Q450 478 450 477T448 470L348 104Q343 89 340 72T331 38Q318 -15 309 -49T291 -106T275 -143T255 -170Q212 -222 134 -222Q113 -222 89 -218T45 -206T11 -191T-3 -175Q-3 -173 -3 -172T1 -164L32 -100Q35 -93 41 -93Q44 -93 49 -96Q94 -118 126 -118Q158 -118 174 -102T204 -42L216 0H174Q164 0 161 2T155 13L-2 469Q-4 474 -4 476T-5 480Q-5 489 11 490L113 501H120Q128 501 132 487L198 241Q205 215 210 194T220 152T228 111T237 68Q240 84 242 95T245 116T248 133T252 152Q254 165 256 176T261 198L271 241L327 486Q329 495 331 498T338 501Q342 501 346 500L434 490Q450 489 450 480Z"  />
<glyph unicode="&#x178;" horiz-adv-x="482" d="M417 821Q417 791 396 770T346 749Q316 749 295 770T274 821Q274 850 295 871T347 892Q376 892 396 871T417 821ZM234 820Q234 791 213 770T163 749Q133 749 113 770T92 821Q92 850 113 870T164 891Q193 891 213 870T234 820ZM502 662Q502 657 497 648L313 281V21Q313 7 310 4T292 0H197Q183 0 180 3T176 21V282L-16 650Q-20 658 -20 659T-21 664Q-21 674 -2 677L102 694Q107 696 108 696T112 696Q117 696 119 694T127 681L207 511Q214 497 218 487T226 467T235 441T249 401Q260 438 270 465T293 518L371 682Q375 690 377 693T384 696Q388 696 391 695L396 694L485 675Q502 671 502 662Z"  />
<glyph unicode="&#x179;" horiz-adv-x="500" d="M485 111Q484 110 484 108V101L472 19Q470 6 467 3T450 0H52Q38 0 35 3T31 21V101L303 572H62Q42 572 42 583Q42 585 42 586T44 595L62 669Q65 681 68 683T84 686H428Q442 686 445 683T449 665V575L184 123H464Q485 123 485 111ZM439 829Q439 820 424 815L247 745Q243 744 239 743T233 742Q229 742 227 745T220 756L204 788Q199 797 199 802Q199 807 212 815L375 912Q383 917 385 917T389 918Q393 918 396 915T403 904L434 843Q439 833 439 829Z"  />
<glyph unicode="&#x17A;" horiz-adv-x="426" d="M415 657Q415 648 400 643L223 573Q219 572 215 571T209 570Q205 570 203 573T196 584L180 616Q175 625 175 630Q175 635 188 643L351 740Q359 745 361 745T365 746Q369 746 372 743T379 732L410 671Q415 661 415 657ZM414 95Q414 91 411 84L381 13Q376 0 362 0H42Q31 0 28 3T25 17V86L258 394H63Q52 394 49 397T46 411V477Q46 488 49 491T63 494H378Q389 494 392 491T395 477V404L169 105H398Q414 105 414 95Z"  />
<glyph unicode="&#x17B;" horiz-adv-x="500" d="M485 111Q484 110 484 108V101L472 19Q470 6 467 3T450 0H52Q38 0 35 3T31 21V101L303 572H62Q42 572 42 583Q42 585 42 586T44 595L62 669Q65 681 68 683T84 686H428Q442 686 445 683T449 665V575L184 123H464Q485 123 485 111ZM327 809Q327 777 305 755T250 732Q217 732 195 755T172 810Q172 842 195 864T251 887Q266 887 280 881T304 865T321 840T327 809Z"  />
<glyph unicode="&#x17C;" horiz-adv-x="426" d="M303 637Q303 605 281 583T226 560Q193 560 171 583T148 638Q148 670 171 692T227 715Q242 715 256 709T280 693T297 668T303 637ZM414 95Q414 91 411 84L381 13Q376 0 362 0H42Q31 0 28 3T25 17V86L258 394H63Q52 394 49 397T46 411V477Q46 488 49 491T63 494H378Q389 494 392 491T395 477V404L169 105H398Q414 105 414 95Z"  />
<glyph unicode="&#x17D;" horiz-adv-x="500" d="M413 838Q413 832 401 824L278 740Q270 736 263 736Q255 736 249 740L123 827Q115 832 115 839Q115 842 121 853L140 884Q148 896 154 896Q158 896 169 891L264 848L359 891Q369 896 375 896Q380 896 388 884L407 853Q412 845 412 843T413 838ZM485 111Q484 110 484 108V101L472 19Q470 6 467 3T450 0H52Q38 0 35 3T31 21V101L303 572H62Q42 572 42 583Q42 585 42 586T44 595L62 669Q65 681 68 683T84 686H428Q442 686 445 683T449 665V575L184 123H464Q485 123 485 111Z"  />
<glyph unicode="&#x17E;" horiz-adv-x="426" d="M358 682Q358 678 356 675T347 667L234 578Q226 572 224 571T219 570Q217 570 215 571T205 578L93 667Q86 672 84 675T82 682Q82 685 88 696L107 727Q112 735 114 737T122 740Q124 740 135 734L220 684L306 734Q316 740 319 740Q324 740 326 738T334 727L352 696Q358 684 358 682ZM414 95Q414 91 411 84L381 13Q376 0 362 0H42Q31 0 28 3T25 17V86L258 394H63Q52 394 49 397T46 411V477Q46 488 49 491T63 494H378Q389 494 392 491T395 477V404L169 105H398Q414 105 414 95Z"  />
<glyph unicode="&#x192;" horiz-adv-x="537" d="M542 683L517 611Q515 606 511 606Q508 606 504 608Q484 616 473 619T450 622Q421 622 407 604T382 537L373 494H477Q497 494 497 483Q497 481 497 477T495 470L480 421Q475 405 457 405H354L274 -7Q264 -57 252 -89T221 -143Q170 -205 78 -205Q61 -205 43 -203T5 -197Q-7 -194 -7 -187Q-7 -184 -5 -180L16 -106Q19 -99 23 -99Q28 -99 31 -100Q42 -104 64 -104Q85 -104 99 -99T123 -82T141 -47T156 9L234 405H173Q153 405 153 414V416L154 428L163 476Q166 494 185 494H255L268 558Q278 608 289 635T320 679Q363 719 443 719Q461 719 479 717T511 710T534 701T543 691L542 683Z"  />
<glyph unicode="&#x1FC;" horiz-adv-x="741" d="M490 830Q490 821 475 816L298 746Q294 745 290 744T284 743Q280 743 278 746T271 757L255 789Q250 798 250 803Q250 808 263 816L426 913Q434 918 436 918T440 919Q444 919 447 916T454 905L485 844Q490 834 490 830ZM719 674Q719 672 719 670T717 663L701 594Q699 584 695 581T679 577H480V413H652Q666 413 669 410T673 392V325Q673 311 670 308T652 304H480V109H695Q709 109 712 106T716 88V21Q716 7 713 4T695 0H368Q355 0 352 3T348 21V181H180L116 16Q112 7 108 4T93 0H-2Q-22 0 -22 12Q-22 14 -22 16T-18 25L258 671Q263 682 266 684T281 686H699Q719 686 719 674ZM349 623Q344 609 338 592T324 555Q319 543 315 533T308 515L294 482L209 275H348V483Q348 518 348 554T349 623Z"  />
<glyph unicode="&#x1FD;" horiz-adv-x="722" d="M481 657Q481 648 466 643L289 573Q285 572 281 571T275 570Q271 570 269 573T262 584L246 616Q241 625 241 630Q241 635 254 643L417 740Q425 745 427 745T431 746Q435 746 438 743T445 732L476 671Q481 661 481 657ZM691 242Q691 225 687 219T672 213H407Q409 146 433 117T512 87Q527 87 539 88T564 93T592 103T627 118Q633 121 638 121Q645 121 648 112L673 52Q675 50 675 47T676 41Q676 32 659 22T617 3T561 -11T502 -17Q395 -17 339 49Q303 16 266 1T180 -14Q111 -14 72 25T33 135Q33 180 47 211T91 263T170 294T287 306V348Q287 413 226 413Q202 413 171 406T111 387Q105 384 100 384Q92 384 89 395L68 454Q66 459 66 460T66 464Q66 471 72 475T96 487Q125 498 160 504T226 511Q277 511 307 496T357 445Q408 511 499 511Q559 511 602 482T668 398Q679 372 685 329T691 242ZM559 306Q558 366 541 393T488 420Q440 420 421 375Q416 364 414 350T407 306H559ZM287 222Q249 222 230 220T197 211Q154 192 154 141Q154 112 170 94T211 75Q231 75 251 85T287 112V222Z"  />
<glyph unicode="&#x1FE;" horiz-adv-x="574" d="M427 829Q427 820 412 815L235 745Q231 744 227 743T221 742Q217 742 215 745T208 756L192 788Q187 797 187 802Q187 807 200 815L363 912Q371 917 373 917T377 918Q381 918 384 915T391 904L422 843Q427 833 427 829ZM534 342Q534 -17 285 -17Q244 -17 212 -9T151 20L110 -57Q105 -66 103 -68T97 -71Q93 -71 92 -71T82 -66L51 -50Q37 -43 37 -36Q37 -31 42 -22L96 80Q81 105 70 133T53 192T43 261T39 342Q39 394 43 436T57 513T82 576T119 630Q183 703 285 703Q320 703 349 696T408 673L439 732Q446 746 453 746Q455 746 457 746T467 741L498 725Q512 718 512 712Q512 705 507 697L468 622Q503 572 518 506T534 342ZM353 569Q326 600 285 600Q228 600 198 534T168 341Q168 306 170 275T178 198L353 569ZM405 345Q405 383 403 421T394 504L215 124Q231 104 248 95T288 86Q405 86 405 345Z"  />
<glyph unicode="&#x1FF;" horiz-adv-x="500" d="M400 657Q400 648 385 643L208 573Q204 572 200 571T194 570Q190 570 188 573T181 584L165 616Q160 625 160 630Q160 635 173 643L336 740Q344 745 346 745T350 746Q354 746 357 743T364 732L395 671Q400 661 400 657ZM468 248Q468 187 453 138T410 55T342 2T252 -17Q222 -17 198 -12T149 5L122 -43Q116 -54 111 -54Q108 -54 99 -50L73 -36Q66 -32 64 -30T62 -24Q62 -22 62 -21T67 -12L98 44Q65 82 49 132T33 248Q33 309 48 358T91 441T160 493T252 511Q282 511 305 506T351 489L376 533Q381 541 382 543T387 545Q390 545 399 540L425 526Q432 522 434 520T436 515Q436 511 432 503L402 450Q437 410 452 362T468 248ZM298 396Q286 406 276 409T249 413Q198 413 176 375T154 250Q154 219 156 195T164 139L298 396ZM347 242Q347 274 345 298T335 352L203 98Q217 88 226 85T250 81Q301 81 324 119T347 242Z"  />
<glyph unicode="&#x218;" horiz-adv-x="482" d="M451 194Q451 147 435 109T391 44T322 1T233 -14Q203 -14 167 -8T99 7T46 26T24 46Q24 49 26 57L59 143Q62 152 68 152Q71 152 77 149Q166 100 230 100Q273 100 296 121T320 183Q320 200 315 216T299 244Q293 251 286 257T267 270T236 287T185 313Q140 335 110 356T62 399T37 448T29 507Q29 596 88 648T248 700Q278 700 311 694T373 679T420 658T439 637Q439 635 439 635T436 629L400 553Q396 546 391 546Q390 546 389 546T384 548T373 553T352 564Q302 590 252 590Q210 590 186 571T161 517Q161 480 200 454Q205 451 210 448T225 440T253 425T305 399Q383 360 417 312T451 194ZM217 -227Q209 -241 199 -241Q196 -241 194 -241T187 -239L152 -230Q137 -226 137 -217Q137 -213 140 -204L175 -67Q180 -50 197 -50H282Q303 -50 303 -60Q303 -66 297 -75L217 -227Z"  />
<glyph unicode="&#x219;" horiz-adv-x="426" d="M393 145Q393 113 381 83T347 29Q302 -17 224 -17Q182 -17 138 -6T54 25Q40 32 36 35T32 44Q32 47 32 49T35 56L58 117Q62 127 68 127Q71 127 77 124Q156 81 213 81Q239 81 255 95T271 133Q271 143 268 151T257 165T234 179T194 196Q146 214 125 225T90 250Q50 288 50 348Q50 384 63 414T100 465T156 499T228 511Q252 511 278 507T328 495T366 480T381 465Q381 460 378 454L353 397Q348 388 343 388Q341 388 335 390Q277 416 234 416Q170 416 170 365Q170 345 182 334T236 307Q264 296 282 288T314 274T335 261T352 247Q393 206 393 145ZM198 -227Q190 -241 180 -241Q177 -241 175 -241T168 -239L133 -230Q118 -226 118 -217Q118 -213 121 -204L156 -67Q161 -50 178 -50H263Q284 -50 284 -60Q284 -66 278 -75L198 -227Z"  />
<glyph unicode="&#x21A;" horiz-adv-x="407" d="M437 675Q437 669 435 663L414 584Q411 573 407 570T392 567H269V21Q269 7 266 4T248 0H151Q137 0 134 3T130 21V567H4Q-10 567 -13 570T-17 587V665Q-17 679 -14 682T4 686H417Q437 686 437 675ZM188 -227Q180 -241 170 -241Q167 -241 165 -241T158 -239L123 -230Q108 -226 108 -217Q108 -213 111 -204L146 -67Q151 -50 168 -50H253Q274 -50 274 -60Q274 -66 268 -75L188 -227Z"  />
<glyph unicode="&#x21B;" horiz-adv-x="370" d="M366 22Q366 14 360 10T335 0Q282 -17 234 -17Q155 -17 121 34Q108 53 104 75T99 140V401H30Q19 401 16 404T13 418V477Q13 488 16 491T30 494H99V620Q99 631 101 633T115 638L207 651H216Q226 651 226 635V494H340Q357 494 357 484Q357 478 356 475L343 416Q341 407 338 404T325 401H226V158Q226 118 233 106T263 94Q270 94 276 94T290 97T306 102T329 111Q335 113 338 113Q345 113 348 103L364 33Q366 28 366 26T366 22ZM211 -227Q203 -241 193 -241Q190 -241 188 -241T181 -239L146 -230Q131 -226 131 -217Q131 -213 134 -204L169 -67Q174 -50 191 -50H276Q297 -50 297 -60Q297 -66 291 -75L211 -227Z"  />
<glyph unicode="&#x2C6;" horiz-adv-x="500" d="M388 628Q388 625 382 615L363 583Q358 575 356 573T348 570Q345 570 335 576L250 626L164 576Q153 570 151 570Q146 570 144 572T136 583L118 615Q112 624 112 628Q112 632 114 635T123 643L236 732Q243 737 245 738T250 740Q253 740 255 739T265 732L377 643Q384 638 386 635T388 628Z"  />
<glyph unicode="&#x2C7;" horiz-adv-x="500" d="M388 682Q388 678 386 675T377 667L264 578Q256 572 254 571T249 570Q247 570 245 571T235 578L123 667Q116 672 114 675T112 682Q112 685 118 696L137 727Q142 735 144 737T152 740Q154 740 165 734L250 684L336 734Q346 740 349 740Q354 740 356 738T364 727L382 696Q388 684 388 682Z"  />
<glyph unicode="&#x2C9;" horiz-adv-x="500" d="M127 660Q127 674 130 677T148 681H352Q366 681 369 678T372 660V615Q372 601 369 598T352 595H148Q134 595 131 598T127 615V660Z"  />
<glyph unicode="&#x2D8;" horiz-adv-x="500" d="M390 684Q390 670 383 649T365 614Q329 563 251 563Q160 563 125 627Q118 640 114 655T109 682Q109 696 120 697L187 705L192 706Q196 706 197 704T200 689Q209 642 250 642Q269 642 282 654T299 689Q301 700 302 703T305 706H307L312 705L379 697Q390 696 390 684Z"  />
<glyph unicode="&#x2D9;" horiz-adv-x="500" d="M327 637Q327 605 305 583T250 560Q217 560 195 583T172 638Q172 670 195 692T251 715Q266 715 280 709T304 693T321 668T327 637Z"  />
<glyph unicode="&#x2DA;" horiz-adv-x="500" d="M354 669Q354 647 346 628T323 595T290 572T249 564Q228 564 209 572T176 594T153 628T145 669Q145 714 175 744T251 774Q272 774 290 766T323 743T346 710T354 669ZM291 669Q291 686 279 698T249 711Q232 711 220 699T207 668Q207 651 219 639T249 626Q266 626 278 638T291 669Z"  />
<glyph unicode="&#x2DB;" horiz-adv-x="500" d="M342 -141Q344 -146 344 -147T344 -150V-152Q344 -157 336 -162T314 -173T285 -181T255 -184Q210 -184 183 -161T156 -100Q156 -69 174 -39T224 15L323 29Q240 -45 240 -82Q240 -106 268 -106Q288 -106 311 -94Q319 -90 322 -90Q326 -90 328 -96L342 -141Z"  />
<glyph unicode="&#x2DC;" horiz-adv-x="500" d="M405 675Q405 670 400 660T384 635Q364 606 345 594T299 581Q282 581 269 586T233 606Q223 613 217 615T203 617Q183 617 167 588Q162 580 158 580Q156 580 149 583L102 607Q95 611 95 616Q95 620 101 633T117 660Q135 687 153 698T198 709Q215 709 230 705T269 686Q281 679 287 677T301 674Q311 674 318 680T336 705Q338 710 343 710Q345 710 346 710T351 707L397 684Q405 681 405 675Z"  />
<glyph unicode="&#x2DD;" horiz-adv-x="500" d="M486 685Q486 682 484 679T476 671L362 566Q356 560 353 559T347 557Q344 557 342 559T333 566L317 580Q309 586 308 588T307 595Q307 598 308 599T315 609L409 731Q414 738 417 740T424 742Q427 742 429 741T439 733L476 700Q486 691 486 685ZM330 685Q330 680 320 671L205 566Q195 557 190 557Q186 557 176 566L161 580Q151 589 151 595Q151 598 152 599T159 609L253 731Q261 742 268 742Q271 742 272 741T282 733L320 700Q327 695 328 692T330 685Z"  />
<glyph unicode="&#x3A9;" horiz-adv-x="737" d="M421 0V105Q441 124 462 149T502 207T531 281T543 374Q543 422 532 463T498 534T442 581T365 598Q324 598 290 582T232 536T195 464T181 371Q181 320 192 279T222 206T261 149T304 105V0H43V105H196Q171 124 144 150T94 211T57 293T42 399Q42 467 65 524T131 623T234 688T367 712Q445 712 504 688T603 622T663 524T683 402Q683 348 670 303T635 222T585 156T526 105H682V0H421Z"  />
<glyph unicode="&#x3BC;" horiz-adv-x="537" d="M485 15Q485 10 475 7L391 -12Q385 -14 384 -14T380 -14Q363 -14 350 41Q302 -17 245 -17Q234 -17 223 -15T192 -6V-172Q192 -183 190 -185T177 -190L84 -210L74 -211Q65 -211 65 -195V471Q65 482 67 484T80 489L173 509Q175 510 177 510T181 510Q192 510 192 494V184Q192 153 194 137T201 111Q208 98 222 91T253 84Q293 84 336 120V471Q336 482 338 484T351 489L444 509L454 510Q463 510 463 494V126Q463 89 467 68T482 24Q485 19 485 15Z"  />
<glyph unicode="&#x3C0;" horiz-adv-x="696" d="M652 12Q635 2 612 -3T557 -9Q517 -9 490 3T445 37T421 87T413 148V406H294V150Q294 97 290 62T276 0H143Q154 32 159 73T164 160V406Q143 405 115 399T67 381Q59 400 50 422T32 464Q55 478 97 489T196 500H646V406H543V166Q543 130 554 108T596 85Q607 85 614 88T630 95L652 12Z"  />
<glyph unicode="&#x1E80;" horiz-adv-x="778" d="M767 659Q767 657 767 653T765 647L619 4Q617 -7 613 -10T597 -14H508Q495 -14 492 -11T486 4L421 345Q414 380 410 403T404 445T400 478T397 514Q395 497 394 486T392 466T389 447T384 422Q382 411 380 400T376 378Q372 370 369 344L292 4Q289 -9 286 -11T270 -14H180Q167 -14 164 -12T158 4L26 650Q24 655 24 660Q24 666 27 669T42 674L130 691Q138 692 139 692T141 692Q147 692 149 689T154 674L214 342Q217 322 219 309T224 278T228 237T235 171Q237 188 239 202T244 227Q246 239 248 261T259 317L338 665Q341 678 344 680T361 683H441Q454 683 457 681T463 665L531 350Q535 329 538 313T544 282T549 250T554 213L560 166Q564 204 566 229T571 273T577 309T584 350L642 674Q644 685 646 688T655 692Q657 692 658 692T666 690L750 672Q767 668 767 659ZM452 801Q452 795 447 788L432 756Q428 748 425 745T418 742Q416 742 412 743T405 745L228 815Q212 822 212 829Q212 833 217 843L248 904Q256 918 262 918Q264 918 266 918T276 912L439 815Q452 807 452 801Z"  />
<glyph unicode="&#x1E81;" horiz-adv-x="667" d="M393 629Q393 623 388 616L373 584Q369 576 366 573T359 570Q357 570 353 571T346 573L169 643Q153 650 153 657Q153 661 158 671L189 732Q197 746 203 746Q205 746 207 746T217 740L380 643Q393 635 393 629ZM658 477Q658 475 658 474T655 467L517 6Q514 -4 512 -6T498 -8H415Q404 -8 402 -6T397 8L350 261Q349 265 349 268T347 277T345 290T343 312L339 349L336 373Q333 352 331 339T328 313T324 289T318 261L259 7Q257 -4 254 -6T241 -8H159Q148 -8 146 -6T141 7L20 467Q18 474 18 475T18 478Q18 485 33 488L121 501Q122 502 124 502T129 502Q138 502 141 488L188 258Q190 249 192 237T196 207T202 164T209 101Q214 152 218 188T227 245L277 479Q279 490 281 492T295 494H385Q395 494 398 492T403 479L448 254Q450 245 452 228T458 189T463 144T468 101Q472 138 475 164T480 209T485 242T490 267L541 488Q545 502 552 502Q554 502 557 502T561 501L643 488Q658 485 658 477Z"  />
<glyph unicode="&#x1E82;" horiz-adv-x="778" d="M767 659Q767 657 767 653T765 647L619 4Q617 -7 613 -10T597 -14H508Q495 -14 492 -11T486 4L421 345Q414 380 410 403T404 445T400 478T397 514Q395 497 394 486T392 466T389 447T384 422Q382 411 380 400T376 378Q372 370 369 344L292 4Q289 -9 286 -11T270 -14H180Q167 -14 164 -12T158 4L26 650Q24 655 24 660Q24 666 27 669T42 674L130 691Q138 692 139 692T141 692Q147 692 149 689T154 674L214 342Q217 322 219 309T224 278T228 237T235 171Q237 188 239 202T244 227Q246 239 248 261T259 317L338 665Q341 678 344 680T361 683H441Q454 683 457 681T463 665L531 350Q535 329 538 313T544 282T549 250T554 213L560 166Q564 204 566 229T571 273T577 309T584 350L642 674Q644 685 646 688T655 692Q657 692 658 692T666 690L750 672Q767 668 767 659ZM590 829Q590 820 575 815L398 745Q394 744 390 743T384 742Q380 742 378 745T371 756L355 788Q350 797 350 802Q350 807 363 815L526 912Q534 917 536 917T540 918Q544 918 547 915T554 904L585 843Q590 833 590 829Z"  />
<glyph unicode="&#x1E83;" horiz-adv-x="667" d="M531 657Q531 648 516 643L339 573Q335 572 331 571T325 570Q321 570 319 573T312 584L296 616Q291 625 291 630Q291 635 304 643L467 740Q475 745 477 745T481 746Q485 746 488 743T495 732L526 671Q531 661 531 657ZM658 477Q658 475 658 474T655 467L517 6Q514 -4 512 -6T498 -8H415Q404 -8 402 -6T397 8L350 261Q349 265 349 268T347 277T345 290T343 312L339 349L336 373Q333 352 331 339T328 313T324 289T318 261L259 7Q257 -4 254 -6T241 -8H159Q148 -8 146 -6T141 7L20 467Q18 474 18 475T18 478Q18 485 33 488L121 501Q122 502 124 502T129 502Q138 502 141 488L188 258Q190 249 192 237T196 207T202 164T209 101Q214 152 218 188T227 245L277 479Q279 490 281 492T295 494H385Q395 494 398 492T403 479L448 254Q450 245 452 228T458 189T463 144T468 101Q472 138 475 164T480 209T485 242T490 267L541 488Q545 502 552 502Q554 502 557 502T561 501L643 488Q658 485 658 477Z"  />
<glyph unicode="&#x1E84;" horiz-adv-x="778" d="M767 659Q767 657 767 653T765 647L619 4Q617 -7 613 -10T597 -14H508Q495 -14 492 -11T486 4L421 345Q414 380 410 403T404 445T400 478T397 514Q395 497 394 486T392 466T389 447T384 422Q382 411 380 400T376 378Q372 370 369 344L292 4Q289 -9 286 -11T270 -14H180Q167 -14 164 -12T158 4L26 650Q24 655 24 660Q24 666 27 669T42 674L130 691Q138 692 139 692T141 692Q147 692 149 689T154 674L214 342Q217 322 219 309T224 278T228 237T235 171Q237 188 239 202T244 227Q246 239 248 261T259 317L338 665Q341 678 344 680T361 683H441Q454 683 457 681T463 665L531 350Q535 329 538 313T544 282T549 250T554 213L560 166Q564 204 566 229T571 273T577 309T584 350L642 674Q644 685 646 688T655 692Q657 692 658 692T666 690L750 672Q767 668 767 659ZM558 809Q558 780 538 760T489 740Q460 740 440 760T420 809Q420 838 440 858T490 878Q518 878 538 858T558 809ZM381 809Q381 780 361 760T312 740Q283 740 263 760T243 809Q243 838 263 858T313 878Q341 878 361 858T381 809Z"  />
<glyph unicode="&#x1E85;" horiz-adv-x="667" d="M499 637Q499 608 479 588T430 568Q401 568 381 588T361 637Q361 666 381 686T431 706Q459 706 479 686T499 637ZM322 637Q322 608 302 588T253 568Q224 568 204 588T184 637Q184 666 204 686T254 706Q282 706 302 686T322 637ZM658 477Q658 475 658 474T655 467L517 6Q514 -4 512 -6T498 -8H415Q404 -8 402 -6T397 8L350 261Q349 265 349 268T347 277T345 290T343 312L339 349L336 373Q333 352 331 339T328 313T324 289T318 261L259 7Q257 -4 254 -6T241 -8H159Q148 -8 146 -6T141 7L20 467Q18 474 18 475T18 478Q18 485 33 488L121 501Q122 502 124 502T129 502Q138 502 141 488L188 258Q190 249 192 237T196 207T202 164T209 101Q214 152 218 188T227 245L277 479Q279 490 281 492T295 494H385Q395 494 398 492T403 479L448 254Q450 245 452 228T458 189T463 144T468 101Q472 138 475 164T480 209T485 242T490 267L541 488Q545 502 552 502Q554 502 557 502T561 501L643 488Q658 485 658 477Z"  />
<glyph unicode="&#x1EF2;" horiz-adv-x="482" d="M502 662Q502 657 497 648L313 281V21Q313 7 310 4T292 0H197Q183 0 180 3T176 21V282L-16 650Q-20 658 -20 659T-21 664Q-21 674 -2 677L102 694Q107 696 108 696T112 696Q117 696 119 694T127 681L207 511Q214 497 218 487T226 467T235 441T249 401Q260 438 270 465T293 518L371 682Q375 690 377 693T384 696Q388 696 391 695L396 694L485 675Q502 671 502 662ZM300 801Q300 795 295 788L280 756Q276 748 273 745T266 742Q264 742 260 743T253 745L76 815Q60 822 60 829Q60 833 65 843L96 904Q104 918 110 918Q112 918 114 918T124 912L287 815Q300 807 300 801Z"  />
<glyph unicode="&#x1EF3;" horiz-adv-x="444" d="M286 629Q286 623 281 616L266 584Q262 576 259 573T252 570Q250 570 246 571T239 573L62 643Q46 650 46 657Q46 661 51 671L82 732Q90 746 96 746Q98 746 100 746T110 740L273 643Q286 635 286 629ZM450 480Q450 478 450 477T448 470L348 104Q343 89 340 72T331 38Q318 -15 309 -49T291 -106T275 -143T255 -170Q212 -222 134 -222Q113 -222 89 -218T45 -206T11 -191T-3 -175Q-3 -173 -3 -172T1 -164L32 -100Q35 -93 41 -93Q44 -93 49 -96Q94 -118 126 -118Q158 -118 174 -102T204 -42L216 0H174Q164 0 161 2T155 13L-2 469Q-4 474 -4 476T-5 480Q-5 489 11 490L113 501H120Q128 501 132 487L198 241Q205 215 210 194T220 152T228 111T237 68Q240 84 242 95T245 116T248 133T252 152Q254 165 256 176T261 198L271 241L327 486Q329 495 331 498T338 501Q342 501 346 500L434 490Q450 489 450 480Z"  />
<glyph unicode="&#x2013;" horiz-adv-x="500" d="M443 311Q457 311 460 308T464 291V223Q464 210 461 207T443 203H56Q42 203 39 206T35 223V291Q35 305 38 308T56 311H443Z"  />
<glyph unicode="&#x2014;" horiz-adv-x="833" d="M779 309Q793 309 796 306T800 288V226Q800 213 797 210T779 206H54Q40 206 37 209T33 226V288Q33 302 36 305T54 309H779Z"  />
<glyph unicode="&#x2018;" horiz-adv-x="296" d="M244 693Q244 688 242 680L179 476Q174 459 157 459H60Q40 459 40 470Q40 473 40 475T45 485L164 708Q172 722 178 722Q180 722 183 721T191 719L228 706Q244 701 244 693Z"  />
<glyph unicode="&#x2019;" horiz-adv-x="296" d="M256 704Q256 701 255 700T250 690L131 466Q123 452 117 452Q115 452 105 455L67 468Q57 471 54 473T51 481Q51 483 51 485T54 494L116 698Q121 715 139 715H235Q256 715 256 704Z"  />
<glyph unicode="&#x201A;" horiz-adv-x="296" d="M256 114Q256 107 251 100L132 -124Q127 -133 125 -135T118 -138Q116 -138 115 -138T106 -135L68 -122Q58 -118 55 -116T52 -109Q52 -107 52 -105T55 -96L117 108Q120 118 124 121T140 125H236Q256 125 256 114Z"  />
<glyph unicode="&#x201C;" horiz-adv-x="500" d="M448 693Q448 691 448 687T445 680L383 476Q378 459 361 459H264Q244 459 244 471Q244 475 249 485L368 708Q373 716 375 719T382 722Q384 722 387 721T395 719L432 706Q448 701 448 693ZM244 693Q244 688 242 680L179 476Q174 459 157 459H60Q40 459 40 470Q40 473 40 475T45 485L164 708Q172 722 178 722Q180 722 183 721T191 719L228 706Q244 701 244 693Z"  />
<glyph unicode="&#x201D;" horiz-adv-x="500" d="M460 704Q460 699 455 689L336 466Q328 452 322 452H320Q319 452 317 452T309 455L272 468Q262 472 259 474T256 481Q256 485 259 494L321 698Q326 715 343 715H440Q460 715 460 704ZM256 704Q256 699 251 689L132 466Q124 452 119 452Q117 452 116 452T106 455L68 468Q58 471 55 473T52 481Q52 483 52 484T55 494L117 698Q122 715 140 715H236Q256 715 256 704Z"  />
<glyph unicode="&#x201E;" horiz-adv-x="500" d="M460 114Q460 109 455 100L336 -124Q331 -133 329 -135T322 -138H320Q319 -138 317 -138T309 -135L272 -122Q262 -118 259 -116T256 -109Q256 -105 259 -96L321 108Q326 125 343 125H440Q460 125 460 114ZM256 114Q256 108 251 100L132 -124Q124 -138 119 -138Q117 -138 116 -138T106 -135L68 -122Q58 -118 55 -116T52 -109Q52 -107 52 -106T55 -96L117 108Q120 118 124 121T140 125H236Q256 125 256 114Z"  />
<glyph unicode="&#x2020;" horiz-adv-x="537" d="M214 665Q214 679 217 682T234 686H303Q317 686 320 683T324 665V477H441Q455 477 458 474T462 456V402Q462 388 459 385T441 381H324V-191Q324 -205 321 -208T303 -212H234Q220 -212 217 -209T214 -191V381H97Q83 381 80 384T76 402V456Q76 470 79 473T97 477H214V665Z"  />
<glyph unicode="&#x2021;" horiz-adv-x="537" d="M214 665Q214 679 217 682T234 686H303Q317 686 320 683T324 665V477H441Q455 477 458 474T462 456V402Q462 388 459 385T441 381H324V99H441Q455 99 458 96T462 78V24Q462 10 459 7T441 3H324V-191Q324 -205 321 -208T303 -212H234Q220 -212 217 -209T214 -191V3H97Q83 3 80 6T76 24V78Q76 92 79 95T97 99H214V381H97Q83 381 80 384T76 402V456Q76 470 79 473T97 477H214V665Z"  />
<glyph unicode="&#x2022;" horiz-adv-x="500" d="M393 348Q393 319 382 293T352 248T306 217T251 206Q221 206 195 217T150 247T119 293T107 348Q107 378 118 404T148 449T194 480T251 491Q280 491 305 480T350 450T381 404T393 348Z"  />
<glyph unicode="&#x2026;" horiz-adv-x="889" d="M836 79Q836 39 809 12T741 -16Q701 -16 674 11T646 80Q646 99 653 116T674 146T705 166T743 174Q762 174 779 167T808 146T828 116T836 79ZM539 79Q539 39 512 12T444 -16Q404 -16 377 11T349 80Q349 99 356 116T377 146T408 166T446 174Q465 174 482 167T511 146T531 116T539 79ZM243 79Q243 39 216 12T148 -16Q108 -16 81 11T53 80Q53 99 60 116T81 146T112 166T150 174Q169 174 186 167T215 146T235 116T243 79Z"  />
<glyph unicode="&#x2030;" horiz-adv-x="1185" d="M1142 166Q1142 81 1101 33T985 -15Q916 -15 876 30T836 157Q836 242 878 291T992 340Q1061 340 1101 293T1142 166ZM784 166Q784 81 743 33T627 -15Q558 -15 518 31T478 157Q478 242 520 291T635 340Q703 340 743 293T784 166ZM599 664Q599 659 596 652L315 -22Q307 -40 291 -40H240Q220 -40 220 -29Q220 -24 224 -15L506 662Q513 677 528 677H580Q599 677 599 664ZM350 488Q350 403 309 355T193 307Q124 307 84 353T44 480Q44 564 86 613T201 663Q269 663 309 616T350 488ZM1047 159Q1047 266 988 266Q962 266 948 240T933 166Q933 59 990 59Q1047 59 1047 159ZM689 159Q689 266 630 266Q604 266 590 239T575 164Q575 59 632 59Q689 59 689 159ZM255 482Q255 589 196 589Q170 589 156 563T141 488Q141 381 198 381Q255 381 255 482Z"  />
<glyph unicode="&#x2039;" horiz-adv-x="370" d="M308 48Q308 42 296 34L246 3Q238 -2 237 -3T231 -4Q228 -4 226 -2T218 8L48 230Q43 236 42 238T41 244Q41 247 42 249T48 258L218 486Q224 494 226 496T232 498Q235 498 236 497T246 491L295 460Q303 455 305 453T308 446Q308 442 301 432L178 250L302 62Q308 53 308 48Z"  />
<glyph unicode="&#x203A;" horiz-adv-x="370" d="M329 250Q329 247 328 244T323 236L153 8Q147 0 145 -2T139 -4Q136 -4 134 -4T124 2L75 33Q67 38 65 41T62 47Q62 50 63 52T69 62L192 244L69 431Q62 442 62 446Q62 450 64 452T75 460L124 491Q132 496 134 497T139 498Q142 498 144 496T153 486L323 264Q327 259 328 257T329 250Z"  />
<glyph unicode="&#x2044;" horiz-adv-x="130" d="M249 665Q249 658 246 652L-35 -22Q-43 -40 -59 -40H-110Q-130 -40 -130 -29Q-130 -26 -129 -24T-126 -15L156 662Q163 677 178 677H230Q249 677 249 665Z"  />
<glyph unicode="&#x2070;" horiz-adv-x="370" d="M345 638Q345 590 338 551T313 483T263 438T183 422Q105 422 65 474T25 629Q25 676 33 715T61 783T113 828T193 844Q236 844 265 828T312 783T337 718T345 638ZM251 621Q251 701 238 735T186 770Q153 770 137 738T120 632Q120 559 135 527T186 495Q221 495 236 523T251 621Z"  />
<glyph unicode="&#x2074;" horiz-adv-x="370" d="M25 591L188 834Q194 844 201 844Q203 844 207 843T213 841L251 826Q263 821 263 813Q263 808 260 802L112 580H200L208 670Q209 686 226 686H271Q285 686 287 684T290 669V578H321Q335 578 337 576T340 559V527Q340 516 337 513T321 510H290V438Q290 426 288 424T271 421H217Q205 421 202 423T198 438V510H44Q30 510 28 512T25 527V591Z"  />
<glyph unicode="&#x2075;" horiz-adv-x="370" d="M332 570Q332 502 285 462T157 422Q106 422 61 437Q45 443 45 451Q45 456 47 464L55 504Q56 513 65 513Q69 513 72 512Q90 506 114 502T153 497Q196 497 221 516T246 569Q246 597 230 612T186 628Q149 628 125 603Q118 596 112 596Q103 596 93 599L64 607Q56 609 54 611T51 621Q51 624 51 629T53 642L72 819Q74 830 76 832T90 834H281Q294 834 296 832T299 817V778Q299 766 297 764T281 761H151L141 686Q153 692 169 695T202 698Q260 698 296 663T332 570Z"  />
<glyph unicode="&#x2076;" horiz-adv-x="370" d="M333 574Q333 505 294 464T188 422Q44 422 44 600Q44 656 58 701T97 778T159 827T240 844Q257 844 272 841T300 832Q308 828 310 825T313 819Q313 813 310 804L297 768Q295 761 288 761Q283 761 279 763Q269 767 260 769T241 772Q207 772 183 755T144 699Q158 709 173 712T209 716Q270 716 301 675T333 574ZM244 572Q244 607 231 625T193 644Q168 644 154 625T140 570Q140 534 153 516T190 497Q215 497 229 516T244 572Z"  />
<glyph unicode="&#x2077;" horiz-adv-x="370" d="M170 435Q165 423 155 423Q153 423 148 423T138 425L99 432Q82 435 82 444Q82 451 87 461L214 754H64Q52 754 49 756T45 771V816Q45 828 48 830T64 833H298Q310 833 313 831T317 816V791L170 435Z"  />
<glyph unicode="&#x2078;" horiz-adv-x="370" d="M342 540Q342 480 299 451T182 422Q110 422 68 452T26 538Q26 570 48 598T109 643Q74 660 59 684T43 737Q43 760 54 779T84 813T129 836T185 844Q215 844 240 836T285 814T314 780T325 737Q325 680 257 645Q300 626 321 599T342 540ZM250 543Q250 570 229 585T181 609Q118 583 118 543Q118 520 133 506T184 492Q217 492 233 505T250 543ZM233 728Q233 748 220 760T184 773Q162 773 149 761T135 729Q135 711 148 699T187 676Q210 687 221 699T233 728Z"  />
<glyph unicode="&#x2079;" horiz-adv-x="370" d="M37 692Q37 729 48 757T79 804T125 834T182 844Q326 844 326 666Q326 610 312 565T273 488T211 439T130 422Q93 422 70 432Q62 436 60 439T57 445Q57 451 60 460L73 496Q75 503 82 503Q87 503 91 501Q109 494 129 494Q163 494 188 514T228 574Q214 564 198 557T161 550Q100 550 69 591T37 692ZM126 694Q126 659 139 641T177 622Q202 622 216 641T230 696Q230 732 217 750T180 769Q155 769 141 750T126 694Z"  />
<glyph unicode="&#x2080;" horiz-adv-x="370" d="M345 41Q345 -7 338 -46T313 -114T263 -159T183 -175Q105 -175 65 -123T25 32Q25 79 33 118T61 186T113 231T193 247Q236 247 265 231T312 186T337 121T345 41ZM251 24Q251 104 238 138T186 173Q153 173 137 141T120 35Q120 -38 135 -70T186 -102Q221 -102 236 -74T251 24Z"  />
<glyph unicode="&#x2081;" horiz-adv-x="370" d="M78 -118Q78 -107 81 -104T97 -100H153V132L93 102Q85 98 81 98Q77 98 75 99T68 107L52 135Q48 142 48 146Q48 148 49 150T57 157L181 236H227Q239 236 242 234T246 219V-100H287Q301 -100 303 -102T306 -118V-147Q306 -160 304 -162T287 -165H97Q85 -165 82 -162T78 -147V-118Z"  />
<glyph unicode="&#x2082;" horiz-adv-x="370" d="M324 129Q324 108 320 91T304 57T273 23T223 -15Q184 -42 170 -58T155 -87V-89H301Q313 -89 316 -92T320 -106V-147Q320 -158 317 -161T301 -165H67Q53 -165 53 -152V-147Q53 -112 58 -89T75 -46Q82 -34 90 -25T110 -5T138 18T179 47Q207 67 221 85T236 127Q236 148 224 159T188 171Q167 171 154 161T127 124Q125 119 121 115T111 111Q110 111 104 113L59 129Q51 132 51 142Q51 155 61 175T86 208Q106 225 132 236T194 247Q257 247 290 217T324 129Z"  />
<glyph unicode="&#x2083;" horiz-adv-x="370" d="M317 -50Q317 -80 304 -103T270 -143T220 -167T163 -175Q136 -175 109 -171T58 -155Q35 -145 35 -137Q35 -132 36 -130L49 -87Q52 -79 61 -79Q63 -79 65 -79T73 -81Q99 -92 118 -97T156 -103Q223 -103 223 -45Q223 10 146 10H127Q115 10 112 12T108 27V65Q108 76 111 78T127 81H147Q178 81 195 93T213 132Q213 152 200 163T164 175Q135 175 111 147Q104 139 98 139Q94 139 87 144L54 170Q48 174 48 181Q48 184 50 189T60 202Q82 224 108 235T169 247Q229 247 265 217T302 138Q302 109 288 88T250 51H249Q281 37 299 12T317 -50Z"  />
<glyph unicode="&#x2084;" horiz-adv-x="370" d="M25 -6L188 237Q194 247 201 247Q203 247 207 246T213 244L251 229Q263 224 263 216Q263 211 260 205L112 -17H200L208 73Q209 89 226 89H271Q285 89 287 87T290 72V-19H321Q335 -19 337 -21T340 -38V-70Q340 -81 337 -84T321 -87H290V-159Q290 -171 288 -173T271 -176H217Q205 -176 202 -174T198 -159V-87H44Q30 -87 28 -85T25 -70V-6Z"  />
<glyph unicode="&#x2085;" horiz-adv-x="370" d="M332 -27Q332 -95 285 -135T157 -175Q106 -175 61 -160Q45 -154 45 -146Q45 -141 47 -133L55 -93Q56 -84 65 -84Q69 -84 72 -85Q90 -91 114 -95T153 -100Q196 -100 221 -81T246 -28Q246 0 230 15T186 31Q149 31 125 6Q118 -1 112 -1Q103 -1 93 2L64 10Q56 12 54 14T51 24Q51 27 51 32T53 45L72 222Q74 233 76 235T90 237H281Q294 237 296 235T299 220V181Q299 169 297 167T281 164H151L141 89Q153 95 169 98T202 101Q260 101 296 66T332 -27Z"  />
<glyph unicode="&#x2086;" horiz-adv-x="370" d="M333 -23Q333 -92 294 -133T188 -175Q44 -175 44 3Q44 59 58 104T97 181T159 230T240 247Q257 247 272 244T300 235Q308 231 310 228T313 222Q313 216 310 207L297 171Q295 164 288 164Q283 164 279 166Q269 170 260 172T241 175Q207 175 183 158T144 102Q158 112 173 115T209 119Q270 119 301 78T333 -23ZM244 -25Q244 10 231 28T193 47Q168 47 154 28T140 -27Q140 -63 153 -81T190 -100Q215 -100 229 -81T244 -25Z"  />
<glyph unicode="&#x2087;" horiz-adv-x="370" d="M170 -162Q165 -174 155 -174Q153 -174 148 -174T138 -172L99 -165Q82 -162 82 -153Q82 -146 87 -136L214 157H64Q52 157 49 159T45 174V219Q45 231 48 233T64 236H298Q310 236 313 234T317 219V194L170 -162Z"  />
<glyph unicode="&#x2088;" horiz-adv-x="370" d="M342 -57Q342 -117 299 -146T182 -175Q110 -175 68 -145T26 -59Q26 -27 48 1T109 46Q74 63 59 87T43 140Q43 163 54 182T84 216T129 239T185 247Q215 247 240 239T285 217T314 183T325 140Q325 83 257 48Q300 29 321 2T342 -57ZM250 -54Q250 -27 229 -12T181 12Q118 -14 118 -54Q118 -77 133 -91T184 -105Q217 -105 233 -92T250 -54ZM233 131Q233 151 220 163T184 176Q162 176 149 164T135 132Q135 114 148 102T187 79Q210 90 221 102T233 131Z"  />
<glyph unicode="&#x2089;" horiz-adv-x="370" d="M37 95Q37 132 48 160T79 207T125 237T182 247Q326 247 326 69Q326 13 312 -32T273 -109T211 -158T130 -175Q93 -175 70 -165Q62 -161 60 -158T57 -152Q57 -146 60 -137L73 -101Q75 -94 82 -94Q87 -94 91 -96Q109 -103 129 -103Q163 -103 188 -83T228 -23Q214 -33 198 -40T161 -47Q100 -47 69 -6T37 95ZM126 97Q126 62 139 44T177 25Q202 25 216 44T230 99Q230 135 217 153T180 172Q155 172 141 153T126 97Z"  />
<glyph unicode="&#x20AC;" horiz-adv-x="537" d="M533 50Q533 43 529 37T512 23Q451 -17 370 -17Q308 -17 264 6T191 67T145 155T123 259H46Q28 259 28 269Q28 275 29 280L31 290Q34 304 38 307T56 311H119Q118 319 118 328T118 345V362H46Q28 362 28 372Q28 378 29 383L31 393Q34 407 38 410T56 414H121Q127 477 145 524T195 609Q227 646 270 666T363 686Q402 686 440 673T511 636Q532 621 532 612Q532 607 529 603T523 593L493 539Q491 534 488 530T480 525Q476 525 472 529T450 547Q413 577 371 577Q263 577 249 414H417Q436 414 436 403Q436 401 434 393L432 383Q430 369 426 366T407 362H247Q247 351 247 338T248 311H397Q408 311 412 310T416 301Q416 299 416 297T414 290L412 280Q410 266 406 263T387 259H252Q255 227 263 197T287 144T326 106T385 91Q407 91 427 99T476 128Q482 132 486 132Q489 132 494 123L531 58Q533 52 533 50Z"  />
<glyph unicode="&#x2113;" horiz-adv-x="513" d="M429 46Q417 36 402 25T368 5T328 -10T284 -16Q249 -16 225 -6T182 23Q160 46 150 82T139 155V224Q125 210 112 197T85 169Q76 184 67 198T48 227Q71 250 93 272T139 317V522Q139 622 180 675T292 728Q325 728 347 717T383 687T403 648T409 606Q409 533 376 472T290 350Q282 341 272 330T256 311V170Q256 116 273 96T317 75Q340 75 360 88T394 115Q403 98 412 81T429 46ZM336 590Q336 610 328 624T302 638Q256 638 256 544V410Q267 421 274 432Q303 470 319 512T336 590Z"  />
<glyph unicode="&#x2122;" horiz-adv-x="704" d="M656 307Q656 295 639 295H583Q573 295 570 298T566 310L562 508V523Q562 538 562 551T564 575L562 567L558 547Q556 536 553 524T548 506L508 391Q505 383 502 382T490 380H452Q443 380 440 382T434 392L400 501Q397 512 395 519T391 534T388 550T383 573Q384 554 384 550T385 537Q386 530 386 526T386 519L385 500L380 310Q380 301 377 298T363 295H313Q296 295 296 304V305L297 311L315 672Q316 680 318 683T332 686H393Q402 686 405 684T411 675L460 534Q465 522 468 510T474 484Q479 506 490 534L543 675Q546 683 549 684T561 686H619Q629 686 632 683T636 672L656 311V307ZM283 676Q283 674 283 674T281 668L268 622Q266 615 263 613T250 610H178V310Q178 301 175 298T161 295H103Q91 295 88 297T84 310V610H10Q-1 610 -4 613T-7 625V671Q-7 680 -4 683T10 686H266Q283 686 283 676Z"  />
<glyph unicode="&#x2126;" horiz-adv-x="737" d="M421 0V105Q441 124 462 149T502 207T531 281T543 374Q543 422 532 463T498 534T442 581T365 598Q324 598 290 582T232 536T195 464T181 371Q181 320 192 279T222 206T261 149T304 105V0H43V105H196Q171 124 144 150T94 211T57 293T42 399Q42 467 65 524T131 623T234 688T367 712Q445 712 504 688T603 622T663 524T683 402Q683 348 670 303T635 222T585 156T526 105H682V0H421Z"  />
<glyph unicode="&#x212E;" horiz-adv-x="677" d="M165 294V91Q197 59 237 43T326 26Q403 26 454 62T543 159Q552 154 561 149T579 137Q556 103 531 76T476 29T409 -1T326 -12Q260 -12 207 12T117 77T59 175T39 294Q39 358 59 413T116 510T206 576T327 600Q395 600 448 576T539 511T596 414T618 294H165ZM489 496Q457 528 415 545T326 563Q229 563 165 497V332H489V496Z"  />
<glyph unicode="&#x2153;" horiz-adv-x="871" d="M306 286Q306 273 304 271T287 268H97Q85 268 82 271T78 286V315Q78 326 81 329T97 333H153V565L93 535Q85 531 81 531Q77 531 75 532T68 540L52 568Q48 575 48 579Q48 581 49 583T57 590L181 669H227Q239 669 242 667T246 652V333H287Q301 333 303 331T306 315V286ZM619 665Q619 658 616 652L335 -22Q327 -40 311 -40H260Q240 -40 240 -29Q240 -26 241 -24T244 -15L526 662Q533 677 548 677H600Q619 677 619 665ZM817 115Q817 85 804 62T770 22T720 -2T663 -10Q636 -10 609 -6T558 10Q535 20 535 28Q535 33 536 35L549 78Q552 86 561 86Q563 86 565 86T573 84Q599 73 618 68T656 62Q723 62 723 120Q723 175 646 175H627Q615 175 612 177T608 192V230Q608 241 611 243T627 246H647Q678 246 695 258T713 297Q713 317 700 328T664 340Q635 340 611 312Q604 304 598 304Q594 304 587 309L554 335Q548 339 548 346Q548 349 550 354T560 367Q582 389 608 400T669 412Q729 412 765 382T802 303Q802 274 788 253T750 216H749Q781 202 799 177T817 115Z"  />
<glyph unicode="&#x2154;" horiz-adv-x="871" d="M324 562Q324 541 320 524T304 490T273 456T223 418Q184 391 170 375T155 346V344H301Q313 344 316 341T320 327V286Q320 275 317 272T301 268H67Q53 268 53 281V286Q53 321 58 344T75 387Q82 399 90 408T110 428T138 451T179 480Q207 500 221 518T236 560Q236 581 224 592T188 604Q167 604 154 594T127 557Q125 552 121 548T111 544Q110 544 104 546L59 562Q51 565 51 575Q51 588 61 608T86 641Q106 658 132 669T194 680Q257 680 290 650T324 562ZM619 665Q619 658 616 652L335 -22Q327 -40 311 -40H260Q240 -40 240 -29Q240 -26 241 -24T244 -15L526 662Q533 677 548 677H600Q619 677 619 665ZM817 115Q817 85 804 62T770 22T720 -2T663 -10Q636 -10 609 -6T558 10Q535 20 535 28Q535 33 536 35L549 78Q552 86 561 86Q563 86 565 86T573 84Q599 73 618 68T656 62Q723 62 723 120Q723 175 646 175H627Q615 175 612 177T608 192V230Q608 241 611 243T627 246H647Q678 246 695 258T713 297Q713 317 700 328T664 340Q635 340 611 312Q604 304 598 304Q594 304 587 309L554 335Q548 339 548 346Q548 349 550 354T560 367Q582 389 608 400T669 412Q729 412 765 382T802 303Q802 274 788 253T750 216H749Q781 202 799 177T817 115Z"  />
<glyph unicode="&#x215B;" horiz-adv-x="871" d="M306 286Q306 273 304 271T287 268H97Q85 268 82 271T78 286V315Q78 326 81 329T97 333H153V565L93 535Q85 531 81 531Q77 531 75 532T68 540L52 568Q48 575 48 579Q48 581 49 583T57 590L181 669H227Q239 669 242 667T246 652V333H287Q301 333 303 331T306 315V286ZM619 665Q619 658 616 652L335 -22Q327 -40 311 -40H260Q240 -40 240 -29Q240 -26 241 -24T244 -15L526 662Q533 677 548 677H600Q619 677 619 665ZM842 108Q842 48 799 19T682 -10Q610 -10 568 20T526 106Q526 138 548 166T609 211Q574 228 559 252T543 305Q543 328 554 347T584 381T629 404T685 412Q715 412 740 404T785 382T814 348T825 305Q825 248 757 213Q800 194 821 167T842 108ZM750 111Q750 138 729 153T681 177Q618 151 618 111Q618 88 633 74T684 60Q717 60 733 73T750 111ZM733 296Q733 316 720 328T684 341Q662 341 649 329T635 297Q635 279 648 267T687 244Q710 255 721 267T733 296Z"  />
<glyph unicode="&#x215C;" horiz-adv-x="871" d="M317 383Q317 353 304 330T270 290T220 266T163 258Q136 258 109 262T58 278Q35 288 35 296Q35 301 36 303L49 346Q52 354 61 354Q63 354 65 354T73 352Q99 341 118 336T156 330Q223 330 223 388Q223 443 146 443H127Q115 443 112 445T108 460V498Q108 509 111 511T127 514H147Q178 514 195 526T213 565Q213 585 200 596T164 608Q135 608 111 580Q104 572 98 572Q94 572 87 577L54 603Q48 607 48 614Q48 617 50 622T60 635Q82 657 108 668T169 680Q229 680 265 650T302 571Q302 542 288 521T250 484H249Q281 470 299 445T317 383ZM619 665Q619 658 616 652L335 -22Q327 -40 311 -40H260Q240 -40 240 -29Q240 -26 241 -24T244 -15L526 662Q533 677 548 677H600Q619 677 619 665ZM842 108Q842 48 799 19T682 -10Q610 -10 568 20T526 106Q526 138 548 166T609 211Q574 228 559 252T543 305Q543 328 554 347T584 381T629 404T685 412Q715 412 740 404T785 382T814 348T825 305Q825 248 757 213Q800 194 821 167T842 108ZM750 111Q750 138 729 153T681 177Q618 151 618 111Q618 88 633 74T684 60Q717 60 733 73T750 111ZM733 296Q733 316 720 328T684 341Q662 341 649 329T635 297Q635 279 648 267T687 244Q710 255 721 267T733 296Z"  />
<glyph unicode="&#x215D;" horiz-adv-x="871" d="M332 406Q332 338 285 298T157 258Q106 258 61 273Q45 279 45 287Q45 292 47 300L55 340Q56 349 65 349Q69 349 72 348Q90 342 114 338T153 333Q196 333 221 352T246 405Q246 433 230 448T186 464Q149 464 125 439Q118 432 112 432Q103 432 93 435L64 443Q56 445 54 447T51 457Q51 460 51 465T53 478L72 655Q74 666 76 668T90 670H281Q294 670 296 668T299 653V614Q299 602 297 600T281 597H151L141 522Q153 528 169 531T202 534Q260 534 296 499T332 406ZM619 665Q619 658 616 652L335 -22Q327 -40 311 -40H260Q240 -40 240 -29Q240 -26 241 -24T244 -15L526 662Q533 677 548 677H600Q619 677 619 665ZM842 108Q842 48 799 19T682 -10Q610 -10 568 20T526 106Q526 138 548 166T609 211Q574 228 559 252T543 305Q543 328 554 347T584 381T629 404T685 412Q715 412 740 404T785 382T814 348T825 305Q825 248 757 213Q800 194 821 167T842 108ZM750 111Q750 138 729 153T681 177Q618 151 618 111Q618 88 633 74T684 60Q717 60 733 73T750 111ZM733 296Q733 316 720 328T684 341Q662 341 649 329T635 297Q635 279 648 267T687 244Q710 255 721 267T733 296Z"  />
<glyph unicode="&#x215E;" horiz-adv-x="871" d="M170 271Q165 259 155 259Q153 259 148 259T138 261L99 268Q82 271 82 280Q82 287 87 297L214 590H64Q52 590 49 592T45 607V652Q45 664 48 666T64 669H298Q310 669 313 667T317 652V627L170 271ZM589 665Q589 658 586 652L305 -22Q297 -40 281 -40H230Q210 -40 210 -29Q210 -26 211 -24T214 -15L496 662Q503 677 518 677H570Q589 677 589 665ZM842 108Q842 48 799 19T682 -10Q610 -10 568 20T526 106Q526 138 548 166T609 211Q574 228 559 252T543 305Q543 328 554 347T584 381T629 404T685 412Q715 412 740 404T785 382T814 348T825 305Q825 248 757 213Q800 194 821 167T842 108ZM750 111Q750 138 729 153T681 177Q618 151 618 111Q618 88 633 74T684 60Q717 60 733 73T750 111ZM733 296Q733 316 720 328T684 341Q662 341 649 329T635 297Q635 279 648 267T687 244Q710 255 721 267T733 296Z"  />
<glyph unicode="&#x2202;" horiz-adv-x="602" d="M567 463Q567 415 561 368T542 275Q526 216 500 164T437 73T354 12T252 -11Q205 -11 167 4T102 46T59 110T44 191Q44 266 67 323T128 417T212 474T304 493Q352 493 386 474T435 430H437Q439 443 440 455T441 485Q441 556 407 595T311 635Q285 635 259 628T212 607Q204 628 198 649T184 692Q207 708 246 719T331 731Q386 731 429 713T503 660T550 576T567 463ZM422 334Q412 364 389 384T329 404Q298 404 270 387T221 341T187 271T174 185Q174 140 195 114T255 87Q286 87 313 107T361 161T398 240T422 334Z"  />
</font>
</defs>
</svg>
